%TF.GenerationSoftware,KiCad,Pcbnew,6.0.2+dfsg-1*%
%TF.CreationDate,2023-07-10T21:46:12-06:00*%
%TF.ProjectId,SpectDroneControl,53706563-7444-4726-9f6e-65436f6e7472,rev?*%
%TF.SameCoordinates,PXbc941f8PY5f519c8*%
%TF.FileFunction,Legend,Top*%
%TF.FilePolarity,Positive*%
%FSLAX46Y46*%
G04 Gerber Fmt 4.6, Leading zero omitted, Abs format (unit mm)*
G04 Created by KiCad (PCBNEW 6.0.2+dfsg-1) date 2023-07-10 21:46:12*
%MOMM*%
%LPD*%
G01*
G04 APERTURE LIST*
%ADD10C,0.150000*%
%ADD11C,0.087500*%
%ADD12C,0.100000*%
%ADD13C,0.075000*%
%ADD14C,0.187500*%
%ADD15C,0.125000*%
%ADD16C,0.120000*%
G04 APERTURE END LIST*
D10*
X-11557000Y-4699000D02*
X-11430000Y-4572000D01*
X-93345000Y-28575000D02*
X-89535000Y-28575000D01*
X-89535000Y-28575000D02*
X-89535000Y-13335000D01*
X-89535000Y-13335000D02*
X-93345000Y-13335000D01*
X-93345000Y-13335000D02*
X-93345000Y-28575000D01*
X-2159000Y11557000D02*
X-2286000Y11557000D01*
X-7620000Y18796000D02*
X-16764000Y9652000D01*
X-34290000Y3175000D02*
X-37592000Y3175000D01*
X-15748000Y-20066000D02*
X-15621000Y-20066000D01*
X-56388000Y26416000D02*
X-63373000Y26416000D01*
X-10541000Y-2286000D02*
X-10668000Y-2413000D01*
X-4699000Y11557000D02*
X-4826000Y11557000D01*
X-11684000Y-4572000D02*
X-11557000Y-4699000D01*
X-15748000Y-6985000D02*
X-15621000Y-7112000D01*
X508000Y18796000D02*
X-7620000Y18796000D01*
X-10541000Y-2413000D02*
X-10541000Y-2286000D01*
X-56388000Y3175000D02*
X-56388000Y26416000D01*
X-4826000Y11557000D02*
X-4699000Y11430000D01*
X-13589000Y-2413000D02*
X-11938000Y-762000D01*
X-2159000Y11557000D02*
X-10795000Y2921000D01*
X0Y-15180000D02*
X-2463800Y-15180000D01*
X-11938000Y-762000D02*
X-11938000Y9398000D01*
X-33909000Y6985000D02*
X-33909000Y2794000D01*
X-69723000Y-34671000D02*
X-79121000Y-34671000D01*
X-10541000Y-4953000D02*
X-10541000Y-4826000D01*
X2600000Y-30480000D02*
X-2540000Y-30480000D01*
X-15621000Y-7112000D02*
X-15621000Y-6985000D01*
X-10541000Y-4826000D02*
X-10668000Y-4953000D01*
X-15621000Y-6985000D02*
X-15748000Y-6985000D01*
X-79121000Y-3937000D02*
X-79121000Y-34671000D01*
X-9779000Y11684000D02*
X-9652000Y11557000D01*
X2600000Y-17780000D02*
X2600000Y-30480000D01*
X-69723000Y-3937000D02*
X-69723000Y-34671000D01*
X-30734000Y-3429000D02*
X-30734000Y6985000D01*
X-11176000Y5080000D02*
X-11176000Y-4318000D01*
X-16764000Y9652000D02*
X-16764000Y-22860000D01*
X-2540000Y-35560000D02*
X-20320000Y-35560000D01*
X-7366000Y11557000D02*
X-7239000Y11430000D01*
X-13462000Y-2413000D02*
X-13589000Y-2286000D01*
X-37592000Y26416000D02*
X-37592000Y3175000D01*
X-11176000Y-4318000D02*
X-10541000Y-4953000D01*
X-9652000Y11557000D02*
X-9652000Y11684000D01*
X-13589000Y-2413000D02*
X-13462000Y-2413000D01*
X508000Y-12192000D02*
X508000Y18796000D01*
X-30607000Y26416000D02*
X-37592000Y26416000D01*
X-11430000Y-4572000D02*
X-11684000Y-4572000D01*
X-15875000Y-7239000D02*
X-15621000Y-6985000D01*
X-34290000Y3175000D02*
X-34290000Y7366000D01*
X-33909000Y2794000D02*
X-37465000Y2794000D01*
X-9652000Y11684000D02*
X-9779000Y11684000D01*
X-37465000Y-3429000D02*
X-30734000Y-3429000D01*
X-13589000Y-2286000D02*
X-13589000Y-2413000D01*
X-63373000Y26416000D02*
X-63373000Y3175000D01*
X-10668000Y-2413000D02*
X-10541000Y-2413000D01*
X508000Y-12192000D02*
X-10160000Y-22860000D01*
X-56388000Y3175000D02*
X-63373000Y3175000D01*
X-69723000Y-3937000D02*
X-79121000Y-3937000D01*
X-10795000Y-2159000D02*
X-10541000Y-2413000D01*
X-10795000Y-2159000D02*
X-10795000Y2921000D01*
X-30734000Y6985000D02*
X-33909000Y6985000D01*
X-4699000Y11430000D02*
X-4699000Y11557000D01*
X-15875000Y-19812000D02*
X-15875000Y-7239000D01*
X-10160000Y-22860000D02*
X-20320000Y-33020000D01*
X-20320000Y-35560000D02*
X-20320000Y-33020000D01*
X-10668000Y-4953000D02*
X-10541000Y-4953000D01*
X-9652000Y11684000D02*
X-11938000Y9398000D01*
X-30607000Y7366000D02*
X-30607000Y26416000D01*
X-93980000Y-29210000D02*
X-88900000Y-29210000D01*
X-88900000Y-29210000D02*
X-88900000Y-12700000D01*
X-88900000Y-12700000D02*
X-93980000Y-12700000D01*
X-93980000Y-12700000D02*
X-93980000Y-29210000D01*
X-7239000Y11557000D02*
X-7366000Y11557000D01*
X-11557000Y7239000D02*
X-11557000Y-4699000D01*
X-34290000Y7366000D02*
X-30607000Y7366000D01*
X-7239000Y11557000D02*
X-11557000Y7239000D01*
X-4699000Y11557000D02*
X-11176000Y5080000D01*
X-2159000Y11430000D02*
X-2159000Y11557000D01*
X-7239000Y11430000D02*
X-7239000Y11557000D01*
X-15621000Y-20066000D02*
X-15621000Y-19939000D01*
X-15621000Y-19939000D02*
X-15748000Y-20066000D01*
X-15875000Y-19812000D02*
X-15621000Y-20066000D01*
X-2286000Y11557000D02*
X-2159000Y11430000D01*
X-16764000Y-22860000D02*
X-10160000Y-22860000D01*
X-2540000Y-30480000D02*
X-2540000Y-35560000D01*
X-37465000Y2794000D02*
X-37465000Y-3429000D01*
D11*
X-14659446Y-28224282D02*
X-14659446Y-27874282D01*
X-14542780Y-28124282D01*
X-14426113Y-27874282D01*
X-14426113Y-28224282D01*
X-14192780Y-27874282D02*
X-14126113Y-27874282D01*
X-14092780Y-27890949D01*
X-14059446Y-27924282D01*
X-14042780Y-27990949D01*
X-14042780Y-28107615D01*
X-14059446Y-28174282D01*
X-14092780Y-28207615D01*
X-14126113Y-28224282D01*
X-14192780Y-28224282D01*
X-14226113Y-28207615D01*
X-14259446Y-28174282D01*
X-14276113Y-28107615D01*
X-14276113Y-27990949D01*
X-14259446Y-27924282D01*
X-14226113Y-27890949D01*
X-14192780Y-27874282D01*
X-13909446Y-28207615D02*
X-13859446Y-28224282D01*
X-13776113Y-28224282D01*
X-13742780Y-28207615D01*
X-13726113Y-28190949D01*
X-13709446Y-28157615D01*
X-13709446Y-28124282D01*
X-13726113Y-28090949D01*
X-13742780Y-28074282D01*
X-13776113Y-28057615D01*
X-13842780Y-28040949D01*
X-13876113Y-28024282D01*
X-13892780Y-28007615D01*
X-13909446Y-27974282D01*
X-13909446Y-27940949D01*
X-13892780Y-27907615D01*
X-13876113Y-27890949D01*
X-13842780Y-27874282D01*
X-13759446Y-27874282D01*
X-13709446Y-27890949D01*
X-13559446Y-28224282D02*
X-13559446Y-27874282D01*
X-13316113Y-28115949D02*
X-13276113Y-28129282D01*
X-13262780Y-28142615D01*
X-13249446Y-28169282D01*
X-13249446Y-28209282D01*
X-13262780Y-28235949D01*
X-13276113Y-28249282D01*
X-13302780Y-28262615D01*
X-13409446Y-28262615D01*
X-13409446Y-27982615D01*
X-13316113Y-27982615D01*
X-13289446Y-27995949D01*
X-13276113Y-28009282D01*
X-13262780Y-28035949D01*
X-13262780Y-28062615D01*
X-13276113Y-28089282D01*
X-13289446Y-28102615D01*
X-13316113Y-28115949D01*
X-13409446Y-28115949D01*
D10*
X-91840239Y-27693095D02*
X-91792620Y-27550238D01*
X-91792620Y-27312142D01*
X-91840239Y-27216904D01*
X-91887858Y-27169285D01*
X-91983096Y-27121666D01*
X-92078334Y-27121666D01*
X-92173572Y-27169285D01*
X-92221191Y-27216904D01*
X-92268810Y-27312142D01*
X-92316429Y-27502619D01*
X-92364048Y-27597857D01*
X-92411667Y-27645476D01*
X-92506905Y-27693095D01*
X-92602143Y-27693095D01*
X-92697381Y-27645476D01*
X-92745000Y-27597857D01*
X-92792620Y-27502619D01*
X-92792620Y-27264523D01*
X-92745000Y-27121666D01*
X-92459286Y-26693095D02*
X-91459286Y-26693095D01*
X-92411667Y-26693095D02*
X-92459286Y-26597857D01*
X-92459286Y-26407380D01*
X-92411667Y-26312142D01*
X-92364048Y-26264523D01*
X-92268810Y-26216904D01*
X-91983096Y-26216904D01*
X-91887858Y-26264523D01*
X-91840239Y-26312142D01*
X-91792620Y-26407380D01*
X-91792620Y-26597857D01*
X-91840239Y-26693095D01*
X-91840239Y-25407380D02*
X-91792620Y-25502619D01*
X-91792620Y-25693095D01*
X-91840239Y-25788333D01*
X-91935477Y-25835952D01*
X-92316429Y-25835952D01*
X-92411667Y-25788333D01*
X-92459286Y-25693095D01*
X-92459286Y-25502619D01*
X-92411667Y-25407380D01*
X-92316429Y-25359761D01*
X-92221191Y-25359761D01*
X-92125953Y-25835952D01*
X-91840239Y-24502619D02*
X-91792620Y-24597857D01*
X-91792620Y-24788333D01*
X-91840239Y-24883571D01*
X-91887858Y-24931190D01*
X-91983096Y-24978809D01*
X-92268810Y-24978809D01*
X-92364048Y-24931190D01*
X-92411667Y-24883571D01*
X-92459286Y-24788333D01*
X-92459286Y-24597857D01*
X-92411667Y-24502619D01*
X-92459286Y-24216904D02*
X-92459286Y-23835952D01*
X-92792620Y-24074047D02*
X-91935477Y-24074047D01*
X-91840239Y-24026428D01*
X-91792620Y-23931190D01*
X-91792620Y-23835952D01*
X-91792620Y-23502619D02*
X-92792620Y-23502619D01*
X-92792620Y-23264523D01*
X-92745000Y-23121666D01*
X-92649762Y-23026428D01*
X-92554524Y-22978809D01*
X-92364048Y-22931190D01*
X-92221191Y-22931190D01*
X-92030715Y-22978809D01*
X-91935477Y-23026428D01*
X-91840239Y-23121666D01*
X-91792620Y-23264523D01*
X-91792620Y-23502619D01*
X-91792620Y-22502619D02*
X-92459286Y-22502619D01*
X-92268810Y-22502619D02*
X-92364048Y-22455000D01*
X-92411667Y-22407380D01*
X-92459286Y-22312142D01*
X-92459286Y-22216904D01*
X-91792620Y-21740714D02*
X-91840239Y-21835952D01*
X-91887858Y-21883571D01*
X-91983096Y-21931190D01*
X-92268810Y-21931190D01*
X-92364048Y-21883571D01*
X-92411667Y-21835952D01*
X-92459286Y-21740714D01*
X-92459286Y-21597857D01*
X-92411667Y-21502619D01*
X-92364048Y-21455000D01*
X-92268810Y-21407380D01*
X-91983096Y-21407380D01*
X-91887858Y-21455000D01*
X-91840239Y-21502619D01*
X-91792620Y-21597857D01*
X-91792620Y-21740714D01*
X-92459286Y-20978809D02*
X-91792620Y-20978809D01*
X-92364048Y-20978809D02*
X-92411667Y-20931190D01*
X-92459286Y-20835952D01*
X-92459286Y-20693095D01*
X-92411667Y-20597857D01*
X-92316429Y-20550238D01*
X-91792620Y-20550238D01*
X-91840239Y-19693095D02*
X-91792620Y-19788333D01*
X-91792620Y-19978809D01*
X-91840239Y-20074047D01*
X-91935477Y-20121666D01*
X-92316429Y-20121666D01*
X-92411667Y-20074047D01*
X-92459286Y-19978809D01*
X-92459286Y-19788333D01*
X-92411667Y-19693095D01*
X-92316429Y-19645476D01*
X-92221191Y-19645476D01*
X-92125953Y-20121666D01*
X-91887858Y-18645476D02*
X-91840239Y-18693095D01*
X-91792620Y-18835952D01*
X-91792620Y-18931190D01*
X-91840239Y-19074047D01*
X-91935477Y-19169285D01*
X-92030715Y-19216904D01*
X-92221191Y-19264523D01*
X-92364048Y-19264523D01*
X-92554524Y-19216904D01*
X-92649762Y-19169285D01*
X-92745000Y-19074047D01*
X-92792620Y-18931190D01*
X-92792620Y-18835952D01*
X-92745000Y-18693095D01*
X-92697381Y-18645476D01*
X-91792620Y-18074047D02*
X-91840239Y-18169285D01*
X-91887858Y-18216904D01*
X-91983096Y-18264523D01*
X-92268810Y-18264523D01*
X-92364048Y-18216904D01*
X-92411667Y-18169285D01*
X-92459286Y-18074047D01*
X-92459286Y-17931190D01*
X-92411667Y-17835952D01*
X-92364048Y-17788333D01*
X-92268810Y-17740714D01*
X-91983096Y-17740714D01*
X-91887858Y-17788333D01*
X-91840239Y-17835952D01*
X-91792620Y-17931190D01*
X-91792620Y-18074047D01*
X-92459286Y-17312142D02*
X-91792620Y-17312142D01*
X-92364048Y-17312142D02*
X-92411667Y-17264523D01*
X-92459286Y-17169285D01*
X-92459286Y-17026428D01*
X-92411667Y-16931190D01*
X-92316429Y-16883571D01*
X-91792620Y-16883571D01*
X-92459286Y-16550238D02*
X-92459286Y-16169285D01*
X-92792620Y-16407380D02*
X-91935477Y-16407380D01*
X-91840239Y-16359761D01*
X-91792620Y-16264523D01*
X-91792620Y-16169285D01*
X-91792620Y-15835952D02*
X-92459286Y-15835952D01*
X-92268810Y-15835952D02*
X-92364048Y-15788333D01*
X-92411667Y-15740714D01*
X-92459286Y-15645476D01*
X-92459286Y-15550238D01*
X-91792620Y-15074047D02*
X-91840239Y-15169285D01*
X-91887858Y-15216904D01*
X-91983096Y-15264523D01*
X-92268810Y-15264523D01*
X-92364048Y-15216904D01*
X-92411667Y-15169285D01*
X-92459286Y-15074047D01*
X-92459286Y-14931190D01*
X-92411667Y-14835952D01*
X-92364048Y-14788333D01*
X-92268810Y-14740714D01*
X-91983096Y-14740714D01*
X-91887858Y-14788333D01*
X-91840239Y-14835952D01*
X-91792620Y-14931190D01*
X-91792620Y-15074047D01*
X-91792620Y-14169285D02*
X-91840239Y-14264523D01*
X-91935477Y-14312142D01*
X-92792620Y-14312142D01*
X-90849286Y-25502619D02*
X-90182620Y-25264523D01*
X-90849286Y-25026428D01*
X-90230239Y-24264523D02*
X-90182620Y-24359761D01*
X-90182620Y-24550238D01*
X-90230239Y-24645476D01*
X-90325477Y-24693095D01*
X-90706429Y-24693095D01*
X-90801667Y-24645476D01*
X-90849286Y-24550238D01*
X-90849286Y-24359761D01*
X-90801667Y-24264523D01*
X-90706429Y-24216904D01*
X-90611191Y-24216904D01*
X-90515953Y-24693095D01*
X-90182620Y-23788333D02*
X-90849286Y-23788333D01*
X-90658810Y-23788333D02*
X-90754048Y-23740714D01*
X-90801667Y-23693095D01*
X-90849286Y-23597857D01*
X-90849286Y-23502619D01*
X-90230239Y-23216904D02*
X-90182620Y-23121666D01*
X-90182620Y-22931190D01*
X-90230239Y-22835952D01*
X-90325477Y-22788333D01*
X-90373096Y-22788333D01*
X-90468334Y-22835952D01*
X-90515953Y-22931190D01*
X-90515953Y-23074047D01*
X-90563572Y-23169285D01*
X-90658810Y-23216904D01*
X-90706429Y-23216904D01*
X-90801667Y-23169285D01*
X-90849286Y-23074047D01*
X-90849286Y-22931190D01*
X-90801667Y-22835952D01*
X-90182620Y-22359761D02*
X-90849286Y-22359761D01*
X-91182620Y-22359761D02*
X-91135000Y-22407380D01*
X-91087381Y-22359761D01*
X-91135000Y-22312142D01*
X-91182620Y-22359761D01*
X-91087381Y-22359761D01*
X-90182620Y-21740714D02*
X-90230239Y-21835952D01*
X-90277858Y-21883571D01*
X-90373096Y-21931190D01*
X-90658810Y-21931190D01*
X-90754048Y-21883571D01*
X-90801667Y-21835952D01*
X-90849286Y-21740714D01*
X-90849286Y-21597857D01*
X-90801667Y-21502619D01*
X-90754048Y-21455000D01*
X-90658810Y-21407380D01*
X-90373096Y-21407380D01*
X-90277858Y-21455000D01*
X-90230239Y-21502619D01*
X-90182620Y-21597857D01*
X-90182620Y-21740714D01*
X-90849286Y-20978809D02*
X-90182620Y-20978809D01*
X-90754048Y-20978809D02*
X-90801667Y-20931190D01*
X-90849286Y-20835952D01*
X-90849286Y-20693095D01*
X-90801667Y-20597857D01*
X-90706429Y-20550238D01*
X-90182620Y-20550238D01*
X-91182620Y-19121666D02*
X-91182620Y-19026428D01*
X-91135000Y-18931190D01*
X-91087381Y-18883571D01*
X-90992143Y-18835952D01*
X-90801667Y-18788333D01*
X-90563572Y-18788333D01*
X-90373096Y-18835952D01*
X-90277858Y-18883571D01*
X-90230239Y-18931190D01*
X-90182620Y-19026428D01*
X-90182620Y-19121666D01*
X-90230239Y-19216904D01*
X-90277858Y-19264523D01*
X-90373096Y-19312142D01*
X-90563572Y-19359761D01*
X-90801667Y-19359761D01*
X-90992143Y-19312142D01*
X-91087381Y-19264523D01*
X-91135000Y-19216904D01*
X-91182620Y-19121666D01*
X-90277858Y-18359761D02*
X-90230239Y-18312142D01*
X-90182620Y-18359761D01*
X-90230239Y-18407380D01*
X-90277858Y-18359761D01*
X-90182620Y-18359761D01*
X-90182620Y-17359761D02*
X-90182620Y-17931190D01*
X-90182620Y-17645476D02*
X-91182620Y-17645476D01*
X-91039762Y-17740714D01*
X-90944524Y-17835952D01*
X-90896905Y-17931190D01*
X-90182620Y-16502619D02*
X-90706429Y-16502619D01*
X-90801667Y-16550238D01*
X-90849286Y-16645476D01*
X-90849286Y-16835952D01*
X-90801667Y-16931190D01*
X-90230239Y-16502619D02*
X-90182620Y-16597857D01*
X-90182620Y-16835952D01*
X-90230239Y-16931190D01*
X-90325477Y-16978809D01*
X-90420715Y-16978809D01*
X-90515953Y-16931190D01*
X-90563572Y-16835952D01*
X-90563572Y-16597857D01*
X-90611191Y-16502619D01*
X-35944000Y26598667D02*
X-35991620Y26646286D01*
X-36086858Y26789143D01*
X-36134477Y26884381D01*
X-36182096Y27027239D01*
X-36229715Y27265334D01*
X-36229715Y27455810D01*
X-36182096Y27693905D01*
X-36134477Y27836762D01*
X-36086858Y27932000D01*
X-35991620Y28074858D01*
X-35944000Y28122477D01*
X-35658286Y27979620D02*
X-35039239Y27979620D01*
X-35372572Y27598667D01*
X-35229715Y27598667D01*
X-35134477Y27551048D01*
X-35086858Y27503429D01*
X-35039239Y27408191D01*
X-35039239Y27170096D01*
X-35086858Y27074858D01*
X-35134477Y27027239D01*
X-35229715Y26979620D01*
X-35515429Y26979620D01*
X-35610667Y27027239D01*
X-35658286Y27074858D01*
X-34610667Y27074858D02*
X-34563048Y27027239D01*
X-34610667Y26979620D01*
X-34658286Y27027239D01*
X-34610667Y27074858D01*
X-34610667Y26979620D01*
X-34229715Y27979620D02*
X-33610667Y27979620D01*
X-33944000Y27598667D01*
X-33801143Y27598667D01*
X-33705905Y27551048D01*
X-33658286Y27503429D01*
X-33610667Y27408191D01*
X-33610667Y27170096D01*
X-33658286Y27074858D01*
X-33705905Y27027239D01*
X-33801143Y26979620D01*
X-34086858Y26979620D01*
X-34182096Y27027239D01*
X-34229715Y27074858D01*
X-33324953Y27979620D02*
X-32991620Y26979620D01*
X-32658286Y27979620D01*
X-32324953Y27074858D02*
X-32277334Y27027239D01*
X-32324953Y26979620D01*
X-32372572Y27027239D01*
X-32324953Y27074858D01*
X-32324953Y26979620D01*
X-32324953Y27360572D02*
X-32372572Y27932000D01*
X-32324953Y27979620D01*
X-32277334Y27932000D01*
X-32324953Y27360572D01*
X-32324953Y27979620D01*
X-31944000Y26598667D02*
X-31896381Y26646286D01*
X-31801143Y26789143D01*
X-31753524Y26884381D01*
X-31705905Y27027239D01*
X-31658286Y27265334D01*
X-31658286Y27455810D01*
X-31705905Y27693905D01*
X-31753524Y27836762D01*
X-31801143Y27932000D01*
X-31896381Y28074858D01*
X-31944000Y28122477D01*
D12*
X-16831429Y-33020771D02*
X-16855239Y-33044580D01*
X-16926667Y-33068390D01*
X-16974286Y-33068390D01*
X-17045715Y-33044580D01*
X-17093334Y-32996961D01*
X-17117143Y-32949342D01*
X-17140953Y-32854104D01*
X-17140953Y-32782676D01*
X-17117143Y-32687438D01*
X-17093334Y-32639819D01*
X-17045715Y-32592200D01*
X-16974286Y-32568390D01*
X-16926667Y-32568390D01*
X-16855239Y-32592200D01*
X-16831429Y-32616009D01*
X-16640953Y-33044580D02*
X-16569524Y-33068390D01*
X-16450477Y-33068390D01*
X-16402858Y-33044580D01*
X-16379048Y-33020771D01*
X-16355239Y-32973152D01*
X-16355239Y-32925533D01*
X-16379048Y-32877914D01*
X-16402858Y-32854104D01*
X-16450477Y-32830295D01*
X-16545715Y-32806485D01*
X-16593334Y-32782676D01*
X-16617143Y-32758866D01*
X-16640953Y-32711247D01*
X-16640953Y-32663628D01*
X-16617143Y-32616009D01*
X-16593334Y-32592200D01*
X-16545715Y-32568390D01*
X-16426667Y-32568390D01*
X-16355239Y-32592200D01*
X-16188572Y-32568390D02*
X-15879048Y-32568390D01*
X-16045715Y-32758866D01*
X-15974286Y-32758866D01*
X-15926667Y-32782676D01*
X-15902858Y-32806485D01*
X-15879048Y-32854104D01*
X-15879048Y-32973152D01*
X-15902858Y-33020771D01*
X-15926667Y-33044580D01*
X-15974286Y-33068390D01*
X-16117143Y-33068390D01*
X-16164762Y-33044580D01*
X-16188572Y-33020771D01*
D10*
X-75360548Y-18438761D02*
X-75217691Y-18486380D01*
X-74979596Y-18486380D01*
X-74884358Y-18438761D01*
X-74836739Y-18391142D01*
X-74789120Y-18295904D01*
X-74789120Y-18200666D01*
X-74836739Y-18105428D01*
X-74884358Y-18057809D01*
X-74979596Y-18010190D01*
X-75170072Y-17962571D01*
X-75265310Y-17914952D01*
X-75312929Y-17867333D01*
X-75360548Y-17772095D01*
X-75360548Y-17676857D01*
X-75312929Y-17581619D01*
X-75265310Y-17534000D01*
X-75170072Y-17486380D01*
X-74931977Y-17486380D01*
X-74789120Y-17534000D01*
X-74360548Y-18486380D02*
X-74360548Y-17486380D01*
X-74122453Y-17486380D01*
X-73979596Y-17534000D01*
X-73884358Y-17629238D01*
X-73836739Y-17724476D01*
X-73789120Y-17914952D01*
X-73789120Y-18057809D01*
X-73836739Y-18248285D01*
X-73884358Y-18343523D01*
X-73979596Y-18438761D01*
X-74122453Y-18486380D01*
X-74360548Y-18486380D01*
X-73408167Y-18200666D02*
X-72931977Y-18200666D01*
X-73503405Y-18486380D02*
X-73170072Y-17486380D01*
X-72836739Y-18486380D01*
X-73836739Y-32726380D02*
X-74312929Y-32726380D01*
X-74360548Y-33202571D01*
X-74312929Y-33154952D01*
X-74217691Y-33107333D01*
X-73979596Y-33107333D01*
X-73884358Y-33154952D01*
X-73836739Y-33202571D01*
X-73789120Y-33297809D01*
X-73789120Y-33535904D01*
X-73836739Y-33631142D01*
X-73884358Y-33678761D01*
X-73979596Y-33726380D01*
X-74217691Y-33726380D01*
X-74312929Y-33678761D01*
X-74360548Y-33631142D01*
X-73503405Y-32726380D02*
X-73170072Y-33726380D01*
X-72836739Y-32726380D01*
X-64926715Y31512000D02*
X-64176715Y31762000D01*
X-64926715Y32012000D01*
X-64176715Y32262000D02*
X-64926715Y32262000D01*
X-64926715Y32440572D01*
X-64891000Y32547715D01*
X-64819572Y32619143D01*
X-64748143Y32654858D01*
X-64605286Y32690572D01*
X-64498143Y32690572D01*
X-64355286Y32654858D01*
X-64283858Y32619143D01*
X-64212429Y32547715D01*
X-64176715Y32440572D01*
X-64176715Y32262000D01*
X-64248143Y33440572D02*
X-64212429Y33404858D01*
X-64176715Y33297715D01*
X-64176715Y33226286D01*
X-64212429Y33119143D01*
X-64283858Y33047715D01*
X-64355286Y33012000D01*
X-64498143Y32976286D01*
X-64605286Y32976286D01*
X-64748143Y33012000D01*
X-64819572Y33047715D01*
X-64891000Y33119143D01*
X-64926715Y33226286D01*
X-64926715Y33297715D01*
X-64891000Y33404858D01*
X-64855286Y33440572D01*
X-78882715Y-3881333D02*
X-78930334Y-3833714D01*
X-79025572Y-3690857D01*
X-79073191Y-3595619D01*
X-79120810Y-3452761D01*
X-79168429Y-3214666D01*
X-79168429Y-3024190D01*
X-79120810Y-2786095D01*
X-79073191Y-2643238D01*
X-79025572Y-2548000D01*
X-78930334Y-2405142D01*
X-78882715Y-2357523D01*
X-78025572Y-2500380D02*
X-78501762Y-2500380D01*
X-78549381Y-2976571D01*
X-78501762Y-2928952D01*
X-78406524Y-2881333D01*
X-78168429Y-2881333D01*
X-78073191Y-2928952D01*
X-78025572Y-2976571D01*
X-77977953Y-3071809D01*
X-77977953Y-3309904D01*
X-78025572Y-3405142D01*
X-78073191Y-3452761D01*
X-78168429Y-3500380D01*
X-78406524Y-3500380D01*
X-78501762Y-3452761D01*
X-78549381Y-3405142D01*
X-77692239Y-2500380D02*
X-77358905Y-3500380D01*
X-77025572Y-2500380D01*
X-76692239Y-3405142D02*
X-76644620Y-3452761D01*
X-76692239Y-3500380D01*
X-76739858Y-3452761D01*
X-76692239Y-3405142D01*
X-76692239Y-3500380D01*
X-76692239Y-3119428D02*
X-76739858Y-2548000D01*
X-76692239Y-2500380D01*
X-76644620Y-2548000D01*
X-76692239Y-3119428D01*
X-76692239Y-2500380D01*
X-76311286Y-3881333D02*
X-76263667Y-3833714D01*
X-76168429Y-3690857D01*
X-76120810Y-3595619D01*
X-76073191Y-3452761D01*
X-76025572Y-3214666D01*
X-76025572Y-3024190D01*
X-76073191Y-2786095D01*
X-76120810Y-2643238D01*
X-76168429Y-2548000D01*
X-76263667Y-2405142D01*
X-76311286Y-2357523D01*
D12*
X-19371429Y-33020771D02*
X-19395239Y-33044580D01*
X-19466667Y-33068390D01*
X-19514286Y-33068390D01*
X-19585715Y-33044580D01*
X-19633334Y-32996961D01*
X-19657143Y-32949342D01*
X-19680953Y-32854104D01*
X-19680953Y-32782676D01*
X-19657143Y-32687438D01*
X-19633334Y-32639819D01*
X-19585715Y-32592200D01*
X-19514286Y-32568390D01*
X-19466667Y-32568390D01*
X-19395239Y-32592200D01*
X-19371429Y-32616009D01*
X-19180953Y-33044580D02*
X-19109524Y-33068390D01*
X-18990477Y-33068390D01*
X-18942858Y-33044580D01*
X-18919048Y-33020771D01*
X-18895239Y-32973152D01*
X-18895239Y-32925533D01*
X-18919048Y-32877914D01*
X-18942858Y-32854104D01*
X-18990477Y-32830295D01*
X-19085715Y-32806485D01*
X-19133334Y-32782676D01*
X-19157143Y-32758866D01*
X-19180953Y-32711247D01*
X-19180953Y-32663628D01*
X-19157143Y-32616009D01*
X-19133334Y-32592200D01*
X-19085715Y-32568390D01*
X-18966667Y-32568390D01*
X-18895239Y-32592200D01*
X-18704762Y-32616009D02*
X-18680953Y-32592200D01*
X-18633334Y-32568390D01*
X-18514286Y-32568390D01*
X-18466667Y-32592200D01*
X-18442858Y-32616009D01*
X-18419048Y-32663628D01*
X-18419048Y-32711247D01*
X-18442858Y-32782676D01*
X-18728572Y-33068390D01*
X-18419048Y-33068390D01*
D13*
X-85838810Y-25859761D02*
X-86338810Y-25859761D01*
X-86338810Y-25740714D01*
X-86315000Y-25669285D01*
X-86267381Y-25621666D01*
X-86219762Y-25597857D01*
X-86124524Y-25574047D01*
X-86053096Y-25574047D01*
X-85957858Y-25597857D01*
X-85910239Y-25621666D01*
X-85862620Y-25669285D01*
X-85838810Y-25740714D01*
X-85838810Y-25859761D01*
X-85862620Y-25169285D02*
X-85838810Y-25216904D01*
X-85838810Y-25312142D01*
X-85862620Y-25359761D01*
X-85910239Y-25383571D01*
X-86100715Y-25383571D01*
X-86148334Y-25359761D01*
X-86172143Y-25312142D01*
X-86172143Y-25216904D01*
X-86148334Y-25169285D01*
X-86100715Y-25145476D01*
X-86053096Y-25145476D01*
X-86005477Y-25383571D01*
X-85862620Y-24955000D02*
X-85838810Y-24907380D01*
X-85838810Y-24812142D01*
X-85862620Y-24764523D01*
X-85910239Y-24740714D01*
X-85934048Y-24740714D01*
X-85981667Y-24764523D01*
X-86005477Y-24812142D01*
X-86005477Y-24883571D01*
X-86029286Y-24931190D01*
X-86076905Y-24955000D01*
X-86100715Y-24955000D01*
X-86148334Y-24931190D01*
X-86172143Y-24883571D01*
X-86172143Y-24812142D01*
X-86148334Y-24764523D01*
X-85838810Y-24526428D02*
X-86172143Y-24526428D01*
X-86338810Y-24526428D02*
X-86315000Y-24550238D01*
X-86291191Y-24526428D01*
X-86315000Y-24502619D01*
X-86338810Y-24526428D01*
X-86291191Y-24526428D01*
X-86172143Y-24074047D02*
X-85767381Y-24074047D01*
X-85719762Y-24097857D01*
X-85695953Y-24121666D01*
X-85672143Y-24169285D01*
X-85672143Y-24240714D01*
X-85695953Y-24288333D01*
X-85862620Y-24074047D02*
X-85838810Y-24121666D01*
X-85838810Y-24216904D01*
X-85862620Y-24264523D01*
X-85886429Y-24288333D01*
X-85934048Y-24312142D01*
X-86076905Y-24312142D01*
X-86124524Y-24288333D01*
X-86148334Y-24264523D01*
X-86172143Y-24216904D01*
X-86172143Y-24121666D01*
X-86148334Y-24074047D01*
X-86172143Y-23835952D02*
X-85838810Y-23835952D01*
X-86124524Y-23835952D02*
X-86148334Y-23812142D01*
X-86172143Y-23764523D01*
X-86172143Y-23693095D01*
X-86148334Y-23645476D01*
X-86100715Y-23621666D01*
X-85838810Y-23621666D01*
X-85838810Y-23002619D02*
X-86338810Y-23002619D01*
X-86148334Y-23002619D02*
X-86172143Y-22955000D01*
X-86172143Y-22859761D01*
X-86148334Y-22812142D01*
X-86124524Y-22788333D01*
X-86076905Y-22764523D01*
X-85934048Y-22764523D01*
X-85886429Y-22788333D01*
X-85862620Y-22812142D01*
X-85838810Y-22859761D01*
X-85838810Y-22955000D01*
X-85862620Y-23002619D01*
X-86172143Y-22597857D02*
X-85838810Y-22478809D01*
X-86172143Y-22359761D02*
X-85838810Y-22478809D01*
X-85719762Y-22526428D01*
X-85695953Y-22550238D01*
X-85672143Y-22597857D01*
X-85886429Y-22169285D02*
X-85862620Y-22145476D01*
X-85838810Y-22169285D01*
X-85862620Y-22193095D01*
X-85886429Y-22169285D01*
X-85838810Y-22169285D01*
X-86148334Y-22169285D02*
X-86124524Y-22145476D01*
X-86100715Y-22169285D01*
X-86124524Y-22193095D01*
X-86148334Y-22169285D01*
X-86100715Y-22169285D01*
X-85862620Y-21574047D02*
X-85838810Y-21502619D01*
X-85838810Y-21383571D01*
X-85862620Y-21335952D01*
X-85886429Y-21312142D01*
X-85934048Y-21288333D01*
X-85981667Y-21288333D01*
X-86029286Y-21312142D01*
X-86053096Y-21335952D01*
X-86076905Y-21383571D01*
X-86100715Y-21478809D01*
X-86124524Y-21526428D01*
X-86148334Y-21550238D01*
X-86195953Y-21574047D01*
X-86243572Y-21574047D01*
X-86291191Y-21550238D01*
X-86315000Y-21526428D01*
X-86338810Y-21478809D01*
X-86338810Y-21359761D01*
X-86315000Y-21288333D01*
X-85838810Y-21074047D02*
X-86338810Y-21074047D01*
X-85838810Y-20859761D02*
X-86100715Y-20859761D01*
X-86148334Y-20883571D01*
X-86172143Y-20931190D01*
X-86172143Y-21002619D01*
X-86148334Y-21050238D01*
X-86124524Y-21074047D01*
X-85838810Y-20407380D02*
X-86100715Y-20407380D01*
X-86148334Y-20431190D01*
X-86172143Y-20478809D01*
X-86172143Y-20574047D01*
X-86148334Y-20621666D01*
X-85862620Y-20407380D02*
X-85838810Y-20455000D01*
X-85838810Y-20574047D01*
X-85862620Y-20621666D01*
X-85910239Y-20645476D01*
X-85957858Y-20645476D01*
X-86005477Y-20621666D01*
X-86029286Y-20574047D01*
X-86029286Y-20455000D01*
X-86053096Y-20407380D01*
X-86172143Y-20216904D02*
X-85838810Y-20121666D01*
X-86076905Y-20026428D01*
X-85838810Y-19931190D01*
X-86172143Y-19835952D01*
X-86172143Y-19645476D02*
X-85838810Y-19645476D01*
X-86124524Y-19645476D02*
X-86148334Y-19621666D01*
X-86172143Y-19574047D01*
X-86172143Y-19502619D01*
X-86148334Y-19455000D01*
X-86100715Y-19431190D01*
X-85838810Y-19431190D01*
X-85838810Y-18574047D02*
X-85838810Y-18812142D01*
X-86338810Y-18812142D01*
X-85886429Y-18407380D02*
X-85862620Y-18383571D01*
X-85838810Y-18407380D01*
X-85862620Y-18431190D01*
X-85886429Y-18407380D01*
X-85838810Y-18407380D01*
X-86338810Y-17645476D02*
X-85981667Y-17645476D01*
X-85910239Y-17669285D01*
X-85862620Y-17716904D01*
X-85838810Y-17788333D01*
X-85838810Y-17835952D01*
X-85838810Y-17193095D02*
X-86100715Y-17193095D01*
X-86148334Y-17216904D01*
X-86172143Y-17264523D01*
X-86172143Y-17359761D01*
X-86148334Y-17407380D01*
X-85862620Y-17193095D02*
X-85838810Y-17240714D01*
X-85838810Y-17359761D01*
X-85862620Y-17407380D01*
X-85910239Y-17431190D01*
X-85957858Y-17431190D01*
X-86005477Y-17407380D01*
X-86029286Y-17359761D01*
X-86029286Y-17240714D01*
X-86053096Y-17193095D01*
X-85838810Y-16955000D02*
X-86338810Y-16955000D01*
X-86029286Y-16907380D02*
X-85838810Y-16764523D01*
X-86172143Y-16764523D02*
X-85981667Y-16955000D01*
X-85862620Y-16359761D02*
X-85838810Y-16407380D01*
X-85838810Y-16502619D01*
X-85862620Y-16550238D01*
X-85910239Y-16574047D01*
X-86100715Y-16574047D01*
X-86148334Y-16550238D01*
X-86172143Y-16502619D01*
X-86172143Y-16407380D01*
X-86148334Y-16359761D01*
X-86100715Y-16335952D01*
X-86053096Y-16335952D01*
X-86005477Y-16574047D01*
X-85838810Y-16121666D02*
X-86172143Y-16121666D01*
X-86076905Y-16121666D02*
X-86124524Y-16097857D01*
X-86148334Y-16074047D01*
X-86172143Y-16026428D01*
X-86172143Y-15978809D01*
X-85057620Y-24847857D02*
X-85033810Y-24800238D01*
X-85033810Y-24705000D01*
X-85057620Y-24657380D01*
X-85105239Y-24633571D01*
X-85129048Y-24633571D01*
X-85176667Y-24657380D01*
X-85200477Y-24705000D01*
X-85200477Y-24776428D01*
X-85224286Y-24824047D01*
X-85271905Y-24847857D01*
X-85295715Y-24847857D01*
X-85343334Y-24824047D01*
X-85367143Y-24776428D01*
X-85367143Y-24705000D01*
X-85343334Y-24657380D01*
X-85033810Y-24419285D02*
X-85533810Y-24419285D01*
X-85033810Y-24205000D02*
X-85295715Y-24205000D01*
X-85343334Y-24228809D01*
X-85367143Y-24276428D01*
X-85367143Y-24347857D01*
X-85343334Y-24395476D01*
X-85319524Y-24419285D01*
X-85033810Y-23752619D02*
X-85295715Y-23752619D01*
X-85343334Y-23776428D01*
X-85367143Y-23824047D01*
X-85367143Y-23919285D01*
X-85343334Y-23966904D01*
X-85057620Y-23752619D02*
X-85033810Y-23800238D01*
X-85033810Y-23919285D01*
X-85057620Y-23966904D01*
X-85105239Y-23990714D01*
X-85152858Y-23990714D01*
X-85200477Y-23966904D01*
X-85224286Y-23919285D01*
X-85224286Y-23800238D01*
X-85248096Y-23752619D01*
X-85367143Y-23562142D02*
X-85033810Y-23466904D01*
X-85271905Y-23371666D01*
X-85033810Y-23276428D01*
X-85367143Y-23181190D01*
X-85367143Y-22990714D02*
X-85033810Y-22990714D01*
X-85319524Y-22990714D02*
X-85343334Y-22966904D01*
X-85367143Y-22919285D01*
X-85367143Y-22847857D01*
X-85343334Y-22800238D01*
X-85295715Y-22776428D01*
X-85033810Y-22776428D01*
X-85081429Y-22538333D02*
X-85057620Y-22514523D01*
X-85033810Y-22538333D01*
X-85057620Y-22562142D01*
X-85081429Y-22538333D01*
X-85033810Y-22538333D01*
X-85367143Y-22300238D02*
X-84938572Y-22300238D01*
X-84890953Y-22324047D01*
X-84867143Y-22371666D01*
X-84867143Y-22395476D01*
X-85533810Y-22300238D02*
X-85510000Y-22324047D01*
X-85486191Y-22300238D01*
X-85510000Y-22276428D01*
X-85533810Y-22300238D01*
X-85486191Y-22300238D01*
X-85033810Y-21847857D02*
X-85295715Y-21847857D01*
X-85343334Y-21871666D01*
X-85367143Y-21919285D01*
X-85367143Y-22014523D01*
X-85343334Y-22062142D01*
X-85057620Y-21847857D02*
X-85033810Y-21895476D01*
X-85033810Y-22014523D01*
X-85057620Y-22062142D01*
X-85105239Y-22085952D01*
X-85152858Y-22085952D01*
X-85200477Y-22062142D01*
X-85224286Y-22014523D01*
X-85224286Y-21895476D01*
X-85248096Y-21847857D01*
X-85033810Y-21609761D02*
X-85533810Y-21609761D01*
X-85224286Y-21562142D02*
X-85033810Y-21419285D01*
X-85367143Y-21419285D02*
X-85176667Y-21609761D01*
X-85057620Y-21014523D02*
X-85033810Y-21062142D01*
X-85033810Y-21157380D01*
X-85057620Y-21205000D01*
X-85105239Y-21228809D01*
X-85295715Y-21228809D01*
X-85343334Y-21205000D01*
X-85367143Y-21157380D01*
X-85367143Y-21062142D01*
X-85343334Y-21014523D01*
X-85295715Y-20990714D01*
X-85248096Y-20990714D01*
X-85200477Y-21228809D01*
X-85033810Y-20776428D02*
X-85367143Y-20776428D01*
X-85271905Y-20776428D02*
X-85319524Y-20752619D01*
X-85343334Y-20728809D01*
X-85367143Y-20681190D01*
X-85367143Y-20633571D01*
X-85271905Y-20157380D02*
X-85295715Y-20181190D01*
X-85319524Y-20228809D01*
X-85319524Y-20276428D01*
X-85295715Y-20324047D01*
X-85271905Y-20347857D01*
X-85224286Y-20371666D01*
X-85176667Y-20371666D01*
X-85129048Y-20347857D01*
X-85105239Y-20324047D01*
X-85081429Y-20276428D01*
X-85081429Y-20228809D01*
X-85105239Y-20181190D01*
X-85129048Y-20157380D01*
X-85319524Y-20157380D02*
X-85129048Y-20157380D01*
X-85105239Y-20133571D01*
X-85105239Y-20109761D01*
X-85129048Y-20062142D01*
X-85176667Y-20038333D01*
X-85295715Y-20038333D01*
X-85367143Y-20085952D01*
X-85414762Y-20157380D01*
X-85438572Y-20252619D01*
X-85414762Y-20347857D01*
X-85367143Y-20419285D01*
X-85295715Y-20466904D01*
X-85200477Y-20490714D01*
X-85105239Y-20466904D01*
X-85033810Y-20419285D01*
X-84986191Y-20347857D01*
X-84962381Y-20252619D01*
X-84986191Y-20157380D01*
X-85033810Y-20085952D01*
X-85367143Y-19824047D02*
X-85033810Y-19824047D01*
X-85319524Y-19824047D02*
X-85343334Y-19800238D01*
X-85367143Y-19752619D01*
X-85367143Y-19681190D01*
X-85343334Y-19633571D01*
X-85295715Y-19609761D01*
X-85033810Y-19609761D01*
X-85033810Y-19371666D02*
X-85367143Y-19371666D01*
X-85271905Y-19371666D02*
X-85319524Y-19347857D01*
X-85343334Y-19324047D01*
X-85367143Y-19276428D01*
X-85367143Y-19228809D01*
X-85057620Y-18871666D02*
X-85033810Y-18919285D01*
X-85033810Y-19014523D01*
X-85057620Y-19062142D01*
X-85105239Y-19085952D01*
X-85295715Y-19085952D01*
X-85343334Y-19062142D01*
X-85367143Y-19014523D01*
X-85367143Y-18919285D01*
X-85343334Y-18871666D01*
X-85295715Y-18847857D01*
X-85248096Y-18847857D01*
X-85200477Y-19085952D01*
X-85033810Y-18562142D02*
X-85057620Y-18609761D01*
X-85105239Y-18633571D01*
X-85533810Y-18633571D01*
X-85081429Y-18371666D02*
X-85057620Y-18347857D01*
X-85033810Y-18371666D01*
X-85057620Y-18395476D01*
X-85081429Y-18371666D01*
X-85033810Y-18371666D01*
X-85367143Y-17919285D02*
X-84962381Y-17919285D01*
X-84914762Y-17943095D01*
X-84890953Y-17966904D01*
X-84867143Y-18014523D01*
X-84867143Y-18085952D01*
X-84890953Y-18133571D01*
X-85057620Y-17919285D02*
X-85033810Y-17966904D01*
X-85033810Y-18062142D01*
X-85057620Y-18109761D01*
X-85081429Y-18133571D01*
X-85129048Y-18157380D01*
X-85271905Y-18157380D01*
X-85319524Y-18133571D01*
X-85343334Y-18109761D01*
X-85367143Y-18062142D01*
X-85367143Y-17966904D01*
X-85343334Y-17919285D01*
X-85033810Y-17609761D02*
X-85057620Y-17657380D01*
X-85081429Y-17681190D01*
X-85129048Y-17705000D01*
X-85271905Y-17705000D01*
X-85319524Y-17681190D01*
X-85343334Y-17657380D01*
X-85367143Y-17609761D01*
X-85367143Y-17538333D01*
X-85343334Y-17490714D01*
X-85319524Y-17466904D01*
X-85271905Y-17443095D01*
X-85129048Y-17443095D01*
X-85081429Y-17466904D01*
X-85057620Y-17490714D01*
X-85033810Y-17538333D01*
X-85033810Y-17609761D01*
X-85367143Y-17276428D02*
X-85033810Y-17157380D01*
X-85367143Y-17038333D01*
X-84228810Y-28145476D02*
X-84728810Y-28145476D01*
X-84228810Y-27859761D01*
X-84728810Y-27859761D01*
X-84228810Y-27407380D02*
X-84490715Y-27407380D01*
X-84538334Y-27431190D01*
X-84562143Y-27478809D01*
X-84562143Y-27574047D01*
X-84538334Y-27621666D01*
X-84252620Y-27407380D02*
X-84228810Y-27455000D01*
X-84228810Y-27574047D01*
X-84252620Y-27621666D01*
X-84300239Y-27645476D01*
X-84347858Y-27645476D01*
X-84395477Y-27621666D01*
X-84419286Y-27574047D01*
X-84419286Y-27455000D01*
X-84443096Y-27407380D01*
X-84562143Y-27240714D02*
X-84562143Y-27050238D01*
X-84728810Y-27169285D02*
X-84300239Y-27169285D01*
X-84252620Y-27145476D01*
X-84228810Y-27097857D01*
X-84228810Y-27050238D01*
X-84228810Y-26883571D02*
X-84562143Y-26883571D01*
X-84728810Y-26883571D02*
X-84705000Y-26907380D01*
X-84681191Y-26883571D01*
X-84705000Y-26859761D01*
X-84728810Y-26883571D01*
X-84681191Y-26883571D01*
X-84228810Y-26574047D02*
X-84252620Y-26621666D01*
X-84276429Y-26645476D01*
X-84324048Y-26669285D01*
X-84466905Y-26669285D01*
X-84514524Y-26645476D01*
X-84538334Y-26621666D01*
X-84562143Y-26574047D01*
X-84562143Y-26502619D01*
X-84538334Y-26455000D01*
X-84514524Y-26431190D01*
X-84466905Y-26407380D01*
X-84324048Y-26407380D01*
X-84276429Y-26431190D01*
X-84252620Y-26455000D01*
X-84228810Y-26502619D01*
X-84228810Y-26574047D01*
X-84562143Y-26193095D02*
X-84228810Y-26193095D01*
X-84514524Y-26193095D02*
X-84538334Y-26169285D01*
X-84562143Y-26121666D01*
X-84562143Y-26050238D01*
X-84538334Y-26002619D01*
X-84490715Y-25978809D01*
X-84228810Y-25978809D01*
X-84228810Y-25526428D02*
X-84490715Y-25526428D01*
X-84538334Y-25550238D01*
X-84562143Y-25597857D01*
X-84562143Y-25693095D01*
X-84538334Y-25740714D01*
X-84252620Y-25526428D02*
X-84228810Y-25574047D01*
X-84228810Y-25693095D01*
X-84252620Y-25740714D01*
X-84300239Y-25764523D01*
X-84347858Y-25764523D01*
X-84395477Y-25740714D01*
X-84419286Y-25693095D01*
X-84419286Y-25574047D01*
X-84443096Y-25526428D01*
X-84228810Y-25216904D02*
X-84252620Y-25264523D01*
X-84300239Y-25288333D01*
X-84728810Y-25288333D01*
X-84228810Y-24359761D02*
X-84466905Y-24526428D01*
X-84228810Y-24645476D02*
X-84728810Y-24645476D01*
X-84728810Y-24455000D01*
X-84705000Y-24407380D01*
X-84681191Y-24383571D01*
X-84633572Y-24359761D01*
X-84562143Y-24359761D01*
X-84514524Y-24383571D01*
X-84490715Y-24407380D01*
X-84466905Y-24455000D01*
X-84466905Y-24645476D01*
X-84252620Y-23955000D02*
X-84228810Y-24002619D01*
X-84228810Y-24097857D01*
X-84252620Y-24145476D01*
X-84300239Y-24169285D01*
X-84490715Y-24169285D01*
X-84538334Y-24145476D01*
X-84562143Y-24097857D01*
X-84562143Y-24002619D01*
X-84538334Y-23955000D01*
X-84490715Y-23931190D01*
X-84443096Y-23931190D01*
X-84395477Y-24169285D01*
X-84562143Y-23716904D02*
X-84228810Y-23716904D01*
X-84514524Y-23716904D02*
X-84538334Y-23693095D01*
X-84562143Y-23645476D01*
X-84562143Y-23574047D01*
X-84538334Y-23526428D01*
X-84490715Y-23502619D01*
X-84228810Y-23502619D01*
X-84252620Y-23074047D02*
X-84228810Y-23121666D01*
X-84228810Y-23216904D01*
X-84252620Y-23264523D01*
X-84300239Y-23288333D01*
X-84490715Y-23288333D01*
X-84538334Y-23264523D01*
X-84562143Y-23216904D01*
X-84562143Y-23121666D01*
X-84538334Y-23074047D01*
X-84490715Y-23050238D01*
X-84443096Y-23050238D01*
X-84395477Y-23288333D01*
X-84562143Y-22883571D02*
X-84228810Y-22788333D01*
X-84466905Y-22693095D01*
X-84228810Y-22597857D01*
X-84562143Y-22502619D01*
X-84228810Y-22097857D02*
X-84490715Y-22097857D01*
X-84538334Y-22121666D01*
X-84562143Y-22169285D01*
X-84562143Y-22264523D01*
X-84538334Y-22312142D01*
X-84252620Y-22097857D02*
X-84228810Y-22145476D01*
X-84228810Y-22264523D01*
X-84252620Y-22312142D01*
X-84300239Y-22335952D01*
X-84347858Y-22335952D01*
X-84395477Y-22312142D01*
X-84419286Y-22264523D01*
X-84419286Y-22145476D01*
X-84443096Y-22097857D01*
X-84228810Y-21859761D02*
X-84728810Y-21859761D01*
X-84538334Y-21859761D02*
X-84562143Y-21812142D01*
X-84562143Y-21716904D01*
X-84538334Y-21669285D01*
X-84514524Y-21645476D01*
X-84466905Y-21621666D01*
X-84324048Y-21621666D01*
X-84276429Y-21645476D01*
X-84252620Y-21669285D01*
X-84228810Y-21716904D01*
X-84228810Y-21812142D01*
X-84252620Y-21859761D01*
X-84228810Y-21335952D02*
X-84252620Y-21383571D01*
X-84300239Y-21407380D01*
X-84728810Y-21407380D01*
X-84252620Y-20955000D02*
X-84228810Y-21002619D01*
X-84228810Y-21097857D01*
X-84252620Y-21145476D01*
X-84300239Y-21169285D01*
X-84490715Y-21169285D01*
X-84538334Y-21145476D01*
X-84562143Y-21097857D01*
X-84562143Y-21002619D01*
X-84538334Y-20955000D01*
X-84490715Y-20931190D01*
X-84443096Y-20931190D01*
X-84395477Y-21169285D01*
X-84490715Y-20335952D02*
X-84490715Y-20169285D01*
X-84228810Y-20097857D02*
X-84228810Y-20335952D01*
X-84728810Y-20335952D01*
X-84728810Y-20097857D01*
X-84562143Y-19883571D02*
X-84228810Y-19883571D01*
X-84514524Y-19883571D02*
X-84538334Y-19859761D01*
X-84562143Y-19812142D01*
X-84562143Y-19740714D01*
X-84538334Y-19693095D01*
X-84490715Y-19669285D01*
X-84228810Y-19669285D01*
X-84252620Y-19240714D02*
X-84228810Y-19288333D01*
X-84228810Y-19383571D01*
X-84252620Y-19431190D01*
X-84300239Y-19455000D01*
X-84490715Y-19455000D01*
X-84538334Y-19431190D01*
X-84562143Y-19383571D01*
X-84562143Y-19288333D01*
X-84538334Y-19240714D01*
X-84490715Y-19216904D01*
X-84443096Y-19216904D01*
X-84395477Y-19455000D01*
X-84228810Y-19002619D02*
X-84562143Y-19002619D01*
X-84466905Y-19002619D02*
X-84514524Y-18978809D01*
X-84538334Y-18955000D01*
X-84562143Y-18907380D01*
X-84562143Y-18859761D01*
X-84562143Y-18478809D02*
X-84157381Y-18478809D01*
X-84109762Y-18502619D01*
X-84085953Y-18526428D01*
X-84062143Y-18574047D01*
X-84062143Y-18645476D01*
X-84085953Y-18693095D01*
X-84252620Y-18478809D02*
X-84228810Y-18526428D01*
X-84228810Y-18621666D01*
X-84252620Y-18669285D01*
X-84276429Y-18693095D01*
X-84324048Y-18716904D01*
X-84466905Y-18716904D01*
X-84514524Y-18693095D01*
X-84538334Y-18669285D01*
X-84562143Y-18621666D01*
X-84562143Y-18526428D01*
X-84538334Y-18478809D01*
X-84562143Y-18288333D02*
X-84228810Y-18169285D01*
X-84562143Y-18050238D02*
X-84228810Y-18169285D01*
X-84109762Y-18216904D01*
X-84085953Y-18240714D01*
X-84062143Y-18288333D01*
X-84228810Y-17240714D02*
X-84228810Y-17478809D01*
X-84728810Y-17478809D01*
X-84228810Y-16859761D02*
X-84490715Y-16859761D01*
X-84538334Y-16883571D01*
X-84562143Y-16931190D01*
X-84562143Y-17026428D01*
X-84538334Y-17074047D01*
X-84252620Y-16859761D02*
X-84228810Y-16907380D01*
X-84228810Y-17026428D01*
X-84252620Y-17074047D01*
X-84300239Y-17097857D01*
X-84347858Y-17097857D01*
X-84395477Y-17074047D01*
X-84419286Y-17026428D01*
X-84419286Y-16907380D01*
X-84443096Y-16859761D01*
X-84228810Y-16621666D02*
X-84728810Y-16621666D01*
X-84538334Y-16621666D02*
X-84562143Y-16574047D01*
X-84562143Y-16478809D01*
X-84538334Y-16431190D01*
X-84514524Y-16407380D01*
X-84466905Y-16383571D01*
X-84324048Y-16383571D01*
X-84276429Y-16407380D01*
X-84252620Y-16431190D01*
X-84228810Y-16478809D01*
X-84228810Y-16574047D01*
X-84252620Y-16621666D01*
X-84228810Y-16097857D02*
X-84252620Y-16145476D01*
X-84276429Y-16169285D01*
X-84324048Y-16193095D01*
X-84466905Y-16193095D01*
X-84514524Y-16169285D01*
X-84538334Y-16145476D01*
X-84562143Y-16097857D01*
X-84562143Y-16026428D01*
X-84538334Y-15978809D01*
X-84514524Y-15955000D01*
X-84466905Y-15931190D01*
X-84324048Y-15931190D01*
X-84276429Y-15955000D01*
X-84252620Y-15978809D01*
X-84228810Y-16026428D01*
X-84228810Y-16097857D01*
X-84228810Y-15716904D02*
X-84562143Y-15716904D01*
X-84466905Y-15716904D02*
X-84514524Y-15693095D01*
X-84538334Y-15669285D01*
X-84562143Y-15621666D01*
X-84562143Y-15574047D01*
X-84228810Y-15193095D02*
X-84490715Y-15193095D01*
X-84538334Y-15216904D01*
X-84562143Y-15264523D01*
X-84562143Y-15359761D01*
X-84538334Y-15407380D01*
X-84252620Y-15193095D02*
X-84228810Y-15240714D01*
X-84228810Y-15359761D01*
X-84252620Y-15407380D01*
X-84300239Y-15431190D01*
X-84347858Y-15431190D01*
X-84395477Y-15407380D01*
X-84419286Y-15359761D01*
X-84419286Y-15240714D01*
X-84443096Y-15193095D01*
X-84562143Y-15026428D02*
X-84562143Y-14835952D01*
X-84728810Y-14955000D02*
X-84300239Y-14955000D01*
X-84252620Y-14931190D01*
X-84228810Y-14883571D01*
X-84228810Y-14835952D01*
X-84228810Y-14597857D02*
X-84252620Y-14645476D01*
X-84276429Y-14669285D01*
X-84324048Y-14693095D01*
X-84466905Y-14693095D01*
X-84514524Y-14669285D01*
X-84538334Y-14645476D01*
X-84562143Y-14597857D01*
X-84562143Y-14526428D01*
X-84538334Y-14478809D01*
X-84514524Y-14455000D01*
X-84466905Y-14431190D01*
X-84324048Y-14431190D01*
X-84276429Y-14455000D01*
X-84252620Y-14478809D01*
X-84228810Y-14526428D01*
X-84228810Y-14597857D01*
X-84228810Y-14216904D02*
X-84562143Y-14216904D01*
X-84466905Y-14216904D02*
X-84514524Y-14193095D01*
X-84538334Y-14169285D01*
X-84562143Y-14121666D01*
X-84562143Y-14074047D01*
X-84562143Y-13955000D02*
X-84228810Y-13835952D01*
X-84562143Y-13716904D02*
X-84228810Y-13835952D01*
X-84109762Y-13883571D01*
X-84085953Y-13907380D01*
X-84062143Y-13955000D01*
X-83447620Y-27847857D02*
X-83423810Y-27776428D01*
X-83423810Y-27657380D01*
X-83447620Y-27609761D01*
X-83471429Y-27585952D01*
X-83519048Y-27562142D01*
X-83566667Y-27562142D01*
X-83614286Y-27585952D01*
X-83638096Y-27609761D01*
X-83661905Y-27657380D01*
X-83685715Y-27752619D01*
X-83709524Y-27800238D01*
X-83733334Y-27824047D01*
X-83780953Y-27847857D01*
X-83828572Y-27847857D01*
X-83876191Y-27824047D01*
X-83900000Y-27800238D01*
X-83923810Y-27752619D01*
X-83923810Y-27633571D01*
X-83900000Y-27562142D01*
X-83423810Y-27276428D02*
X-83447620Y-27324047D01*
X-83471429Y-27347857D01*
X-83519048Y-27371666D01*
X-83661905Y-27371666D01*
X-83709524Y-27347857D01*
X-83733334Y-27324047D01*
X-83757143Y-27276428D01*
X-83757143Y-27205000D01*
X-83733334Y-27157380D01*
X-83709524Y-27133571D01*
X-83661905Y-27109761D01*
X-83519048Y-27109761D01*
X-83471429Y-27133571D01*
X-83447620Y-27157380D01*
X-83423810Y-27205000D01*
X-83423810Y-27276428D01*
X-83423810Y-26824047D02*
X-83447620Y-26871666D01*
X-83495239Y-26895476D01*
X-83923810Y-26895476D01*
X-83423810Y-26419285D02*
X-83685715Y-26419285D01*
X-83733334Y-26443095D01*
X-83757143Y-26490714D01*
X-83757143Y-26585952D01*
X-83733334Y-26633571D01*
X-83447620Y-26419285D02*
X-83423810Y-26466904D01*
X-83423810Y-26585952D01*
X-83447620Y-26633571D01*
X-83495239Y-26657380D01*
X-83542858Y-26657380D01*
X-83590477Y-26633571D01*
X-83614286Y-26585952D01*
X-83614286Y-26466904D01*
X-83638096Y-26419285D01*
X-83423810Y-26181190D02*
X-83757143Y-26181190D01*
X-83661905Y-26181190D02*
X-83709524Y-26157380D01*
X-83733334Y-26133571D01*
X-83757143Y-26085952D01*
X-83757143Y-26038333D01*
X-83423810Y-25205000D02*
X-83661905Y-25371666D01*
X-83423810Y-25490714D02*
X-83923810Y-25490714D01*
X-83923810Y-25300238D01*
X-83900000Y-25252619D01*
X-83876191Y-25228809D01*
X-83828572Y-25205000D01*
X-83757143Y-25205000D01*
X-83709524Y-25228809D01*
X-83685715Y-25252619D01*
X-83661905Y-25300238D01*
X-83661905Y-25490714D01*
X-83423810Y-24776428D02*
X-83685715Y-24776428D01*
X-83733334Y-24800238D01*
X-83757143Y-24847857D01*
X-83757143Y-24943095D01*
X-83733334Y-24990714D01*
X-83447620Y-24776428D02*
X-83423810Y-24824047D01*
X-83423810Y-24943095D01*
X-83447620Y-24990714D01*
X-83495239Y-25014523D01*
X-83542858Y-25014523D01*
X-83590477Y-24990714D01*
X-83614286Y-24943095D01*
X-83614286Y-24824047D01*
X-83638096Y-24776428D01*
X-83423810Y-24324047D02*
X-83923810Y-24324047D01*
X-83447620Y-24324047D02*
X-83423810Y-24371666D01*
X-83423810Y-24466904D01*
X-83447620Y-24514523D01*
X-83471429Y-24538333D01*
X-83519048Y-24562142D01*
X-83661905Y-24562142D01*
X-83709524Y-24538333D01*
X-83733334Y-24514523D01*
X-83757143Y-24466904D01*
X-83757143Y-24371666D01*
X-83733334Y-24324047D01*
X-83423810Y-24085952D02*
X-83757143Y-24085952D01*
X-83923810Y-24085952D02*
X-83900000Y-24109761D01*
X-83876191Y-24085952D01*
X-83900000Y-24062142D01*
X-83923810Y-24085952D01*
X-83876191Y-24085952D01*
X-83423810Y-23633571D02*
X-83685715Y-23633571D01*
X-83733334Y-23657380D01*
X-83757143Y-23705000D01*
X-83757143Y-23800238D01*
X-83733334Y-23847857D01*
X-83447620Y-23633571D02*
X-83423810Y-23681190D01*
X-83423810Y-23800238D01*
X-83447620Y-23847857D01*
X-83495239Y-23871666D01*
X-83542858Y-23871666D01*
X-83590477Y-23847857D01*
X-83614286Y-23800238D01*
X-83614286Y-23681190D01*
X-83638096Y-23633571D01*
X-83757143Y-23466904D02*
X-83757143Y-23276428D01*
X-83923810Y-23395476D02*
X-83495239Y-23395476D01*
X-83447620Y-23371666D01*
X-83423810Y-23324047D01*
X-83423810Y-23276428D01*
X-83423810Y-23109761D02*
X-83757143Y-23109761D01*
X-83923810Y-23109761D02*
X-83900000Y-23133571D01*
X-83876191Y-23109761D01*
X-83900000Y-23085952D01*
X-83923810Y-23109761D01*
X-83876191Y-23109761D01*
X-83423810Y-22800238D02*
X-83447620Y-22847857D01*
X-83471429Y-22871666D01*
X-83519048Y-22895476D01*
X-83661905Y-22895476D01*
X-83709524Y-22871666D01*
X-83733334Y-22847857D01*
X-83757143Y-22800238D01*
X-83757143Y-22728809D01*
X-83733334Y-22681190D01*
X-83709524Y-22657380D01*
X-83661905Y-22633571D01*
X-83519048Y-22633571D01*
X-83471429Y-22657380D01*
X-83447620Y-22681190D01*
X-83423810Y-22728809D01*
X-83423810Y-22800238D01*
X-83757143Y-22419285D02*
X-83423810Y-22419285D01*
X-83709524Y-22419285D02*
X-83733334Y-22395476D01*
X-83757143Y-22347857D01*
X-83757143Y-22276428D01*
X-83733334Y-22228809D01*
X-83685715Y-22205000D01*
X-83423810Y-22205000D01*
X-83423810Y-21300238D02*
X-83661905Y-21466904D01*
X-83423810Y-21585952D02*
X-83923810Y-21585952D01*
X-83923810Y-21395476D01*
X-83900000Y-21347857D01*
X-83876191Y-21324047D01*
X-83828572Y-21300238D01*
X-83757143Y-21300238D01*
X-83709524Y-21324047D01*
X-83685715Y-21347857D01*
X-83661905Y-21395476D01*
X-83661905Y-21585952D01*
X-83447620Y-20895476D02*
X-83423810Y-20943095D01*
X-83423810Y-21038333D01*
X-83447620Y-21085952D01*
X-83495239Y-21109761D01*
X-83685715Y-21109761D01*
X-83733334Y-21085952D01*
X-83757143Y-21038333D01*
X-83757143Y-20943095D01*
X-83733334Y-20895476D01*
X-83685715Y-20871666D01*
X-83638096Y-20871666D01*
X-83590477Y-21109761D01*
X-83447620Y-20681190D02*
X-83423810Y-20633571D01*
X-83423810Y-20538333D01*
X-83447620Y-20490714D01*
X-83495239Y-20466904D01*
X-83519048Y-20466904D01*
X-83566667Y-20490714D01*
X-83590477Y-20538333D01*
X-83590477Y-20609761D01*
X-83614286Y-20657380D01*
X-83661905Y-20681190D01*
X-83685715Y-20681190D01*
X-83733334Y-20657380D01*
X-83757143Y-20609761D01*
X-83757143Y-20538333D01*
X-83733334Y-20490714D01*
X-83447620Y-20062142D02*
X-83423810Y-20109761D01*
X-83423810Y-20205000D01*
X-83447620Y-20252619D01*
X-83495239Y-20276428D01*
X-83685715Y-20276428D01*
X-83733334Y-20252619D01*
X-83757143Y-20205000D01*
X-83757143Y-20109761D01*
X-83733334Y-20062142D01*
X-83685715Y-20038333D01*
X-83638096Y-20038333D01*
X-83590477Y-20276428D01*
X-83423810Y-19609761D02*
X-83685715Y-19609761D01*
X-83733334Y-19633571D01*
X-83757143Y-19681190D01*
X-83757143Y-19776428D01*
X-83733334Y-19824047D01*
X-83447620Y-19609761D02*
X-83423810Y-19657380D01*
X-83423810Y-19776428D01*
X-83447620Y-19824047D01*
X-83495239Y-19847857D01*
X-83542858Y-19847857D01*
X-83590477Y-19824047D01*
X-83614286Y-19776428D01*
X-83614286Y-19657380D01*
X-83638096Y-19609761D01*
X-83423810Y-19371666D02*
X-83757143Y-19371666D01*
X-83661905Y-19371666D02*
X-83709524Y-19347857D01*
X-83733334Y-19324047D01*
X-83757143Y-19276428D01*
X-83757143Y-19228809D01*
X-83447620Y-18847857D02*
X-83423810Y-18895476D01*
X-83423810Y-18990714D01*
X-83447620Y-19038333D01*
X-83471429Y-19062142D01*
X-83519048Y-19085952D01*
X-83661905Y-19085952D01*
X-83709524Y-19062142D01*
X-83733334Y-19038333D01*
X-83757143Y-18990714D01*
X-83757143Y-18895476D01*
X-83733334Y-18847857D01*
X-83423810Y-18633571D02*
X-83923810Y-18633571D01*
X-83423810Y-18419285D02*
X-83685715Y-18419285D01*
X-83733334Y-18443095D01*
X-83757143Y-18490714D01*
X-83757143Y-18562142D01*
X-83733334Y-18609761D01*
X-83709524Y-18633571D01*
X-83423810Y-17562142D02*
X-83423810Y-17800238D01*
X-83923810Y-17800238D01*
X-83423810Y-17181190D02*
X-83685715Y-17181190D01*
X-83733334Y-17205000D01*
X-83757143Y-17252619D01*
X-83757143Y-17347857D01*
X-83733334Y-17395476D01*
X-83447620Y-17181190D02*
X-83423810Y-17228809D01*
X-83423810Y-17347857D01*
X-83447620Y-17395476D01*
X-83495239Y-17419285D01*
X-83542858Y-17419285D01*
X-83590477Y-17395476D01*
X-83614286Y-17347857D01*
X-83614286Y-17228809D01*
X-83638096Y-17181190D01*
X-83423810Y-16943095D02*
X-83923810Y-16943095D01*
X-83733334Y-16943095D02*
X-83757143Y-16895476D01*
X-83757143Y-16800238D01*
X-83733334Y-16752619D01*
X-83709524Y-16728809D01*
X-83661905Y-16705000D01*
X-83519048Y-16705000D01*
X-83471429Y-16728809D01*
X-83447620Y-16752619D01*
X-83423810Y-16800238D01*
X-83423810Y-16895476D01*
X-83447620Y-16943095D01*
X-83423810Y-16419285D02*
X-83447620Y-16466904D01*
X-83471429Y-16490714D01*
X-83519048Y-16514523D01*
X-83661905Y-16514523D01*
X-83709524Y-16490714D01*
X-83733334Y-16466904D01*
X-83757143Y-16419285D01*
X-83757143Y-16347857D01*
X-83733334Y-16300238D01*
X-83709524Y-16276428D01*
X-83661905Y-16252619D01*
X-83519048Y-16252619D01*
X-83471429Y-16276428D01*
X-83447620Y-16300238D01*
X-83423810Y-16347857D01*
X-83423810Y-16419285D01*
X-83423810Y-16038333D02*
X-83757143Y-16038333D01*
X-83661905Y-16038333D02*
X-83709524Y-16014523D01*
X-83733334Y-15990714D01*
X-83757143Y-15943095D01*
X-83757143Y-15895476D01*
X-83423810Y-15514523D02*
X-83685715Y-15514523D01*
X-83733334Y-15538333D01*
X-83757143Y-15585952D01*
X-83757143Y-15681190D01*
X-83733334Y-15728809D01*
X-83447620Y-15514523D02*
X-83423810Y-15562142D01*
X-83423810Y-15681190D01*
X-83447620Y-15728809D01*
X-83495239Y-15752619D01*
X-83542858Y-15752619D01*
X-83590477Y-15728809D01*
X-83614286Y-15681190D01*
X-83614286Y-15562142D01*
X-83638096Y-15514523D01*
X-83757143Y-15347857D02*
X-83757143Y-15157380D01*
X-83923810Y-15276428D02*
X-83495239Y-15276428D01*
X-83447620Y-15252619D01*
X-83423810Y-15205000D01*
X-83423810Y-15157380D01*
X-83423810Y-14919285D02*
X-83447620Y-14966904D01*
X-83471429Y-14990714D01*
X-83519048Y-15014523D01*
X-83661905Y-15014523D01*
X-83709524Y-14990714D01*
X-83733334Y-14966904D01*
X-83757143Y-14919285D01*
X-83757143Y-14847857D01*
X-83733334Y-14800238D01*
X-83709524Y-14776428D01*
X-83661905Y-14752619D01*
X-83519048Y-14752619D01*
X-83471429Y-14776428D01*
X-83447620Y-14800238D01*
X-83423810Y-14847857D01*
X-83423810Y-14919285D01*
X-83423810Y-14538333D02*
X-83757143Y-14538333D01*
X-83661905Y-14538333D02*
X-83709524Y-14514523D01*
X-83733334Y-14490714D01*
X-83757143Y-14443095D01*
X-83757143Y-14395476D01*
X-83757143Y-14276428D02*
X-83423810Y-14157380D01*
X-83757143Y-14038333D02*
X-83423810Y-14157380D01*
X-83304762Y-14205000D01*
X-83280953Y-14228809D01*
X-83257143Y-14276428D01*
X-83095000Y-24847857D02*
X-83118810Y-24895476D01*
X-83118810Y-24966904D01*
X-83095000Y-25038333D01*
X-83047381Y-25085952D01*
X-82999762Y-25109761D01*
X-82904524Y-25133571D01*
X-82833096Y-25133571D01*
X-82737858Y-25109761D01*
X-82690239Y-25085952D01*
X-82642620Y-25038333D01*
X-82618810Y-24966904D01*
X-82618810Y-24919285D01*
X-82642620Y-24847857D01*
X-82666429Y-24824047D01*
X-82833096Y-24824047D01*
X-82833096Y-24919285D01*
X-82618810Y-24538333D02*
X-82642620Y-24585952D01*
X-82666429Y-24609761D01*
X-82714048Y-24633571D01*
X-82856905Y-24633571D01*
X-82904524Y-24609761D01*
X-82928334Y-24585952D01*
X-82952143Y-24538333D01*
X-82952143Y-24466904D01*
X-82928334Y-24419285D01*
X-82904524Y-24395476D01*
X-82856905Y-24371666D01*
X-82714048Y-24371666D01*
X-82666429Y-24395476D01*
X-82642620Y-24419285D01*
X-82618810Y-24466904D01*
X-82618810Y-24538333D01*
X-82618810Y-24085952D02*
X-82642620Y-24133571D01*
X-82690239Y-24157380D01*
X-83118810Y-24157380D01*
X-82618810Y-23681190D02*
X-83118810Y-23681190D01*
X-82642620Y-23681190D02*
X-82618810Y-23728809D01*
X-82618810Y-23824047D01*
X-82642620Y-23871666D01*
X-82666429Y-23895476D01*
X-82714048Y-23919285D01*
X-82856905Y-23919285D01*
X-82904524Y-23895476D01*
X-82928334Y-23871666D01*
X-82952143Y-23824047D01*
X-82952143Y-23728809D01*
X-82928334Y-23681190D01*
X-82642620Y-23252619D02*
X-82618810Y-23300238D01*
X-82618810Y-23395476D01*
X-82642620Y-23443095D01*
X-82690239Y-23466904D01*
X-82880715Y-23466904D01*
X-82928334Y-23443095D01*
X-82952143Y-23395476D01*
X-82952143Y-23300238D01*
X-82928334Y-23252619D01*
X-82880715Y-23228809D01*
X-82833096Y-23228809D01*
X-82785477Y-23466904D01*
X-82952143Y-23014523D02*
X-82618810Y-23014523D01*
X-82904524Y-23014523D02*
X-82928334Y-22990714D01*
X-82952143Y-22943095D01*
X-82952143Y-22871666D01*
X-82928334Y-22824047D01*
X-82880715Y-22800238D01*
X-82618810Y-22800238D01*
X-82642620Y-22538333D02*
X-82618810Y-22538333D01*
X-82571191Y-22562142D01*
X-82547381Y-22585952D01*
X-82666429Y-21657380D02*
X-82642620Y-21681190D01*
X-82618810Y-21752619D01*
X-82618810Y-21800238D01*
X-82642620Y-21871666D01*
X-82690239Y-21919285D01*
X-82737858Y-21943095D01*
X-82833096Y-21966904D01*
X-82904524Y-21966904D01*
X-82999762Y-21943095D01*
X-83047381Y-21919285D01*
X-83095000Y-21871666D01*
X-83118810Y-21800238D01*
X-83118810Y-21752619D01*
X-83095000Y-21681190D01*
X-83071191Y-21657380D01*
X-82618810Y-21371666D02*
X-82642620Y-21419285D01*
X-82666429Y-21443095D01*
X-82714048Y-21466904D01*
X-82856905Y-21466904D01*
X-82904524Y-21443095D01*
X-82928334Y-21419285D01*
X-82952143Y-21371666D01*
X-82952143Y-21300238D01*
X-82928334Y-21252619D01*
X-82904524Y-21228809D01*
X-82856905Y-21205000D01*
X-82714048Y-21205000D01*
X-82666429Y-21228809D01*
X-82642620Y-21252619D01*
X-82618810Y-21300238D01*
X-82618810Y-21371666D01*
X-82618810Y-20919285D02*
X-82642620Y-20966904D01*
X-82690239Y-20990714D01*
X-83118810Y-20990714D01*
X-82618810Y-20657380D02*
X-82642620Y-20705000D01*
X-82666429Y-20728809D01*
X-82714048Y-20752619D01*
X-82856905Y-20752619D01*
X-82904524Y-20728809D01*
X-82928334Y-20705000D01*
X-82952143Y-20657380D01*
X-82952143Y-20585952D01*
X-82928334Y-20538333D01*
X-82904524Y-20514523D01*
X-82856905Y-20490714D01*
X-82714048Y-20490714D01*
X-82666429Y-20514523D01*
X-82642620Y-20538333D01*
X-82618810Y-20585952D01*
X-82618810Y-20657380D01*
X-82618810Y-20276428D02*
X-82952143Y-20276428D01*
X-82856905Y-20276428D02*
X-82904524Y-20252619D01*
X-82928334Y-20228809D01*
X-82952143Y-20181190D01*
X-82952143Y-20133571D01*
X-82618810Y-19752619D02*
X-82880715Y-19752619D01*
X-82928334Y-19776428D01*
X-82952143Y-19824047D01*
X-82952143Y-19919285D01*
X-82928334Y-19966904D01*
X-82642620Y-19752619D02*
X-82618810Y-19800238D01*
X-82618810Y-19919285D01*
X-82642620Y-19966904D01*
X-82690239Y-19990714D01*
X-82737858Y-19990714D01*
X-82785477Y-19966904D01*
X-82809286Y-19919285D01*
X-82809286Y-19800238D01*
X-82833096Y-19752619D01*
X-82618810Y-19300238D02*
X-83118810Y-19300238D01*
X-82642620Y-19300238D02*
X-82618810Y-19347857D01*
X-82618810Y-19443095D01*
X-82642620Y-19490714D01*
X-82666429Y-19514523D01*
X-82714048Y-19538333D01*
X-82856905Y-19538333D01*
X-82904524Y-19514523D01*
X-82928334Y-19490714D01*
X-82952143Y-19443095D01*
X-82952143Y-19347857D01*
X-82928334Y-19300238D01*
X-82618810Y-18990714D02*
X-82642620Y-19038333D01*
X-82666429Y-19062142D01*
X-82714048Y-19085952D01*
X-82856905Y-19085952D01*
X-82904524Y-19062142D01*
X-82928334Y-19038333D01*
X-82952143Y-18990714D01*
X-82952143Y-18919285D01*
X-82928334Y-18871666D01*
X-82904524Y-18847857D01*
X-82856905Y-18824047D01*
X-82714048Y-18824047D01*
X-82666429Y-18847857D01*
X-82642620Y-18871666D01*
X-82618810Y-18919285D01*
X-82618810Y-18990714D01*
X-82642620Y-18585952D02*
X-82618810Y-18585952D01*
X-82571191Y-18609761D01*
X-82547381Y-18633571D01*
X-83118810Y-17990714D02*
X-82714048Y-17990714D01*
X-82666429Y-17966904D01*
X-82642620Y-17943095D01*
X-82618810Y-17895476D01*
X-82618810Y-17800238D01*
X-82642620Y-17752619D01*
X-82666429Y-17728809D01*
X-82714048Y-17705000D01*
X-83118810Y-17705000D01*
X-82642620Y-17490714D02*
X-82618810Y-17419285D01*
X-82618810Y-17300238D01*
X-82642620Y-17252619D01*
X-82666429Y-17228809D01*
X-82714048Y-17205000D01*
X-82761667Y-17205000D01*
X-82809286Y-17228809D01*
X-82833096Y-17252619D01*
X-82856905Y-17300238D01*
X-82880715Y-17395476D01*
X-82904524Y-17443095D01*
X-82928334Y-17466904D01*
X-82975953Y-17490714D01*
X-83023572Y-17490714D01*
X-83071191Y-17466904D01*
X-83095000Y-17443095D01*
X-83118810Y-17395476D01*
X-83118810Y-17276428D01*
X-83095000Y-17205000D01*
X-82761667Y-17014523D02*
X-82761667Y-16776428D01*
X-82618810Y-17062142D02*
X-83118810Y-16895476D01*
X-82618810Y-16728809D01*
D10*
X-6237620Y-7976761D02*
X-6237620Y-8452952D01*
X-7237620Y-8452952D01*
X-6237620Y-7500571D02*
X-6285239Y-7595809D01*
X-6332858Y-7643428D01*
X-6428096Y-7691047D01*
X-6713810Y-7691047D01*
X-6809048Y-7643428D01*
X-6856667Y-7595809D01*
X-6904286Y-7500571D01*
X-6904286Y-7357714D01*
X-6856667Y-7262476D01*
X-6809048Y-7214857D01*
X-6713810Y-7167238D01*
X-6428096Y-7167238D01*
X-6332858Y-7214857D01*
X-6285239Y-7262476D01*
X-6237620Y-7357714D01*
X-6237620Y-7500571D01*
X-6904286Y-6310095D02*
X-6094762Y-6310095D01*
X-5999524Y-6357714D01*
X-5951905Y-6405333D01*
X-5904286Y-6500571D01*
X-5904286Y-6643428D01*
X-5951905Y-6738666D01*
X-6285239Y-6310095D02*
X-6237620Y-6405333D01*
X-6237620Y-6595809D01*
X-6285239Y-6691047D01*
X-6332858Y-6738666D01*
X-6428096Y-6786285D01*
X-6713810Y-6786285D01*
X-6809048Y-6738666D01*
X-6856667Y-6691047D01*
X-6904286Y-6595809D01*
X-6904286Y-6405333D01*
X-6856667Y-6310095D01*
X-6237620Y-5833904D02*
X-6904286Y-5833904D01*
X-7237620Y-5833904D02*
X-7190000Y-5881523D01*
X-7142381Y-5833904D01*
X-7190000Y-5786285D01*
X-7237620Y-5833904D01*
X-7142381Y-5833904D01*
X-6285239Y-4929142D02*
X-6237620Y-5024380D01*
X-6237620Y-5214857D01*
X-6285239Y-5310095D01*
X-6332858Y-5357714D01*
X-6428096Y-5405333D01*
X-6713810Y-5405333D01*
X-6809048Y-5357714D01*
X-6856667Y-5310095D01*
X-6904286Y-5214857D01*
X-6904286Y-5024380D01*
X-6856667Y-4929142D01*
X-6237620Y-3595809D02*
X-6285239Y-3691047D01*
X-6380477Y-3738666D01*
X-7237620Y-3738666D01*
X-6285239Y-2833904D02*
X-6237620Y-2929142D01*
X-6237620Y-3119619D01*
X-6285239Y-3214857D01*
X-6380477Y-3262476D01*
X-6761429Y-3262476D01*
X-6856667Y-3214857D01*
X-6904286Y-3119619D01*
X-6904286Y-2929142D01*
X-6856667Y-2833904D01*
X-6761429Y-2786285D01*
X-6666191Y-2786285D01*
X-6570953Y-3262476D01*
X-6904286Y-2452952D02*
X-6237620Y-2214857D01*
X-6904286Y-1976761D01*
X-6285239Y-1214857D02*
X-6237620Y-1310095D01*
X-6237620Y-1500571D01*
X-6285239Y-1595809D01*
X-6380477Y-1643428D01*
X-6761429Y-1643428D01*
X-6856667Y-1595809D01*
X-6904286Y-1500571D01*
X-6904286Y-1310095D01*
X-6856667Y-1214857D01*
X-6761429Y-1167238D01*
X-6666191Y-1167238D01*
X-6570953Y-1643428D01*
X-6237620Y-595809D02*
X-6285239Y-691047D01*
X-6380477Y-738666D01*
X-7237620Y-738666D01*
X-5294286Y-11524380D02*
X-4627620Y-11286285D01*
X-5294286Y-11048190D01*
X-4627620Y-10524380D02*
X-4675239Y-10619619D01*
X-4722858Y-10667238D01*
X-4818096Y-10714857D01*
X-5103810Y-10714857D01*
X-5199048Y-10667238D01*
X-5246667Y-10619619D01*
X-5294286Y-10524380D01*
X-5294286Y-10381523D01*
X-5246667Y-10286285D01*
X-5199048Y-10238666D01*
X-5103810Y-10191047D01*
X-4818096Y-10191047D01*
X-4722858Y-10238666D01*
X-4675239Y-10286285D01*
X-4627620Y-10381523D01*
X-4627620Y-10524380D01*
X-4627620Y-9619619D02*
X-4675239Y-9714857D01*
X-4770477Y-9762476D01*
X-5627620Y-9762476D01*
X-5294286Y-9381523D02*
X-5294286Y-9000571D01*
X-5627620Y-9238666D02*
X-4770477Y-9238666D01*
X-4675239Y-9191047D01*
X-4627620Y-9095809D01*
X-4627620Y-9000571D01*
X-4627620Y-8238666D02*
X-5151429Y-8238666D01*
X-5246667Y-8286285D01*
X-5294286Y-8381523D01*
X-5294286Y-8572000D01*
X-5246667Y-8667238D01*
X-4675239Y-8238666D02*
X-4627620Y-8333904D01*
X-4627620Y-8572000D01*
X-4675239Y-8667238D01*
X-4770477Y-8714857D01*
X-4865715Y-8714857D01*
X-4960953Y-8667238D01*
X-5008572Y-8572000D01*
X-5008572Y-8333904D01*
X-5056191Y-8238666D01*
X-5294286Y-7333904D02*
X-4484762Y-7333904D01*
X-4389524Y-7381523D01*
X-4341905Y-7429142D01*
X-4294286Y-7524380D01*
X-4294286Y-7667238D01*
X-4341905Y-7762476D01*
X-4675239Y-7333904D02*
X-4627620Y-7429142D01*
X-4627620Y-7619619D01*
X-4675239Y-7714857D01*
X-4722858Y-7762476D01*
X-4818096Y-7810095D01*
X-5103810Y-7810095D01*
X-5199048Y-7762476D01*
X-5246667Y-7714857D01*
X-5294286Y-7619619D01*
X-5294286Y-7429142D01*
X-5246667Y-7333904D01*
X-4675239Y-6476761D02*
X-4627620Y-6572000D01*
X-4627620Y-6762476D01*
X-4675239Y-6857714D01*
X-4770477Y-6905333D01*
X-5151429Y-6905333D01*
X-5246667Y-6857714D01*
X-5294286Y-6762476D01*
X-5294286Y-6572000D01*
X-5246667Y-6476761D01*
X-5151429Y-6429142D01*
X-5056191Y-6429142D01*
X-4960953Y-6905333D01*
X-4675239Y-4810095D02*
X-4627620Y-4905333D01*
X-4627620Y-5095809D01*
X-4675239Y-5191047D01*
X-4722858Y-5238666D01*
X-4818096Y-5286285D01*
X-5103810Y-5286285D01*
X-5199048Y-5238666D01*
X-5246667Y-5191047D01*
X-5294286Y-5095809D01*
X-5294286Y-4905333D01*
X-5246667Y-4810095D01*
X-4627620Y-4238666D02*
X-4675239Y-4333904D01*
X-4722858Y-4381523D01*
X-4818096Y-4429142D01*
X-5103810Y-4429142D01*
X-5199048Y-4381523D01*
X-5246667Y-4333904D01*
X-5294286Y-4238666D01*
X-5294286Y-4095809D01*
X-5246667Y-4000571D01*
X-5199048Y-3952952D01*
X-5103810Y-3905333D01*
X-4818096Y-3905333D01*
X-4722858Y-3952952D01*
X-4675239Y-4000571D01*
X-4627620Y-4095809D01*
X-4627620Y-4238666D01*
X-5294286Y-3476761D02*
X-4627620Y-3476761D01*
X-5199048Y-3476761D02*
X-5246667Y-3429142D01*
X-5294286Y-3333904D01*
X-5294286Y-3191047D01*
X-5246667Y-3095809D01*
X-5151429Y-3048190D01*
X-4627620Y-3048190D01*
X-5294286Y-2667238D02*
X-4627620Y-2429142D01*
X-5294286Y-2191047D01*
X-4675239Y-1429142D02*
X-4627620Y-1524380D01*
X-4627620Y-1714857D01*
X-4675239Y-1810095D01*
X-4770477Y-1857714D01*
X-5151429Y-1857714D01*
X-5246667Y-1810095D01*
X-5294286Y-1714857D01*
X-5294286Y-1524380D01*
X-5246667Y-1429142D01*
X-5151429Y-1381523D01*
X-5056191Y-1381523D01*
X-4960953Y-1857714D01*
X-4627620Y-952952D02*
X-5294286Y-952952D01*
X-5103810Y-952952D02*
X-5199048Y-905333D01*
X-5246667Y-857714D01*
X-5294286Y-762476D01*
X-5294286Y-667238D01*
X-4675239Y-381523D02*
X-4627620Y-286285D01*
X-4627620Y-95809D01*
X-4675239Y-571D01*
X-4770477Y47048D01*
X-4818096Y47048D01*
X-4913334Y-571D01*
X-4960953Y-95809D01*
X-4960953Y-238666D01*
X-5008572Y-333904D01*
X-5103810Y-381523D01*
X-5151429Y-381523D01*
X-5246667Y-333904D01*
X-5294286Y-238666D01*
X-5294286Y-95809D01*
X-5246667Y-571D01*
X-4627620Y475620D02*
X-5294286Y475620D01*
X-5627620Y475620D02*
X-5580000Y428000D01*
X-5532381Y475620D01*
X-5580000Y523239D01*
X-5627620Y475620D01*
X-5532381Y475620D01*
X-4627620Y1094667D02*
X-4675239Y999429D01*
X-4722858Y951810D01*
X-4818096Y904191D01*
X-5103810Y904191D01*
X-5199048Y951810D01*
X-5246667Y999429D01*
X-5294286Y1094667D01*
X-5294286Y1237524D01*
X-5246667Y1332762D01*
X-5199048Y1380381D01*
X-5103810Y1428000D01*
X-4818096Y1428000D01*
X-4722858Y1380381D01*
X-4675239Y1332762D01*
X-4627620Y1237524D01*
X-4627620Y1094667D01*
X-5294286Y1856572D02*
X-4627620Y1856572D01*
X-5199048Y1856572D02*
X-5246667Y1904191D01*
X-5294286Y1999429D01*
X-5294286Y2142286D01*
X-5246667Y2237524D01*
X-5151429Y2285143D01*
X-4627620Y2285143D01*
X-2636667Y-9000571D02*
X-2684286Y-9048190D01*
X-2827143Y-9143428D01*
X-2922381Y-9191047D01*
X-3065239Y-9238666D01*
X-3303334Y-9286285D01*
X-3493810Y-9286285D01*
X-3731905Y-9238666D01*
X-3874762Y-9191047D01*
X-3970000Y-9143428D01*
X-4112858Y-9048190D01*
X-4160477Y-9000571D01*
X-4017620Y-8143428D02*
X-4017620Y-8619619D01*
X-3541429Y-8667238D01*
X-3589048Y-8619619D01*
X-3636667Y-8524380D01*
X-3636667Y-8286285D01*
X-3589048Y-8191047D01*
X-3541429Y-8143428D01*
X-3446191Y-8095809D01*
X-3208096Y-8095809D01*
X-3112858Y-8143428D01*
X-3065239Y-8191047D01*
X-3017620Y-8286285D01*
X-3017620Y-8524380D01*
X-3065239Y-8619619D01*
X-3112858Y-8667238D01*
X-3684286Y-7762476D02*
X-3017620Y-7524380D01*
X-3684286Y-7286285D01*
X-3684286Y-6143428D02*
X-3398572Y-6905333D01*
X-3112858Y-6143428D01*
X-3398572Y-5667238D02*
X-3398572Y-4905333D01*
X-3684286Y-4429142D02*
X-3398572Y-3667238D01*
X-3112858Y-4429142D01*
X-4017620Y-3286285D02*
X-4017620Y-2667238D01*
X-3636667Y-3000571D01*
X-3636667Y-2857714D01*
X-3589048Y-2762476D01*
X-3541429Y-2714857D01*
X-3446191Y-2667238D01*
X-3208096Y-2667238D01*
X-3112858Y-2714857D01*
X-3065239Y-2762476D01*
X-3017620Y-2857714D01*
X-3017620Y-3143428D01*
X-3065239Y-3238666D01*
X-3112858Y-3286285D01*
X-3112858Y-2238666D02*
X-3065239Y-2191047D01*
X-3017620Y-2238666D01*
X-3065239Y-2286285D01*
X-3112858Y-2238666D01*
X-3017620Y-2238666D01*
X-4017620Y-1857714D02*
X-4017620Y-1238666D01*
X-3636667Y-1572000D01*
X-3636667Y-1429142D01*
X-3589048Y-1333904D01*
X-3541429Y-1286285D01*
X-3446191Y-1238666D01*
X-3208096Y-1238666D01*
X-3112858Y-1286285D01*
X-3065239Y-1333904D01*
X-3017620Y-1429142D01*
X-3017620Y-1714857D01*
X-3065239Y-1810095D01*
X-3112858Y-1857714D01*
X-3684286Y-905333D02*
X-3017620Y-667238D01*
X-3684286Y-429142D01*
X-2636667Y-143428D02*
X-2684286Y-95809D01*
X-2827143Y-571D01*
X-2922381Y47048D01*
X-3065239Y94667D01*
X-3303334Y142286D01*
X-3493810Y142286D01*
X-3731905Y94667D01*
X-3874762Y47048D01*
X-3970000Y-571D01*
X-4112858Y-95809D01*
X-4160477Y-143428D01*
D11*
X-14659446Y-30764282D02*
X-14659446Y-30414282D01*
X-14542780Y-30664282D01*
X-14426113Y-30414282D01*
X-14426113Y-30764282D01*
X-14259446Y-30764282D02*
X-14259446Y-30414282D01*
X-14109446Y-30747615D02*
X-14059446Y-30764282D01*
X-13976113Y-30764282D01*
X-13942780Y-30747615D01*
X-13926113Y-30730949D01*
X-13909446Y-30697615D01*
X-13909446Y-30664282D01*
X-13926113Y-30630949D01*
X-13942780Y-30614282D01*
X-13976113Y-30597615D01*
X-14042780Y-30580949D01*
X-14076113Y-30564282D01*
X-14092780Y-30547615D01*
X-14109446Y-30514282D01*
X-14109446Y-30480949D01*
X-14092780Y-30447615D01*
X-14076113Y-30430949D01*
X-14042780Y-30414282D01*
X-13959446Y-30414282D01*
X-13909446Y-30430949D01*
X-13692780Y-30414282D02*
X-13626113Y-30414282D01*
X-13592780Y-30430949D01*
X-13559446Y-30464282D01*
X-13542780Y-30530949D01*
X-13542780Y-30647615D01*
X-13559446Y-30714282D01*
X-13592780Y-30747615D01*
X-13626113Y-30764282D01*
X-13692780Y-30764282D01*
X-13726113Y-30747615D01*
X-13759446Y-30714282D01*
X-13776113Y-30647615D01*
X-13776113Y-30530949D01*
X-13759446Y-30464282D01*
X-13726113Y-30430949D01*
X-13692780Y-30414282D01*
X-13316113Y-30655949D02*
X-13276113Y-30669282D01*
X-13262780Y-30682615D01*
X-13249446Y-30709282D01*
X-13249446Y-30749282D01*
X-13262780Y-30775949D01*
X-13276113Y-30789282D01*
X-13302780Y-30802615D01*
X-13409446Y-30802615D01*
X-13409446Y-30522615D01*
X-13316113Y-30522615D01*
X-13289446Y-30535949D01*
X-13276113Y-30549282D01*
X-13262780Y-30575949D01*
X-13262780Y-30602615D01*
X-13276113Y-30629282D01*
X-13289446Y-30642615D01*
X-13316113Y-30655949D01*
X-13409446Y-30655949D01*
D10*
X-77598643Y-13311142D02*
X-77646262Y-13358761D01*
X-77789120Y-13406380D01*
X-77884358Y-13406380D01*
X-78027215Y-13358761D01*
X-78122453Y-13263523D01*
X-78170072Y-13168285D01*
X-78217691Y-12977809D01*
X-78217691Y-12834952D01*
X-78170072Y-12644476D01*
X-78122453Y-12549238D01*
X-78027215Y-12454000D01*
X-77884358Y-12406380D01*
X-77789120Y-12406380D01*
X-77646262Y-12454000D01*
X-77598643Y-12501619D01*
X-77217691Y-13120666D02*
X-76741500Y-13120666D01*
X-77312929Y-13406380D02*
X-76979596Y-12406380D01*
X-76646262Y-13406380D01*
X-76312929Y-13406380D02*
X-76312929Y-12406380D01*
X-75979596Y-13120666D01*
X-75646262Y-12406380D01*
X-75646262Y-13406380D01*
X-75217691Y-12501619D02*
X-75170072Y-12454000D01*
X-75074834Y-12406380D01*
X-74836739Y-12406380D01*
X-74741500Y-12454000D01*
X-74693881Y-12501619D01*
X-74646262Y-12596857D01*
X-74646262Y-12692095D01*
X-74693881Y-12834952D01*
X-75265310Y-13406380D01*
X-74646262Y-13406380D01*
X-74360548Y-12406380D02*
X-73789120Y-12406380D01*
X-74074834Y-13406380D02*
X-74074834Y-12406380D01*
X-73551024Y-12406380D02*
X-72884358Y-13406380D01*
X-72884358Y-12406380D02*
X-73551024Y-13406380D01*
D11*
X-14559446Y-33287615D02*
X-14509446Y-33304282D01*
X-14426113Y-33304282D01*
X-14392780Y-33287615D01*
X-14376113Y-33270949D01*
X-14359446Y-33237615D01*
X-14359446Y-33204282D01*
X-14376113Y-33170949D01*
X-14392780Y-33154282D01*
X-14426113Y-33137615D01*
X-14492780Y-33120949D01*
X-14526113Y-33104282D01*
X-14542780Y-33087615D01*
X-14559446Y-33054282D01*
X-14559446Y-33020949D01*
X-14542780Y-32987615D01*
X-14526113Y-32970949D01*
X-14492780Y-32954282D01*
X-14409446Y-32954282D01*
X-14359446Y-32970949D01*
X-14009446Y-33270949D02*
X-14026113Y-33287615D01*
X-14076113Y-33304282D01*
X-14109446Y-33304282D01*
X-14159446Y-33287615D01*
X-14192780Y-33254282D01*
X-14209446Y-33220949D01*
X-14226113Y-33154282D01*
X-14226113Y-33104282D01*
X-14209446Y-33037615D01*
X-14192780Y-33004282D01*
X-14159446Y-32970949D01*
X-14109446Y-32954282D01*
X-14076113Y-32954282D01*
X-14026113Y-32970949D01*
X-14009446Y-32987615D01*
X-13859446Y-33304282D02*
X-13859446Y-32954282D01*
X-13659446Y-33304282D02*
X-13809446Y-33104282D01*
X-13659446Y-32954282D02*
X-13859446Y-33154282D01*
X-13432780Y-33195949D02*
X-13392780Y-33209282D01*
X-13379446Y-33222615D01*
X-13366113Y-33249282D01*
X-13366113Y-33289282D01*
X-13379446Y-33315949D01*
X-13392780Y-33329282D01*
X-13419446Y-33342615D01*
X-13526113Y-33342615D01*
X-13526113Y-33062615D01*
X-13432780Y-33062615D01*
X-13406113Y-33075949D01*
X-13392780Y-33089282D01*
X-13379446Y-33115949D01*
X-13379446Y-33142615D01*
X-13392780Y-33169282D01*
X-13406113Y-33182615D01*
X-13432780Y-33195949D01*
X-13526113Y-33195949D01*
D10*
X-64926715Y27626572D02*
X-64176715Y27876572D01*
X-64926715Y28126572D01*
X-64176715Y28376572D02*
X-64926715Y28376572D01*
X-64176715Y28733715D02*
X-64926715Y28733715D01*
X-64176715Y29162286D01*
X-64926715Y29162286D01*
D11*
X-37311800Y-4816000D02*
X-37328467Y-4780285D01*
X-37361800Y-4673142D01*
X-37378467Y-4601714D01*
X-37395134Y-4494571D01*
X-37411800Y-4316000D01*
X-37411800Y-4173142D01*
X-37395134Y-3994571D01*
X-37378467Y-3887428D01*
X-37361800Y-3816000D01*
X-37328467Y-3708857D01*
X-37311800Y-3673142D01*
X-37211800Y-3780285D02*
X-36995134Y-3780285D01*
X-37111800Y-4066000D01*
X-37061800Y-4066000D01*
X-37028467Y-4101714D01*
X-37011800Y-4137428D01*
X-36995134Y-4208857D01*
X-36995134Y-4387428D01*
X-37011800Y-4458857D01*
X-37028467Y-4494571D01*
X-37061800Y-4530285D01*
X-37161800Y-4530285D01*
X-37195134Y-4494571D01*
X-37211800Y-4458857D01*
X-36845134Y-4458857D02*
X-36828467Y-4494571D01*
X-36845134Y-4530285D01*
X-36861800Y-4494571D01*
X-36845134Y-4458857D01*
X-36845134Y-4530285D01*
X-36711800Y-3780285D02*
X-36495134Y-3780285D01*
X-36611800Y-4066000D01*
X-36561800Y-4066000D01*
X-36528467Y-4101714D01*
X-36511800Y-4137428D01*
X-36495134Y-4208857D01*
X-36495134Y-4387428D01*
X-36511800Y-4458857D01*
X-36528467Y-4494571D01*
X-36561800Y-4530285D01*
X-36661800Y-4530285D01*
X-36695134Y-4494571D01*
X-36711800Y-4458857D01*
X-36395134Y-3780285D02*
X-36278467Y-4530285D01*
X-36161800Y-3780285D01*
X-35778467Y-4530285D02*
X-35778467Y-4030285D01*
X-35778467Y-4101714D02*
X-35761800Y-4066000D01*
X-35728467Y-4030285D01*
X-35678467Y-4030285D01*
X-35645134Y-4066000D01*
X-35628467Y-4137428D01*
X-35628467Y-4530285D01*
X-35628467Y-4137428D02*
X-35611800Y-4066000D01*
X-35578467Y-4030285D01*
X-35528467Y-4030285D01*
X-35495134Y-4066000D01*
X-35478467Y-4137428D01*
X-35478467Y-4530285D01*
X-35161800Y-4530285D02*
X-35161800Y-4137428D01*
X-35178467Y-4066000D01*
X-35211800Y-4030285D01*
X-35278467Y-4030285D01*
X-35311800Y-4066000D01*
X-35161800Y-4494571D02*
X-35195134Y-4530285D01*
X-35278467Y-4530285D01*
X-35311800Y-4494571D01*
X-35328467Y-4423142D01*
X-35328467Y-4351714D01*
X-35311800Y-4280285D01*
X-35278467Y-4244571D01*
X-35195134Y-4244571D01*
X-35161800Y-4208857D01*
X-35028467Y-4530285D02*
X-34845134Y-4030285D01*
X-35028467Y-4030285D02*
X-34845134Y-4530285D01*
X-34295134Y-4530285D02*
X-34295134Y-4137428D01*
X-34311800Y-4066000D01*
X-34345134Y-4030285D01*
X-34411800Y-4030285D01*
X-34445134Y-4066000D01*
X-34295134Y-4494571D02*
X-34328467Y-4530285D01*
X-34411800Y-4530285D01*
X-34445134Y-4494571D01*
X-34461800Y-4423142D01*
X-34461800Y-4351714D01*
X-34445134Y-4280285D01*
X-34411800Y-4244571D01*
X-34328467Y-4244571D01*
X-34295134Y-4208857D01*
X-34128467Y-4030285D02*
X-34128467Y-4530285D01*
X-34128467Y-4101714D02*
X-34111800Y-4066000D01*
X-34078467Y-4030285D01*
X-34028467Y-4030285D01*
X-33995134Y-4066000D01*
X-33978467Y-4137428D01*
X-33978467Y-4530285D01*
X-33661800Y-4530285D02*
X-33661800Y-4137428D01*
X-33678467Y-4066000D01*
X-33711800Y-4030285D01*
X-33778467Y-4030285D01*
X-33811800Y-4066000D01*
X-33661800Y-4494571D02*
X-33695134Y-4530285D01*
X-33778467Y-4530285D01*
X-33811800Y-4494571D01*
X-33828467Y-4423142D01*
X-33828467Y-4351714D01*
X-33811800Y-4280285D01*
X-33778467Y-4244571D01*
X-33695134Y-4244571D01*
X-33661800Y-4208857D01*
X-33445134Y-4530285D02*
X-33478467Y-4494571D01*
X-33495134Y-4423142D01*
X-33495134Y-3780285D01*
X-33261800Y-4530285D02*
X-33295134Y-4494571D01*
X-33311800Y-4458857D01*
X-33328467Y-4387428D01*
X-33328467Y-4173142D01*
X-33311800Y-4101714D01*
X-33295134Y-4066000D01*
X-33261800Y-4030285D01*
X-33211800Y-4030285D01*
X-33178467Y-4066000D01*
X-33161800Y-4101714D01*
X-33145134Y-4173142D01*
X-33145134Y-4387428D01*
X-33161800Y-4458857D01*
X-33178467Y-4494571D01*
X-33211800Y-4530285D01*
X-33261800Y-4530285D01*
X-32845134Y-4030285D02*
X-32845134Y-4637428D01*
X-32861800Y-4708857D01*
X-32878467Y-4744571D01*
X-32911800Y-4780285D01*
X-32961800Y-4780285D01*
X-32995134Y-4744571D01*
X-32845134Y-4494571D02*
X-32878467Y-4530285D01*
X-32945134Y-4530285D01*
X-32978467Y-4494571D01*
X-32995134Y-4458857D01*
X-33011800Y-4387428D01*
X-33011800Y-4173142D01*
X-32995134Y-4101714D01*
X-32978467Y-4066000D01*
X-32945134Y-4030285D01*
X-32878467Y-4030285D01*
X-32845134Y-4066000D01*
X-32428467Y-4494571D02*
X-32395134Y-4530285D01*
X-32328467Y-4530285D01*
X-32295134Y-4494571D01*
X-32278467Y-4423142D01*
X-32278467Y-4387428D01*
X-32295134Y-4316000D01*
X-32328467Y-4280285D01*
X-32378467Y-4280285D01*
X-32411800Y-4244571D01*
X-32428467Y-4173142D01*
X-32428467Y-4137428D01*
X-32411800Y-4066000D01*
X-32378467Y-4030285D01*
X-32328467Y-4030285D01*
X-32295134Y-4066000D01*
X-32128467Y-4530285D02*
X-32128467Y-4030285D01*
X-32128467Y-3780285D02*
X-32145134Y-3816000D01*
X-32128467Y-3851714D01*
X-32111800Y-3816000D01*
X-32128467Y-3780285D01*
X-32128467Y-3851714D01*
X-31811800Y-4030285D02*
X-31811800Y-4637428D01*
X-31828467Y-4708857D01*
X-31845134Y-4744571D01*
X-31878467Y-4780285D01*
X-31928467Y-4780285D01*
X-31961800Y-4744571D01*
X-31811800Y-4494571D02*
X-31845134Y-4530285D01*
X-31911800Y-4530285D01*
X-31945134Y-4494571D01*
X-31961800Y-4458857D01*
X-31978467Y-4387428D01*
X-31978467Y-4173142D01*
X-31961800Y-4101714D01*
X-31945134Y-4066000D01*
X-31911800Y-4030285D01*
X-31845134Y-4030285D01*
X-31811800Y-4066000D01*
X-31645134Y-4030285D02*
X-31645134Y-4530285D01*
X-31645134Y-4101714D02*
X-31628467Y-4066000D01*
X-31595134Y-4030285D01*
X-31545134Y-4030285D01*
X-31511800Y-4066000D01*
X-31495134Y-4137428D01*
X-31495134Y-4530285D01*
X-31178467Y-4530285D02*
X-31178467Y-4137428D01*
X-31195134Y-4066000D01*
X-31228467Y-4030285D01*
X-31295134Y-4030285D01*
X-31328467Y-4066000D01*
X-31178467Y-4494571D02*
X-31211800Y-4530285D01*
X-31295134Y-4530285D01*
X-31328467Y-4494571D01*
X-31345134Y-4423142D01*
X-31345134Y-4351714D01*
X-31328467Y-4280285D01*
X-31295134Y-4244571D01*
X-31211800Y-4244571D01*
X-31178467Y-4208857D01*
X-30961800Y-4530285D02*
X-30995134Y-4494571D01*
X-31011800Y-4423142D01*
X-31011800Y-3780285D01*
X-30861800Y-4816000D02*
X-30845134Y-4780285D01*
X-30811800Y-4673142D01*
X-30795134Y-4601714D01*
X-30778467Y-4494571D01*
X-30761800Y-4316000D01*
X-30761800Y-4173142D01*
X-30778467Y-3994571D01*
X-30795134Y-3887428D01*
X-30811800Y-3816000D01*
X-30845134Y-3708857D01*
X-30861800Y-3673142D01*
D12*
X-26859446Y23456143D02*
X-26773732Y23427572D01*
X-26630875Y23427572D01*
X-26573732Y23456143D01*
X-26545161Y23484715D01*
X-26516589Y23541858D01*
X-26516589Y23599000D01*
X-26545161Y23656143D01*
X-26573732Y23684715D01*
X-26630875Y23713286D01*
X-26745161Y23741858D01*
X-26802304Y23770429D01*
X-26830875Y23799000D01*
X-26859446Y23856143D01*
X-26859446Y23913286D01*
X-26830875Y23970429D01*
X-26802304Y23999000D01*
X-26745161Y24027572D01*
X-26602304Y24027572D01*
X-26516589Y23999000D01*
X-26259446Y23827572D02*
X-26259446Y23227572D01*
X-26259446Y23799000D02*
X-26202304Y23827572D01*
X-26088018Y23827572D01*
X-26030875Y23799000D01*
X-26002304Y23770429D01*
X-25973732Y23713286D01*
X-25973732Y23541858D01*
X-26002304Y23484715D01*
X-26030875Y23456143D01*
X-26088018Y23427572D01*
X-26202304Y23427572D01*
X-26259446Y23456143D01*
X-25488018Y23456143D02*
X-25545161Y23427572D01*
X-25659446Y23427572D01*
X-25716589Y23456143D01*
X-25745161Y23513286D01*
X-25745161Y23741858D01*
X-25716589Y23799000D01*
X-25659446Y23827572D01*
X-25545161Y23827572D01*
X-25488018Y23799000D01*
X-25459446Y23741858D01*
X-25459446Y23684715D01*
X-25745161Y23627572D01*
X-24945161Y23456143D02*
X-25002304Y23427572D01*
X-25116589Y23427572D01*
X-25173732Y23456143D01*
X-25202304Y23484715D01*
X-25230875Y23541858D01*
X-25230875Y23713286D01*
X-25202304Y23770429D01*
X-25173732Y23799000D01*
X-25116589Y23827572D01*
X-25002304Y23827572D01*
X-24945161Y23799000D01*
X-24773732Y23827572D02*
X-24545161Y23827572D01*
X-24688018Y24027572D02*
X-24688018Y23513286D01*
X-24659446Y23456143D01*
X-24602304Y23427572D01*
X-24545161Y23427572D01*
X-24345161Y23427572D02*
X-24345161Y23827572D01*
X-24345161Y23713286D02*
X-24316589Y23770429D01*
X-24288018Y23799000D01*
X-24230875Y23827572D01*
X-24173732Y23827572D01*
X-23888018Y23427572D02*
X-23945161Y23456143D01*
X-23973732Y23484715D01*
X-24002304Y23541858D01*
X-24002304Y23713286D01*
X-23973732Y23770429D01*
X-23945161Y23799000D01*
X-23888018Y23827572D01*
X-23802304Y23827572D01*
X-23745161Y23799000D01*
X-23716589Y23770429D01*
X-23688018Y23713286D01*
X-23688018Y23541858D01*
X-23716589Y23484715D01*
X-23745161Y23456143D01*
X-23802304Y23427572D01*
X-23888018Y23427572D01*
X-23430875Y23427572D02*
X-23430875Y23827572D01*
X-23430875Y23713286D02*
X-23402304Y23770429D01*
X-23373732Y23799000D01*
X-23316589Y23827572D01*
X-23259446Y23827572D01*
X-22802304Y23427572D02*
X-22802304Y23741858D01*
X-22830875Y23799000D01*
X-22888018Y23827572D01*
X-23002304Y23827572D01*
X-23059446Y23799000D01*
X-22802304Y23456143D02*
X-22859446Y23427572D01*
X-23002304Y23427572D01*
X-23059446Y23456143D01*
X-23088018Y23513286D01*
X-23088018Y23570429D01*
X-23059446Y23627572D01*
X-23002304Y23656143D01*
X-22859446Y23656143D01*
X-22802304Y23684715D01*
X-22259446Y23427572D02*
X-22259446Y24027572D01*
X-22259446Y23456143D02*
X-22316589Y23427572D01*
X-22430875Y23427572D01*
X-22488018Y23456143D01*
X-22516589Y23484715D01*
X-22545161Y23541858D01*
X-22545161Y23713286D01*
X-22516589Y23770429D01*
X-22488018Y23799000D01*
X-22430875Y23827572D01*
X-22316589Y23827572D01*
X-22259446Y23799000D01*
X-21973732Y23427572D02*
X-21973732Y23827572D01*
X-21973732Y24027572D02*
X-22002304Y23999000D01*
X-21973732Y23970429D01*
X-21945161Y23999000D01*
X-21973732Y24027572D01*
X-21973732Y23970429D01*
X-21602304Y23427572D02*
X-21659446Y23456143D01*
X-21688018Y23484715D01*
X-21716589Y23541858D01*
X-21716589Y23713286D01*
X-21688018Y23770429D01*
X-21659446Y23799000D01*
X-21602304Y23827572D01*
X-21516589Y23827572D01*
X-21459446Y23799000D01*
X-21430875Y23770429D01*
X-21402304Y23713286D01*
X-21402304Y23541858D01*
X-21430875Y23484715D01*
X-21459446Y23456143D01*
X-21516589Y23427572D01*
X-21602304Y23427572D01*
X-21145161Y23427572D02*
X-21145161Y23827572D01*
X-21145161Y23770429D02*
X-21116589Y23799000D01*
X-21059446Y23827572D01*
X-20973732Y23827572D01*
X-20916589Y23799000D01*
X-20888018Y23741858D01*
X-20888018Y23427572D01*
X-20888018Y23741858D02*
X-20859446Y23799000D01*
X-20802304Y23827572D01*
X-20716589Y23827572D01*
X-20659446Y23799000D01*
X-20630875Y23741858D01*
X-20630875Y23427572D01*
X-20116589Y23456143D02*
X-20173732Y23427572D01*
X-20288018Y23427572D01*
X-20345161Y23456143D01*
X-20373732Y23513286D01*
X-20373732Y23741858D01*
X-20345161Y23799000D01*
X-20288018Y23827572D01*
X-20173732Y23827572D01*
X-20116589Y23799000D01*
X-20088018Y23741858D01*
X-20088018Y23684715D01*
X-20373732Y23627572D01*
X-19916589Y23827572D02*
X-19688018Y23827572D01*
X-19830875Y24027572D02*
X-19830875Y23513286D01*
X-19802304Y23456143D01*
X-19745161Y23427572D01*
X-19688018Y23427572D01*
X-19259446Y23456143D02*
X-19316589Y23427572D01*
X-19430875Y23427572D01*
X-19488018Y23456143D01*
X-19516589Y23513286D01*
X-19516589Y23741858D01*
X-19488018Y23799000D01*
X-19430875Y23827572D01*
X-19316589Y23827572D01*
X-19259446Y23799000D01*
X-19230875Y23741858D01*
X-19230875Y23684715D01*
X-19516589Y23627572D01*
X-18973732Y23427572D02*
X-18973732Y23827572D01*
X-18973732Y23713286D02*
X-18945161Y23770429D01*
X-18916589Y23799000D01*
X-18859446Y23827572D01*
X-18802304Y23827572D01*
X-27830875Y22233000D02*
X-27859446Y22261572D01*
X-27916589Y22347286D01*
X-27945161Y22404429D01*
X-27973732Y22490143D01*
X-28002304Y22633000D01*
X-28002304Y22747286D01*
X-27973732Y22890143D01*
X-27945161Y22975858D01*
X-27916589Y23033000D01*
X-27859446Y23118715D01*
X-27830875Y23147286D01*
X-27602304Y22461572D02*
X-27602304Y23061572D01*
X-27602304Y22775858D02*
X-27259446Y22775858D01*
X-27259446Y22461572D02*
X-27259446Y23061572D01*
X-26716589Y22461572D02*
X-26716589Y22775858D01*
X-26745161Y22833000D01*
X-26802304Y22861572D01*
X-26916589Y22861572D01*
X-26973732Y22833000D01*
X-26716589Y22490143D02*
X-26773732Y22461572D01*
X-26916589Y22461572D01*
X-26973732Y22490143D01*
X-27002304Y22547286D01*
X-27002304Y22604429D01*
X-26973732Y22661572D01*
X-26916589Y22690143D01*
X-26773732Y22690143D01*
X-26716589Y22718715D01*
X-26430875Y22461572D02*
X-26430875Y22861572D01*
X-26430875Y22747286D02*
X-26402304Y22804429D01*
X-26373732Y22833000D01*
X-26316589Y22861572D01*
X-26259446Y22861572D01*
X-25802304Y22461572D02*
X-25802304Y23061572D01*
X-25802304Y22490143D02*
X-25859446Y22461572D01*
X-25973732Y22461572D01*
X-26030875Y22490143D01*
X-26059446Y22518715D01*
X-26088018Y22575858D01*
X-26088018Y22747286D01*
X-26059446Y22804429D01*
X-26030875Y22833000D01*
X-25973732Y22861572D01*
X-25859446Y22861572D01*
X-25802304Y22833000D01*
X-25573732Y22861572D02*
X-25459446Y22461572D01*
X-25345161Y22747286D01*
X-25230875Y22461572D01*
X-25116589Y22861572D01*
X-24630875Y22461572D02*
X-24630875Y22775858D01*
X-24659446Y22833000D01*
X-24716589Y22861572D01*
X-24830875Y22861572D01*
X-24888018Y22833000D01*
X-24630875Y22490143D02*
X-24688018Y22461572D01*
X-24830875Y22461572D01*
X-24888018Y22490143D01*
X-24916589Y22547286D01*
X-24916589Y22604429D01*
X-24888018Y22661572D01*
X-24830875Y22690143D01*
X-24688018Y22690143D01*
X-24630875Y22718715D01*
X-24345161Y22461572D02*
X-24345161Y22861572D01*
X-24345161Y22747286D02*
X-24316589Y22804429D01*
X-24288018Y22833000D01*
X-24230875Y22861572D01*
X-24173732Y22861572D01*
X-23745161Y22490143D02*
X-23802304Y22461572D01*
X-23916589Y22461572D01*
X-23973732Y22490143D01*
X-24002304Y22547286D01*
X-24002304Y22775858D01*
X-23973732Y22833000D01*
X-23916589Y22861572D01*
X-23802304Y22861572D01*
X-23745161Y22833000D01*
X-23716589Y22775858D01*
X-23716589Y22718715D01*
X-24002304Y22661572D01*
X-23030875Y22490143D02*
X-22973732Y22461572D01*
X-22859446Y22461572D01*
X-22802304Y22490143D01*
X-22773732Y22547286D01*
X-22773732Y22575858D01*
X-22802304Y22633000D01*
X-22859446Y22661572D01*
X-22945161Y22661572D01*
X-23002304Y22690143D01*
X-23030875Y22747286D01*
X-23030875Y22775858D01*
X-23002304Y22833000D01*
X-22945161Y22861572D01*
X-22859446Y22861572D01*
X-22802304Y22833000D01*
X-22288018Y22490143D02*
X-22345161Y22461572D01*
X-22459446Y22461572D01*
X-22516589Y22490143D01*
X-22545161Y22547286D01*
X-22545161Y22775858D01*
X-22516589Y22833000D01*
X-22459446Y22861572D01*
X-22345161Y22861572D01*
X-22288018Y22833000D01*
X-22259446Y22775858D01*
X-22259446Y22718715D01*
X-22545161Y22661572D01*
X-21916589Y22461572D02*
X-21973732Y22490143D01*
X-22002304Y22547286D01*
X-22002304Y23061572D01*
X-21459446Y22490143D02*
X-21516589Y22461572D01*
X-21630875Y22461572D01*
X-21688018Y22490143D01*
X-21716589Y22547286D01*
X-21716589Y22775858D01*
X-21688018Y22833000D01*
X-21630875Y22861572D01*
X-21516589Y22861572D01*
X-21459446Y22833000D01*
X-21430875Y22775858D01*
X-21430875Y22718715D01*
X-21716589Y22661572D01*
X-20916589Y22490143D02*
X-20973732Y22461572D01*
X-21088018Y22461572D01*
X-21145161Y22490143D01*
X-21173732Y22518715D01*
X-21202304Y22575858D01*
X-21202304Y22747286D01*
X-21173732Y22804429D01*
X-21145161Y22833000D01*
X-21088018Y22861572D01*
X-20973732Y22861572D01*
X-20916589Y22833000D01*
X-20745161Y22861572D02*
X-20516589Y22861572D01*
X-20659446Y23061572D02*
X-20659446Y22547286D01*
X-20630875Y22490143D01*
X-20573732Y22461572D01*
X-20516589Y22461572D01*
X-20373732Y22233000D02*
X-20345161Y22261572D01*
X-20288018Y22347286D01*
X-20259446Y22404429D01*
X-20230875Y22490143D01*
X-20202304Y22633000D01*
X-20202304Y22747286D01*
X-20230875Y22890143D01*
X-20259446Y22975858D01*
X-20288018Y23033000D01*
X-20345161Y23118715D01*
X-20373732Y23147286D01*
X-19145161Y23033000D02*
X-19202304Y23061572D01*
X-19288018Y23061572D01*
X-19373732Y23033000D01*
X-19430875Y22975858D01*
X-19459446Y22918715D01*
X-19488018Y22804429D01*
X-19488018Y22718715D01*
X-19459446Y22604429D01*
X-19430875Y22547286D01*
X-19373732Y22490143D01*
X-19288018Y22461572D01*
X-19230875Y22461572D01*
X-19145161Y22490143D01*
X-19116589Y22518715D01*
X-19116589Y22718715D01*
X-19230875Y22718715D01*
X-18888018Y22633000D02*
X-18602304Y22633000D01*
X-18945161Y22461572D02*
X-18745161Y23061572D01*
X-18545161Y22461572D01*
X-18345161Y22461572D02*
X-18345161Y23061572D01*
X-18059446Y22461572D02*
X-18059446Y23061572D01*
X-17716589Y22461572D01*
X-17716589Y23061572D01*
X-26002304Y21895572D02*
X-26459446Y21724143D01*
X-26002304Y21552715D01*
X-25716589Y21724143D02*
X-25259446Y21724143D01*
X-24973732Y21495572D02*
X-24973732Y22095572D01*
X-24973732Y21809858D02*
X-24630875Y21809858D01*
X-24630875Y21495572D02*
X-24630875Y22095572D01*
X-24345161Y21495572D02*
X-24345161Y22095572D01*
X-23745161Y22067000D02*
X-23802304Y22095572D01*
X-23888018Y22095572D01*
X-23973732Y22067000D01*
X-24030875Y22009858D01*
X-24059446Y21952715D01*
X-24088018Y21838429D01*
X-24088018Y21752715D01*
X-24059446Y21638429D01*
X-24030875Y21581286D01*
X-23973732Y21524143D01*
X-23888018Y21495572D01*
X-23830875Y21495572D01*
X-23745161Y21524143D01*
X-23716589Y21552715D01*
X-23716589Y21752715D01*
X-23830875Y21752715D01*
X-23459446Y21495572D02*
X-23459446Y22095572D01*
X-23459446Y21809858D02*
X-23116589Y21809858D01*
X-23116589Y21495572D02*
X-23116589Y22095572D01*
X-22688018Y21295572D02*
X-22688018Y22152715D01*
X-21973732Y21495572D02*
X-22259446Y21495572D01*
X-22259446Y22095572D01*
X-21659446Y22095572D02*
X-21545161Y22095572D01*
X-21488018Y22067000D01*
X-21430875Y22009858D01*
X-21402304Y21895572D01*
X-21402304Y21695572D01*
X-21430875Y21581286D01*
X-21488018Y21524143D01*
X-21545161Y21495572D01*
X-21659446Y21495572D01*
X-21716589Y21524143D01*
X-21773732Y21581286D01*
X-21802304Y21695572D01*
X-21802304Y21895572D01*
X-21773732Y22009858D01*
X-21716589Y22067000D01*
X-21659446Y22095572D01*
X-21202304Y22095572D02*
X-21059446Y21495572D01*
X-20945161Y21924143D01*
X-20830875Y21495572D01*
X-20688018Y22095572D01*
X-20459446Y21724143D02*
X-20002304Y21724143D01*
X-19716589Y21895572D02*
X-19259446Y21724143D01*
X-19716589Y21552715D01*
D14*
X-27538572Y14202750D02*
X-27574286Y14238465D01*
X-27645715Y14345608D01*
X-27681429Y14417036D01*
X-27717143Y14524179D01*
X-27752858Y14702750D01*
X-27752858Y14845608D01*
X-27717143Y15024179D01*
X-27681429Y15131322D01*
X-27645715Y15202750D01*
X-27574286Y15309893D01*
X-27538572Y15345608D01*
X-27288572Y14524179D02*
X-27181429Y14488465D01*
X-27002858Y14488465D01*
X-26931429Y14524179D01*
X-26895715Y14559893D01*
X-26860000Y14631322D01*
X-26860000Y14702750D01*
X-26895715Y14774179D01*
X-26931429Y14809893D01*
X-27002858Y14845608D01*
X-27145715Y14881322D01*
X-27217143Y14917036D01*
X-27252858Y14952750D01*
X-27288572Y15024179D01*
X-27288572Y15095608D01*
X-27252858Y15167036D01*
X-27217143Y15202750D01*
X-27145715Y15238465D01*
X-26967143Y15238465D01*
X-26860000Y15202750D01*
X-26431429Y14488465D02*
X-26502858Y14524179D01*
X-26538572Y14559893D01*
X-26574286Y14631322D01*
X-26574286Y14845608D01*
X-26538572Y14917036D01*
X-26502858Y14952750D01*
X-26431429Y14988465D01*
X-26324286Y14988465D01*
X-26252858Y14952750D01*
X-26217143Y14917036D01*
X-26181429Y14845608D01*
X-26181429Y14631322D01*
X-26217143Y14559893D01*
X-26252858Y14524179D01*
X-26324286Y14488465D01*
X-26431429Y14488465D01*
X-25967143Y14988465D02*
X-25681429Y14988465D01*
X-25860000Y14488465D02*
X-25860000Y15131322D01*
X-25824286Y15202750D01*
X-25752858Y15238465D01*
X-25681429Y15238465D01*
X-25538572Y14988465D02*
X-25252858Y14988465D01*
X-25431429Y15238465D02*
X-25431429Y14595608D01*
X-25395715Y14524179D01*
X-25324286Y14488465D01*
X-25252858Y14488465D01*
X-24467143Y15274179D02*
X-25110000Y14309893D01*
X-24217143Y14488465D02*
X-24217143Y15238465D01*
X-24217143Y14881322D02*
X-23788572Y14881322D01*
X-23788572Y14488465D02*
X-23788572Y15238465D01*
X-23110000Y14488465D02*
X-23110000Y14881322D01*
X-23145715Y14952750D01*
X-23217143Y14988465D01*
X-23360000Y14988465D01*
X-23431429Y14952750D01*
X-23110000Y14524179D02*
X-23181429Y14488465D01*
X-23360000Y14488465D01*
X-23431429Y14524179D01*
X-23467143Y14595608D01*
X-23467143Y14667036D01*
X-23431429Y14738465D01*
X-23360000Y14774179D01*
X-23181429Y14774179D01*
X-23110000Y14809893D01*
X-22752858Y14488465D02*
X-22752858Y14988465D01*
X-22752858Y14845608D02*
X-22717143Y14917036D01*
X-22681429Y14952750D01*
X-22610000Y14988465D01*
X-22538572Y14988465D01*
X-21967143Y14488465D02*
X-21967143Y15238465D01*
X-21967143Y14524179D02*
X-22038572Y14488465D01*
X-22181429Y14488465D01*
X-22252858Y14524179D01*
X-22288572Y14559893D01*
X-22324286Y14631322D01*
X-22324286Y14845608D01*
X-22288572Y14917036D01*
X-22252858Y14952750D01*
X-22181429Y14988465D01*
X-22038572Y14988465D01*
X-21967143Y14952750D01*
X-21681429Y14202750D02*
X-21645715Y14238465D01*
X-21574286Y14345608D01*
X-21538572Y14417036D01*
X-21502858Y14524179D01*
X-21467143Y14702750D01*
X-21467143Y14845608D01*
X-21502858Y15024179D01*
X-21538572Y15131322D01*
X-21574286Y15202750D01*
X-21645715Y15309893D01*
X-21681429Y15345608D01*
X-21110000Y14774179D02*
X-20538572Y14774179D01*
X-20252858Y14988465D02*
X-20110000Y14488465D01*
X-19967143Y14845608D01*
X-19824286Y14488465D01*
X-19681429Y14988465D01*
X-19074286Y14488465D02*
X-19074286Y14881322D01*
X-19110000Y14952750D01*
X-19181429Y14988465D01*
X-19324286Y14988465D01*
X-19395715Y14952750D01*
X-19074286Y14524179D02*
X-19145715Y14488465D01*
X-19324286Y14488465D01*
X-19395715Y14524179D01*
X-19431429Y14595608D01*
X-19431429Y14667036D01*
X-19395715Y14738465D01*
X-19324286Y14774179D01*
X-19145715Y14774179D01*
X-19074286Y14809893D01*
X-18717143Y14488465D02*
X-18717143Y14988465D01*
X-18717143Y14845608D02*
X-18681429Y14917036D01*
X-18645715Y14952750D01*
X-18574286Y14988465D01*
X-18502858Y14988465D01*
X-17967143Y14524179D02*
X-18038572Y14488465D01*
X-18181429Y14488465D01*
X-18252858Y14524179D01*
X-18288572Y14595608D01*
X-18288572Y14881322D01*
X-18252858Y14952750D01*
X-18181429Y14988465D01*
X-18038572Y14988465D01*
X-17967143Y14952750D01*
X-17931429Y14881322D01*
X-17931429Y14809893D01*
X-18288572Y14738465D01*
X-25788572Y13995250D02*
X-25860000Y14030965D01*
X-25967143Y14030965D01*
X-26074286Y13995250D01*
X-26145715Y13923822D01*
X-26181429Y13852393D01*
X-26217143Y13709536D01*
X-26217143Y13602393D01*
X-26181429Y13459536D01*
X-26145715Y13388108D01*
X-26074286Y13316679D01*
X-25967143Y13280965D01*
X-25895715Y13280965D01*
X-25788572Y13316679D01*
X-25752858Y13352393D01*
X-25752858Y13602393D01*
X-25895715Y13602393D01*
X-25110000Y13280965D02*
X-25110000Y13673822D01*
X-25145715Y13745250D01*
X-25217143Y13780965D01*
X-25360000Y13780965D01*
X-25431429Y13745250D01*
X-25110000Y13316679D02*
X-25181429Y13280965D01*
X-25360000Y13280965D01*
X-25431429Y13316679D01*
X-25467143Y13388108D01*
X-25467143Y13459536D01*
X-25431429Y13530965D01*
X-25360000Y13566679D01*
X-25181429Y13566679D01*
X-25110000Y13602393D01*
X-24752858Y13280965D02*
X-24752858Y13780965D01*
X-24752858Y14030965D02*
X-24788572Y13995250D01*
X-24752858Y13959536D01*
X-24717143Y13995250D01*
X-24752858Y14030965D01*
X-24752858Y13959536D01*
X-24395715Y13780965D02*
X-24395715Y13280965D01*
X-24395715Y13709536D02*
X-24360000Y13745250D01*
X-24288572Y13780965D01*
X-24181429Y13780965D01*
X-24110000Y13745250D01*
X-24074286Y13673822D01*
X-24074286Y13280965D01*
X-22824286Y13316679D02*
X-22895715Y13280965D01*
X-23038572Y13280965D01*
X-23110000Y13316679D01*
X-23145715Y13352393D01*
X-23181429Y13423822D01*
X-23181429Y13638108D01*
X-23145715Y13709536D01*
X-23110000Y13745250D01*
X-23038572Y13780965D01*
X-22895715Y13780965D01*
X-22824286Y13745250D01*
X-22395715Y13280965D02*
X-22467143Y13316679D01*
X-22502858Y13352393D01*
X-22538572Y13423822D01*
X-22538572Y13638108D01*
X-22502858Y13709536D01*
X-22467143Y13745250D01*
X-22395715Y13780965D01*
X-22288572Y13780965D01*
X-22217143Y13745250D01*
X-22181429Y13709536D01*
X-22145715Y13638108D01*
X-22145715Y13423822D01*
X-22181429Y13352393D01*
X-22217143Y13316679D01*
X-22288572Y13280965D01*
X-22395715Y13280965D01*
X-21824286Y13780965D02*
X-21824286Y13280965D01*
X-21824286Y13709536D02*
X-21788572Y13745250D01*
X-21717143Y13780965D01*
X-21610000Y13780965D01*
X-21538572Y13745250D01*
X-21502858Y13673822D01*
X-21502858Y13280965D01*
X-21252858Y13780965D02*
X-20967143Y13780965D01*
X-21145715Y14030965D02*
X-21145715Y13388108D01*
X-21110000Y13316679D01*
X-21038572Y13280965D01*
X-20967143Y13280965D01*
X-20717143Y13280965D02*
X-20717143Y13780965D01*
X-20717143Y13638108D02*
X-20681429Y13709536D01*
X-20645715Y13745250D01*
X-20574286Y13780965D01*
X-20502858Y13780965D01*
X-20145715Y13280965D02*
X-20217143Y13316679D01*
X-20252858Y13352393D01*
X-20288572Y13423822D01*
X-20288572Y13638108D01*
X-20252858Y13709536D01*
X-20217143Y13745250D01*
X-20145715Y13780965D01*
X-20038572Y13780965D01*
X-19967143Y13745250D01*
X-19931429Y13709536D01*
X-19895715Y13638108D01*
X-19895715Y13423822D01*
X-19931429Y13352393D01*
X-19967143Y13316679D01*
X-20038572Y13280965D01*
X-20145715Y13280965D01*
X-19467143Y13280965D02*
X-19538572Y13316679D01*
X-19574286Y13388108D01*
X-19574286Y14030965D01*
D10*
X-77836739Y-15851142D02*
X-77884358Y-15898761D01*
X-78027215Y-15946380D01*
X-78122453Y-15946380D01*
X-78265310Y-15898761D01*
X-78360548Y-15803523D01*
X-78408167Y-15708285D01*
X-78455786Y-15517809D01*
X-78455786Y-15374952D01*
X-78408167Y-15184476D01*
X-78360548Y-15089238D01*
X-78265310Y-14994000D01*
X-78122453Y-14946380D01*
X-78027215Y-14946380D01*
X-77884358Y-14994000D01*
X-77836739Y-15041619D01*
X-77455786Y-15660666D02*
X-76979596Y-15660666D01*
X-77551024Y-15946380D02*
X-77217691Y-14946380D01*
X-76884358Y-15946380D01*
X-76551024Y-15946380D02*
X-76551024Y-14946380D01*
X-76217691Y-15660666D01*
X-75884358Y-14946380D01*
X-75884358Y-15946380D01*
X-75455786Y-15041619D02*
X-75408167Y-14994000D01*
X-75312929Y-14946380D01*
X-75074834Y-14946380D01*
X-74979596Y-14994000D01*
X-74931977Y-15041619D01*
X-74884358Y-15136857D01*
X-74884358Y-15232095D01*
X-74931977Y-15374952D01*
X-75503405Y-15946380D01*
X-74884358Y-15946380D01*
X-73884358Y-15946380D02*
X-74217691Y-15470190D01*
X-74455786Y-15946380D02*
X-74455786Y-14946380D01*
X-74074834Y-14946380D01*
X-73979596Y-14994000D01*
X-73931977Y-15041619D01*
X-73884358Y-15136857D01*
X-73884358Y-15279714D01*
X-73931977Y-15374952D01*
X-73979596Y-15422571D01*
X-74074834Y-15470190D01*
X-74455786Y-15470190D01*
X-73551024Y-14946380D02*
X-72884358Y-15946380D01*
X-72884358Y-14946380D02*
X-73551024Y-15946380D01*
X-64926715Y23812572D02*
X-64926715Y24312572D01*
X-64176715Y23991143D01*
X-64926715Y24491143D02*
X-64176715Y24741143D01*
X-64926715Y24991143D01*
X-64926715Y15148858D02*
X-64926715Y15613143D01*
X-64641000Y15363143D01*
X-64641000Y15470286D01*
X-64605286Y15541715D01*
X-64569572Y15577429D01*
X-64498143Y15613143D01*
X-64319572Y15613143D01*
X-64248143Y15577429D01*
X-64212429Y15541715D01*
X-64176715Y15470286D01*
X-64176715Y15256000D01*
X-64212429Y15184572D01*
X-64248143Y15148858D01*
X-64248143Y15934572D02*
X-64212429Y15970286D01*
X-64176715Y15934572D01*
X-64212429Y15898858D01*
X-64248143Y15934572D01*
X-64176715Y15934572D01*
X-64926715Y16220286D02*
X-64926715Y16684572D01*
X-64641000Y16434572D01*
X-64641000Y16541715D01*
X-64605286Y16613143D01*
X-64569572Y16648858D01*
X-64498143Y16684572D01*
X-64319572Y16684572D01*
X-64248143Y16648858D01*
X-64212429Y16613143D01*
X-64176715Y16541715D01*
X-64176715Y16327429D01*
X-64212429Y16256000D01*
X-64248143Y16220286D01*
X-64926715Y16898858D02*
X-64176715Y17148858D01*
X-64926715Y17398858D01*
X-76122453Y-23566380D02*
X-76122453Y-22566380D01*
X-75789120Y-23280666D01*
X-75455786Y-22566380D01*
X-75455786Y-23566380D01*
X-74979596Y-23566380D02*
X-74979596Y-22566380D01*
X-74551024Y-23518761D02*
X-74408167Y-23566380D01*
X-74170072Y-23566380D01*
X-74074834Y-23518761D01*
X-74027215Y-23471142D01*
X-73979596Y-23375904D01*
X-73979596Y-23280666D01*
X-74027215Y-23185428D01*
X-74074834Y-23137809D01*
X-74170072Y-23090190D01*
X-74360548Y-23042571D01*
X-74455786Y-22994952D01*
X-74503405Y-22947333D01*
X-74551024Y-22852095D01*
X-74551024Y-22756857D01*
X-74503405Y-22661619D01*
X-74455786Y-22614000D01*
X-74360548Y-22566380D01*
X-74122453Y-22566380D01*
X-73979596Y-22614000D01*
X-73360548Y-22566380D02*
X-73170072Y-22566380D01*
X-73074834Y-22614000D01*
X-72979596Y-22709238D01*
X-72931977Y-22899714D01*
X-72931977Y-23233047D01*
X-72979596Y-23423523D01*
X-73074834Y-23518761D01*
X-73170072Y-23566380D01*
X-73360548Y-23566380D01*
X-73455786Y-23518761D01*
X-73551024Y-23423523D01*
X-73598643Y-23233047D01*
X-73598643Y-22899714D01*
X-73551024Y-22709238D01*
X-73455786Y-22614000D01*
X-73360548Y-22566380D01*
X-77836739Y-10771142D02*
X-77884358Y-10818761D01*
X-78027215Y-10866380D01*
X-78122453Y-10866380D01*
X-78265310Y-10818761D01*
X-78360548Y-10723523D01*
X-78408167Y-10628285D01*
X-78455786Y-10437809D01*
X-78455786Y-10294952D01*
X-78408167Y-10104476D01*
X-78360548Y-10009238D01*
X-78265310Y-9914000D01*
X-78122453Y-9866380D01*
X-78027215Y-9866380D01*
X-77884358Y-9914000D01*
X-77836739Y-9961619D01*
X-77455786Y-10580666D02*
X-76979596Y-10580666D01*
X-77551024Y-10866380D02*
X-77217691Y-9866380D01*
X-76884358Y-10866380D01*
X-76551024Y-10866380D02*
X-76551024Y-9866380D01*
X-76217691Y-10580666D01*
X-75884358Y-9866380D01*
X-75884358Y-10866380D01*
X-74884358Y-10866380D02*
X-75455786Y-10866380D01*
X-75170072Y-10866380D02*
X-75170072Y-9866380D01*
X-75265310Y-10009238D01*
X-75360548Y-10104476D01*
X-75455786Y-10152095D01*
X-73884358Y-10866380D02*
X-74217691Y-10390190D01*
X-74455786Y-10866380D02*
X-74455786Y-9866380D01*
X-74074834Y-9866380D01*
X-73979596Y-9914000D01*
X-73931977Y-9961619D01*
X-73884358Y-10056857D01*
X-73884358Y-10199714D01*
X-73931977Y-10294952D01*
X-73979596Y-10342571D01*
X-74074834Y-10390190D01*
X-74455786Y-10390190D01*
X-73551024Y-9866380D02*
X-72884358Y-10866380D01*
X-72884358Y-9866380D02*
X-73551024Y-10866380D01*
X-75312929Y-20978761D02*
X-75170072Y-21026380D01*
X-74931977Y-21026380D01*
X-74836739Y-20978761D01*
X-74789120Y-20931142D01*
X-74741500Y-20835904D01*
X-74741500Y-20740666D01*
X-74789120Y-20645428D01*
X-74836739Y-20597809D01*
X-74931977Y-20550190D01*
X-75122453Y-20502571D01*
X-75217691Y-20454952D01*
X-75265310Y-20407333D01*
X-75312929Y-20312095D01*
X-75312929Y-20216857D01*
X-75265310Y-20121619D01*
X-75217691Y-20074000D01*
X-75122453Y-20026380D01*
X-74884358Y-20026380D01*
X-74741500Y-20074000D01*
X-73741500Y-20931142D02*
X-73789120Y-20978761D01*
X-73931977Y-21026380D01*
X-74027215Y-21026380D01*
X-74170072Y-20978761D01*
X-74265310Y-20883523D01*
X-74312929Y-20788285D01*
X-74360548Y-20597809D01*
X-74360548Y-20454952D01*
X-74312929Y-20264476D01*
X-74265310Y-20169238D01*
X-74170072Y-20074000D01*
X-74027215Y-20026380D01*
X-73931977Y-20026380D01*
X-73789120Y-20074000D01*
X-73741500Y-20121619D01*
X-72836739Y-21026380D02*
X-73312929Y-21026380D01*
X-73312929Y-20026380D01*
X-61944000Y26598667D02*
X-61991620Y26646286D01*
X-62086858Y26789143D01*
X-62134477Y26884381D01*
X-62182096Y27027239D01*
X-62229715Y27265334D01*
X-62229715Y27455810D01*
X-62182096Y27693905D01*
X-62134477Y27836762D01*
X-62086858Y27932000D01*
X-61991620Y28074858D01*
X-61944000Y28122477D01*
X-61658286Y27979620D02*
X-61039239Y27979620D01*
X-61372572Y27598667D01*
X-61229715Y27598667D01*
X-61134477Y27551048D01*
X-61086858Y27503429D01*
X-61039239Y27408191D01*
X-61039239Y27170096D01*
X-61086858Y27074858D01*
X-61134477Y27027239D01*
X-61229715Y26979620D01*
X-61515429Y26979620D01*
X-61610667Y27027239D01*
X-61658286Y27074858D01*
X-60610667Y27074858D02*
X-60563048Y27027239D01*
X-60610667Y26979620D01*
X-60658286Y27027239D01*
X-60610667Y27074858D01*
X-60610667Y26979620D01*
X-60229715Y27979620D02*
X-59610667Y27979620D01*
X-59944000Y27598667D01*
X-59801143Y27598667D01*
X-59705905Y27551048D01*
X-59658286Y27503429D01*
X-59610667Y27408191D01*
X-59610667Y27170096D01*
X-59658286Y27074858D01*
X-59705905Y27027239D01*
X-59801143Y26979620D01*
X-60086858Y26979620D01*
X-60182096Y27027239D01*
X-60229715Y27074858D01*
X-59324953Y27979620D02*
X-58991620Y26979620D01*
X-58658286Y27979620D01*
X-58324953Y27074858D02*
X-58277334Y27027239D01*
X-58324953Y26979620D01*
X-58372572Y27027239D01*
X-58324953Y27074858D01*
X-58324953Y26979620D01*
X-58324953Y27360572D02*
X-58372572Y27932000D01*
X-58324953Y27979620D01*
X-58277334Y27932000D01*
X-58324953Y27360572D01*
X-58324953Y27979620D01*
X-57944000Y26598667D02*
X-57896381Y26646286D01*
X-57801143Y26789143D01*
X-57753524Y26884381D01*
X-57705905Y27027239D01*
X-57658286Y27265334D01*
X-57658286Y27455810D01*
X-57705905Y27693905D01*
X-57753524Y27836762D01*
X-57801143Y27932000D01*
X-57896381Y28074858D01*
X-57944000Y28122477D01*
X-75503405Y-26058761D02*
X-75360548Y-26106380D01*
X-75122453Y-26106380D01*
X-75027215Y-26058761D01*
X-74979596Y-26011142D01*
X-74931977Y-25915904D01*
X-74931977Y-25820666D01*
X-74979596Y-25725428D01*
X-75027215Y-25677809D01*
X-75122453Y-25630190D01*
X-75312929Y-25582571D01*
X-75408167Y-25534952D01*
X-75455786Y-25487333D01*
X-75503405Y-25392095D01*
X-75503405Y-25296857D01*
X-75455786Y-25201619D01*
X-75408167Y-25154000D01*
X-75312929Y-25106380D01*
X-75074834Y-25106380D01*
X-74931977Y-25154000D01*
X-73931977Y-26011142D02*
X-73979596Y-26058761D01*
X-74122453Y-26106380D01*
X-74217691Y-26106380D01*
X-74360548Y-26058761D01*
X-74455786Y-25963523D01*
X-74503405Y-25868285D01*
X-74551024Y-25677809D01*
X-74551024Y-25534952D01*
X-74503405Y-25344476D01*
X-74455786Y-25249238D01*
X-74360548Y-25154000D01*
X-74217691Y-25106380D01*
X-74122453Y-25106380D01*
X-73979596Y-25154000D01*
X-73931977Y-25201619D01*
X-73503405Y-26106380D02*
X-73503405Y-25106380D01*
X-72931977Y-26106380D02*
X-73360548Y-25534952D01*
X-72931977Y-25106380D02*
X-73503405Y-25677809D01*
X-60827000Y31940572D02*
X-60862715Y31869143D01*
X-60862715Y31762000D01*
X-60827000Y31654858D01*
X-60755572Y31583429D01*
X-60684143Y31547715D01*
X-60541286Y31512000D01*
X-60434143Y31512000D01*
X-60291286Y31547715D01*
X-60219858Y31583429D01*
X-60148429Y31654858D01*
X-60112715Y31762000D01*
X-60112715Y31833429D01*
X-60148429Y31940572D01*
X-60184143Y31976286D01*
X-60434143Y31976286D01*
X-60434143Y31833429D01*
X-60112715Y32297715D02*
X-60862715Y32297715D01*
X-60112715Y32726286D01*
X-60862715Y32726286D01*
X-60112715Y33083429D02*
X-60862715Y33083429D01*
X-60862715Y33262000D01*
X-60827000Y33369143D01*
X-60755572Y33440572D01*
X-60684143Y33476286D01*
X-60541286Y33512000D01*
X-60434143Y33512000D01*
X-60291286Y33476286D01*
X-60219858Y33440572D01*
X-60148429Y33369143D01*
X-60112715Y33262000D01*
X-60112715Y33083429D01*
X-75998643Y-4786380D02*
X-75427215Y-4786380D01*
X-75712929Y-5786380D02*
X-75712929Y-4786380D01*
X-75189120Y-4786380D02*
X-74522453Y-5786380D01*
X-74522453Y-4786380D02*
X-75189120Y-5786380D01*
X-74189120Y-5738761D02*
X-74046262Y-5786380D01*
X-73808167Y-5786380D01*
X-73712929Y-5738761D01*
X-73665310Y-5691142D01*
X-73617691Y-5595904D01*
X-73617691Y-5500666D01*
X-73665310Y-5405428D01*
X-73712929Y-5357809D01*
X-73808167Y-5310190D01*
X-73998643Y-5262571D01*
X-74093881Y-5214952D01*
X-74141500Y-5167333D01*
X-74189120Y-5072095D01*
X-74189120Y-4976857D01*
X-74141500Y-4881619D01*
X-74093881Y-4834000D01*
X-73998643Y-4786380D01*
X-73760548Y-4786380D01*
X-73617691Y-4834000D01*
X-72931977Y-5857809D02*
X-73008167Y-5895904D01*
X-73160548Y-5895904D01*
X-73236739Y-5857809D01*
X-73274834Y-5781619D01*
X-73274834Y-5476857D01*
X-73236739Y-5400666D01*
X-73160548Y-5362571D01*
X-73008167Y-5362571D01*
X-72931977Y-5400666D01*
X-72893881Y-5476857D01*
X-72893881Y-5553047D01*
X-73274834Y-5629238D01*
X-76122453Y-28646380D02*
X-76122453Y-27646380D01*
X-75789120Y-28360666D01*
X-75455786Y-27646380D01*
X-75455786Y-28646380D01*
X-74789120Y-27646380D02*
X-74598643Y-27646380D01*
X-74503405Y-27694000D01*
X-74408167Y-27789238D01*
X-74360548Y-27979714D01*
X-74360548Y-28313047D01*
X-74408167Y-28503523D01*
X-74503405Y-28598761D01*
X-74598643Y-28646380D01*
X-74789120Y-28646380D01*
X-74884358Y-28598761D01*
X-74979596Y-28503523D01*
X-75027215Y-28313047D01*
X-75027215Y-27979714D01*
X-74979596Y-27789238D01*
X-74884358Y-27694000D01*
X-74789120Y-27646380D01*
X-73979596Y-28598761D02*
X-73836739Y-28646380D01*
X-73598643Y-28646380D01*
X-73503405Y-28598761D01*
X-73455786Y-28551142D01*
X-73408167Y-28455904D01*
X-73408167Y-28360666D01*
X-73455786Y-28265428D01*
X-73503405Y-28217809D01*
X-73598643Y-28170190D01*
X-73789120Y-28122571D01*
X-73884358Y-28074952D01*
X-73931977Y-28027333D01*
X-73979596Y-27932095D01*
X-73979596Y-27836857D01*
X-73931977Y-27741619D01*
X-73884358Y-27694000D01*
X-73789120Y-27646380D01*
X-73551024Y-27646380D01*
X-73408167Y-27694000D01*
X-72979596Y-28646380D02*
X-72979596Y-27646380D01*
X-75027215Y-30234000D02*
X-75122453Y-30186380D01*
X-75265310Y-30186380D01*
X-75408167Y-30234000D01*
X-75503405Y-30329238D01*
X-75551024Y-30424476D01*
X-75598643Y-30614952D01*
X-75598643Y-30757809D01*
X-75551024Y-30948285D01*
X-75503405Y-31043523D01*
X-75408167Y-31138761D01*
X-75265310Y-31186380D01*
X-75170072Y-31186380D01*
X-75027215Y-31138761D01*
X-74979596Y-31091142D01*
X-74979596Y-30757809D01*
X-75170072Y-30757809D01*
X-74551024Y-31186380D02*
X-74551024Y-30186380D01*
X-73979596Y-31186380D01*
X-73979596Y-30186380D01*
X-73503405Y-31186380D02*
X-73503405Y-30186380D01*
X-73265310Y-30186380D01*
X-73122453Y-30234000D01*
X-73027215Y-30329238D01*
X-72979596Y-30424476D01*
X-72931977Y-30614952D01*
X-72931977Y-30757809D01*
X-72979596Y-30948285D01*
X-73027215Y-31043523D01*
X-73122453Y-31138761D01*
X-73265310Y-31186380D01*
X-73503405Y-31186380D01*
X-26274589Y-14915306D02*
X-26238875Y-14951020D01*
X-26203161Y-15058163D01*
X-26203161Y-15129591D01*
X-26238875Y-15236734D01*
X-26310304Y-15308163D01*
X-26381732Y-15343877D01*
X-26524589Y-15379591D01*
X-26631732Y-15379591D01*
X-26774589Y-15343877D01*
X-26846018Y-15308163D01*
X-26917446Y-15236734D01*
X-26953161Y-15129591D01*
X-26953161Y-15058163D01*
X-26917446Y-14951020D01*
X-26881732Y-14915306D01*
X-26417446Y-14629591D02*
X-26417446Y-14272449D01*
X-26203161Y-14701020D02*
X-26953161Y-14451020D01*
X-26203161Y-14201020D01*
X-26203161Y-13951020D02*
X-26953161Y-13951020D01*
X-26203161Y-13522449D01*
X-26953161Y-13522449D01*
X-26121018Y-13201020D02*
X-26721018Y-13201020D01*
X-26435304Y-13201020D02*
X-26435304Y-12858163D01*
X-26121018Y-12858163D02*
X-26721018Y-12858163D01*
X-77598643Y-8231142D02*
X-77646262Y-8278761D01*
X-77789120Y-8326380D01*
X-77884358Y-8326380D01*
X-78027215Y-8278761D01*
X-78122453Y-8183523D01*
X-78170072Y-8088285D01*
X-78217691Y-7897809D01*
X-78217691Y-7754952D01*
X-78170072Y-7564476D01*
X-78122453Y-7469238D01*
X-78027215Y-7374000D01*
X-77884358Y-7326380D01*
X-77789120Y-7326380D01*
X-77646262Y-7374000D01*
X-77598643Y-7421619D01*
X-77217691Y-8040666D02*
X-76741500Y-8040666D01*
X-77312929Y-8326380D02*
X-76979596Y-7326380D01*
X-76646262Y-8326380D01*
X-76312929Y-8326380D02*
X-76312929Y-7326380D01*
X-75979596Y-8040666D01*
X-75646262Y-7326380D01*
X-75646262Y-8326380D01*
X-74646262Y-8326380D02*
X-75217691Y-8326380D01*
X-74931977Y-8326380D02*
X-74931977Y-7326380D01*
X-75027215Y-7469238D01*
X-75122453Y-7564476D01*
X-75217691Y-7612095D01*
X-74360548Y-7326380D02*
X-73789120Y-7326380D01*
X-74074834Y-8326380D02*
X-74074834Y-7326380D01*
X-73551024Y-7326380D02*
X-72884358Y-8326380D01*
X-72884358Y-7326380D02*
X-73551024Y-8326380D01*
X936666Y-13676380D02*
X936666Y-14390666D01*
X889047Y-14533523D01*
X793809Y-14628761D01*
X650952Y-14676380D01*
X555714Y-14676380D01*
X1365238Y-13771619D02*
X1412857Y-13724000D01*
X1508095Y-13676380D01*
X1746190Y-13676380D01*
X1841428Y-13724000D01*
X1889047Y-13771619D01*
X1936666Y-13866857D01*
X1936666Y-13962095D01*
X1889047Y-14104952D01*
X1317619Y-14676380D01*
X1936666Y-14676380D01*
X-64926715Y20177143D02*
X-64926715Y19820000D01*
X-64569572Y19784286D01*
X-64605286Y19820000D01*
X-64641000Y19891429D01*
X-64641000Y20070000D01*
X-64605286Y20141429D01*
X-64569572Y20177143D01*
X-64498143Y20212858D01*
X-64319572Y20212858D01*
X-64248143Y20177143D01*
X-64212429Y20141429D01*
X-64176715Y20070000D01*
X-64176715Y19891429D01*
X-64212429Y19820000D01*
X-64248143Y19784286D01*
X-64926715Y20427143D02*
X-64176715Y20677143D01*
X-64926715Y20927143D01*
X-23734589Y-14915306D02*
X-23698875Y-14951020D01*
X-23663161Y-15058163D01*
X-23663161Y-15129591D01*
X-23698875Y-15236734D01*
X-23770304Y-15308163D01*
X-23841732Y-15343877D01*
X-23984589Y-15379591D01*
X-24091732Y-15379591D01*
X-24234589Y-15343877D01*
X-24306018Y-15308163D01*
X-24377446Y-15236734D01*
X-24413161Y-15129591D01*
X-24413161Y-15058163D01*
X-24377446Y-14951020D01*
X-24341732Y-14915306D01*
X-23877446Y-14629591D02*
X-23877446Y-14272449D01*
X-23663161Y-14701020D02*
X-24413161Y-14451020D01*
X-23663161Y-14201020D01*
X-23663161Y-13951020D02*
X-24413161Y-13951020D01*
X-23663161Y-13522449D01*
X-24413161Y-13522449D01*
X-23581018Y-12915306D02*
X-23581018Y-13201020D01*
X-24181018Y-13201020D01*
%TO.C,JPPS1*%
X-62825143Y7710420D02*
X-62825143Y6996134D01*
X-62860858Y6853277D01*
X-62932286Y6758039D01*
X-63039429Y6710420D01*
X-63110858Y6710420D01*
X-62468000Y6710420D02*
X-62468000Y7710420D01*
X-62182286Y7710420D01*
X-62110858Y7662800D01*
X-62075143Y7615181D01*
X-62039429Y7519943D01*
X-62039429Y7377086D01*
X-62075143Y7281848D01*
X-62110858Y7234229D01*
X-62182286Y7186610D01*
X-62468000Y7186610D01*
X-61718000Y6710420D02*
X-61718000Y7710420D01*
X-61432286Y7710420D01*
X-61360858Y7662800D01*
X-61325143Y7615181D01*
X-61289429Y7519943D01*
X-61289429Y7377086D01*
X-61325143Y7281848D01*
X-61360858Y7234229D01*
X-61432286Y7186610D01*
X-61718000Y7186610D01*
X-61003715Y6758039D02*
X-60896572Y6710420D01*
X-60718000Y6710420D01*
X-60646572Y6758039D01*
X-60610858Y6805658D01*
X-60575143Y6900896D01*
X-60575143Y6996134D01*
X-60610858Y7091372D01*
X-60646572Y7138991D01*
X-60718000Y7186610D01*
X-60860858Y7234229D01*
X-60932286Y7281848D01*
X-60968000Y7329467D01*
X-61003715Y7424705D01*
X-61003715Y7519943D01*
X-60968000Y7615181D01*
X-60932286Y7662800D01*
X-60860858Y7710420D01*
X-60682286Y7710420D01*
X-60575143Y7662800D01*
X-59860858Y6710420D02*
X-60289429Y6710420D01*
X-60075143Y6710420D02*
X-60075143Y7710420D01*
X-60146572Y7567562D01*
X-60218000Y7472324D01*
X-60289429Y7424705D01*
%TO.C,JPD1*%
X-36815977Y2071620D02*
X-36815977Y1357334D01*
X-36863596Y1214477D01*
X-36958834Y1119239D01*
X-37101691Y1071620D01*
X-37196929Y1071620D01*
X-36339786Y1071620D02*
X-36339786Y2071620D01*
X-35958834Y2071620D01*
X-35863596Y2024000D01*
X-35815977Y1976381D01*
X-35768358Y1881143D01*
X-35768358Y1738286D01*
X-35815977Y1643048D01*
X-35863596Y1595429D01*
X-35958834Y1547810D01*
X-36339786Y1547810D01*
X-35339786Y1071620D02*
X-35339786Y2071620D01*
X-35101691Y2071620D01*
X-34958834Y2024000D01*
X-34863596Y1928762D01*
X-34815977Y1833524D01*
X-34768358Y1643048D01*
X-34768358Y1500191D01*
X-34815977Y1309715D01*
X-34863596Y1214477D01*
X-34958834Y1119239D01*
X-35101691Y1071620D01*
X-35339786Y1071620D01*
X-33815977Y1071620D02*
X-34387405Y1071620D01*
X-34101691Y1071620D02*
X-34101691Y2071620D01*
X-34196929Y1928762D01*
X-34292167Y1833524D01*
X-34387405Y1785905D01*
%TO.C,JCRX3*%
X-33698834Y20410420D02*
X-33698834Y19696134D01*
X-33732167Y19553277D01*
X-33798834Y19458039D01*
X-33898834Y19410420D01*
X-33965500Y19410420D01*
X-32965500Y19505658D02*
X-32998834Y19458039D01*
X-33098834Y19410420D01*
X-33165500Y19410420D01*
X-33265500Y19458039D01*
X-33332167Y19553277D01*
X-33365500Y19648515D01*
X-33398834Y19838991D01*
X-33398834Y19981848D01*
X-33365500Y20172324D01*
X-33332167Y20267562D01*
X-33265500Y20362800D01*
X-33165500Y20410420D01*
X-33098834Y20410420D01*
X-32998834Y20362800D01*
X-32965500Y20315181D01*
X-32265500Y19410420D02*
X-32498834Y19886610D01*
X-32665500Y19410420D02*
X-32665500Y20410420D01*
X-32398834Y20410420D01*
X-32332167Y20362800D01*
X-32298834Y20315181D01*
X-32265500Y20219943D01*
X-32265500Y20077086D01*
X-32298834Y19981848D01*
X-32332167Y19934229D01*
X-32398834Y19886610D01*
X-32665500Y19886610D01*
X-32032167Y20410420D02*
X-31565500Y19410420D01*
X-31565500Y20410420D02*
X-32032167Y19410420D01*
X-31365500Y20410420D02*
X-30932167Y20410420D01*
X-31165500Y20029467D01*
X-31065500Y20029467D01*
X-30998834Y19981848D01*
X-30965500Y19934229D01*
X-30932167Y19838991D01*
X-30932167Y19600896D01*
X-30965500Y19505658D01*
X-30998834Y19458039D01*
X-31065500Y19410420D01*
X-31265500Y19410420D01*
X-31332167Y19458039D01*
X-31365500Y19505658D01*
%TO.C,U1*%
X-47751905Y10961620D02*
X-47751905Y10152096D01*
X-47704286Y10056858D01*
X-47656667Y10009239D01*
X-47561429Y9961620D01*
X-47370953Y9961620D01*
X-47275715Y10009239D01*
X-47228096Y10056858D01*
X-47180477Y10152096D01*
X-47180477Y10961620D01*
X-46180477Y9961620D02*
X-46751905Y9961620D01*
X-46466191Y9961620D02*
X-46466191Y10961620D01*
X-46561429Y10818762D01*
X-46656667Y10723524D01*
X-46751905Y10675905D01*
X-48553334Y3747334D02*
X-48553334Y4447334D01*
X-48386667Y4447334D01*
X-48286667Y4414000D01*
X-48220000Y4347334D01*
X-48186667Y4280667D01*
X-48153334Y4147334D01*
X-48153334Y4047334D01*
X-48186667Y3914000D01*
X-48220000Y3847334D01*
X-48286667Y3780667D01*
X-48386667Y3747334D01*
X-48553334Y3747334D01*
X-47953334Y4447334D02*
X-47720000Y3747334D01*
X-47486667Y4447334D01*
X-47053334Y4447334D02*
X-47053334Y3947334D01*
X-47086667Y3847334D01*
X-47153334Y3780667D01*
X-47253334Y3747334D01*
X-47320000Y3747334D01*
X-46420000Y4447334D02*
X-46553334Y4447334D01*
X-46620000Y4414000D01*
X-46653334Y4380667D01*
X-46720000Y4280667D01*
X-46753334Y4147334D01*
X-46753334Y3880667D01*
X-46720000Y3814000D01*
X-46686667Y3780667D01*
X-46620000Y3747334D01*
X-46486667Y3747334D01*
X-46420000Y3780667D01*
X-46386667Y3814000D01*
X-46353334Y3880667D01*
X-46353334Y4047334D01*
X-46386667Y4114000D01*
X-46420000Y4147334D01*
X-46486667Y4180667D01*
X-46620000Y4180667D01*
X-46686667Y4147334D01*
X-46720000Y4114000D01*
X-46753334Y4047334D01*
X-46086667Y3947334D02*
X-45753334Y3947334D01*
X-46153334Y3747334D02*
X-45920000Y4447334D01*
X-45686667Y3747334D01*
X-50073334Y4763334D02*
X-50073334Y5463334D01*
X-49840000Y4963334D01*
X-49606667Y5463334D01*
X-49606667Y4763334D01*
X-49273334Y4763334D02*
X-49273334Y5463334D01*
X-48940000Y4763334D02*
X-48940000Y5463334D01*
X-48706667Y4963334D01*
X-48473334Y5463334D01*
X-48473334Y4763334D01*
X-48206667Y5463334D02*
X-47740000Y4763334D01*
X-47740000Y5463334D02*
X-48206667Y4763334D01*
X-47073334Y4763334D02*
X-47306667Y5096667D01*
X-47473334Y4763334D02*
X-47473334Y5463334D01*
X-47206667Y5463334D01*
X-47140000Y5430000D01*
X-47106667Y5396667D01*
X-47073334Y5330000D01*
X-47073334Y5230000D01*
X-47106667Y5163334D01*
X-47140000Y5130000D01*
X-47206667Y5096667D01*
X-47473334Y5096667D01*
X-46873334Y5463334D02*
X-46473334Y5463334D01*
X-46673334Y4763334D02*
X-46673334Y5463334D01*
X-45873334Y4763334D02*
X-46273334Y4763334D01*
X-46073334Y4763334D02*
X-46073334Y5463334D01*
X-46140000Y5363334D01*
X-46206667Y5296667D01*
X-46273334Y5263334D01*
X-45440000Y5463334D02*
X-45373334Y5463334D01*
X-45306667Y5430000D01*
X-45273334Y5396667D01*
X-45240000Y5330000D01*
X-45206667Y5196667D01*
X-45206667Y5030000D01*
X-45240000Y4896667D01*
X-45273334Y4830000D01*
X-45306667Y4796667D01*
X-45373334Y4763334D01*
X-45440000Y4763334D01*
X-45506667Y4796667D01*
X-45540000Y4830000D01*
X-45573334Y4896667D01*
X-45606667Y5030000D01*
X-45606667Y5196667D01*
X-45573334Y5330000D01*
X-45540000Y5396667D01*
X-45506667Y5430000D01*
X-45440000Y5463334D01*
X-44606667Y5463334D02*
X-44740000Y5463334D01*
X-44806667Y5430000D01*
X-44840000Y5396667D01*
X-44906667Y5296667D01*
X-44940000Y5163334D01*
X-44940000Y4896667D01*
X-44906667Y4830000D01*
X-44873334Y4796667D01*
X-44806667Y4763334D01*
X-44673334Y4763334D01*
X-44606667Y4796667D01*
X-44573334Y4830000D01*
X-44540000Y4896667D01*
X-44540000Y5063334D01*
X-44573334Y5130000D01*
X-44606667Y5163334D01*
X-44673334Y5196667D01*
X-44806667Y5196667D01*
X-44873334Y5163334D01*
X-44906667Y5130000D01*
X-44940000Y5063334D01*
X-44273334Y5396667D02*
X-44240000Y5430000D01*
X-44173334Y5463334D01*
X-44006667Y5463334D01*
X-43940000Y5430000D01*
X-43906667Y5396667D01*
X-43873334Y5330000D01*
X-43873334Y5263334D01*
X-43906667Y5163334D01*
X-44306667Y4763334D01*
X-43873334Y4763334D01*
X-46537620Y16780953D02*
X-47537620Y16780953D01*
X-46823334Y17114286D01*
X-47537620Y17447620D01*
X-46537620Y17447620D01*
X-46537620Y17923810D02*
X-47204286Y17923810D01*
X-47537620Y17923810D02*
X-47490000Y17876191D01*
X-47442381Y17923810D01*
X-47490000Y17971429D01*
X-47537620Y17923810D01*
X-47442381Y17923810D01*
X-46585239Y18828572D02*
X-46537620Y18733334D01*
X-46537620Y18542858D01*
X-46585239Y18447620D01*
X-46632858Y18400000D01*
X-46728096Y18352381D01*
X-47013810Y18352381D01*
X-47109048Y18400000D01*
X-47156667Y18447620D01*
X-47204286Y18542858D01*
X-47204286Y18733334D01*
X-47156667Y18828572D01*
X-46537620Y19257143D02*
X-47204286Y19257143D01*
X-47013810Y19257143D02*
X-47109048Y19304762D01*
X-47156667Y19352381D01*
X-47204286Y19447620D01*
X-47204286Y19542858D01*
X-46537620Y20019048D02*
X-46585239Y19923810D01*
X-46632858Y19876191D01*
X-46728096Y19828572D01*
X-47013810Y19828572D01*
X-47109048Y19876191D01*
X-47156667Y19923810D01*
X-47204286Y20019048D01*
X-47204286Y20161905D01*
X-47156667Y20257143D01*
X-47109048Y20304762D01*
X-47013810Y20352381D01*
X-46728096Y20352381D01*
X-46632858Y20304762D01*
X-46585239Y20257143D01*
X-46537620Y20161905D01*
X-46537620Y20019048D01*
X-46585239Y21495239D02*
X-46537620Y21638096D01*
X-46537620Y21876191D01*
X-46585239Y21971429D01*
X-46632858Y22019048D01*
X-46728096Y22066667D01*
X-46823334Y22066667D01*
X-46918572Y22019048D01*
X-46966191Y21971429D01*
X-47013810Y21876191D01*
X-47061429Y21685715D01*
X-47109048Y21590477D01*
X-47156667Y21542858D01*
X-47251905Y21495239D01*
X-47347143Y21495239D01*
X-47442381Y21542858D01*
X-47490000Y21590477D01*
X-47537620Y21685715D01*
X-47537620Y21923810D01*
X-47490000Y22066667D01*
X-46537620Y22495239D02*
X-47537620Y22495239D01*
X-47537620Y22733334D01*
X-47490000Y22876191D01*
X-47394762Y22971429D01*
X-47299524Y23019048D01*
X-47109048Y23066667D01*
X-46966191Y23066667D01*
X-46775715Y23019048D01*
X-46680477Y22971429D01*
X-46585239Y22876191D01*
X-46537620Y22733334D01*
X-46537620Y22495239D01*
X-48251905Y-30352380D02*
X-48251905Y-31161904D01*
X-48204286Y-31257142D01*
X-48156667Y-31304761D01*
X-48061429Y-31352380D01*
X-47870953Y-31352380D01*
X-47775715Y-31304761D01*
X-47728096Y-31257142D01*
X-47680477Y-31161904D01*
X-47680477Y-30352380D01*
X-47251905Y-31304761D02*
X-47109048Y-31352380D01*
X-46870953Y-31352380D01*
X-46775715Y-31304761D01*
X-46728096Y-31257142D01*
X-46680477Y-31161904D01*
X-46680477Y-31066666D01*
X-46728096Y-30971428D01*
X-46775715Y-30923809D01*
X-46870953Y-30876190D01*
X-47061429Y-30828571D01*
X-47156667Y-30780952D01*
X-47204286Y-30733333D01*
X-47251905Y-30638095D01*
X-47251905Y-30542857D01*
X-47204286Y-30447619D01*
X-47156667Y-30400000D01*
X-47061429Y-30352380D01*
X-46823334Y-30352380D01*
X-46680477Y-30400000D01*
X-45918572Y-30828571D02*
X-45775715Y-30876190D01*
X-45728096Y-30923809D01*
X-45680477Y-31019047D01*
X-45680477Y-31161904D01*
X-45728096Y-31257142D01*
X-45775715Y-31304761D01*
X-45870953Y-31352380D01*
X-46251905Y-31352380D01*
X-46251905Y-30352380D01*
X-45918572Y-30352380D01*
X-45823334Y-30400000D01*
X-45775715Y-30447619D01*
X-45728096Y-30542857D01*
X-45728096Y-30638095D01*
X-45775715Y-30733333D01*
X-45823334Y-30780952D01*
X-45918572Y-30828571D01*
X-46251905Y-30828571D01*
%TO.C,D2*%
X-91927420Y20597905D02*
X-92927420Y20597905D01*
X-92927420Y20836000D01*
X-92879800Y20978858D01*
X-92784562Y21074096D01*
X-92689324Y21121715D01*
X-92498848Y21169334D01*
X-92355991Y21169334D01*
X-92165515Y21121715D01*
X-92070277Y21074096D01*
X-91975039Y20978858D01*
X-91927420Y20836000D01*
X-91927420Y20597905D01*
X-92832181Y21550286D02*
X-92879800Y21597905D01*
X-92927420Y21693143D01*
X-92927420Y21931239D01*
X-92879800Y22026477D01*
X-92832181Y22074096D01*
X-92736943Y22121715D01*
X-92641705Y22121715D01*
X-92498848Y22074096D01*
X-91927420Y21502667D01*
X-91927420Y22121715D01*
%TO.C,Q2*%
X-94329239Y14692381D02*
X-94424477Y14740000D01*
X-94519715Y14835239D01*
X-94662572Y14978096D01*
X-94757810Y15025715D01*
X-94853048Y15025715D01*
X-94805429Y14787620D02*
X-94900667Y14835239D01*
X-94995905Y14930477D01*
X-95043524Y15120953D01*
X-95043524Y15454286D01*
X-94995905Y15644762D01*
X-94900667Y15740000D01*
X-94805429Y15787620D01*
X-94614953Y15787620D01*
X-94519715Y15740000D01*
X-94424477Y15644762D01*
X-94376858Y15454286D01*
X-94376858Y15120953D01*
X-94424477Y14930477D01*
X-94519715Y14835239D01*
X-94614953Y14787620D01*
X-94805429Y14787620D01*
X-93995905Y15692381D02*
X-93948286Y15740000D01*
X-93853048Y15787620D01*
X-93614953Y15787620D01*
X-93519715Y15740000D01*
X-93472096Y15692381D01*
X-93424477Y15597143D01*
X-93424477Y15501905D01*
X-93472096Y15359048D01*
X-94043524Y14787620D01*
X-93424477Y14787620D01*
D15*
%TO.C,TP5*%
X-67178953Y18688810D02*
X-66893239Y18688810D01*
X-67036096Y18188810D02*
X-67036096Y18688810D01*
X-66726572Y18188810D02*
X-66726572Y18688810D01*
X-66536096Y18688810D01*
X-66488477Y18665000D01*
X-66464667Y18641191D01*
X-66440858Y18593572D01*
X-66440858Y18522143D01*
X-66464667Y18474524D01*
X-66488477Y18450715D01*
X-66536096Y18426905D01*
X-66726572Y18426905D01*
X-65988477Y18688810D02*
X-66226572Y18688810D01*
X-66250381Y18450715D01*
X-66226572Y18474524D01*
X-66178953Y18498334D01*
X-66059905Y18498334D01*
X-66012286Y18474524D01*
X-65988477Y18450715D01*
X-65964667Y18403096D01*
X-65964667Y18284048D01*
X-65988477Y18236429D01*
X-66012286Y18212620D01*
X-66059905Y18188810D01*
X-66178953Y18188810D01*
X-66226572Y18212620D01*
X-66250381Y18236429D01*
%TO.C,TP1*%
X-63114953Y30880810D02*
X-62829239Y30880810D01*
X-62972096Y30380810D02*
X-62972096Y30880810D01*
X-62662572Y30380810D02*
X-62662572Y30880810D01*
X-62472096Y30880810D01*
X-62424477Y30857000D01*
X-62400667Y30833191D01*
X-62376858Y30785572D01*
X-62376858Y30714143D01*
X-62400667Y30666524D01*
X-62424477Y30642715D01*
X-62472096Y30618905D01*
X-62662572Y30618905D01*
X-61900667Y30380810D02*
X-62186381Y30380810D01*
X-62043524Y30380810D02*
X-62043524Y30880810D01*
X-62091143Y30809381D01*
X-62138762Y30761762D01*
X-62186381Y30737953D01*
D10*
%TO.C,J3-3*%
X-10072620Y-10699571D02*
X-9358334Y-10699571D01*
X-9215477Y-10747190D01*
X-9120239Y-10842428D01*
X-9072620Y-10985285D01*
X-9072620Y-11080523D01*
X-10072620Y-10318619D02*
X-10072620Y-9699571D01*
X-9691667Y-10032904D01*
X-9691667Y-9890047D01*
X-9644048Y-9794809D01*
X-9596429Y-9747190D01*
X-9501191Y-9699571D01*
X-9263096Y-9699571D01*
X-9167858Y-9747190D01*
X-9120239Y-9794809D01*
X-9072620Y-9890047D01*
X-9072620Y-10175761D01*
X-9120239Y-10271000D01*
X-9167858Y-10318619D01*
X-9453572Y-9271000D02*
X-9453572Y-8509095D01*
X-10072620Y-8128142D02*
X-10072620Y-7509095D01*
X-9691667Y-7842428D01*
X-9691667Y-7699571D01*
X-9644048Y-7604333D01*
X-9596429Y-7556714D01*
X-9501191Y-7509095D01*
X-9263096Y-7509095D01*
X-9167858Y-7556714D01*
X-9120239Y-7604333D01*
X-9072620Y-7699571D01*
X-9072620Y-7985285D01*
X-9120239Y-8080523D01*
X-9167858Y-8128142D01*
%TO.C,J3-5*%
X-15152620Y-1555571D02*
X-14438334Y-1555571D01*
X-14295477Y-1603190D01*
X-14200239Y-1698428D01*
X-14152620Y-1841285D01*
X-14152620Y-1936523D01*
X-15152620Y-1174619D02*
X-15152620Y-555571D01*
X-14771667Y-888904D01*
X-14771667Y-746047D01*
X-14724048Y-650809D01*
X-14676429Y-603190D01*
X-14581191Y-555571D01*
X-14343096Y-555571D01*
X-14247858Y-603190D01*
X-14200239Y-650809D01*
X-14152620Y-746047D01*
X-14152620Y-1031761D01*
X-14200239Y-1127000D01*
X-14247858Y-1174619D01*
X-14533572Y-127000D02*
X-14533572Y634905D01*
X-15152620Y1587286D02*
X-15152620Y1111096D01*
X-14676429Y1063477D01*
X-14724048Y1111096D01*
X-14771667Y1206334D01*
X-14771667Y1444429D01*
X-14724048Y1539667D01*
X-14676429Y1587286D01*
X-14581191Y1634905D01*
X-14343096Y1634905D01*
X-14247858Y1587286D01*
X-14200239Y1539667D01*
X-14152620Y1444429D01*
X-14152620Y1206334D01*
X-14200239Y1111096D01*
X-14247858Y1063477D01*
%TO.C,JSR2*%
X-36768358Y-1738380D02*
X-36768358Y-2452666D01*
X-36815977Y-2595523D01*
X-36911215Y-2690761D01*
X-37054072Y-2738380D01*
X-37149310Y-2738380D01*
X-36339786Y-2690761D02*
X-36196929Y-2738380D01*
X-35958834Y-2738380D01*
X-35863596Y-2690761D01*
X-35815977Y-2643142D01*
X-35768358Y-2547904D01*
X-35768358Y-2452666D01*
X-35815977Y-2357428D01*
X-35863596Y-2309809D01*
X-35958834Y-2262190D01*
X-36149310Y-2214571D01*
X-36244548Y-2166952D01*
X-36292167Y-2119333D01*
X-36339786Y-2024095D01*
X-36339786Y-1928857D01*
X-36292167Y-1833619D01*
X-36244548Y-1786000D01*
X-36149310Y-1738380D01*
X-35911215Y-1738380D01*
X-35768358Y-1786000D01*
X-34768358Y-2738380D02*
X-35101691Y-2262190D01*
X-35339786Y-2738380D02*
X-35339786Y-1738380D01*
X-34958834Y-1738380D01*
X-34863596Y-1786000D01*
X-34815977Y-1833619D01*
X-34768358Y-1928857D01*
X-34768358Y-2071714D01*
X-34815977Y-2166952D01*
X-34863596Y-2214571D01*
X-34958834Y-2262190D01*
X-35339786Y-2262190D01*
X-34387405Y-1833619D02*
X-34339786Y-1786000D01*
X-34244548Y-1738380D01*
X-34006453Y-1738380D01*
X-33911215Y-1786000D01*
X-33863596Y-1833619D01*
X-33815977Y-1928857D01*
X-33815977Y-2024095D01*
X-33863596Y-2166952D01*
X-34435024Y-2738380D01*
X-33815977Y-2738380D01*
%TO.C,J5-2*%
X-1563620Y14446429D02*
X-849334Y14446429D01*
X-706477Y14398810D01*
X-611239Y14303572D01*
X-563620Y14160715D01*
X-563620Y14065477D01*
X-1563620Y15398810D02*
X-1563620Y14922620D01*
X-1087429Y14875000D01*
X-1135048Y14922620D01*
X-1182667Y15017858D01*
X-1182667Y15255953D01*
X-1135048Y15351191D01*
X-1087429Y15398810D01*
X-992191Y15446429D01*
X-754096Y15446429D01*
X-658858Y15398810D01*
X-611239Y15351191D01*
X-563620Y15255953D01*
X-563620Y15017858D01*
X-611239Y14922620D01*
X-658858Y14875000D01*
X-944572Y15875000D02*
X-944572Y16636905D01*
X-1468381Y17065477D02*
X-1516000Y17113096D01*
X-1563620Y17208334D01*
X-1563620Y17446429D01*
X-1516000Y17541667D01*
X-1468381Y17589286D01*
X-1373143Y17636905D01*
X-1277905Y17636905D01*
X-1135048Y17589286D01*
X-563620Y17017858D01*
X-563620Y17636905D01*
%TO.C,JTX8*%
X-62565262Y20410420D02*
X-62565262Y19696134D01*
X-62612881Y19553277D01*
X-62708120Y19458039D01*
X-62850977Y19410420D01*
X-62946215Y19410420D01*
X-62231929Y20410420D02*
X-61660500Y20410420D01*
X-61946215Y19410420D02*
X-61946215Y20410420D01*
X-61422405Y20410420D02*
X-60755739Y19410420D01*
X-60755739Y20410420D02*
X-61422405Y19410420D01*
X-60231929Y19981848D02*
X-60327167Y20029467D01*
X-60374786Y20077086D01*
X-60422405Y20172324D01*
X-60422405Y20219943D01*
X-60374786Y20315181D01*
X-60327167Y20362800D01*
X-60231929Y20410420D01*
X-60041453Y20410420D01*
X-59946215Y20362800D01*
X-59898596Y20315181D01*
X-59850977Y20219943D01*
X-59850977Y20172324D01*
X-59898596Y20077086D01*
X-59946215Y20029467D01*
X-60041453Y19981848D01*
X-60231929Y19981848D01*
X-60327167Y19934229D01*
X-60374786Y19886610D01*
X-60422405Y19791372D01*
X-60422405Y19600896D01*
X-60374786Y19505658D01*
X-60327167Y19458039D01*
X-60231929Y19410420D01*
X-60041453Y19410420D01*
X-59946215Y19458039D01*
X-59898596Y19505658D01*
X-59850977Y19600896D01*
X-59850977Y19791372D01*
X-59898596Y19886610D01*
X-59946215Y19934229D01*
X-60041453Y19981848D01*
%TO.C,J5-5*%
X-9046715Y14460358D02*
X-8511000Y14460358D01*
X-8403858Y14424643D01*
X-8332429Y14353215D01*
X-8296715Y14246072D01*
X-8296715Y14174643D01*
X-9046715Y15174643D02*
X-9046715Y14817500D01*
X-8689572Y14781786D01*
X-8725286Y14817500D01*
X-8761000Y14888929D01*
X-8761000Y15067500D01*
X-8725286Y15138929D01*
X-8689572Y15174643D01*
X-8618143Y15210358D01*
X-8439572Y15210358D01*
X-8368143Y15174643D01*
X-8332429Y15138929D01*
X-8296715Y15067500D01*
X-8296715Y14888929D01*
X-8332429Y14817500D01*
X-8368143Y14781786D01*
X-8582429Y15531786D02*
X-8582429Y16103215D01*
X-9046715Y16817500D02*
X-9046715Y16460358D01*
X-8689572Y16424643D01*
X-8725286Y16460358D01*
X-8761000Y16531786D01*
X-8761000Y16710358D01*
X-8725286Y16781786D01*
X-8689572Y16817500D01*
X-8618143Y16853215D01*
X-8439572Y16853215D01*
X-8368143Y16817500D01*
X-8332429Y16781786D01*
X-8296715Y16710358D01*
X-8296715Y16531786D01*
X-8332429Y16460358D01*
X-8368143Y16424643D01*
%TO.C,J3-1*%
X-15025066Y-19208571D02*
X-14310780Y-19208571D01*
X-14167923Y-19256190D01*
X-14072685Y-19351428D01*
X-14025066Y-19494285D01*
X-14025066Y-19589523D01*
X-15025066Y-18827619D02*
X-15025066Y-18208571D01*
X-14644113Y-18541904D01*
X-14644113Y-18399047D01*
X-14596494Y-18303809D01*
X-14548875Y-18256190D01*
X-14453637Y-18208571D01*
X-14215542Y-18208571D01*
X-14120304Y-18256190D01*
X-14072685Y-18303809D01*
X-14025066Y-18399047D01*
X-14025066Y-18684761D01*
X-14072685Y-18780000D01*
X-14120304Y-18827619D01*
X-14406018Y-17780000D02*
X-14406018Y-17018095D01*
X-14025066Y-16018095D02*
X-14025066Y-16589523D01*
X-14025066Y-16303809D02*
X-15025066Y-16303809D01*
X-14882208Y-16399047D01*
X-14786970Y-16494285D01*
X-14739351Y-16589523D01*
%TO.C,JTX6*%
X-36750477Y9691620D02*
X-36750477Y8977334D01*
X-36798096Y8834477D01*
X-36893334Y8739239D01*
X-37036191Y8691620D01*
X-37131429Y8691620D01*
X-36417143Y9691620D02*
X-35845715Y9691620D01*
X-36131429Y8691620D02*
X-36131429Y9691620D01*
X-35607620Y9691620D02*
X-34940953Y8691620D01*
X-34940953Y9691620D02*
X-35607620Y8691620D01*
X-34131429Y9691620D02*
X-34321905Y9691620D01*
X-34417143Y9644000D01*
X-34464762Y9596381D01*
X-34560000Y9453524D01*
X-34607620Y9263048D01*
X-34607620Y8882096D01*
X-34560000Y8786858D01*
X-34512381Y8739239D01*
X-34417143Y8691620D01*
X-34226667Y8691620D01*
X-34131429Y8739239D01*
X-34083810Y8786858D01*
X-34036191Y8882096D01*
X-34036191Y9120191D01*
X-34083810Y9215429D01*
X-34131429Y9263048D01*
X-34226667Y9310667D01*
X-34417143Y9310667D01*
X-34512381Y9263048D01*
X-34560000Y9215429D01*
X-34607620Y9120191D01*
%TO.C,JDC1*%
X-90625620Y29976667D02*
X-89911334Y29976667D01*
X-89768477Y29929048D01*
X-89673239Y29833810D01*
X-89625620Y29690953D01*
X-89625620Y29595715D01*
X-89625620Y30452858D02*
X-90625620Y30452858D01*
X-90625620Y30690953D01*
X-90578000Y30833810D01*
X-90482762Y30929048D01*
X-90387524Y30976667D01*
X-90197048Y31024286D01*
X-90054191Y31024286D01*
X-89863715Y30976667D01*
X-89768477Y30929048D01*
X-89673239Y30833810D01*
X-89625620Y30690953D01*
X-89625620Y30452858D01*
X-89720858Y32024286D02*
X-89673239Y31976667D01*
X-89625620Y31833810D01*
X-89625620Y31738572D01*
X-89673239Y31595715D01*
X-89768477Y31500477D01*
X-89863715Y31452858D01*
X-90054191Y31405239D01*
X-90197048Y31405239D01*
X-90387524Y31452858D01*
X-90482762Y31500477D01*
X-90578000Y31595715D01*
X-90625620Y31738572D01*
X-90625620Y31833810D01*
X-90578000Y31976667D01*
X-90530381Y32024286D01*
X-89625620Y32976667D02*
X-89625620Y32405239D01*
X-89625620Y32690953D02*
X-90625620Y32690953D01*
X-90482762Y32595715D01*
X-90387524Y32500477D01*
X-90339905Y32405239D01*
%TO.C,JAX2*%
X-62660500Y25490420D02*
X-62660500Y24776134D01*
X-62708120Y24633277D01*
X-62803358Y24538039D01*
X-62946215Y24490420D01*
X-63041453Y24490420D01*
X-62231929Y24776134D02*
X-61755739Y24776134D01*
X-62327167Y24490420D02*
X-61993834Y25490420D01*
X-61660500Y24490420D01*
X-61422405Y25490420D02*
X-60755739Y24490420D01*
X-60755739Y25490420D02*
X-61422405Y24490420D01*
X-60422405Y25395181D02*
X-60374786Y25442800D01*
X-60279548Y25490420D01*
X-60041453Y25490420D01*
X-59946215Y25442800D01*
X-59898596Y25395181D01*
X-59850977Y25299943D01*
X-59850977Y25204705D01*
X-59898596Y25061848D01*
X-60470024Y24490420D01*
X-59850977Y24490420D01*
D15*
%TO.C,TP6*%
X-67178953Y14624810D02*
X-66893239Y14624810D01*
X-67036096Y14124810D02*
X-67036096Y14624810D01*
X-66726572Y14124810D02*
X-66726572Y14624810D01*
X-66536096Y14624810D01*
X-66488477Y14601000D01*
X-66464667Y14577191D01*
X-66440858Y14529572D01*
X-66440858Y14458143D01*
X-66464667Y14410524D01*
X-66488477Y14386715D01*
X-66536096Y14362905D01*
X-66726572Y14362905D01*
X-66012286Y14624810D02*
X-66107524Y14624810D01*
X-66155143Y14601000D01*
X-66178953Y14577191D01*
X-66226572Y14505762D01*
X-66250381Y14410524D01*
X-66250381Y14220048D01*
X-66226572Y14172429D01*
X-66202762Y14148620D01*
X-66155143Y14124810D01*
X-66059905Y14124810D01*
X-66012286Y14148620D01*
X-65988477Y14172429D01*
X-65964667Y14220048D01*
X-65964667Y14339096D01*
X-65988477Y14386715D01*
X-66012286Y14410524D01*
X-66059905Y14434334D01*
X-66155143Y14434334D01*
X-66202762Y14410524D01*
X-66226572Y14386715D01*
X-66250381Y14339096D01*
D10*
%TO.C,J5-1*%
X-15152620Y-10699571D02*
X-14438334Y-10699571D01*
X-14295477Y-10747190D01*
X-14200239Y-10842428D01*
X-14152620Y-10985285D01*
X-14152620Y-11080523D01*
X-15152620Y-9747190D02*
X-15152620Y-10223380D01*
X-14676429Y-10271000D01*
X-14724048Y-10223380D01*
X-14771667Y-10128142D01*
X-14771667Y-9890047D01*
X-14724048Y-9794809D01*
X-14676429Y-9747190D01*
X-14581191Y-9699571D01*
X-14343096Y-9699571D01*
X-14247858Y-9747190D01*
X-14200239Y-9794809D01*
X-14152620Y-9890047D01*
X-14152620Y-10128142D01*
X-14200239Y-10223380D01*
X-14247858Y-10271000D01*
X-14533572Y-9271000D02*
X-14533572Y-8509095D01*
X-14152620Y-7509095D02*
X-14152620Y-8080523D01*
X-14152620Y-7794809D02*
X-15152620Y-7794809D01*
X-15009762Y-7890047D01*
X-14914524Y-7985285D01*
X-14866905Y-8080523D01*
%TO.C,J3-4*%
X-12612620Y-10699571D02*
X-11898334Y-10699571D01*
X-11755477Y-10747190D01*
X-11660239Y-10842428D01*
X-11612620Y-10985285D01*
X-11612620Y-11080523D01*
X-12612620Y-10318619D02*
X-12612620Y-9699571D01*
X-12231667Y-10032904D01*
X-12231667Y-9890047D01*
X-12184048Y-9794809D01*
X-12136429Y-9747190D01*
X-12041191Y-9699571D01*
X-11803096Y-9699571D01*
X-11707858Y-9747190D01*
X-11660239Y-9794809D01*
X-11612620Y-9890047D01*
X-11612620Y-10175761D01*
X-11660239Y-10271000D01*
X-11707858Y-10318619D01*
X-11993572Y-9271000D02*
X-11993572Y-8509095D01*
X-12279286Y-7604333D02*
X-11612620Y-7604333D01*
X-12660239Y-7842428D02*
X-11945953Y-8080523D01*
X-11945953Y-7461476D01*
%TO.C,R1*%
X-20883620Y8469334D02*
X-21359810Y8136000D01*
X-20883620Y7897905D02*
X-21883620Y7897905D01*
X-21883620Y8278858D01*
X-21836000Y8374096D01*
X-21788381Y8421715D01*
X-21693143Y8469334D01*
X-21550286Y8469334D01*
X-21455048Y8421715D01*
X-21407429Y8374096D01*
X-21359810Y8278858D01*
X-21359810Y7897905D01*
X-20883620Y9421715D02*
X-20883620Y8850286D01*
X-20883620Y9136000D02*
X-21883620Y9136000D01*
X-21740762Y9040762D01*
X-21645524Y8945524D01*
X-21597905Y8850286D01*
%TO.C,BT1*%
X-80209429Y-785714D02*
X-80161810Y-642857D01*
X-80114191Y-595238D01*
X-80018953Y-547619D01*
X-79876096Y-547619D01*
X-79780858Y-595238D01*
X-79733239Y-642857D01*
X-79685620Y-738095D01*
X-79685620Y-1119047D01*
X-80685620Y-1119047D01*
X-80685620Y-785714D01*
X-80638000Y-690476D01*
X-80590381Y-642857D01*
X-80495143Y-595238D01*
X-80399905Y-595238D01*
X-80304667Y-642857D01*
X-80257048Y-690476D01*
X-80209429Y-785714D01*
X-80209429Y-1119047D01*
X-80685620Y-261904D02*
X-80685620Y309524D01*
X-79685620Y23810D02*
X-80685620Y23810D01*
X-79685620Y1166667D02*
X-79685620Y595239D01*
X-79685620Y880953D02*
X-80685620Y880953D01*
X-80542762Y785715D01*
X-80447524Y690477D01*
X-80399905Y595239D01*
%TO.C,J1*%
X-25605934Y-20787329D02*
X-25605934Y-21501615D01*
X-25653553Y-21644472D01*
X-25748791Y-21739710D01*
X-25891648Y-21787329D01*
X-25986886Y-21787329D01*
X-24605934Y-21787329D02*
X-25177362Y-21787329D01*
X-24891648Y-21787329D02*
X-24891648Y-20787329D01*
X-24986886Y-20930187D01*
X-25082124Y-21025425D01*
X-25177362Y-21073044D01*
D15*
%TO.C,TP2*%
X-67178953Y30880810D02*
X-66893239Y30880810D01*
X-67036096Y30380810D02*
X-67036096Y30880810D01*
X-66726572Y30380810D02*
X-66726572Y30880810D01*
X-66536096Y30880810D01*
X-66488477Y30857000D01*
X-66464667Y30833191D01*
X-66440858Y30785572D01*
X-66440858Y30714143D01*
X-66464667Y30666524D01*
X-66488477Y30642715D01*
X-66536096Y30618905D01*
X-66726572Y30618905D01*
X-66250381Y30833191D02*
X-66226572Y30857000D01*
X-66178953Y30880810D01*
X-66059905Y30880810D01*
X-66012286Y30857000D01*
X-65988477Y30833191D01*
X-65964667Y30785572D01*
X-65964667Y30737953D01*
X-65988477Y30666524D01*
X-66274191Y30380810D01*
X-65964667Y30380810D01*
D10*
%TO.C,U2*%
X-71627905Y11723620D02*
X-71627905Y10914096D01*
X-71580286Y10818858D01*
X-71532667Y10771239D01*
X-71437429Y10723620D01*
X-71246953Y10723620D01*
X-71151715Y10771239D01*
X-71104096Y10818858D01*
X-71056477Y10914096D01*
X-71056477Y11723620D01*
X-70627905Y11628381D02*
X-70580286Y11676000D01*
X-70485048Y11723620D01*
X-70246953Y11723620D01*
X-70151715Y11676000D01*
X-70104096Y11628381D01*
X-70056477Y11533143D01*
X-70056477Y11437905D01*
X-70104096Y11295048D01*
X-70675524Y10723620D01*
X-70056477Y10723620D01*
D15*
%TO.C,TP4*%
X-67178953Y22752810D02*
X-66893239Y22752810D01*
X-67036096Y22252810D02*
X-67036096Y22752810D01*
X-66726572Y22252810D02*
X-66726572Y22752810D01*
X-66536096Y22752810D01*
X-66488477Y22729000D01*
X-66464667Y22705191D01*
X-66440858Y22657572D01*
X-66440858Y22586143D01*
X-66464667Y22538524D01*
X-66488477Y22514715D01*
X-66536096Y22490905D01*
X-66726572Y22490905D01*
X-66012286Y22586143D02*
X-66012286Y22252810D01*
X-66131334Y22776620D02*
X-66250381Y22419477D01*
X-65940858Y22419477D01*
D10*
%TO.C,J3-2*%
X-10072620Y-1555571D02*
X-9358334Y-1555571D01*
X-9215477Y-1603190D01*
X-9120239Y-1698428D01*
X-9072620Y-1841285D01*
X-9072620Y-1936523D01*
X-10072620Y-1174619D02*
X-10072620Y-555571D01*
X-9691667Y-888904D01*
X-9691667Y-746047D01*
X-9644048Y-650809D01*
X-9596429Y-603190D01*
X-9501191Y-555571D01*
X-9263096Y-555571D01*
X-9167858Y-603190D01*
X-9120239Y-650809D01*
X-9072620Y-746047D01*
X-9072620Y-1031761D01*
X-9120239Y-1127000D01*
X-9167858Y-1174619D01*
X-9453572Y-127000D02*
X-9453572Y634905D01*
X-9977381Y1063477D02*
X-10025000Y1111096D01*
X-10072620Y1206334D01*
X-10072620Y1444429D01*
X-10025000Y1539667D01*
X-9977381Y1587286D01*
X-9882143Y1634905D01*
X-9786905Y1634905D01*
X-9644048Y1587286D01*
X-9072620Y1015858D01*
X-9072620Y1634905D01*
%TO.C,C2-1*%
X-77578977Y19200858D02*
X-77626596Y19153239D01*
X-77769453Y19105620D01*
X-77864691Y19105620D01*
X-78007548Y19153239D01*
X-78102786Y19248477D01*
X-78150405Y19343715D01*
X-78198024Y19534191D01*
X-78198024Y19677048D01*
X-78150405Y19867524D01*
X-78102786Y19962762D01*
X-78007548Y20058000D01*
X-77864691Y20105620D01*
X-77769453Y20105620D01*
X-77626596Y20058000D01*
X-77578977Y20010381D01*
X-77198024Y20010381D02*
X-77150405Y20058000D01*
X-77055167Y20105620D01*
X-76817072Y20105620D01*
X-76721834Y20058000D01*
X-76674215Y20010381D01*
X-76626596Y19915143D01*
X-76626596Y19819905D01*
X-76674215Y19677048D01*
X-77245643Y19105620D01*
X-76626596Y19105620D01*
X-76198024Y19486572D02*
X-75436120Y19486572D01*
X-74436120Y19105620D02*
X-75007548Y19105620D01*
X-74721834Y19105620D02*
X-74721834Y20105620D01*
X-74817072Y19962762D01*
X-74912310Y19867524D01*
X-75007548Y19819905D01*
%TO.C,JPPS2*%
X-78373220Y-28537890D02*
X-77658934Y-28537890D01*
X-77516077Y-28585509D01*
X-77420839Y-28680747D01*
X-77373220Y-28823604D01*
X-77373220Y-28918842D01*
X-77373220Y-28061700D02*
X-78373220Y-28061700D01*
X-78373220Y-27680747D01*
X-78325600Y-27585509D01*
X-78277981Y-27537890D01*
X-78182743Y-27490271D01*
X-78039886Y-27490271D01*
X-77944648Y-27537890D01*
X-77897029Y-27585509D01*
X-77849410Y-27680747D01*
X-77849410Y-28061700D01*
X-77373220Y-27061700D02*
X-78373220Y-27061700D01*
X-78373220Y-26680747D01*
X-78325600Y-26585509D01*
X-78277981Y-26537890D01*
X-78182743Y-26490271D01*
X-78039886Y-26490271D01*
X-77944648Y-26537890D01*
X-77897029Y-26585509D01*
X-77849410Y-26680747D01*
X-77849410Y-27061700D01*
X-77420839Y-26109319D02*
X-77373220Y-25966461D01*
X-77373220Y-25728366D01*
X-77420839Y-25633128D01*
X-77468458Y-25585509D01*
X-77563696Y-25537890D01*
X-77658934Y-25537890D01*
X-77754172Y-25585509D01*
X-77801791Y-25633128D01*
X-77849410Y-25728366D01*
X-77897029Y-25918842D01*
X-77944648Y-26014080D01*
X-77992267Y-26061700D01*
X-78087505Y-26109319D01*
X-78182743Y-26109319D01*
X-78277981Y-26061700D01*
X-78325600Y-26014080D01*
X-78373220Y-25918842D01*
X-78373220Y-25680747D01*
X-78325600Y-25537890D01*
X-78277981Y-25156938D02*
X-78325600Y-25109319D01*
X-78373220Y-25014080D01*
X-78373220Y-24775985D01*
X-78325600Y-24680747D01*
X-78277981Y-24633128D01*
X-78182743Y-24585509D01*
X-78087505Y-24585509D01*
X-77944648Y-24633128D01*
X-77373220Y-25204557D01*
X-77373220Y-24585509D01*
%TO.C,JRX6*%
X-36869524Y11215620D02*
X-36869524Y10501334D01*
X-36917143Y10358477D01*
X-37012381Y10263239D01*
X-37155239Y10215620D01*
X-37250477Y10215620D01*
X-35821905Y10215620D02*
X-36155239Y10691810D01*
X-36393334Y10215620D02*
X-36393334Y11215620D01*
X-36012381Y11215620D01*
X-35917143Y11168000D01*
X-35869524Y11120381D01*
X-35821905Y11025143D01*
X-35821905Y10882286D01*
X-35869524Y10787048D01*
X-35917143Y10739429D01*
X-36012381Y10691810D01*
X-36393334Y10691810D01*
X-35488572Y11215620D02*
X-34821905Y10215620D01*
X-34821905Y11215620D02*
X-35488572Y10215620D01*
X-34012381Y11215620D02*
X-34202858Y11215620D01*
X-34298096Y11168000D01*
X-34345715Y11120381D01*
X-34440953Y10977524D01*
X-34488572Y10787048D01*
X-34488572Y10406096D01*
X-34440953Y10310858D01*
X-34393334Y10263239D01*
X-34298096Y10215620D01*
X-34107620Y10215620D01*
X-34012381Y10263239D01*
X-33964762Y10310858D01*
X-33917143Y10406096D01*
X-33917143Y10644191D01*
X-33964762Y10739429D01*
X-34012381Y10787048D01*
X-34107620Y10834667D01*
X-34298096Y10834667D01*
X-34393334Y10787048D01*
X-34440953Y10739429D01*
X-34488572Y10644191D01*
%TO.C,JPD2*%
X-36815977Y-468380D02*
X-36815977Y-1182666D01*
X-36863596Y-1325523D01*
X-36958834Y-1420761D01*
X-37101691Y-1468380D01*
X-37196929Y-1468380D01*
X-36339786Y-1468380D02*
X-36339786Y-468380D01*
X-35958834Y-468380D01*
X-35863596Y-516000D01*
X-35815977Y-563619D01*
X-35768358Y-658857D01*
X-35768358Y-801714D01*
X-35815977Y-896952D01*
X-35863596Y-944571D01*
X-35958834Y-992190D01*
X-36339786Y-992190D01*
X-35339786Y-1468380D02*
X-35339786Y-468380D01*
X-35101691Y-468380D01*
X-34958834Y-516000D01*
X-34863596Y-611238D01*
X-34815977Y-706476D01*
X-34768358Y-896952D01*
X-34768358Y-1039809D01*
X-34815977Y-1230285D01*
X-34863596Y-1325523D01*
X-34958834Y-1420761D01*
X-35101691Y-1468380D01*
X-35339786Y-1468380D01*
X-34387405Y-563619D02*
X-34339786Y-516000D01*
X-34244548Y-468380D01*
X-34006453Y-468380D01*
X-33911215Y-516000D01*
X-33863596Y-563619D01*
X-33815977Y-658857D01*
X-33815977Y-754095D01*
X-33863596Y-896952D01*
X-34435024Y-1468380D01*
X-33815977Y-1468380D01*
%TO.C,C2-2*%
X-77533577Y9653758D02*
X-77581196Y9606139D01*
X-77724053Y9558520D01*
X-77819291Y9558520D01*
X-77962148Y9606139D01*
X-78057386Y9701377D01*
X-78105005Y9796615D01*
X-78152624Y9987091D01*
X-78152624Y10129948D01*
X-78105005Y10320424D01*
X-78057386Y10415662D01*
X-77962148Y10510900D01*
X-77819291Y10558520D01*
X-77724053Y10558520D01*
X-77581196Y10510900D01*
X-77533577Y10463281D01*
X-77152624Y10463281D02*
X-77105005Y10510900D01*
X-77009767Y10558520D01*
X-76771672Y10558520D01*
X-76676434Y10510900D01*
X-76628815Y10463281D01*
X-76581196Y10368043D01*
X-76581196Y10272805D01*
X-76628815Y10129948D01*
X-77200243Y9558520D01*
X-76581196Y9558520D01*
X-76152624Y9939472D02*
X-75390720Y9939472D01*
X-74962148Y10463281D02*
X-74914529Y10510900D01*
X-74819291Y10558520D01*
X-74581196Y10558520D01*
X-74485958Y10510900D01*
X-74438339Y10463281D01*
X-74390720Y10368043D01*
X-74390720Y10272805D01*
X-74438339Y10129948D01*
X-75009767Y9558520D01*
X-74390720Y9558520D01*
%TO.C,C3*%
X-77533577Y10923758D02*
X-77581196Y10876139D01*
X-77724053Y10828520D01*
X-77819291Y10828520D01*
X-77962148Y10876139D01*
X-78057386Y10971377D01*
X-78105005Y11066615D01*
X-78152624Y11257091D01*
X-78152624Y11399948D01*
X-78105005Y11590424D01*
X-78057386Y11685662D01*
X-77962148Y11780900D01*
X-77819291Y11828520D01*
X-77724053Y11828520D01*
X-77581196Y11780900D01*
X-77533577Y11733281D01*
X-77200243Y11828520D02*
X-76581196Y11828520D01*
X-76914529Y11447567D01*
X-76771672Y11447567D01*
X-76676434Y11399948D01*
X-76628815Y11352329D01*
X-76581196Y11257091D01*
X-76581196Y11018996D01*
X-76628815Y10923758D01*
X-76676434Y10876139D01*
X-76771672Y10828520D01*
X-77057386Y10828520D01*
X-77152624Y10876139D01*
X-77200243Y10923758D01*
%TO.C,JBAT1*%
X-77842858Y23915620D02*
X-77842858Y23201334D01*
X-77890477Y23058477D01*
X-77985715Y22963239D01*
X-78128572Y22915620D01*
X-78223810Y22915620D01*
X-77033334Y23439429D02*
X-76890477Y23391810D01*
X-76842858Y23344191D01*
X-76795239Y23248953D01*
X-76795239Y23106096D01*
X-76842858Y23010858D01*
X-76890477Y22963239D01*
X-76985715Y22915620D01*
X-77366667Y22915620D01*
X-77366667Y23915620D01*
X-77033334Y23915620D01*
X-76938096Y23868000D01*
X-76890477Y23820381D01*
X-76842858Y23725143D01*
X-76842858Y23629905D01*
X-76890477Y23534667D01*
X-76938096Y23487048D01*
X-77033334Y23439429D01*
X-77366667Y23439429D01*
X-76414286Y23201334D02*
X-75938096Y23201334D01*
X-76509524Y22915620D02*
X-76176191Y23915620D01*
X-75842858Y22915620D01*
X-75652381Y23915620D02*
X-75080953Y23915620D01*
X-75366667Y22915620D02*
X-75366667Y23915620D01*
X-74223810Y22915620D02*
X-74795239Y22915620D01*
X-74509524Y22915620D02*
X-74509524Y23915620D01*
X-74604762Y23772762D01*
X-74700000Y23677524D01*
X-74795239Y23629905D01*
%TO.C,JRX8*%
X-62803358Y22950420D02*
X-62803358Y22236134D01*
X-62850977Y22093277D01*
X-62946215Y21998039D01*
X-63089072Y21950420D01*
X-63184310Y21950420D01*
X-61755739Y21950420D02*
X-62089072Y22426610D01*
X-62327167Y21950420D02*
X-62327167Y22950420D01*
X-61946215Y22950420D01*
X-61850977Y22902800D01*
X-61803358Y22855181D01*
X-61755739Y22759943D01*
X-61755739Y22617086D01*
X-61803358Y22521848D01*
X-61850977Y22474229D01*
X-61946215Y22426610D01*
X-62327167Y22426610D01*
X-61422405Y22950420D02*
X-60755739Y21950420D01*
X-60755739Y22950420D02*
X-61422405Y21950420D01*
X-60231929Y22521848D02*
X-60327167Y22569467D01*
X-60374786Y22617086D01*
X-60422405Y22712324D01*
X-60422405Y22759943D01*
X-60374786Y22855181D01*
X-60327167Y22902800D01*
X-60231929Y22950420D01*
X-60041453Y22950420D01*
X-59946215Y22902800D01*
X-59898596Y22855181D01*
X-59850977Y22759943D01*
X-59850977Y22712324D01*
X-59898596Y22617086D01*
X-59946215Y22569467D01*
X-60041453Y22521848D01*
X-60231929Y22521848D01*
X-60327167Y22474229D01*
X-60374786Y22426610D01*
X-60422405Y22331372D01*
X-60422405Y22140896D01*
X-60374786Y22045658D01*
X-60327167Y21998039D01*
X-60231929Y21950420D01*
X-60041453Y21950420D01*
X-59946215Y21998039D01*
X-59898596Y22045658D01*
X-59850977Y22140896D01*
X-59850977Y22331372D01*
X-59898596Y22426610D01*
X-59946215Y22474229D01*
X-60041453Y22521848D01*
%TO.C,U3*%
X-85343905Y10453620D02*
X-85343905Y9644096D01*
X-85296286Y9548858D01*
X-85248667Y9501239D01*
X-85153429Y9453620D01*
X-84962953Y9453620D01*
X-84867715Y9501239D01*
X-84820096Y9548858D01*
X-84772477Y9644096D01*
X-84772477Y10453620D01*
X-84391524Y10453620D02*
X-83772477Y10453620D01*
X-84105810Y10072667D01*
X-83962953Y10072667D01*
X-83867715Y10025048D01*
X-83820096Y9977429D01*
X-83772477Y9882191D01*
X-83772477Y9644096D01*
X-83820096Y9548858D01*
X-83867715Y9501239D01*
X-83962953Y9453620D01*
X-84248667Y9453620D01*
X-84343905Y9501239D01*
X-84391524Y9548858D01*
%TO.C,J5-4*%
X-6611620Y14446429D02*
X-5897334Y14446429D01*
X-5754477Y14398810D01*
X-5659239Y14303572D01*
X-5611620Y14160715D01*
X-5611620Y14065477D01*
X-6611620Y15398810D02*
X-6611620Y14922620D01*
X-6135429Y14875000D01*
X-6183048Y14922620D01*
X-6230667Y15017858D01*
X-6230667Y15255953D01*
X-6183048Y15351191D01*
X-6135429Y15398810D01*
X-6040191Y15446429D01*
X-5802096Y15446429D01*
X-5706858Y15398810D01*
X-5659239Y15351191D01*
X-5611620Y15255953D01*
X-5611620Y15017858D01*
X-5659239Y14922620D01*
X-5706858Y14875000D01*
X-5992572Y15875000D02*
X-5992572Y16636905D01*
X-6278286Y17541667D02*
X-5611620Y17541667D01*
X-6659239Y17303572D02*
X-5944953Y17065477D01*
X-5944953Y17684524D01*
%TO.C,R2*%
X-94585358Y17708620D02*
X-94918691Y18184810D01*
X-95156786Y17708620D02*
X-95156786Y18708620D01*
X-94775834Y18708620D01*
X-94680596Y18661000D01*
X-94632977Y18613381D01*
X-94585358Y18518143D01*
X-94585358Y18375286D01*
X-94632977Y18280048D01*
X-94680596Y18232429D01*
X-94775834Y18184810D01*
X-95156786Y18184810D01*
X-94204405Y18613381D02*
X-94156786Y18661000D01*
X-94061548Y18708620D01*
X-93823453Y18708620D01*
X-93728215Y18661000D01*
X-93680596Y18613381D01*
X-93632977Y18518143D01*
X-93632977Y18422905D01*
X-93680596Y18280048D01*
X-94252024Y17708620D01*
X-93632977Y17708620D01*
%TO.C,D1*%
X-89142796Y18978620D02*
X-89142796Y19978620D01*
X-88904700Y19978620D01*
X-88761843Y19931000D01*
X-88666605Y19835762D01*
X-88618986Y19740524D01*
X-88571367Y19550048D01*
X-88571367Y19407191D01*
X-88618986Y19216715D01*
X-88666605Y19121477D01*
X-88761843Y19026239D01*
X-88904700Y18978620D01*
X-89142796Y18978620D01*
X-87618986Y18978620D02*
X-88190415Y18978620D01*
X-87904700Y18978620D02*
X-87904700Y19978620D01*
X-87999939Y19835762D01*
X-88095177Y19740524D01*
X-88190415Y19692905D01*
%TO.C,J5-3*%
X-4071620Y14446429D02*
X-3357334Y14446429D01*
X-3214477Y14398810D01*
X-3119239Y14303572D01*
X-3071620Y14160715D01*
X-3071620Y14065477D01*
X-4071620Y15398810D02*
X-4071620Y14922620D01*
X-3595429Y14875000D01*
X-3643048Y14922620D01*
X-3690667Y15017858D01*
X-3690667Y15255953D01*
X-3643048Y15351191D01*
X-3595429Y15398810D01*
X-3500191Y15446429D01*
X-3262096Y15446429D01*
X-3166858Y15398810D01*
X-3119239Y15351191D01*
X-3071620Y15255953D01*
X-3071620Y15017858D01*
X-3119239Y14922620D01*
X-3166858Y14875000D01*
X-3452572Y15875000D02*
X-3452572Y16636905D01*
X-4071620Y17017858D02*
X-4071620Y17636905D01*
X-3690667Y17303572D01*
X-3690667Y17446429D01*
X-3643048Y17541667D01*
X-3595429Y17589286D01*
X-3500191Y17636905D01*
X-3262096Y17636905D01*
X-3166858Y17589286D01*
X-3119239Y17541667D01*
X-3071620Y17446429D01*
X-3071620Y17160715D01*
X-3119239Y17065477D01*
X-3166858Y17017858D01*
D15*
%TO.C,TP3*%
X-67178953Y26816810D02*
X-66893239Y26816810D01*
X-67036096Y26316810D02*
X-67036096Y26816810D01*
X-66726572Y26316810D02*
X-66726572Y26816810D01*
X-66536096Y26816810D01*
X-66488477Y26793000D01*
X-66464667Y26769191D01*
X-66440858Y26721572D01*
X-66440858Y26650143D01*
X-66464667Y26602524D01*
X-66488477Y26578715D01*
X-66536096Y26554905D01*
X-66726572Y26554905D01*
X-66274191Y26816810D02*
X-65964667Y26816810D01*
X-66131334Y26626334D01*
X-66059905Y26626334D01*
X-66012286Y26602524D01*
X-65988477Y26578715D01*
X-65964667Y26531096D01*
X-65964667Y26412048D01*
X-65988477Y26364429D01*
X-66012286Y26340620D01*
X-66059905Y26316810D01*
X-66202762Y26316810D01*
X-66250381Y26340620D01*
X-66274191Y26364429D01*
D10*
%TO.C,R3*%
X-77578977Y11993620D02*
X-77912310Y12469810D01*
X-78150405Y11993620D02*
X-78150405Y12993620D01*
X-77769453Y12993620D01*
X-77674215Y12946000D01*
X-77626596Y12898381D01*
X-77578977Y12803143D01*
X-77578977Y12660286D01*
X-77626596Y12565048D01*
X-77674215Y12517429D01*
X-77769453Y12469810D01*
X-78150405Y12469810D01*
X-77245643Y12993620D02*
X-76626596Y12993620D01*
X-76959929Y12612667D01*
X-76817072Y12612667D01*
X-76721834Y12565048D01*
X-76674215Y12517429D01*
X-76626596Y12422191D01*
X-76626596Y12184096D01*
X-76674215Y12088858D01*
X-76721834Y12041239D01*
X-76817072Y11993620D01*
X-77102786Y11993620D01*
X-77198024Y12041239D01*
X-77245643Y12088858D01*
%TO.C,JCTX3*%
X-33698834Y22950420D02*
X-33698834Y22236134D01*
X-33732167Y22093277D01*
X-33798834Y21998039D01*
X-33898834Y21950420D01*
X-33965500Y21950420D01*
X-32965500Y22045658D02*
X-32998834Y21998039D01*
X-33098834Y21950420D01*
X-33165500Y21950420D01*
X-33265500Y21998039D01*
X-33332167Y22093277D01*
X-33365500Y22188515D01*
X-33398834Y22378991D01*
X-33398834Y22521848D01*
X-33365500Y22712324D01*
X-33332167Y22807562D01*
X-33265500Y22902800D01*
X-33165500Y22950420D01*
X-33098834Y22950420D01*
X-32998834Y22902800D01*
X-32965500Y22855181D01*
X-32765500Y22950420D02*
X-32365500Y22950420D01*
X-32565500Y21950420D02*
X-32565500Y22950420D01*
X-32198834Y22950420D02*
X-31732167Y21950420D01*
X-31732167Y22950420D02*
X-32198834Y21950420D01*
X-31532167Y22950420D02*
X-31098834Y22950420D01*
X-31332167Y22569467D01*
X-31232167Y22569467D01*
X-31165500Y22521848D01*
X-31132167Y22474229D01*
X-31098834Y22378991D01*
X-31098834Y22140896D01*
X-31132167Y22045658D01*
X-31165500Y21998039D01*
X-31232167Y21950420D01*
X-31432167Y21950420D01*
X-31498834Y21998039D01*
X-31532167Y22045658D01*
%TO.C,JAX3*%
X-62706096Y5170420D02*
X-62706096Y4456134D01*
X-62753715Y4313277D01*
X-62848953Y4218039D01*
X-62991810Y4170420D01*
X-63087048Y4170420D01*
X-62277524Y4456134D02*
X-61801334Y4456134D01*
X-62372762Y4170420D02*
X-62039429Y5170420D01*
X-61706096Y4170420D01*
X-61468000Y5170420D02*
X-60801334Y4170420D01*
X-60801334Y5170420D02*
X-61468000Y4170420D01*
X-60515620Y5170420D02*
X-59896572Y5170420D01*
X-60229905Y4789467D01*
X-60087048Y4789467D01*
X-59991810Y4741848D01*
X-59944191Y4694229D01*
X-59896572Y4598991D01*
X-59896572Y4360896D01*
X-59944191Y4265658D01*
X-59991810Y4218039D01*
X-60087048Y4170420D01*
X-60372762Y4170420D01*
X-60468000Y4218039D01*
X-60515620Y4265658D01*
%TO.C,JSR1*%
X-36768358Y801620D02*
X-36768358Y87334D01*
X-36815977Y-55523D01*
X-36911215Y-150761D01*
X-37054072Y-198380D01*
X-37149310Y-198380D01*
X-36339786Y-150761D02*
X-36196929Y-198380D01*
X-35958834Y-198380D01*
X-35863596Y-150761D01*
X-35815977Y-103142D01*
X-35768358Y-7904D01*
X-35768358Y87334D01*
X-35815977Y182572D01*
X-35863596Y230191D01*
X-35958834Y277810D01*
X-36149310Y325429D01*
X-36244548Y373048D01*
X-36292167Y420667D01*
X-36339786Y515905D01*
X-36339786Y611143D01*
X-36292167Y706381D01*
X-36244548Y754000D01*
X-36149310Y801620D01*
X-35911215Y801620D01*
X-35768358Y754000D01*
X-34768358Y-198380D02*
X-35101691Y277810D01*
X-35339786Y-198380D02*
X-35339786Y801620D01*
X-34958834Y801620D01*
X-34863596Y754000D01*
X-34815977Y706381D01*
X-34768358Y611143D01*
X-34768358Y468286D01*
X-34815977Y373048D01*
X-34863596Y325429D01*
X-34958834Y277810D01*
X-35339786Y277810D01*
X-33815977Y-198380D02*
X-34387405Y-198380D01*
X-34101691Y-198380D02*
X-34101691Y801620D01*
X-34196929Y658762D01*
X-34292167Y563524D01*
X-34387405Y515905D01*
%TO.C,JAX1*%
X-33594072Y25490420D02*
X-33594072Y24776134D01*
X-33636929Y24633277D01*
X-33722643Y24538039D01*
X-33851215Y24490420D01*
X-33936929Y24490420D01*
X-33208358Y24776134D02*
X-32779786Y24776134D01*
X-33294072Y24490420D02*
X-32994072Y25490420D01*
X-32694072Y24490420D01*
X-32479786Y25490420D02*
X-31879786Y24490420D01*
X-31879786Y25490420D02*
X-32479786Y24490420D01*
X-31065500Y24490420D02*
X-31579786Y24490420D01*
X-31322643Y24490420D02*
X-31322643Y25490420D01*
X-31408358Y25347562D01*
X-31494072Y25252324D01*
X-31579786Y25204705D01*
%TO.C,Q1*%
X-84423239Y19264381D02*
X-84518477Y19312000D01*
X-84613715Y19407239D01*
X-84756572Y19550096D01*
X-84851810Y19597715D01*
X-84947048Y19597715D01*
X-84899429Y19359620D02*
X-84994667Y19407239D01*
X-85089905Y19502477D01*
X-85137524Y19692953D01*
X-85137524Y20026286D01*
X-85089905Y20216762D01*
X-84994667Y20312000D01*
X-84899429Y20359620D01*
X-84708953Y20359620D01*
X-84613715Y20312000D01*
X-84518477Y20216762D01*
X-84470858Y20026286D01*
X-84470858Y19692953D01*
X-84518477Y19502477D01*
X-84613715Y19407239D01*
X-84708953Y19359620D01*
X-84899429Y19359620D01*
X-83518477Y19359620D02*
X-84089905Y19359620D01*
X-83804191Y19359620D02*
X-83804191Y20359620D01*
X-83899429Y20216762D01*
X-83994667Y20121524D01*
X-84089905Y20073905D01*
D16*
%TO.C,JPAX1*%
X-24260000Y12684000D02*
X-21460000Y12684000D01*
X-24910000Y11384000D02*
X-24910000Y11984000D01*
X-21460000Y10684000D02*
X-24260000Y10684000D01*
X-24360000Y10184000D02*
X-23760000Y10184000D01*
X-24060000Y10484000D02*
X-23760000Y10184000D01*
X-24060000Y10484000D02*
X-24360000Y10184000D01*
X-20810000Y11984000D02*
X-20810000Y11384000D01*
X-24910000Y11384000D02*
G75*
G03*
X-24210000Y10684000I699999J-1D01*
G01*
X-20810000Y11984000D02*
G75*
G03*
X-21510000Y12684000I-699999J1D01*
G01*
X-24210000Y12684000D02*
G75*
G03*
X-24910000Y11984000I-1J-699999D01*
G01*
X-21510000Y10684000D02*
G75*
G03*
X-20810000Y11384000I1J699999D01*
G01*
D10*
%TO.C,U1*%
X-43180000Y-34710000D02*
X-43180000Y-35599000D01*
X-50800000Y-29630000D02*
X-50800000Y-34710000D01*
X-43180000Y-29630000D02*
X-50800000Y-29630000D01*
X-53340000Y850000D02*
X-53340000Y-11850000D01*
X-43180000Y-35599000D02*
X-50800000Y-35599000D01*
X-40640000Y13550000D02*
X-40640000Y26250000D01*
X-38100000Y-34710000D02*
X-55880000Y-34710000D01*
X-41910000Y24980000D02*
X-41910000Y26250000D01*
X-50800000Y-35599000D02*
X-50800000Y-34710000D01*
X-53340000Y26250000D02*
X-53340000Y13550000D01*
X-52070000Y24980000D02*
X-41910000Y24980000D01*
X-52070000Y26250000D02*
X-52070000Y24980000D01*
X-45720000Y5930000D02*
X-48260000Y5930000D01*
X-55880000Y-34710000D02*
X-55880000Y26250000D01*
X-38100000Y26250000D02*
X-38100000Y-34710000D01*
X-53340000Y13550000D02*
X-40640000Y13550000D01*
X-43180000Y-29630000D02*
X-43180000Y-34710000D01*
X-48260000Y5930000D02*
X-48260000Y9740000D01*
X-40640000Y-11850000D02*
X-40640000Y850000D01*
X-53340000Y-11850000D02*
X-40640000Y-11850000D01*
X-48260000Y9740000D02*
X-45720000Y9740000D01*
X-40640000Y850000D02*
X-53340000Y850000D01*
X-55880000Y26250000D02*
X-38100000Y26250000D01*
X-45720000Y9740000D02*
X-45720000Y5930000D01*
X-46091974Y7835000D02*
G75*
G03*
X-46091974Y7835000I-898026J0D01*
G01*
D12*
X-47625000Y-6516000D02*
X-47371000Y-6770000D01*
X-47371000Y-6770000D02*
X-47752000Y-7024000D01*
X-47752000Y-7024000D02*
X-48006000Y-6770000D01*
X-48006000Y-6770000D02*
X-47625000Y-6516000D01*
G36*
X-47371000Y-6770000D02*
G01*
X-47752000Y-7024000D01*
X-48006000Y-6770000D01*
X-47625000Y-6516000D01*
X-47371000Y-6770000D01*
G37*
X-47371000Y-6770000D02*
X-47752000Y-7024000D01*
X-48006000Y-6770000D01*
X-47625000Y-6516000D01*
X-47371000Y-6770000D01*
X-47498000Y-5754000D02*
X-47244000Y-6008000D01*
X-47244000Y-6008000D02*
X-47625000Y-6262000D01*
X-47625000Y-6262000D02*
X-47879000Y-6008000D01*
X-47879000Y-6008000D02*
X-47498000Y-5754000D01*
G36*
X-47244000Y-6008000D02*
G01*
X-47625000Y-6262000D01*
X-47879000Y-6008000D01*
X-47498000Y-5754000D01*
X-47244000Y-6008000D01*
G37*
X-47244000Y-6008000D02*
X-47625000Y-6262000D01*
X-47879000Y-6008000D01*
X-47498000Y-5754000D01*
X-47244000Y-6008000D01*
X-47244000Y-4230000D02*
X-46990000Y-4484000D01*
X-46990000Y-4484000D02*
X-47371000Y-4738000D01*
X-47371000Y-4738000D02*
X-47625000Y-4484000D01*
X-47625000Y-4484000D02*
X-47244000Y-4230000D01*
G36*
X-46990000Y-4484000D02*
G01*
X-47371000Y-4738000D01*
X-47625000Y-4484000D01*
X-47244000Y-4230000D01*
X-46990000Y-4484000D01*
G37*
X-46990000Y-4484000D02*
X-47371000Y-4738000D01*
X-47625000Y-4484000D01*
X-47244000Y-4230000D01*
X-46990000Y-4484000D01*
X-47117000Y-6135000D02*
X-46863000Y-6389000D01*
X-46863000Y-6389000D02*
X-47244000Y-6643000D01*
X-47244000Y-6643000D02*
X-47498000Y-6389000D01*
X-47498000Y-6389000D02*
X-47117000Y-6135000D01*
G36*
X-46863000Y-6389000D02*
G01*
X-47244000Y-6643000D01*
X-47498000Y-6389000D01*
X-47117000Y-6135000D01*
X-46863000Y-6389000D01*
G37*
X-46863000Y-6389000D02*
X-47244000Y-6643000D01*
X-47498000Y-6389000D01*
X-47117000Y-6135000D01*
X-46863000Y-6389000D01*
X-46609000Y-5754000D02*
X-46355000Y-6008000D01*
X-46355000Y-6008000D02*
X-46736000Y-6262000D01*
X-46736000Y-6262000D02*
X-46990000Y-6008000D01*
X-46990000Y-6008000D02*
X-46609000Y-5754000D01*
G36*
X-46355000Y-6008000D02*
G01*
X-46736000Y-6262000D01*
X-46990000Y-6008000D01*
X-46609000Y-5754000D01*
X-46355000Y-6008000D01*
G37*
X-46355000Y-6008000D02*
X-46736000Y-6262000D01*
X-46990000Y-6008000D01*
X-46609000Y-5754000D01*
X-46355000Y-6008000D01*
X-46482000Y-4992000D02*
X-46228000Y-5246000D01*
X-46228000Y-5246000D02*
X-46609000Y-5500000D01*
X-46609000Y-5500000D02*
X-46863000Y-5246000D01*
X-46863000Y-5246000D02*
X-46482000Y-4992000D01*
G36*
X-46228000Y-5246000D02*
G01*
X-46609000Y-5500000D01*
X-46863000Y-5246000D01*
X-46482000Y-4992000D01*
X-46228000Y-5246000D01*
G37*
X-46228000Y-5246000D02*
X-46609000Y-5500000D01*
X-46863000Y-5246000D01*
X-46482000Y-4992000D01*
X-46228000Y-5246000D01*
X-46863000Y-4611000D02*
X-46609000Y-4865000D01*
X-46609000Y-4865000D02*
X-46990000Y-5119000D01*
X-46990000Y-5119000D02*
X-47244000Y-4865000D01*
X-47244000Y-4865000D02*
X-46863000Y-4611000D01*
G36*
X-46609000Y-4865000D02*
G01*
X-46990000Y-5119000D01*
X-47244000Y-4865000D01*
X-46863000Y-4611000D01*
X-46609000Y-4865000D01*
G37*
X-46609000Y-4865000D02*
X-46990000Y-5119000D01*
X-47244000Y-4865000D01*
X-46863000Y-4611000D01*
X-46609000Y-4865000D01*
X-46990000Y-5373000D02*
X-46736000Y-5627000D01*
X-46736000Y-5627000D02*
X-47117000Y-5881000D01*
X-47117000Y-5881000D02*
X-47371000Y-5627000D01*
X-47371000Y-5627000D02*
X-46990000Y-5373000D01*
G36*
X-46736000Y-5627000D02*
G01*
X-47117000Y-5881000D01*
X-47371000Y-5627000D01*
X-46990000Y-5373000D01*
X-46736000Y-5627000D01*
G37*
X-46736000Y-5627000D02*
X-47117000Y-5881000D01*
X-47371000Y-5627000D01*
X-46990000Y-5373000D01*
X-46736000Y-5627000D01*
D16*
%TO.C,D2*%
X-89474800Y19263000D02*
X-89474800Y23113000D01*
X-91474800Y19263000D02*
X-91474800Y23113000D01*
X-91474800Y19263000D02*
X-89474800Y19263000D01*
%TO.C,Q2*%
X-92170000Y14080000D02*
X-90140000Y14080000D01*
X-92170000Y14080000D02*
X-92170000Y14740000D01*
X-90760000Y16400000D02*
X-92170000Y16400000D01*
X-92170000Y15740000D02*
X-92170000Y16400000D01*
D10*
%TO.C,TP5*%
X-65148000Y20320000D02*
G75*
G03*
X-65148000Y20320000I-1400000J0D01*
G01*
%TO.C,TP1*%
X-61084000Y32512000D02*
G75*
G03*
X-61084000Y32512000I-1400000J0D01*
G01*
D16*
%TO.C,JDC1*%
X-79728000Y21960000D02*
X-82328000Y21960000D01*
X-88928000Y21960000D02*
X-88928000Y23749000D01*
X-88928000Y35687000D02*
X-79728000Y35687000D01*
X-79728000Y35687000D02*
X-79728000Y21960000D01*
X-88928000Y27940000D02*
X-88928000Y35687000D01*
X-80578000Y21760000D02*
X-79528000Y21760000D01*
X-79528000Y22810000D02*
X-79528000Y21760000D01*
X-86228000Y21960000D02*
X-88928000Y21960000D01*
D10*
%TO.C,TP6*%
X-65148000Y16256000D02*
G75*
G03*
X-65148000Y16256000I-1400000J0D01*
G01*
D16*
%TO.C,R1*%
X-23595000Y8408936D02*
X-23595000Y8863064D01*
X-22125000Y8408936D02*
X-22125000Y8863064D01*
%TO.C,BT1*%
X-90138000Y-6750000D02*
X-92238000Y-6750000D01*
X-81288000Y-4150000D02*
X-82088000Y-4150000D01*
X-90138000Y6750000D02*
X-92238000Y6750000D01*
X-84688000Y-6750000D02*
X-86138000Y-6750000D01*
X-86138000Y6750000D02*
X-84688000Y6750000D01*
X-82088000Y-4150000D02*
X-84688000Y-6750000D01*
X-82088000Y4150000D02*
X-81288000Y4150000D01*
X-84688000Y6750000D02*
X-82088000Y4150000D01*
X-81288000Y4150000D02*
X-81288000Y-4150000D01*
X-93738000Y-5300000D02*
G75*
G03*
X-92188000Y-6750000I1499999J49999D01*
G01*
X-93722160Y5414615D02*
G75*
G03*
X-93338000Y4500000I984161J-124615D01*
G01*
X-92188000Y6750000D02*
G75*
G03*
X-93738000Y5300000I-50001J-1499999D01*
G01*
X-93338000Y-4500000D02*
G75*
G03*
X-93722160Y-5414615I600001J-790000D01*
G01*
%TO.C,J1*%
X-26562600Y-22292000D02*
X-27892600Y-22292000D01*
X-25292600Y-24892000D02*
X-27892600Y-24892000D01*
X-27892600Y-22292000D02*
X-27892600Y-23622000D01*
X-25292600Y-22292000D02*
X-25292600Y-24892000D01*
X-22692600Y-22292000D02*
X-22692600Y-32572000D01*
X-22692600Y-22292000D02*
X-25292600Y-22292000D01*
X-27892600Y-24892000D02*
X-27892600Y-32572000D01*
X-22692600Y-32572000D02*
X-27892600Y-32572000D01*
D10*
%TO.C,TP2*%
X-65148000Y32512000D02*
G75*
G03*
X-65148000Y32512000I-1400000J0D01*
G01*
D16*
%TO.C,U2*%
X-72114600Y18879900D02*
X-75874600Y18879900D01*
X-69864600Y12059900D02*
X-75874600Y12059900D01*
X-75874600Y12059900D02*
X-75874600Y13319900D01*
X-75874600Y18879900D02*
X-75874600Y17619900D01*
D10*
%TO.C,TP4*%
X-65148000Y24384000D02*
G75*
G03*
X-65148000Y24384000I-1400000J0D01*
G01*
D16*
%TO.C,C2-1*%
X-78892500Y20663000D02*
X-78892500Y20288000D01*
X-82087500Y16528000D02*
X-81387500Y16528000D01*
X-82087500Y19158563D02*
X-82087500Y16528000D01*
X-79267500Y19858563D02*
X-78567500Y19158563D01*
X-78705000Y20475500D02*
X-79080000Y20475500D01*
X-81387500Y19858563D02*
X-82087500Y19158563D01*
X-78567500Y16528000D02*
X-79267500Y16528000D01*
X-78567500Y19158563D02*
X-78567500Y16528000D01*
%TO.C,C2-2*%
X-80459252Y9425000D02*
X-79936748Y9425000D01*
X-80459252Y10895000D02*
X-79936748Y10895000D01*
%TO.C,C3*%
X-79936748Y12927000D02*
X-80459252Y12927000D01*
X-79936748Y11457000D02*
X-80459252Y11457000D01*
%TO.C,JBAT1*%
X-75329000Y34760000D02*
X-69959000Y34760000D01*
X-69959000Y34760000D02*
X-68959000Y33760000D01*
X-76329000Y24630000D02*
X-76329000Y33760000D01*
X-68959000Y33760000D02*
X-68959000Y24630000D01*
X-68959000Y24630000D02*
X-76329000Y24630000D01*
X-76329000Y33760000D02*
X-75329000Y34760000D01*
%TO.C,U3*%
X-82922000Y12158000D02*
X-82922000Y10848000D01*
X-85642000Y15568000D02*
X-82922000Y15568000D01*
X-86782000Y15338000D02*
X-85642000Y15338000D01*
X-82922000Y15568000D02*
X-82922000Y14258000D01*
X-85642000Y10848000D02*
X-85642000Y11078000D01*
X-82922000Y10848000D02*
X-85642000Y10848000D01*
X-85642000Y15568000D02*
X-85642000Y15338000D01*
%TO.C,SW1*%
X-18260000Y33396000D02*
X-18260000Y33396000D01*
X-21360000Y35296000D02*
X-21360000Y35296000D01*
X-22460000Y33696000D02*
X-22460000Y33396000D01*
X-24060000Y35296000D02*
X-23560000Y35296000D01*
X-20860000Y34496000D02*
X-20860000Y33996000D01*
X-24860000Y33996000D02*
X-24860000Y33996000D01*
X-22160000Y29596000D02*
X-21060000Y29596000D01*
X-24860000Y34796000D02*
X-24860000Y34796000D01*
X-22460000Y33396000D02*
X-20760000Y33396000D01*
X-18260000Y33396000D02*
X-18260000Y29596000D01*
X-27460000Y29596000D02*
X-27460000Y33396000D01*
X-22460000Y35296000D02*
X-22460000Y35296000D01*
X-24960000Y33696000D02*
X-24960000Y33396000D01*
X-23260000Y33396000D02*
X-23260000Y33696000D01*
X-22160000Y35296000D02*
X-22160000Y35296000D01*
X-20860000Y34796000D02*
X-20860000Y34796000D01*
X-24660000Y29596000D02*
X-23560000Y29596000D01*
X-25760000Y33396000D02*
X-25760000Y33696000D01*
X-27460000Y33396000D02*
X-25760000Y33396000D01*
X-20760000Y33696000D02*
X-19960000Y33696000D01*
X-21660000Y35296000D02*
X-22160000Y35296000D01*
X-18260000Y29596000D02*
X-19660000Y29596000D01*
X-23560000Y29596000D02*
X-23560000Y29596000D01*
X-20860000Y35296000D02*
X-20860000Y34796000D01*
X-24860000Y34496000D02*
X-24860000Y33996000D01*
X-20760000Y33396000D02*
X-20760000Y33696000D01*
X-23260000Y35296000D02*
X-22460000Y35296000D01*
X-23260000Y33696000D02*
X-22460000Y33696000D01*
X-24960000Y33396000D02*
X-23260000Y33396000D01*
X-20860000Y35296000D02*
X-21360000Y35296000D01*
X-25760000Y33696000D02*
X-24960000Y33696000D01*
X-23560000Y35296000D02*
X-23560000Y35296000D01*
X-24860000Y35296000D02*
X-24360000Y35296000D01*
X-19960000Y33696000D02*
X-19960000Y33396000D01*
X-24360000Y35296000D02*
X-24360000Y35296000D01*
X-19960000Y33396000D02*
X-18260000Y33396000D01*
X-21060000Y29596000D02*
X-21060000Y29596000D01*
X-20860000Y33996000D02*
X-20860000Y33996000D01*
X-24860000Y35296000D02*
X-24860000Y34796000D01*
X-26060000Y29596000D02*
X-27460000Y29596000D01*
%TO.C,R2*%
X-91212936Y18896000D02*
X-91667064Y18896000D01*
X-91212936Y17426000D02*
X-91667064Y17426000D01*
%TO.C,D1*%
X-87442000Y18643000D02*
X-89342000Y18643000D01*
X-89342000Y18643000D02*
X-89342000Y14983000D01*
X-87442000Y18643000D02*
X-87442000Y14983000D01*
%TO.C,JGAIN1*%
X-24260000Y26654000D02*
X-21460000Y26654000D01*
X-24360000Y24154000D02*
X-23760000Y24154000D01*
X-20810000Y25954000D02*
X-20810000Y25354000D01*
X-24060000Y24454000D02*
X-23760000Y24154000D01*
X-21460000Y24654000D02*
X-24260000Y24654000D01*
X-24060000Y24454000D02*
X-24360000Y24154000D01*
X-24910000Y25354000D02*
X-24910000Y25954000D01*
X-20810000Y25954000D02*
G75*
G03*
X-21510000Y26654000I-699999J1D01*
G01*
X-24910000Y25354000D02*
G75*
G03*
X-24210000Y24654000I699999J-1D01*
G01*
X-21510000Y24654000D02*
G75*
G03*
X-20810000Y25354000I1J699999D01*
G01*
X-24210000Y26654000D02*
G75*
G03*
X-24910000Y25954000I-1J-699999D01*
G01*
D10*
%TO.C,TP3*%
X-65148000Y28448000D02*
G75*
G03*
X-65148000Y28448000I-1400000J0D01*
G01*
D16*
%TO.C,R3*%
X-79970936Y13489000D02*
X-80425064Y13489000D01*
X-79970936Y14959000D02*
X-80425064Y14959000D01*
%TO.C,Q1*%
X-84264500Y15966000D02*
X-84914500Y15966000D01*
X-84264500Y15966000D02*
X-82589500Y15966000D01*
X-84264500Y19086000D02*
X-83614500Y19086000D01*
X-84264500Y19086000D02*
X-84914500Y19086000D01*
%TO.C,JCR1*%
X0Y-17780000D02*
X2600000Y-17780000D01*
X0Y-15180000D02*
X0Y-17780000D01*
X1270000Y-15180000D02*
X2600000Y-15180000D01*
X2600000Y-15180000D02*
X2600000Y-16510000D01*
%TD*%
M02*
