M48
; DRILL file {KiCad 6.0.2+dfsg-1} date Wed 28 Jun 2023 01:43:02 PM MDT
; FORMAT={-:-/ absolute / metric / decimal}
; #@! TF.CreationDate,2023-06-28T13:43:02-06:00
; #@! TF.GenerationSoftware,Kicad,Pcbnew,6.0.2+dfsg-1
; #@! TF.FileFunction,Plated,1,2,PTH
FMAT,2
METRIC
; #@! TA.AperFunction,Plated,PTH,ViaDrill
T1C0.400
; #@! TA.AperFunction,Plated,PTH,ComponentDrill
T2C0.700
; #@! TA.AperFunction,Plated,PTH,ComponentDrill
T3C0.750
; #@! TA.AperFunction,Plated,PTH,ComponentDrill
T4C0.800
; #@! TA.AperFunction,Plated,PTH,ComponentDrill
T5C0.950
; #@! TA.AperFunction,Plated,PTH,ComponentDrill
T6C1.000
; #@! TA.AperFunction,Plated,PTH,ComponentDrill
T7C1.020
; #@! TA.AperFunction,Plated,PTH,ComponentDrill
T8C1.100
; #@! TA.AperFunction,Plated,PTH,ComponentDrill
T9C2.200
%
G90
G05
T1
X-189.992Y12.446
X-153.963Y-14.529
X-138.447Y-13.678
X-119.905Y23.104
X-114.605Y10.004
X-73.406Y3.048
X-71.501Y2.286
X-66.422Y-11.176
X-65.024Y-32.893
X-60.452Y-30.607
X-57.765Y-24.384
X-56.766Y-24.346
X-55.372Y-32.004
X-54.36Y-33.524
X-53.594Y-32.766
X-52.832Y-32.004
X-52.452Y-24.384
X-50.395Y-14.618
X-50.391Y-15.638
X-50.048Y-30.616
X-45.339Y-29.464
X-45.251Y-16.904
X-45.18Y-15.887
X-44.68Y-19.444
X-39.676Y-16.812
X-39.422Y-21.895
X-34.516Y-27.686
X-31.345Y-5.601
X-31.255Y-6.744
X-29.122Y-5.474
X-29.122Y-6.49
X-28.886Y29.954
X-25.884Y16.852
X-23.586Y16.854
X-23.09Y-5.715
X-23.09Y-6.731
X-22.637Y-4.646
X-20.427Y9.135
X-20.193Y-0.05
X-19.495Y-4.646
X-18.802Y-6.735
X-18.797Y-5.715
X-17.756Y9.893
X-17.019Y0.0
X-16.983Y6.259
X-16.983Y-6.133
X-15.495Y-30.48
X-14.225Y20.701
X-13.971Y-8.001
X-13.844Y-5.316
X-12.627Y-5.293
X-12.574Y-8.063
X-11.177Y-1.27
X-10.288Y6.248
X-10.263Y-6.223
X-6.097Y-18.034
X-6.096Y18.034
X-5.271Y-19.685
X-5.213Y16.374
X-4.318Y-33.782
X-3.937Y-32.766
X-3.557Y6.223
X-3.523Y0.013
X-3.523Y-6.237
X-2.668Y3.556
X-0.874Y1.651
X-0.74Y9.896
X2.54Y0.0
X8.152Y9.639
X8.66Y32.753
X11.399Y0.0
X11.429Y-29.972
X17.399Y22.606
T2
X5.588Y25.908
X5.588Y-25.908
X7.62Y19.304
X7.62Y16.764
X7.62Y14.224
X7.62Y6.604
X7.62Y4.064
X7.62Y-4.064
X7.62Y-6.604
X7.62Y-14.224
X7.62Y-16.764
X7.62Y-19.304
X8.128Y25.908
X8.128Y-25.908
X15.24Y19.304
X15.24Y16.764
X15.24Y14.224
X15.24Y6.604
X15.24Y4.064
X15.24Y-4.064
X15.24Y-6.604
X15.24Y-14.224
X15.24Y-16.764
X15.24Y-19.304
T3
X3.505Y13.462
X3.505Y12.192
X3.505Y10.922
X3.505Y-10.922
X3.505Y-12.192
X3.505Y-13.462
T4
X-14.708Y12.687
X-12.168Y15.227
X-9.628Y12.687
T5
X-88.098Y-15.888
X-85.598Y-15.888
X-83.098Y-15.888
X-80.598Y-15.888
X-78.098Y-15.888
X-75.598Y-15.888
X-62.237Y-12.954
X-62.23Y-2.794
X-59.737Y-12.954
X-59.73Y-2.794
X-57.237Y-12.954
X-57.23Y-2.794
X-54.737Y-12.954
X-54.73Y-2.794
X-48.648Y-24.645
X-46.148Y-24.645
X-43.648Y-24.645
X-41.148Y-24.645
X-38.648Y-24.645
X-36.148Y-24.645
X-33.648Y-24.645
T6
X-155.674Y28.917
X-153.134Y28.917
X-150.594Y28.917
X-148.054Y28.917
X-145.514Y28.917
X-142.974Y28.917
X-140.434Y28.917
X-137.894Y28.917
X-129.516Y-13.856
X-129.516Y-34.176
X-126.976Y-13.856
X-126.976Y-34.176
X-126.905Y25.603
X-126.905Y23.063
X-126.905Y20.523
X-126.905Y17.983
X-126.905Y15.443
X-126.905Y12.903
X-126.905Y10.363
X-126.905Y7.823
X-126.905Y5.283
X-126.905Y2.743
X-126.905Y0.203
X-124.436Y-13.856
X-124.436Y-34.176
X-121.896Y-13.856
X-121.896Y-34.176
X-121.889Y-0.013
X-119.356Y-13.856
X-119.356Y-34.176
X-119.349Y-0.013
X-116.816Y-13.856
X-116.816Y-34.176
X-116.809Y-0.013
X-114.276Y-13.856
X-114.276Y-34.176
X-114.269Y-0.013
X-111.736Y-13.856
X-111.736Y-34.176
X-111.729Y-0.013
X-109.196Y-13.856
X-109.196Y-34.176
X-109.189Y-0.013
X-106.656Y-13.856
X-106.656Y-34.176
X-106.649Y-0.013
X-103.086Y22.733
X-100.838Y3.81
X-100.838Y1.27
X-100.838Y-1.27
X-100.838Y-3.81
X-95.25Y3.81
X-95.25Y1.27
X-95.25Y-1.27
X-95.25Y-3.81
X-87.63Y16.51
X-85.09Y16.51
X-85.09Y-3.81
X-85.09Y-8.89
X-82.55Y29.21
X-82.55Y26.67
X-82.55Y24.13
X-82.55Y21.59
X-82.55Y16.51
X-82.55Y11.43
X-82.55Y-3.81
X-82.55Y-8.89
X-80.9Y-20.011
X-80.9Y-22.551
X-80.9Y-25.091
X-80.9Y-27.631
X-80.9Y-30.171
X-80.01Y16.51
X-80.01Y11.43
X-80.01Y-3.81
X-80.01Y-8.89
X-77.47Y16.51
X-77.47Y11.43
X-77.47Y-3.81
X-77.47Y-8.89
X-74.93Y16.51
X-74.93Y11.43
X-74.93Y-3.81
X-74.93Y-8.89
X-72.39Y16.51
X-72.39Y-3.81
X-68.199Y-5.397
X-68.199Y-7.938
X-68.199Y-10.477
X-68.199Y-13.018
X-68.199Y-15.557
X-68.199Y-18.098
X-68.199Y-20.637
X-68.199Y-23.177
X-68.199Y-25.717
X-68.199Y-28.258
X-68.199Y-30.797
X-68.199Y-33.337
X-66.8Y12.38
X-62.23Y-21.717
X-62.23Y-24.257
X-62.23Y-26.797
X-62.23Y-29.337
X-54.61Y-21.712
X-54.61Y-24.252
X-54.61Y-26.792
X-54.61Y-29.332
X-48.768Y-0.013
X-48.49Y-17.92
X-48.49Y-20.46
X-46.228Y-0.013
X-43.688Y-0.013
X-41.148Y-0.013
X-38.608Y-0.013
X-36.068Y-0.013
X-33.528Y-0.013
X-29.083Y5.588
X-29.083Y3.048
X-29.083Y0.508
X-29.083Y-2.032
X-29.083Y-9.017
X-29.083Y-11.557
X-29.083Y-14.097
X-29.083Y-16.637
X-29.083Y-23.622
X-29.083Y-26.162
X-29.083Y-28.702
X-29.083Y-31.242
X-26.504Y5.588
X-26.504Y3.048
X-26.504Y0.508
X-26.504Y-2.032
X-26.503Y-9.017
X-26.503Y-11.557
X-26.503Y-14.097
X-26.503Y-16.637
X-26.503Y-23.622
X-26.503Y-26.162
X-26.503Y-28.702
X-26.503Y-31.242
X-24.004Y5.588
X-24.004Y3.048
X-24.004Y0.508
X-24.004Y-2.032
X-24.003Y-9.017
X-24.003Y-11.557
X-24.003Y-14.097
X-24.003Y-16.637
X-24.003Y-23.622
X-24.003Y-26.162
X-24.003Y-28.702
X-24.003Y-31.242
X-21.463Y5.588
X-21.463Y3.048
X-21.463Y0.508
X-21.463Y-2.032
X-21.463Y-9.017
X-21.463Y-11.557
X-21.463Y-14.097
X-21.463Y-16.637
X-21.463Y-23.622
X-21.463Y-26.162
X-21.463Y-28.702
X-21.463Y-31.242
X-19.051Y17.526
X-18.035Y32.766
X-18.035Y28.702
X-17.4Y23.368
X-13.843Y31.496
X-13.843Y27.432
X-13.836Y23.4
X-13.836Y-12.715
X-11.303Y-29.337
X-10.414Y27.432
X-9.653Y31.496
X-7.62Y-29.337
X-5.462Y31.496
X0.508Y-25.908
X3.81Y32.766
X17.272Y35.052
X17.272Y32.512
X17.272Y29.972
X17.272Y27.432
X17.272Y-27.432
X17.272Y-29.972
X17.272Y-32.512
X17.272Y-35.052
X19.812Y35.052
X19.812Y32.512
X19.812Y29.972
X19.812Y27.432
X19.812Y-27.432
X19.812Y-29.972
X19.812Y-32.512
X19.812Y-35.052
X22.352Y35.052
X22.352Y32.512
X22.352Y29.972
X22.352Y27.432
X22.352Y-27.432
X22.352Y-29.972
X22.352Y-32.512
X22.352Y-35.052
X24.892Y35.052
X24.892Y32.512
X24.892Y29.972
X24.892Y27.432
X24.892Y-27.432
X24.892Y-29.972
X24.892Y-32.512
X24.892Y-35.052
X27.432Y35.052
X27.432Y32.512
X27.432Y29.972
X27.432Y27.432
X27.432Y-27.432
X27.432Y-29.972
X27.432Y-32.512
X27.432Y-35.052
X27.773Y23.398
X27.773Y-23.398
X29.972Y35.052
X29.972Y32.512
X29.972Y29.972
X29.972Y27.432
X29.972Y-27.432
X29.972Y-29.972
X29.972Y-32.512
X29.972Y-35.052
X30.313Y23.398
X30.313Y-23.398
X32.512Y35.052
X32.512Y32.512
X32.512Y29.972
X32.512Y27.432
X32.512Y-27.432
X32.512Y-29.972
X32.512Y-32.512
X32.512Y-35.052
X32.853Y23.398
X32.853Y-23.398
X35.052Y35.052
X35.052Y32.512
X35.052Y29.972
X35.052Y27.432
X35.052Y-27.432
X35.052Y-29.972
X35.052Y-32.512
X35.052Y-35.052
X35.393Y23.398
X35.393Y-23.398
X37.592Y35.052
X37.592Y32.512
X37.592Y29.972
X37.592Y27.432
X37.592Y-27.432
X37.592Y-29.972
X37.592Y-32.512
X37.592Y-35.052
X37.933Y23.398
X37.933Y-23.398
X40.132Y35.052
X40.132Y32.512
X40.132Y29.972
X40.132Y27.432
X40.132Y-27.432
X40.132Y-29.972
X40.132Y-32.512
X40.132Y-35.052
X40.473Y23.398
X40.473Y-23.398
X42.672Y35.052
X42.672Y32.512
X42.672Y29.972
X42.672Y27.432
X42.672Y-27.432
X42.672Y-29.972
X42.672Y-32.512
X42.672Y-35.052
X43.013Y23.398
X43.013Y-23.398
X45.212Y35.052
X45.212Y32.512
X45.212Y29.972
X45.212Y27.432
X45.212Y-27.432
X45.212Y-29.972
X45.212Y-32.512
X45.212Y-35.052
X45.553Y23.398
X45.553Y-23.398
X47.752Y35.052
X47.752Y32.512
X47.752Y29.972
X47.752Y27.432
X47.752Y-27.432
X47.752Y-29.972
X47.752Y-32.512
X47.752Y-35.052
X50.292Y35.052
X50.292Y32.512
X50.292Y29.972
X50.292Y27.432
X50.292Y-27.432
X50.292Y-29.972
X50.292Y-32.512
X50.292Y-35.052
X52.832Y35.052
X52.832Y32.512
X52.832Y29.972
X52.832Y27.432
X52.832Y-27.432
X52.832Y-29.972
X52.832Y-32.512
X52.832Y-35.052
X55.372Y35.052
X55.372Y32.512
X55.372Y29.972
X55.372Y27.432
X55.372Y-27.432
X55.372Y-29.972
X55.372Y-32.512
X55.372Y-35.052
T7
X-109.189Y25.728
X-109.189Y22.728
X-72.39Y25.73
X-72.39Y22.73
T8
X-195.796Y8.382
X-195.796Y3.882
X-195.796Y0.0
X-195.796Y-4.5
X-195.796Y-8.255
X-195.796Y-12.755
X-195.796Y-16.51
X-195.796Y-21.01
X-195.789Y-24.765
X-195.789Y-29.265
X-189.296Y8.382
X-189.296Y3.882
X-189.296Y0.0
X-189.296Y-4.5
X-189.296Y-8.255
X-189.296Y-12.755
X-189.296Y-16.51
X-189.296Y-21.01
X-189.289Y-24.765
X-189.289Y-29.265
X-186.264Y-8.255
X-186.264Y-12.755
X-186.264Y-16.51
X-186.264Y-21.01
X-186.264Y-24.765
X-186.264Y-29.265
X-179.764Y-8.255
X-179.764Y-12.755
X-179.764Y-16.51
X-179.764Y-21.01
X-179.764Y-24.765
X-179.764Y-29.265
X-176.746Y-24.765
X-176.746Y-29.265
X-176.739Y-8.255
X-176.739Y-12.755
X-176.739Y-16.51
X-176.739Y-21.01
X-170.246Y-24.765
X-170.246Y-29.265
X-170.239Y-8.255
X-170.239Y-12.755
X-170.239Y-16.51
X-170.239Y-21.01
X-165.076Y-16.396
X-165.076Y-31.636
X-162.536Y-16.396
X-162.536Y-29.096
X-162.536Y-31.636
X-159.996Y-16.396
X-159.996Y-31.636
X-157.456Y-16.396
X-157.456Y-31.636
X-154.916Y-16.396
X-154.916Y-31.636
X-152.376Y-16.396
X-152.376Y-31.636
X-149.836Y-16.396
X-149.836Y-31.636
X-147.296Y-16.396
X-147.296Y-31.636
X-144.756Y-16.396
X-144.756Y-31.636
X-142.216Y-16.396
X-142.216Y-31.636
X-139.676Y-16.396
X-139.676Y-31.636
X-137.136Y-16.396
X-137.136Y-31.636
X-134.596Y-16.396
X-134.596Y-31.636
X-132.056Y-16.396
X-132.056Y-18.936
X-132.056Y-21.476
X-132.056Y-24.016
X-132.056Y-26.556
X-132.056Y-29.096
X-132.056Y-31.636
X-129.516Y-16.396
X-129.516Y-31.636
X-126.976Y-16.396
X-126.976Y-31.636
X-124.436Y-16.396
X-124.436Y-31.636
X-121.896Y-16.396
X-121.896Y-31.636
X-119.356Y-16.396
X-119.356Y-18.936
X-119.356Y-21.476
X-119.356Y-24.016
X-119.356Y-26.556
X-119.356Y-29.096
X-119.356Y-31.636
X-116.816Y-16.396
X-116.816Y-31.636
X-114.276Y-16.396
X-114.276Y-31.636
X-111.736Y-16.396
X-111.736Y-31.636
X-109.196Y-16.396
X-109.196Y-31.636
X-106.656Y-16.396
X-106.656Y-31.636
T9
X-196.089Y33.02
X-196.057Y-33.02
X-102.109Y33.02
X-102.109Y-33.02
X-93.98Y33.02
X-93.98Y-33.02
X-63.56Y33.007
X-63.56Y5.007
X-35.56Y33.007
X-35.56Y5.007
X0.0Y33.02
X0.0Y-33.02
X22.678Y14.0
X22.678Y-14.0
X50.678Y14.0
X50.678Y-14.0
T6
G00X-187.684Y27.59
M15
G01X-189.684Y27.59
M16
G05
G00X-187.684Y21.59
M15
G01X-189.684Y21.59
M16
G05
G00X-183.984Y25.59
M15
G01X-183.984Y23.59
M16
G05
T0
M30
