%TF.GenerationSoftware,KiCad,Pcbnew,6.0.2+dfsg-1*%
%TF.CreationDate,2023-06-29T12:19:06-06:00*%
%TF.ProjectId,SpectDroneControl,53706563-7444-4726-9f6e-65436f6e7472,rev?*%
%TF.SameCoordinates,PXbc941f8PY5f519c8*%
%TF.FileFunction,Legend,Bot*%
%TF.FilePolarity,Positive*%
%FSLAX46Y46*%
G04 Gerber Fmt 4.6, Leading zero omitted, Abs format (unit mm)*
G04 Created by KiCad (PCBNEW 6.0.2+dfsg-1) date 2023-06-29 12:19:06*
%MOMM*%
%LPD*%
G01*
G04 APERTURE LIST*
%ADD10C,0.100000*%
%ADD11C,0.125000*%
%ADD12C,0.187500*%
%ADD13C,0.150000*%
%ADD14C,0.120000*%
G04 APERTURE END LIST*
D10*
X-21344096Y-33613690D02*
X-21344096Y-33970833D01*
X-21320286Y-34042261D01*
X-21272667Y-34089880D01*
X-21201239Y-34113690D01*
X-21153620Y-34113690D01*
X-21558381Y-33661309D02*
X-21582191Y-33637500D01*
X-21629810Y-33613690D01*
X-21748858Y-33613690D01*
X-21796477Y-33637500D01*
X-21820286Y-33661309D01*
X-21844096Y-33708928D01*
X-21844096Y-33756547D01*
X-21820286Y-33827976D01*
X-21534572Y-34113690D01*
X-21844096Y-34113690D01*
X-22058381Y-33923214D02*
X-22439334Y-33923214D01*
X-22939334Y-34113690D02*
X-22653620Y-34113690D01*
X-22796477Y-34113690D02*
X-22796477Y-33613690D01*
X-22748858Y-33685119D01*
X-22701239Y-33732738D01*
X-22653620Y-33756547D01*
X-23153620Y-33923214D02*
X-23534572Y-33923214D01*
X-23725048Y-33613690D02*
X-24034572Y-33613690D01*
X-23867905Y-33804166D01*
X-23939334Y-33804166D01*
X-23986953Y-33827976D01*
X-24010762Y-33851785D01*
X-24034572Y-33899404D01*
X-24034572Y-34018452D01*
X-24010762Y-34066071D01*
X-23986953Y-34089880D01*
X-23939334Y-34113690D01*
X-23796477Y-34113690D01*
X-23748858Y-34089880D01*
X-23725048Y-34066071D01*
X-21570286Y-34894880D02*
X-21641715Y-34918690D01*
X-21760762Y-34918690D01*
X-21808381Y-34894880D01*
X-21832191Y-34871071D01*
X-21856000Y-34823452D01*
X-21856000Y-34775833D01*
X-21832191Y-34728214D01*
X-21808381Y-34704404D01*
X-21760762Y-34680595D01*
X-21665524Y-34656785D01*
X-21617905Y-34632976D01*
X-21594096Y-34609166D01*
X-21570286Y-34561547D01*
X-21570286Y-34513928D01*
X-21594096Y-34466309D01*
X-21617905Y-34442500D01*
X-21665524Y-34418690D01*
X-21784572Y-34418690D01*
X-21856000Y-34442500D01*
X-22070286Y-34918690D02*
X-22070286Y-34418690D01*
X-22189334Y-34418690D01*
X-22260762Y-34442500D01*
X-22308381Y-34490119D01*
X-22332191Y-34537738D01*
X-22356000Y-34632976D01*
X-22356000Y-34704404D01*
X-22332191Y-34799642D01*
X-22308381Y-34847261D01*
X-22260762Y-34894880D01*
X-22189334Y-34918690D01*
X-22070286Y-34918690D01*
X-22546477Y-34775833D02*
X-22784572Y-34775833D01*
X-22498858Y-34918690D02*
X-22665524Y-34418690D01*
X-22832191Y-34918690D01*
X-22951239Y-34418690D02*
X-23260762Y-34418690D01*
X-23094096Y-34609166D01*
X-23165524Y-34609166D01*
X-23213143Y-34632976D01*
X-23236953Y-34656785D01*
X-23260762Y-34704404D01*
X-23260762Y-34823452D01*
X-23236953Y-34871071D01*
X-23213143Y-34894880D01*
X-23165524Y-34918690D01*
X-23022667Y-34918690D01*
X-22975048Y-34894880D01*
X-22951239Y-34871071D01*
X-23427429Y-34585357D02*
X-23546477Y-34918690D01*
X-23665524Y-34585357D01*
X-18728572Y-33020771D02*
X-18704762Y-33044580D01*
X-18633334Y-33068390D01*
X-18585715Y-33068390D01*
X-18514286Y-33044580D01*
X-18466667Y-32996961D01*
X-18442858Y-32949342D01*
X-18419048Y-32854104D01*
X-18419048Y-32782676D01*
X-18442858Y-32687438D01*
X-18466667Y-32639819D01*
X-18514286Y-32592200D01*
X-18585715Y-32568390D01*
X-18633334Y-32568390D01*
X-18704762Y-32592200D01*
X-18728572Y-32616009D01*
X-18919048Y-33044580D02*
X-18990477Y-33068390D01*
X-19109524Y-33068390D01*
X-19157143Y-33044580D01*
X-19180953Y-33020771D01*
X-19204762Y-32973152D01*
X-19204762Y-32925533D01*
X-19180953Y-32877914D01*
X-19157143Y-32854104D01*
X-19109524Y-32830295D01*
X-19014286Y-32806485D01*
X-18966667Y-32782676D01*
X-18942858Y-32758866D01*
X-18919048Y-32711247D01*
X-18919048Y-32663628D01*
X-18942858Y-32616009D01*
X-18966667Y-32592200D01*
X-19014286Y-32568390D01*
X-19133334Y-32568390D01*
X-19204762Y-32592200D01*
X-19395239Y-32616009D02*
X-19419048Y-32592200D01*
X-19466667Y-32568390D01*
X-19585715Y-32568390D01*
X-19633334Y-32592200D01*
X-19657143Y-32616009D01*
X-19680953Y-32663628D01*
X-19680953Y-32711247D01*
X-19657143Y-32782676D01*
X-19371429Y-33068390D01*
X-19680953Y-33068390D01*
D11*
X-15385161Y-30913234D02*
X-15356589Y-30884663D01*
X-15328018Y-30798949D01*
X-15328018Y-30741806D01*
X-15356589Y-30656091D01*
X-15413732Y-30598949D01*
X-15470875Y-30570377D01*
X-15585161Y-30541806D01*
X-15670875Y-30541806D01*
X-15785161Y-30570377D01*
X-15842304Y-30598949D01*
X-15899446Y-30656091D01*
X-15928018Y-30741806D01*
X-15928018Y-30798949D01*
X-15899446Y-30884663D01*
X-15870875Y-30913234D01*
X-15356589Y-31141806D02*
X-15328018Y-31227520D01*
X-15328018Y-31370377D01*
X-15356589Y-31427520D01*
X-15385161Y-31456091D01*
X-15442304Y-31484663D01*
X-15499446Y-31484663D01*
X-15556589Y-31456091D01*
X-15585161Y-31427520D01*
X-15613732Y-31370377D01*
X-15642304Y-31256091D01*
X-15670875Y-31198949D01*
X-15699446Y-31170377D01*
X-15756589Y-31141806D01*
X-15813732Y-31141806D01*
X-15870875Y-31170377D01*
X-15899446Y-31198949D01*
X-15928018Y-31256091D01*
X-15928018Y-31398949D01*
X-15899446Y-31484663D01*
X-15328018Y-32056091D02*
X-15328018Y-31713234D01*
X-15328018Y-31884663D02*
X-15928018Y-31884663D01*
X-15842304Y-31827520D01*
X-15785161Y-31770377D01*
X-15756589Y-31713234D01*
X-13409625Y-26470377D02*
X-13409625Y-25870377D01*
X-13609625Y-26298949D01*
X-13809625Y-25870377D01*
X-13809625Y-26470377D01*
X-14095339Y-26470377D02*
X-14095339Y-25870377D01*
X-14352482Y-26441806D02*
X-14438196Y-26470377D01*
X-14581054Y-26470377D01*
X-14638196Y-26441806D01*
X-14666768Y-26413234D01*
X-14695339Y-26356091D01*
X-14695339Y-26298949D01*
X-14666768Y-26241806D01*
X-14638196Y-26213234D01*
X-14581054Y-26184663D01*
X-14466768Y-26156091D01*
X-14409625Y-26127520D01*
X-14381054Y-26098949D01*
X-14352482Y-26041806D01*
X-14352482Y-25984663D01*
X-14381054Y-25927520D01*
X-14409625Y-25898949D01*
X-14466768Y-25870377D01*
X-14609625Y-25870377D01*
X-14695339Y-25898949D01*
X-15066768Y-25870377D02*
X-15181054Y-25870377D01*
X-15238196Y-25898949D01*
X-15295339Y-25956091D01*
X-15323911Y-26070377D01*
X-15323911Y-26270377D01*
X-15295339Y-26384663D01*
X-15238196Y-26441806D01*
X-15181054Y-26470377D01*
X-15066768Y-26470377D01*
X-15009625Y-26441806D01*
X-14952482Y-26384663D01*
X-14923911Y-26270377D01*
X-14923911Y-26070377D01*
X-14952482Y-25956091D01*
X-15009625Y-25898949D01*
X-15066768Y-25870377D01*
X-15712482Y-26284663D02*
X-15781054Y-26307520D01*
X-15803911Y-26330377D01*
X-15826768Y-26376091D01*
X-15826768Y-26444663D01*
X-15803911Y-26490377D01*
X-15781054Y-26513234D01*
X-15735339Y-26536091D01*
X-15552482Y-26536091D01*
X-15552482Y-26056091D01*
X-15712482Y-26056091D01*
X-15758196Y-26078949D01*
X-15781054Y-26101806D01*
X-15803911Y-26147520D01*
X-15803911Y-26193234D01*
X-15781054Y-26238949D01*
X-15758196Y-26261806D01*
X-15712482Y-26284663D01*
X-15552482Y-26284663D01*
D10*
X-45486667Y2491534D02*
X-45953334Y1791534D01*
X-45953334Y2491534D02*
X-45486667Y1791534D01*
D12*
X-35237304Y-30867000D02*
X-35165875Y-30831285D01*
X-35058733Y-30831285D01*
X-34951590Y-30867000D01*
X-34880161Y-30938428D01*
X-34844447Y-31009857D01*
X-34808733Y-31152714D01*
X-34808733Y-31259857D01*
X-34844447Y-31402714D01*
X-34880161Y-31474142D01*
X-34951590Y-31545571D01*
X-35058733Y-31581285D01*
X-35130161Y-31581285D01*
X-35237304Y-31545571D01*
X-35273018Y-31509857D01*
X-35273018Y-31259857D01*
X-35130161Y-31259857D01*
X-35594447Y-31581285D02*
X-35594447Y-30831285D01*
X-36023018Y-31581285D01*
X-36023018Y-30831285D01*
X-36380161Y-31581285D02*
X-36380161Y-30831285D01*
X-36558733Y-30831285D01*
X-36665875Y-30867000D01*
X-36737304Y-30938428D01*
X-36773018Y-31009857D01*
X-36808733Y-31152714D01*
X-36808733Y-31259857D01*
X-36773018Y-31402714D01*
X-36737304Y-31474142D01*
X-36665875Y-31545571D01*
X-36558733Y-31581285D01*
X-36380161Y-31581285D01*
D10*
X-16189126Y-33020771D02*
X-16165316Y-33044580D01*
X-16093888Y-33068390D01*
X-16046269Y-33068390D01*
X-15974840Y-33044580D01*
X-15927221Y-32996961D01*
X-15903412Y-32949342D01*
X-15879602Y-32854104D01*
X-15879602Y-32782676D01*
X-15903412Y-32687438D01*
X-15927221Y-32639819D01*
X-15974840Y-32592200D01*
X-16046269Y-32568390D01*
X-16093888Y-32568390D01*
X-16165316Y-32592200D01*
X-16189126Y-32616009D01*
X-16379602Y-33044580D02*
X-16451031Y-33068390D01*
X-16570078Y-33068390D01*
X-16617697Y-33044580D01*
X-16641507Y-33020771D01*
X-16665316Y-32973152D01*
X-16665316Y-32925533D01*
X-16641507Y-32877914D01*
X-16617697Y-32854104D01*
X-16570078Y-32830295D01*
X-16474840Y-32806485D01*
X-16427221Y-32782676D01*
X-16403412Y-32758866D01*
X-16379602Y-32711247D01*
X-16379602Y-32663628D01*
X-16403412Y-32616009D01*
X-16427221Y-32592200D01*
X-16474840Y-32568390D01*
X-16593888Y-32568390D01*
X-16665316Y-32592200D01*
X-16831983Y-32568390D02*
X-17141507Y-32568390D01*
X-16974840Y-32758866D01*
X-17046269Y-32758866D01*
X-17093888Y-32782676D01*
X-17117697Y-32806485D01*
X-17141507Y-32854104D01*
X-17141507Y-32973152D01*
X-17117697Y-33020771D01*
X-17093888Y-33044580D01*
X-17046269Y-33068390D01*
X-16903412Y-33068390D01*
X-16855793Y-33044580D01*
X-16831983Y-33020771D01*
X-31250096Y-33613690D02*
X-31250096Y-33970833D01*
X-31226286Y-34042261D01*
X-31178667Y-34089880D01*
X-31107239Y-34113690D01*
X-31059620Y-34113690D01*
X-31464381Y-33661309D02*
X-31488191Y-33637500D01*
X-31535810Y-33613690D01*
X-31654858Y-33613690D01*
X-31702477Y-33637500D01*
X-31726286Y-33661309D01*
X-31750096Y-33708928D01*
X-31750096Y-33756547D01*
X-31726286Y-33827976D01*
X-31440572Y-34113690D01*
X-31750096Y-34113690D01*
X-31964381Y-33923214D02*
X-32345334Y-33923214D01*
X-32845334Y-34113690D02*
X-32559620Y-34113690D01*
X-32702477Y-34113690D02*
X-32702477Y-33613690D01*
X-32654858Y-33685119D01*
X-32607239Y-33732738D01*
X-32559620Y-33756547D01*
X-33059620Y-33923214D02*
X-33440572Y-33923214D01*
X-33892953Y-33780357D02*
X-33892953Y-34113690D01*
X-33773905Y-33589880D02*
X-33654858Y-33947023D01*
X-33964381Y-33947023D01*
X-31488191Y-34894880D02*
X-31559620Y-34918690D01*
X-31678667Y-34918690D01*
X-31726286Y-34894880D01*
X-31750096Y-34871071D01*
X-31773905Y-34823452D01*
X-31773905Y-34775833D01*
X-31750096Y-34728214D01*
X-31726286Y-34704404D01*
X-31678667Y-34680595D01*
X-31583429Y-34656785D01*
X-31535810Y-34632976D01*
X-31512000Y-34609166D01*
X-31488191Y-34561547D01*
X-31488191Y-34513928D01*
X-31512000Y-34466309D01*
X-31535810Y-34442500D01*
X-31583429Y-34418690D01*
X-31702477Y-34418690D01*
X-31773905Y-34442500D01*
X-32273905Y-34871071D02*
X-32250096Y-34894880D01*
X-32178667Y-34918690D01*
X-32131048Y-34918690D01*
X-32059620Y-34894880D01*
X-32012000Y-34847261D01*
X-31988191Y-34799642D01*
X-31964381Y-34704404D01*
X-31964381Y-34632976D01*
X-31988191Y-34537738D01*
X-32012000Y-34490119D01*
X-32059620Y-34442500D01*
X-32131048Y-34418690D01*
X-32178667Y-34418690D01*
X-32250096Y-34442500D01*
X-32273905Y-34466309D01*
X-32726286Y-34918690D02*
X-32488191Y-34918690D01*
X-32488191Y-34418690D01*
X-32845334Y-34418690D02*
X-33154858Y-34418690D01*
X-32988191Y-34609166D01*
X-33059620Y-34609166D01*
X-33107239Y-34632976D01*
X-33131048Y-34656785D01*
X-33154858Y-34704404D01*
X-33154858Y-34823452D01*
X-33131048Y-34871071D01*
X-33107239Y-34894880D01*
X-33059620Y-34918690D01*
X-32916762Y-34918690D01*
X-32869143Y-34894880D01*
X-32845334Y-34871071D01*
X-33321524Y-34585357D02*
X-33440572Y-34918690D01*
X-33559620Y-34585357D01*
D11*
X-15356589Y-27687520D02*
X-15328018Y-27773234D01*
X-15328018Y-27916091D01*
X-15356589Y-27973234D01*
X-15385161Y-28001806D01*
X-15442304Y-28030377D01*
X-15499446Y-28030377D01*
X-15556589Y-28001806D01*
X-15585161Y-27973234D01*
X-15613732Y-27916091D01*
X-15642304Y-27801806D01*
X-15670875Y-27744663D01*
X-15699446Y-27716091D01*
X-15756589Y-27687520D01*
X-15813732Y-27687520D01*
X-15870875Y-27716091D01*
X-15899446Y-27744663D01*
X-15928018Y-27801806D01*
X-15928018Y-27944663D01*
X-15899446Y-28030377D01*
X-15385161Y-28630377D02*
X-15356589Y-28601806D01*
X-15328018Y-28516091D01*
X-15328018Y-28458949D01*
X-15356589Y-28373234D01*
X-15413732Y-28316091D01*
X-15470875Y-28287520D01*
X-15585161Y-28258949D01*
X-15670875Y-28258949D01*
X-15785161Y-28287520D01*
X-15842304Y-28316091D01*
X-15899446Y-28373234D01*
X-15928018Y-28458949D01*
X-15928018Y-28516091D01*
X-15899446Y-28601806D01*
X-15870875Y-28630377D01*
X-15328018Y-28887520D02*
X-15928018Y-28887520D01*
X-15328018Y-29230377D02*
X-15670875Y-28973234D01*
X-15928018Y-29230377D02*
X-15585161Y-28887520D01*
X-15513732Y-29618949D02*
X-15490875Y-29687520D01*
X-15468018Y-29710377D01*
X-15422304Y-29733234D01*
X-15353732Y-29733234D01*
X-15308018Y-29710377D01*
X-15285161Y-29687520D01*
X-15262304Y-29641806D01*
X-15262304Y-29458949D01*
X-15742304Y-29458949D01*
X-15742304Y-29618949D01*
X-15719446Y-29664663D01*
X-15696589Y-29687520D01*
X-15650875Y-29710377D01*
X-15605161Y-29710377D01*
X-15559446Y-29687520D01*
X-15536589Y-29664663D01*
X-15513732Y-29618949D01*
X-15513732Y-29458949D01*
D12*
X-34736750Y-25750234D02*
X-35165321Y-25750234D01*
X-34951036Y-26500234D02*
X-34951036Y-25750234D01*
X-35343893Y-25750234D02*
X-35843893Y-26500234D01*
X-35843893Y-25750234D02*
X-35343893Y-26500234D01*
D11*
X-13409625Y-23870377D02*
X-13409625Y-23270377D01*
X-13609625Y-23698949D01*
X-13809625Y-23270377D01*
X-13809625Y-23870377D01*
X-14209625Y-23270377D02*
X-14323911Y-23270377D01*
X-14381054Y-23298949D01*
X-14438196Y-23356091D01*
X-14466768Y-23470377D01*
X-14466768Y-23670377D01*
X-14438196Y-23784663D01*
X-14381054Y-23841806D01*
X-14323911Y-23870377D01*
X-14209625Y-23870377D01*
X-14152482Y-23841806D01*
X-14095339Y-23784663D01*
X-14066768Y-23670377D01*
X-14066768Y-23470377D01*
X-14095339Y-23356091D01*
X-14152482Y-23298949D01*
X-14209625Y-23270377D01*
X-14695339Y-23841806D02*
X-14781054Y-23870377D01*
X-14923911Y-23870377D01*
X-14981054Y-23841806D01*
X-15009625Y-23813234D01*
X-15038196Y-23756091D01*
X-15038196Y-23698949D01*
X-15009625Y-23641806D01*
X-14981054Y-23613234D01*
X-14923911Y-23584663D01*
X-14809625Y-23556091D01*
X-14752482Y-23527520D01*
X-14723911Y-23498949D01*
X-14695339Y-23441806D01*
X-14695339Y-23384663D01*
X-14723911Y-23327520D01*
X-14752482Y-23298949D01*
X-14809625Y-23270377D01*
X-14952482Y-23270377D01*
X-15038196Y-23298949D01*
X-15295339Y-23870377D02*
X-15295339Y-23270377D01*
X-15712482Y-23684663D02*
X-15781054Y-23707520D01*
X-15803911Y-23730377D01*
X-15826768Y-23776091D01*
X-15826768Y-23844663D01*
X-15803911Y-23890377D01*
X-15781054Y-23913234D01*
X-15735339Y-23936091D01*
X-15552482Y-23936091D01*
X-15552482Y-23456091D01*
X-15712482Y-23456091D01*
X-15758196Y-23478949D01*
X-15781054Y-23501806D01*
X-15803911Y-23547520D01*
X-15803911Y-23593234D01*
X-15781054Y-23638949D01*
X-15758196Y-23661806D01*
X-15712482Y-23684663D01*
X-15552482Y-23684663D01*
D12*
X-35201590Y-23211285D02*
X-34844447Y-23211285D01*
X-34808733Y-23568428D01*
X-34844447Y-23532714D01*
X-34915875Y-23497000D01*
X-35094447Y-23497000D01*
X-35165875Y-23532714D01*
X-35201590Y-23568428D01*
X-35237304Y-23639857D01*
X-35237304Y-23818428D01*
X-35201590Y-23889857D01*
X-35165875Y-23925571D01*
X-35094447Y-23961285D01*
X-34915875Y-23961285D01*
X-34844447Y-23925571D01*
X-34808733Y-23889857D01*
X-35451590Y-23211285D02*
X-35701590Y-23961285D01*
X-35951590Y-23211285D01*
X-35272464Y-29040234D02*
X-35022464Y-28683091D01*
X-34843893Y-29040234D02*
X-34843893Y-28290234D01*
X-35129607Y-28290234D01*
X-35201036Y-28325949D01*
X-35236750Y-28361663D01*
X-35272464Y-28433091D01*
X-35272464Y-28540234D01*
X-35236750Y-28611663D01*
X-35201036Y-28647377D01*
X-35129607Y-28683091D01*
X-34843893Y-28683091D01*
X-35522464Y-28290234D02*
X-36022464Y-29040234D01*
X-36022464Y-28290234D02*
X-35522464Y-29040234D01*
D13*
%TO.C,R55*%
X-15295620Y19565858D02*
X-15771810Y19899191D01*
X-15295620Y20137286D02*
X-16295620Y20137286D01*
X-16295620Y19756334D01*
X-16248000Y19661096D01*
X-16200381Y19613477D01*
X-16105143Y19565858D01*
X-15962286Y19565858D01*
X-15867048Y19613477D01*
X-15819429Y19661096D01*
X-15771810Y19756334D01*
X-15771810Y20137286D01*
X-16295620Y18661096D02*
X-16295620Y19137286D01*
X-15819429Y19184905D01*
X-15867048Y19137286D01*
X-15914667Y19042048D01*
X-15914667Y18803953D01*
X-15867048Y18708715D01*
X-15819429Y18661096D01*
X-15724191Y18613477D01*
X-15486096Y18613477D01*
X-15390858Y18661096D01*
X-15343239Y18708715D01*
X-15295620Y18803953D01*
X-15295620Y19042048D01*
X-15343239Y19137286D01*
X-15390858Y19184905D01*
X-16295620Y17708715D02*
X-16295620Y18184905D01*
X-15819429Y18232524D01*
X-15867048Y18184905D01*
X-15914667Y18089667D01*
X-15914667Y17851572D01*
X-15867048Y17756334D01*
X-15819429Y17708715D01*
X-15724191Y17661096D01*
X-15486096Y17661096D01*
X-15390858Y17708715D01*
X-15343239Y17756334D01*
X-15295620Y17851572D01*
X-15295620Y18089667D01*
X-15343239Y18184905D01*
X-15390858Y18232524D01*
%TO.C,JUT1*%
X-20223905Y-18756380D02*
X-20223905Y-19470666D01*
X-20176286Y-19613523D01*
X-20081048Y-19708761D01*
X-19938191Y-19756380D01*
X-19842953Y-19756380D01*
X-20700096Y-18756380D02*
X-20700096Y-19565904D01*
X-20747715Y-19661142D01*
X-20795334Y-19708761D01*
X-20890572Y-19756380D01*
X-21081048Y-19756380D01*
X-21176286Y-19708761D01*
X-21223905Y-19661142D01*
X-21271524Y-19565904D01*
X-21271524Y-18756380D01*
X-21604858Y-18756380D02*
X-22176286Y-18756380D01*
X-21890572Y-19756380D02*
X-21890572Y-18756380D01*
X-23033429Y-19756380D02*
X-22462000Y-19756380D01*
X-22747715Y-19756380D02*
X-22747715Y-18756380D01*
X-22652477Y-18899238D01*
X-22557239Y-18994476D01*
X-22462000Y-19042095D01*
%TO.C,R47*%
X-36377620Y-9263142D02*
X-36853810Y-8929809D01*
X-36377620Y-8691714D02*
X-37377620Y-8691714D01*
X-37377620Y-9072666D01*
X-37330000Y-9167904D01*
X-37282381Y-9215523D01*
X-37187143Y-9263142D01*
X-37044286Y-9263142D01*
X-36949048Y-9215523D01*
X-36901429Y-9167904D01*
X-36853810Y-9072666D01*
X-36853810Y-8691714D01*
X-37044286Y-10120285D02*
X-36377620Y-10120285D01*
X-37425239Y-9882190D02*
X-36710953Y-9644095D01*
X-36710953Y-10263142D01*
X-37377620Y-10548857D02*
X-37377620Y-11215523D01*
X-36377620Y-10786952D01*
%TO.C,R42*%
X-23804620Y-8882142D02*
X-24280810Y-8548809D01*
X-23804620Y-8310714D02*
X-24804620Y-8310714D01*
X-24804620Y-8691666D01*
X-24757000Y-8786904D01*
X-24709381Y-8834523D01*
X-24614143Y-8882142D01*
X-24471286Y-8882142D01*
X-24376048Y-8834523D01*
X-24328429Y-8786904D01*
X-24280810Y-8691666D01*
X-24280810Y-8310714D01*
X-24471286Y-9739285D02*
X-23804620Y-9739285D01*
X-24852239Y-9501190D02*
X-24137953Y-9263095D01*
X-24137953Y-9882142D01*
X-24709381Y-10215476D02*
X-24757000Y-10263095D01*
X-24804620Y-10358333D01*
X-24804620Y-10596428D01*
X-24757000Y-10691666D01*
X-24709381Y-10739285D01*
X-24614143Y-10786904D01*
X-24518905Y-10786904D01*
X-24376048Y-10739285D01*
X-23804620Y-10167857D01*
X-23804620Y-10786904D01*
%TO.C,R21*%
X-93262Y-3753329D02*
X240071Y-3277139D01*
X478166Y-3753329D02*
X478166Y-2753329D01*
X97214Y-2753329D01*
X1976Y-2800949D01*
X-45643Y-2848568D01*
X-93262Y-2943806D01*
X-93262Y-3086663D01*
X-45643Y-3181901D01*
X1976Y-3229520D01*
X97214Y-3277139D01*
X478166Y-3277139D01*
X-474215Y-2848568D02*
X-521834Y-2800949D01*
X-617072Y-2753329D01*
X-855167Y-2753329D01*
X-950405Y-2800949D01*
X-998024Y-2848568D01*
X-1045643Y-2943806D01*
X-1045643Y-3039044D01*
X-998024Y-3181901D01*
X-426596Y-3753329D01*
X-1045643Y-3753329D01*
X-1998024Y-3753329D02*
X-1426596Y-3753329D01*
X-1712310Y-3753329D02*
X-1712310Y-2753329D01*
X-1617072Y-2896187D01*
X-1521834Y-2991425D01*
X-1426596Y-3039044D01*
%TO.C,R13*%
X-44595024Y-18994380D02*
X-44261691Y-18518190D01*
X-44023596Y-18994380D02*
X-44023596Y-17994380D01*
X-44404548Y-17994380D01*
X-44499786Y-18042000D01*
X-44547405Y-18089619D01*
X-44595024Y-18184857D01*
X-44595024Y-18327714D01*
X-44547405Y-18422952D01*
X-44499786Y-18470571D01*
X-44404548Y-18518190D01*
X-44023596Y-18518190D01*
X-45547405Y-18994380D02*
X-44975977Y-18994380D01*
X-45261691Y-18994380D02*
X-45261691Y-17994380D01*
X-45166453Y-18137238D01*
X-45071215Y-18232476D01*
X-44975977Y-18280095D01*
X-45880739Y-17994380D02*
X-46499786Y-17994380D01*
X-46166453Y-18375333D01*
X-46309310Y-18375333D01*
X-46404548Y-18422952D01*
X-46452167Y-18470571D01*
X-46499786Y-18565809D01*
X-46499786Y-18803904D01*
X-46452167Y-18899142D01*
X-46404548Y-18946761D01*
X-46309310Y-18994380D01*
X-46023596Y-18994380D01*
X-45928358Y-18946761D01*
X-45880739Y-18899142D01*
%TO.C,R36*%
X-58729620Y-25773142D02*
X-59205810Y-25439809D01*
X-58729620Y-25201714D02*
X-59729620Y-25201714D01*
X-59729620Y-25582666D01*
X-59682000Y-25677904D01*
X-59634381Y-25725523D01*
X-59539143Y-25773142D01*
X-59396286Y-25773142D01*
X-59301048Y-25725523D01*
X-59253429Y-25677904D01*
X-59205810Y-25582666D01*
X-59205810Y-25201714D01*
X-59729620Y-26106476D02*
X-59729620Y-26725523D01*
X-59348667Y-26392190D01*
X-59348667Y-26535047D01*
X-59301048Y-26630285D01*
X-59253429Y-26677904D01*
X-59158191Y-26725523D01*
X-58920096Y-26725523D01*
X-58824858Y-26677904D01*
X-58777239Y-26630285D01*
X-58729620Y-26535047D01*
X-58729620Y-26249333D01*
X-58777239Y-26154095D01*
X-58824858Y-26106476D01*
X-59729620Y-27582666D02*
X-59729620Y-27392190D01*
X-59682000Y-27296952D01*
X-59634381Y-27249333D01*
X-59491524Y-27154095D01*
X-59301048Y-27106476D01*
X-58920096Y-27106476D01*
X-58824858Y-27154095D01*
X-58777239Y-27201714D01*
X-58729620Y-27296952D01*
X-58729620Y-27487428D01*
X-58777239Y-27582666D01*
X-58824858Y-27630285D01*
X-58920096Y-27677904D01*
X-59158191Y-27677904D01*
X-59253429Y-27630285D01*
X-59301048Y-27582666D01*
X-59348667Y-27487428D01*
X-59348667Y-27296952D01*
X-59301048Y-27201714D01*
X-59253429Y-27154095D01*
X-59158191Y-27106476D01*
%TO.C,R41*%
X-23995143Y-1722380D02*
X-23661810Y-1246190D01*
X-23423715Y-1722380D02*
X-23423715Y-722380D01*
X-23804667Y-722380D01*
X-23899905Y-770000D01*
X-23947524Y-817619D01*
X-23995143Y-912857D01*
X-23995143Y-1055714D01*
X-23947524Y-1150952D01*
X-23899905Y-1198571D01*
X-23804667Y-1246190D01*
X-23423715Y-1246190D01*
X-24852286Y-1055714D02*
X-24852286Y-1722380D01*
X-24614191Y-674761D02*
X-24376096Y-1389047D01*
X-24995143Y-1389047D01*
X-25899905Y-1722380D02*
X-25328477Y-1722380D01*
X-25614191Y-1722380D02*
X-25614191Y-722380D01*
X-25518953Y-865238D01*
X-25423715Y-960476D01*
X-25328477Y-1008095D01*
%TO.C,R64*%
X-77081143Y-21026380D02*
X-76747810Y-20550190D01*
X-76509715Y-21026380D02*
X-76509715Y-20026380D01*
X-76890667Y-20026380D01*
X-76985905Y-20074000D01*
X-77033524Y-20121619D01*
X-77081143Y-20216857D01*
X-77081143Y-20359714D01*
X-77033524Y-20454952D01*
X-76985905Y-20502571D01*
X-76890667Y-20550190D01*
X-76509715Y-20550190D01*
X-77938286Y-20026380D02*
X-77747810Y-20026380D01*
X-77652572Y-20074000D01*
X-77604953Y-20121619D01*
X-77509715Y-20264476D01*
X-77462096Y-20454952D01*
X-77462096Y-20835904D01*
X-77509715Y-20931142D01*
X-77557334Y-20978761D01*
X-77652572Y-21026380D01*
X-77843048Y-21026380D01*
X-77938286Y-20978761D01*
X-77985905Y-20931142D01*
X-78033524Y-20835904D01*
X-78033524Y-20597809D01*
X-77985905Y-20502571D01*
X-77938286Y-20454952D01*
X-77843048Y-20407333D01*
X-77652572Y-20407333D01*
X-77557334Y-20454952D01*
X-77509715Y-20502571D01*
X-77462096Y-20597809D01*
X-78890667Y-20359714D02*
X-78890667Y-21026380D01*
X-78652572Y-19978761D02*
X-78414477Y-20693047D01*
X-79033524Y-20693047D01*
%TO.C,R29*%
X-48125143Y-3373380D02*
X-47791810Y-2897190D01*
X-47553715Y-3373380D02*
X-47553715Y-2373380D01*
X-47934667Y-2373380D01*
X-48029905Y-2421000D01*
X-48077524Y-2468619D01*
X-48125143Y-2563857D01*
X-48125143Y-2706714D01*
X-48077524Y-2801952D01*
X-48029905Y-2849571D01*
X-47934667Y-2897190D01*
X-47553715Y-2897190D01*
X-48506096Y-2468619D02*
X-48553715Y-2421000D01*
X-48648953Y-2373380D01*
X-48887048Y-2373380D01*
X-48982286Y-2421000D01*
X-49029905Y-2468619D01*
X-49077524Y-2563857D01*
X-49077524Y-2659095D01*
X-49029905Y-2801952D01*
X-48458477Y-3373380D01*
X-49077524Y-3373380D01*
X-49553715Y-3373380D02*
X-49744191Y-3373380D01*
X-49839429Y-3325761D01*
X-49887048Y-3278142D01*
X-49982286Y-3135285D01*
X-50029905Y-2944809D01*
X-50029905Y-2563857D01*
X-49982286Y-2468619D01*
X-49934667Y-2421000D01*
X-49839429Y-2373380D01*
X-49648953Y-2373380D01*
X-49553715Y-2421000D01*
X-49506096Y-2468619D01*
X-49458477Y-2563857D01*
X-49458477Y-2801952D01*
X-49506096Y-2897190D01*
X-49553715Y-2944809D01*
X-49648953Y-2992428D01*
X-49839429Y-2992428D01*
X-49934667Y-2944809D01*
X-49982286Y-2897190D01*
X-50029905Y-2801952D01*
%TO.C,R61*%
X-77081143Y-13406380D02*
X-76747810Y-12930190D01*
X-76509715Y-13406380D02*
X-76509715Y-12406380D01*
X-76890667Y-12406380D01*
X-76985905Y-12454000D01*
X-77033524Y-12501619D01*
X-77081143Y-12596857D01*
X-77081143Y-12739714D01*
X-77033524Y-12834952D01*
X-76985905Y-12882571D01*
X-76890667Y-12930190D01*
X-76509715Y-12930190D01*
X-77938286Y-12406380D02*
X-77747810Y-12406380D01*
X-77652572Y-12454000D01*
X-77604953Y-12501619D01*
X-77509715Y-12644476D01*
X-77462096Y-12834952D01*
X-77462096Y-13215904D01*
X-77509715Y-13311142D01*
X-77557334Y-13358761D01*
X-77652572Y-13406380D01*
X-77843048Y-13406380D01*
X-77938286Y-13358761D01*
X-77985905Y-13311142D01*
X-78033524Y-13215904D01*
X-78033524Y-12977809D01*
X-77985905Y-12882571D01*
X-77938286Y-12834952D01*
X-77843048Y-12787333D01*
X-77652572Y-12787333D01*
X-77557334Y-12834952D01*
X-77509715Y-12882571D01*
X-77462096Y-12977809D01*
X-78985905Y-13406380D02*
X-78414477Y-13406380D01*
X-78700191Y-13406380D02*
X-78700191Y-12406380D01*
X-78604953Y-12549238D01*
X-78509715Y-12644476D01*
X-78414477Y-12692095D01*
%TO.C,C5*%
X-6818334Y8024858D02*
X-6770715Y7977239D01*
X-6627858Y7929620D01*
X-6532620Y7929620D01*
X-6389762Y7977239D01*
X-6294524Y8072477D01*
X-6246905Y8167715D01*
X-6199286Y8358191D01*
X-6199286Y8501048D01*
X-6246905Y8691524D01*
X-6294524Y8786762D01*
X-6389762Y8882000D01*
X-6532620Y8929620D01*
X-6627858Y8929620D01*
X-6770715Y8882000D01*
X-6818334Y8834381D01*
X-7723096Y8929620D02*
X-7246905Y8929620D01*
X-7199286Y8453429D01*
X-7246905Y8501048D01*
X-7342143Y8548667D01*
X-7580239Y8548667D01*
X-7675477Y8501048D01*
X-7723096Y8453429D01*
X-7770715Y8358191D01*
X-7770715Y8120096D01*
X-7723096Y8024858D01*
X-7675477Y7977239D01*
X-7580239Y7929620D01*
X-7342143Y7929620D01*
X-7246905Y7977239D01*
X-7199286Y8024858D01*
%TO.C,R40*%
X-23995143Y-2992380D02*
X-23661810Y-2516190D01*
X-23423715Y-2992380D02*
X-23423715Y-1992380D01*
X-23804667Y-1992380D01*
X-23899905Y-2040000D01*
X-23947524Y-2087619D01*
X-23995143Y-2182857D01*
X-23995143Y-2325714D01*
X-23947524Y-2420952D01*
X-23899905Y-2468571D01*
X-23804667Y-2516190D01*
X-23423715Y-2516190D01*
X-24852286Y-2325714D02*
X-24852286Y-2992380D01*
X-24614191Y-1944761D02*
X-24376096Y-2659047D01*
X-24995143Y-2659047D01*
X-25566572Y-1992380D02*
X-25661810Y-1992380D01*
X-25757048Y-2040000D01*
X-25804667Y-2087619D01*
X-25852286Y-2182857D01*
X-25899905Y-2373333D01*
X-25899905Y-2611428D01*
X-25852286Y-2801904D01*
X-25804667Y-2897142D01*
X-25757048Y-2944761D01*
X-25661810Y-2992380D01*
X-25566572Y-2992380D01*
X-25471334Y-2944761D01*
X-25423715Y-2897142D01*
X-25376096Y-2801904D01*
X-25328477Y-2611428D01*
X-25328477Y-2373333D01*
X-25376096Y-2182857D01*
X-25423715Y-2087619D01*
X-25471334Y-2040000D01*
X-25566572Y-1992380D01*
%TO.C,C6*%
X-63650858Y-25807333D02*
X-63603239Y-25759714D01*
X-63555620Y-25616857D01*
X-63555620Y-25521619D01*
X-63603239Y-25378761D01*
X-63698477Y-25283523D01*
X-63793715Y-25235904D01*
X-63984191Y-25188285D01*
X-64127048Y-25188285D01*
X-64317524Y-25235904D01*
X-64412762Y-25283523D01*
X-64508000Y-25378761D01*
X-64555620Y-25521619D01*
X-64555620Y-25616857D01*
X-64508000Y-25759714D01*
X-64460381Y-25807333D01*
X-64555620Y-26664476D02*
X-64555620Y-26474000D01*
X-64508000Y-26378761D01*
X-64460381Y-26331142D01*
X-64317524Y-26235904D01*
X-64127048Y-26188285D01*
X-63746096Y-26188285D01*
X-63650858Y-26235904D01*
X-63603239Y-26283523D01*
X-63555620Y-26378761D01*
X-63555620Y-26569238D01*
X-63603239Y-26664476D01*
X-63650858Y-26712095D01*
X-63746096Y-26759714D01*
X-63984191Y-26759714D01*
X-64079429Y-26712095D01*
X-64127048Y-26664476D01*
X-64174667Y-26569238D01*
X-64174667Y-26378761D01*
X-64127048Y-26283523D01*
X-64079429Y-26235904D01*
X-63984191Y-26188285D01*
%TO.C,J2-1*%
X-27653875Y-20407380D02*
X-27653875Y-21121666D01*
X-27606256Y-21264523D01*
X-27511018Y-21359761D01*
X-27368161Y-21407380D01*
X-27272923Y-21407380D01*
X-28082446Y-20502619D02*
X-28130066Y-20455000D01*
X-28225304Y-20407380D01*
X-28463399Y-20407380D01*
X-28558637Y-20455000D01*
X-28606256Y-20502619D01*
X-28653875Y-20597857D01*
X-28653875Y-20693095D01*
X-28606256Y-20835952D01*
X-28034827Y-21407380D01*
X-28653875Y-21407380D01*
X-29082446Y-21026428D02*
X-29844351Y-21026428D01*
X-30844351Y-21407380D02*
X-30272923Y-21407380D01*
X-30558637Y-21407380D02*
X-30558637Y-20407380D01*
X-30463399Y-20550238D01*
X-30368161Y-20645476D01*
X-30272923Y-20693095D01*
%TO.C,JD1*%
X-20628667Y-4278380D02*
X-20628667Y-4992666D01*
X-20581048Y-5135523D01*
X-20485810Y-5230761D01*
X-20342953Y-5278380D01*
X-20247715Y-5278380D01*
X-21104858Y-5278380D02*
X-21104858Y-4278380D01*
X-21342953Y-4278380D01*
X-21485810Y-4326000D01*
X-21581048Y-4421238D01*
X-21628667Y-4516476D01*
X-21676286Y-4706952D01*
X-21676286Y-4849809D01*
X-21628667Y-5040285D01*
X-21581048Y-5135523D01*
X-21485810Y-5230761D01*
X-21342953Y-5278380D01*
X-21104858Y-5278380D01*
X-22628667Y-5278380D02*
X-22057239Y-5278380D01*
X-22342953Y-5278380D02*
X-22342953Y-4278380D01*
X-22247715Y-4421238D01*
X-22152477Y-4516476D01*
X-22057239Y-4564095D01*
%TO.C,R66*%
X-77081143Y-26106380D02*
X-76747810Y-25630190D01*
X-76509715Y-26106380D02*
X-76509715Y-25106380D01*
X-76890667Y-25106380D01*
X-76985905Y-25154000D01*
X-77033524Y-25201619D01*
X-77081143Y-25296857D01*
X-77081143Y-25439714D01*
X-77033524Y-25534952D01*
X-76985905Y-25582571D01*
X-76890667Y-25630190D01*
X-76509715Y-25630190D01*
X-77938286Y-25106380D02*
X-77747810Y-25106380D01*
X-77652572Y-25154000D01*
X-77604953Y-25201619D01*
X-77509715Y-25344476D01*
X-77462096Y-25534952D01*
X-77462096Y-25915904D01*
X-77509715Y-26011142D01*
X-77557334Y-26058761D01*
X-77652572Y-26106380D01*
X-77843048Y-26106380D01*
X-77938286Y-26058761D01*
X-77985905Y-26011142D01*
X-78033524Y-25915904D01*
X-78033524Y-25677809D01*
X-77985905Y-25582571D01*
X-77938286Y-25534952D01*
X-77843048Y-25487333D01*
X-77652572Y-25487333D01*
X-77557334Y-25534952D01*
X-77509715Y-25582571D01*
X-77462096Y-25677809D01*
X-78890667Y-25106380D02*
X-78700191Y-25106380D01*
X-78604953Y-25154000D01*
X-78557334Y-25201619D01*
X-78462096Y-25344476D01*
X-78414477Y-25534952D01*
X-78414477Y-25915904D01*
X-78462096Y-26011142D01*
X-78509715Y-26058761D01*
X-78604953Y-26106380D01*
X-78795429Y-26106380D01*
X-78890667Y-26058761D01*
X-78938286Y-26011142D01*
X-78985905Y-25915904D01*
X-78985905Y-25677809D01*
X-78938286Y-25582571D01*
X-78890667Y-25534952D01*
X-78795429Y-25487333D01*
X-78604953Y-25487333D01*
X-78509715Y-25534952D01*
X-78462096Y-25582571D01*
X-78414477Y-25677809D01*
%TO.C,R9*%
X-44595024Y-29154380D02*
X-44261691Y-28678190D01*
X-44023596Y-29154380D02*
X-44023596Y-28154380D01*
X-44404548Y-28154380D01*
X-44499786Y-28202000D01*
X-44547405Y-28249619D01*
X-44595024Y-28344857D01*
X-44595024Y-28487714D01*
X-44547405Y-28582952D01*
X-44499786Y-28630571D01*
X-44404548Y-28678190D01*
X-44023596Y-28678190D01*
X-45071215Y-29154380D02*
X-45261691Y-29154380D01*
X-45356929Y-29106761D01*
X-45404548Y-29059142D01*
X-45499786Y-28916285D01*
X-45547405Y-28725809D01*
X-45547405Y-28344857D01*
X-45499786Y-28249619D01*
X-45452167Y-28202000D01*
X-45356929Y-28154380D01*
X-45166453Y-28154380D01*
X-45071215Y-28202000D01*
X-45023596Y-28249619D01*
X-44975977Y-28344857D01*
X-44975977Y-28582952D01*
X-45023596Y-28678190D01*
X-45071215Y-28725809D01*
X-45166453Y-28773428D01*
X-45356929Y-28773428D01*
X-45452167Y-28725809D01*
X-45499786Y-28678190D01*
X-45547405Y-28582952D01*
%TO.C,U7*%
X-88656596Y-23454329D02*
X-88656596Y-24263853D01*
X-88704215Y-24359091D01*
X-88751834Y-24406710D01*
X-88847072Y-24454329D01*
X-89037548Y-24454329D01*
X-89132786Y-24406710D01*
X-89180405Y-24359091D01*
X-89228024Y-24263853D01*
X-89228024Y-23454329D01*
X-89608977Y-23454329D02*
X-90275643Y-23454329D01*
X-89847072Y-24454329D01*
%TO.C,C4*%
X-6437334Y-11279142D02*
X-6389715Y-11326761D01*
X-6246858Y-11374380D01*
X-6151620Y-11374380D01*
X-6008762Y-11326761D01*
X-5913524Y-11231523D01*
X-5865905Y-11136285D01*
X-5818286Y-10945809D01*
X-5818286Y-10802952D01*
X-5865905Y-10612476D01*
X-5913524Y-10517238D01*
X-6008762Y-10422000D01*
X-6151620Y-10374380D01*
X-6246858Y-10374380D01*
X-6389715Y-10422000D01*
X-6437334Y-10469619D01*
X-7294477Y-10707714D02*
X-7294477Y-11374380D01*
X-7056381Y-10326761D02*
X-6818286Y-11041047D01*
X-7437334Y-11041047D01*
%TO.C,R5*%
X-6818334Y5897620D02*
X-6485000Y6373810D01*
X-6246905Y5897620D02*
X-6246905Y6897620D01*
X-6627858Y6897620D01*
X-6723096Y6850000D01*
X-6770715Y6802381D01*
X-6818334Y6707143D01*
X-6818334Y6564286D01*
X-6770715Y6469048D01*
X-6723096Y6421429D01*
X-6627858Y6373810D01*
X-6246905Y6373810D01*
X-7723096Y6897620D02*
X-7246905Y6897620D01*
X-7199286Y6421429D01*
X-7246905Y6469048D01*
X-7342143Y6516667D01*
X-7580239Y6516667D01*
X-7675477Y6469048D01*
X-7723096Y6421429D01*
X-7770715Y6326191D01*
X-7770715Y6088096D01*
X-7723096Y5992858D01*
X-7675477Y5945239D01*
X-7580239Y5897620D01*
X-7342143Y5897620D01*
X-7246905Y5945239D01*
X-7199286Y5992858D01*
%TO.C,R23*%
X-60317143Y15295620D02*
X-59983810Y15771810D01*
X-59745715Y15295620D02*
X-59745715Y16295620D01*
X-60126667Y16295620D01*
X-60221905Y16248000D01*
X-60269524Y16200381D01*
X-60317143Y16105143D01*
X-60317143Y15962286D01*
X-60269524Y15867048D01*
X-60221905Y15819429D01*
X-60126667Y15771810D01*
X-59745715Y15771810D01*
X-60698096Y16200381D02*
X-60745715Y16248000D01*
X-60840953Y16295620D01*
X-61079048Y16295620D01*
X-61174286Y16248000D01*
X-61221905Y16200381D01*
X-61269524Y16105143D01*
X-61269524Y16009905D01*
X-61221905Y15867048D01*
X-60650477Y15295620D01*
X-61269524Y15295620D01*
X-61602858Y16295620D02*
X-62221905Y16295620D01*
X-61888572Y15914667D01*
X-62031429Y15914667D01*
X-62126667Y15867048D01*
X-62174286Y15819429D01*
X-62221905Y15724191D01*
X-62221905Y15486096D01*
X-62174286Y15390858D01*
X-62126667Y15343239D01*
X-62031429Y15295620D01*
X-61745715Y15295620D01*
X-61650477Y15343239D01*
X-61602858Y15390858D01*
%TO.C,R20*%
X-93262Y-5684780D02*
X240071Y-5208590D01*
X478166Y-5684780D02*
X478166Y-4684780D01*
X97214Y-4684780D01*
X1976Y-4732400D01*
X-45643Y-4780019D01*
X-93262Y-4875257D01*
X-93262Y-5018114D01*
X-45643Y-5113352D01*
X1976Y-5160971D01*
X97214Y-5208590D01*
X478166Y-5208590D01*
X-474215Y-4780019D02*
X-521834Y-4732400D01*
X-617072Y-4684780D01*
X-855167Y-4684780D01*
X-950405Y-4732400D01*
X-998024Y-4780019D01*
X-1045643Y-4875257D01*
X-1045643Y-4970495D01*
X-998024Y-5113352D01*
X-426596Y-5684780D01*
X-1045643Y-5684780D01*
X-1664691Y-4684780D02*
X-1759929Y-4684780D01*
X-1855167Y-4732400D01*
X-1902786Y-4780019D01*
X-1950405Y-4875257D01*
X-1998024Y-5065733D01*
X-1998024Y-5303828D01*
X-1950405Y-5494304D01*
X-1902786Y-5589542D01*
X-1855167Y-5637161D01*
X-1759929Y-5684780D01*
X-1664691Y-5684780D01*
X-1569453Y-5637161D01*
X-1521834Y-5589542D01*
X-1474215Y-5494304D01*
X-1426596Y-5303828D01*
X-1426596Y-5065733D01*
X-1474215Y-4875257D01*
X-1521834Y-4780019D01*
X-1569453Y-4732400D01*
X-1664691Y-4684780D01*
%TO.C,R50*%
X-5135620Y19565858D02*
X-5611810Y19899191D01*
X-5135620Y20137286D02*
X-6135620Y20137286D01*
X-6135620Y19756334D01*
X-6088000Y19661096D01*
X-6040381Y19613477D01*
X-5945143Y19565858D01*
X-5802286Y19565858D01*
X-5707048Y19613477D01*
X-5659429Y19661096D01*
X-5611810Y19756334D01*
X-5611810Y20137286D01*
X-6135620Y18661096D02*
X-6135620Y19137286D01*
X-5659429Y19184905D01*
X-5707048Y19137286D01*
X-5754667Y19042048D01*
X-5754667Y18803953D01*
X-5707048Y18708715D01*
X-5659429Y18661096D01*
X-5564191Y18613477D01*
X-5326096Y18613477D01*
X-5230858Y18661096D01*
X-5183239Y18708715D01*
X-5135620Y18803953D01*
X-5135620Y19042048D01*
X-5183239Y19137286D01*
X-5230858Y19184905D01*
X-6135620Y17994429D02*
X-6135620Y17899191D01*
X-6088000Y17803953D01*
X-6040381Y17756334D01*
X-5945143Y17708715D01*
X-5754667Y17661096D01*
X-5516572Y17661096D01*
X-5326096Y17708715D01*
X-5230858Y17756334D01*
X-5183239Y17803953D01*
X-5135620Y17899191D01*
X-5135620Y17994429D01*
X-5183239Y18089667D01*
X-5230858Y18137286D01*
X-5326096Y18184905D01*
X-5516572Y18232524D01*
X-5754667Y18232524D01*
X-5945143Y18184905D01*
X-6040381Y18137286D01*
X-6088000Y18089667D01*
X-6135620Y17994429D01*
%TO.C,R56*%
X-17327620Y19565858D02*
X-17803810Y19899191D01*
X-17327620Y20137286D02*
X-18327620Y20137286D01*
X-18327620Y19756334D01*
X-18280000Y19661096D01*
X-18232381Y19613477D01*
X-18137143Y19565858D01*
X-17994286Y19565858D01*
X-17899048Y19613477D01*
X-17851429Y19661096D01*
X-17803810Y19756334D01*
X-17803810Y20137286D01*
X-18327620Y18661096D02*
X-18327620Y19137286D01*
X-17851429Y19184905D01*
X-17899048Y19137286D01*
X-17946667Y19042048D01*
X-17946667Y18803953D01*
X-17899048Y18708715D01*
X-17851429Y18661096D01*
X-17756191Y18613477D01*
X-17518096Y18613477D01*
X-17422858Y18661096D01*
X-17375239Y18708715D01*
X-17327620Y18803953D01*
X-17327620Y19042048D01*
X-17375239Y19137286D01*
X-17422858Y19184905D01*
X-18327620Y17756334D02*
X-18327620Y17946810D01*
X-18280000Y18042048D01*
X-18232381Y18089667D01*
X-18089524Y18184905D01*
X-17899048Y18232524D01*
X-17518096Y18232524D01*
X-17422858Y18184905D01*
X-17375239Y18137286D01*
X-17327620Y18042048D01*
X-17327620Y17851572D01*
X-17375239Y17756334D01*
X-17422858Y17708715D01*
X-17518096Y17661096D01*
X-17756191Y17661096D01*
X-17851429Y17708715D01*
X-17899048Y17756334D01*
X-17946667Y17851572D01*
X-17946667Y18042048D01*
X-17899048Y18137286D01*
X-17851429Y18184905D01*
X-17756191Y18232524D01*
%TO.C,R12*%
X-44595024Y-21534380D02*
X-44261691Y-21058190D01*
X-44023596Y-21534380D02*
X-44023596Y-20534380D01*
X-44404548Y-20534380D01*
X-44499786Y-20582000D01*
X-44547405Y-20629619D01*
X-44595024Y-20724857D01*
X-44595024Y-20867714D01*
X-44547405Y-20962952D01*
X-44499786Y-21010571D01*
X-44404548Y-21058190D01*
X-44023596Y-21058190D01*
X-45547405Y-21534380D02*
X-44975977Y-21534380D01*
X-45261691Y-21534380D02*
X-45261691Y-20534380D01*
X-45166453Y-20677238D01*
X-45071215Y-20772476D01*
X-44975977Y-20820095D01*
X-45928358Y-20629619D02*
X-45975977Y-20582000D01*
X-46071215Y-20534380D01*
X-46309310Y-20534380D01*
X-46404548Y-20582000D01*
X-46452167Y-20629619D01*
X-46499786Y-20724857D01*
X-46499786Y-20820095D01*
X-46452167Y-20962952D01*
X-45880739Y-21534380D01*
X-46499786Y-21534380D01*
%TO.C,JADC1*%
X-26940096Y-4278380D02*
X-26940096Y-4992666D01*
X-26892477Y-5135523D01*
X-26797239Y-5230761D01*
X-26654381Y-5278380D01*
X-26559143Y-5278380D01*
X-27368667Y-4992666D02*
X-27844858Y-4992666D01*
X-27273429Y-5278380D02*
X-27606762Y-4278380D01*
X-27940096Y-5278380D01*
X-28273429Y-5278380D02*
X-28273429Y-4278380D01*
X-28511524Y-4278380D01*
X-28654381Y-4326000D01*
X-28749620Y-4421238D01*
X-28797239Y-4516476D01*
X-28844858Y-4706952D01*
X-28844858Y-4849809D01*
X-28797239Y-5040285D01*
X-28749620Y-5135523D01*
X-28654381Y-5230761D01*
X-28511524Y-5278380D01*
X-28273429Y-5278380D01*
X-29844858Y-5183142D02*
X-29797239Y-5230761D01*
X-29654381Y-5278380D01*
X-29559143Y-5278380D01*
X-29416286Y-5230761D01*
X-29321048Y-5135523D01*
X-29273429Y-5040285D01*
X-29225810Y-4849809D01*
X-29225810Y-4706952D01*
X-29273429Y-4516476D01*
X-29321048Y-4421238D01*
X-29416286Y-4326000D01*
X-29559143Y-4278380D01*
X-29654381Y-4278380D01*
X-29797239Y-4326000D01*
X-29844858Y-4373619D01*
X-30797239Y-5278380D02*
X-30225810Y-5278380D01*
X-30511524Y-5278380D02*
X-30511524Y-4278380D01*
X-30416286Y-4421238D01*
X-30321048Y-4516476D01*
X-30225810Y-4564095D01*
%TO.C,R30*%
X-48125143Y-5913380D02*
X-47791810Y-5437190D01*
X-47553715Y-5913380D02*
X-47553715Y-4913380D01*
X-47934667Y-4913380D01*
X-48029905Y-4961000D01*
X-48077524Y-5008619D01*
X-48125143Y-5103857D01*
X-48125143Y-5246714D01*
X-48077524Y-5341952D01*
X-48029905Y-5389571D01*
X-47934667Y-5437190D01*
X-47553715Y-5437190D01*
X-48458477Y-4913380D02*
X-49077524Y-4913380D01*
X-48744191Y-5294333D01*
X-48887048Y-5294333D01*
X-48982286Y-5341952D01*
X-49029905Y-5389571D01*
X-49077524Y-5484809D01*
X-49077524Y-5722904D01*
X-49029905Y-5818142D01*
X-48982286Y-5865761D01*
X-48887048Y-5913380D01*
X-48601334Y-5913380D01*
X-48506096Y-5865761D01*
X-48458477Y-5818142D01*
X-49696572Y-4913380D02*
X-49791810Y-4913380D01*
X-49887048Y-4961000D01*
X-49934667Y-5008619D01*
X-49982286Y-5103857D01*
X-50029905Y-5294333D01*
X-50029905Y-5532428D01*
X-49982286Y-5722904D01*
X-49934667Y-5818142D01*
X-49887048Y-5865761D01*
X-49791810Y-5913380D01*
X-49696572Y-5913380D01*
X-49601334Y-5865761D01*
X-49553715Y-5818142D01*
X-49506096Y-5722904D01*
X-49458477Y-5532428D01*
X-49458477Y-5294333D01*
X-49506096Y-5103857D01*
X-49553715Y-5008619D01*
X-49601334Y-4961000D01*
X-49696572Y-4913380D01*
%TO.C,JVIN1*%
X-8889191Y30749620D02*
X-8889191Y30035334D01*
X-8841572Y29892477D01*
X-8746334Y29797239D01*
X-8603477Y29749620D01*
X-8508239Y29749620D01*
X-9222524Y30749620D02*
X-9555858Y29749620D01*
X-9889191Y30749620D01*
X-10222524Y29749620D02*
X-10222524Y30749620D01*
X-10698715Y29749620D02*
X-10698715Y30749620D01*
X-11270143Y29749620D01*
X-11270143Y30749620D01*
X-12270143Y29749620D02*
X-11698715Y29749620D01*
X-11984429Y29749620D02*
X-11984429Y30749620D01*
X-11889191Y30606762D01*
X-11793953Y30511524D01*
X-11698715Y30463905D01*
%TO.C,R49*%
X-3103620Y19565858D02*
X-3579810Y19899191D01*
X-3103620Y20137286D02*
X-4103620Y20137286D01*
X-4103620Y19756334D01*
X-4056000Y19661096D01*
X-4008381Y19613477D01*
X-3913143Y19565858D01*
X-3770286Y19565858D01*
X-3675048Y19613477D01*
X-3627429Y19661096D01*
X-3579810Y19756334D01*
X-3579810Y20137286D01*
X-3770286Y18708715D02*
X-3103620Y18708715D01*
X-4151239Y18946810D02*
X-3436953Y19184905D01*
X-3436953Y18565858D01*
X-3103620Y18137286D02*
X-3103620Y17946810D01*
X-3151239Y17851572D01*
X-3198858Y17803953D01*
X-3341715Y17708715D01*
X-3532191Y17661096D01*
X-3913143Y17661096D01*
X-4008381Y17708715D01*
X-4056000Y17756334D01*
X-4103620Y17851572D01*
X-4103620Y18042048D01*
X-4056000Y18137286D01*
X-4008381Y18184905D01*
X-3913143Y18232524D01*
X-3675048Y18232524D01*
X-3579810Y18184905D01*
X-3532191Y18137286D01*
X-3484572Y18042048D01*
X-3484572Y17851572D01*
X-3532191Y17756334D01*
X-3579810Y17708715D01*
X-3675048Y17661096D01*
%TO.C,R67*%
X-77081143Y-28646380D02*
X-76747810Y-28170190D01*
X-76509715Y-28646380D02*
X-76509715Y-27646380D01*
X-76890667Y-27646380D01*
X-76985905Y-27694000D01*
X-77033524Y-27741619D01*
X-77081143Y-27836857D01*
X-77081143Y-27979714D01*
X-77033524Y-28074952D01*
X-76985905Y-28122571D01*
X-76890667Y-28170190D01*
X-76509715Y-28170190D01*
X-77938286Y-27646380D02*
X-77747810Y-27646380D01*
X-77652572Y-27694000D01*
X-77604953Y-27741619D01*
X-77509715Y-27884476D01*
X-77462096Y-28074952D01*
X-77462096Y-28455904D01*
X-77509715Y-28551142D01*
X-77557334Y-28598761D01*
X-77652572Y-28646380D01*
X-77843048Y-28646380D01*
X-77938286Y-28598761D01*
X-77985905Y-28551142D01*
X-78033524Y-28455904D01*
X-78033524Y-28217809D01*
X-77985905Y-28122571D01*
X-77938286Y-28074952D01*
X-77843048Y-28027333D01*
X-77652572Y-28027333D01*
X-77557334Y-28074952D01*
X-77509715Y-28122571D01*
X-77462096Y-28217809D01*
X-78366858Y-27646380D02*
X-79033524Y-27646380D01*
X-78604953Y-28646380D01*
%TO.C,R16*%
X-44595024Y-11374380D02*
X-44261691Y-10898190D01*
X-44023596Y-11374380D02*
X-44023596Y-10374380D01*
X-44404548Y-10374380D01*
X-44499786Y-10422000D01*
X-44547405Y-10469619D01*
X-44595024Y-10564857D01*
X-44595024Y-10707714D01*
X-44547405Y-10802952D01*
X-44499786Y-10850571D01*
X-44404548Y-10898190D01*
X-44023596Y-10898190D01*
X-45547405Y-11374380D02*
X-44975977Y-11374380D01*
X-45261691Y-11374380D02*
X-45261691Y-10374380D01*
X-45166453Y-10517238D01*
X-45071215Y-10612476D01*
X-44975977Y-10660095D01*
X-46404548Y-10374380D02*
X-46214072Y-10374380D01*
X-46118834Y-10422000D01*
X-46071215Y-10469619D01*
X-45975977Y-10612476D01*
X-45928358Y-10802952D01*
X-45928358Y-11183904D01*
X-45975977Y-11279142D01*
X-46023596Y-11326761D01*
X-46118834Y-11374380D01*
X-46309310Y-11374380D01*
X-46404548Y-11326761D01*
X-46452167Y-11279142D01*
X-46499786Y-11183904D01*
X-46499786Y-10945809D01*
X-46452167Y-10850571D01*
X-46404548Y-10802952D01*
X-46309310Y-10755333D01*
X-46118834Y-10755333D01*
X-46023596Y-10802952D01*
X-45975977Y-10850571D01*
X-45928358Y-10945809D01*
%TO.C,C7-2*%
X-83335858Y-25926023D02*
X-83288239Y-25878404D01*
X-83240620Y-25735547D01*
X-83240620Y-25640309D01*
X-83288239Y-25497452D01*
X-83383477Y-25402214D01*
X-83478715Y-25354595D01*
X-83669191Y-25306976D01*
X-83812048Y-25306976D01*
X-84002524Y-25354595D01*
X-84097762Y-25402214D01*
X-84193000Y-25497452D01*
X-84240620Y-25640309D01*
X-84240620Y-25735547D01*
X-84193000Y-25878404D01*
X-84145381Y-25926023D01*
X-84240620Y-26259357D02*
X-84240620Y-26926023D01*
X-83240620Y-26497452D01*
X-83621572Y-27306976D02*
X-83621572Y-28068880D01*
X-84145381Y-28497452D02*
X-84193000Y-28545071D01*
X-84240620Y-28640309D01*
X-84240620Y-28878404D01*
X-84193000Y-28973642D01*
X-84145381Y-29021261D01*
X-84050143Y-29068880D01*
X-83954905Y-29068880D01*
X-83812048Y-29021261D01*
X-83240620Y-28449833D01*
X-83240620Y-29068880D01*
%TO.C,R59*%
X-77081143Y-8326380D02*
X-76747810Y-7850190D01*
X-76509715Y-8326380D02*
X-76509715Y-7326380D01*
X-76890667Y-7326380D01*
X-76985905Y-7374000D01*
X-77033524Y-7421619D01*
X-77081143Y-7516857D01*
X-77081143Y-7659714D01*
X-77033524Y-7754952D01*
X-76985905Y-7802571D01*
X-76890667Y-7850190D01*
X-76509715Y-7850190D01*
X-77985905Y-7326380D02*
X-77509715Y-7326380D01*
X-77462096Y-7802571D01*
X-77509715Y-7754952D01*
X-77604953Y-7707333D01*
X-77843048Y-7707333D01*
X-77938286Y-7754952D01*
X-77985905Y-7802571D01*
X-78033524Y-7897809D01*
X-78033524Y-8135904D01*
X-77985905Y-8231142D01*
X-77938286Y-8278761D01*
X-77843048Y-8326380D01*
X-77604953Y-8326380D01*
X-77509715Y-8278761D01*
X-77462096Y-8231142D01*
X-78509715Y-8326380D02*
X-78700191Y-8326380D01*
X-78795429Y-8278761D01*
X-78843048Y-8231142D01*
X-78938286Y-8088285D01*
X-78985905Y-7897809D01*
X-78985905Y-7516857D01*
X-78938286Y-7421619D01*
X-78890667Y-7374000D01*
X-78795429Y-7326380D01*
X-78604953Y-7326380D01*
X-78509715Y-7374000D01*
X-78462096Y-7421619D01*
X-78414477Y-7516857D01*
X-78414477Y-7754952D01*
X-78462096Y-7850190D01*
X-78509715Y-7897809D01*
X-78604953Y-7945428D01*
X-78795429Y-7945428D01*
X-78890667Y-7897809D01*
X-78938286Y-7850190D01*
X-78985905Y-7754952D01*
%TO.C,R51*%
X-7167620Y19565858D02*
X-7643810Y19899191D01*
X-7167620Y20137286D02*
X-8167620Y20137286D01*
X-8167620Y19756334D01*
X-8120000Y19661096D01*
X-8072381Y19613477D01*
X-7977143Y19565858D01*
X-7834286Y19565858D01*
X-7739048Y19613477D01*
X-7691429Y19661096D01*
X-7643810Y19756334D01*
X-7643810Y20137286D01*
X-8167620Y18661096D02*
X-8167620Y19137286D01*
X-7691429Y19184905D01*
X-7739048Y19137286D01*
X-7786667Y19042048D01*
X-7786667Y18803953D01*
X-7739048Y18708715D01*
X-7691429Y18661096D01*
X-7596191Y18613477D01*
X-7358096Y18613477D01*
X-7262858Y18661096D01*
X-7215239Y18708715D01*
X-7167620Y18803953D01*
X-7167620Y19042048D01*
X-7215239Y19137286D01*
X-7262858Y19184905D01*
X-7167620Y17661096D02*
X-7167620Y18232524D01*
X-7167620Y17946810D02*
X-8167620Y17946810D01*
X-8024762Y18042048D01*
X-7929524Y18137286D01*
X-7881905Y18232524D01*
%TO.C,R19*%
X-93262Y-7615180D02*
X240071Y-7138990D01*
X478166Y-7615180D02*
X478166Y-6615180D01*
X97214Y-6615180D01*
X1976Y-6662800D01*
X-45643Y-6710419D01*
X-93262Y-6805657D01*
X-93262Y-6948514D01*
X-45643Y-7043752D01*
X1976Y-7091371D01*
X97214Y-7138990D01*
X478166Y-7138990D01*
X-1045643Y-7615180D02*
X-474215Y-7615180D01*
X-759929Y-7615180D02*
X-759929Y-6615180D01*
X-664691Y-6758038D01*
X-569453Y-6853276D01*
X-474215Y-6900895D01*
X-1521834Y-7615180D02*
X-1712310Y-7615180D01*
X-1807548Y-7567561D01*
X-1855167Y-7519942D01*
X-1950405Y-7377085D01*
X-1998024Y-7186609D01*
X-1998024Y-6805657D01*
X-1950405Y-6710419D01*
X-1902786Y-6662800D01*
X-1807548Y-6615180D01*
X-1617072Y-6615180D01*
X-1521834Y-6662800D01*
X-1474215Y-6710419D01*
X-1426596Y-6805657D01*
X-1426596Y-7043752D01*
X-1474215Y-7138990D01*
X-1521834Y-7186609D01*
X-1617072Y-7234228D01*
X-1807548Y-7234228D01*
X-1902786Y-7186609D01*
X-1950405Y-7138990D01*
X-1998024Y-7043752D01*
%TO.C,R38*%
X-17835620Y-3675142D02*
X-18311810Y-3341809D01*
X-17835620Y-3103714D02*
X-18835620Y-3103714D01*
X-18835620Y-3484666D01*
X-18788000Y-3579904D01*
X-18740381Y-3627523D01*
X-18645143Y-3675142D01*
X-18502286Y-3675142D01*
X-18407048Y-3627523D01*
X-18359429Y-3579904D01*
X-18311810Y-3484666D01*
X-18311810Y-3103714D01*
X-18835620Y-4008476D02*
X-18835620Y-4627523D01*
X-18454667Y-4294190D01*
X-18454667Y-4437047D01*
X-18407048Y-4532285D01*
X-18359429Y-4579904D01*
X-18264191Y-4627523D01*
X-18026096Y-4627523D01*
X-17930858Y-4579904D01*
X-17883239Y-4532285D01*
X-17835620Y-4437047D01*
X-17835620Y-4151333D01*
X-17883239Y-4056095D01*
X-17930858Y-4008476D01*
X-18407048Y-5198952D02*
X-18454667Y-5103714D01*
X-18502286Y-5056095D01*
X-18597524Y-5008476D01*
X-18645143Y-5008476D01*
X-18740381Y-5056095D01*
X-18788000Y-5103714D01*
X-18835620Y-5198952D01*
X-18835620Y-5389428D01*
X-18788000Y-5484666D01*
X-18740381Y-5532285D01*
X-18645143Y-5579904D01*
X-18597524Y-5579904D01*
X-18502286Y-5532285D01*
X-18454667Y-5484666D01*
X-18407048Y-5389428D01*
X-18407048Y-5198952D01*
X-18359429Y-5103714D01*
X-18311810Y-5056095D01*
X-18216572Y-5008476D01*
X-18026096Y-5008476D01*
X-17930858Y-5056095D01*
X-17883239Y-5103714D01*
X-17835620Y-5198952D01*
X-17835620Y-5389428D01*
X-17883239Y-5484666D01*
X-17930858Y-5532285D01*
X-18026096Y-5579904D01*
X-18216572Y-5579904D01*
X-18311810Y-5532285D01*
X-18359429Y-5484666D01*
X-18407048Y-5389428D01*
%TO.C,R58*%
X-77081143Y-5786380D02*
X-76747810Y-5310190D01*
X-76509715Y-5786380D02*
X-76509715Y-4786380D01*
X-76890667Y-4786380D01*
X-76985905Y-4834000D01*
X-77033524Y-4881619D01*
X-77081143Y-4976857D01*
X-77081143Y-5119714D01*
X-77033524Y-5214952D01*
X-76985905Y-5262571D01*
X-76890667Y-5310190D01*
X-76509715Y-5310190D01*
X-77985905Y-4786380D02*
X-77509715Y-4786380D01*
X-77462096Y-5262571D01*
X-77509715Y-5214952D01*
X-77604953Y-5167333D01*
X-77843048Y-5167333D01*
X-77938286Y-5214952D01*
X-77985905Y-5262571D01*
X-78033524Y-5357809D01*
X-78033524Y-5595904D01*
X-77985905Y-5691142D01*
X-77938286Y-5738761D01*
X-77843048Y-5786380D01*
X-77604953Y-5786380D01*
X-77509715Y-5738761D01*
X-77462096Y-5691142D01*
X-78604953Y-5214952D02*
X-78509715Y-5167333D01*
X-78462096Y-5119714D01*
X-78414477Y-5024476D01*
X-78414477Y-4976857D01*
X-78462096Y-4881619D01*
X-78509715Y-4834000D01*
X-78604953Y-4786380D01*
X-78795429Y-4786380D01*
X-78890667Y-4834000D01*
X-78938286Y-4881619D01*
X-78985905Y-4976857D01*
X-78985905Y-5024476D01*
X-78938286Y-5119714D01*
X-78890667Y-5167333D01*
X-78795429Y-5214952D01*
X-78604953Y-5214952D01*
X-78509715Y-5262571D01*
X-78462096Y-5310190D01*
X-78414477Y-5405428D01*
X-78414477Y-5595904D01*
X-78462096Y-5691142D01*
X-78509715Y-5738761D01*
X-78604953Y-5786380D01*
X-78795429Y-5786380D01*
X-78890667Y-5738761D01*
X-78938286Y-5691142D01*
X-78985905Y-5595904D01*
X-78985905Y-5405428D01*
X-78938286Y-5310190D01*
X-78890667Y-5262571D01*
X-78795429Y-5214952D01*
%TO.C,R34*%
X-48125143Y-16073380D02*
X-47791810Y-15597190D01*
X-47553715Y-16073380D02*
X-47553715Y-15073380D01*
X-47934667Y-15073380D01*
X-48029905Y-15121000D01*
X-48077524Y-15168619D01*
X-48125143Y-15263857D01*
X-48125143Y-15406714D01*
X-48077524Y-15501952D01*
X-48029905Y-15549571D01*
X-47934667Y-15597190D01*
X-47553715Y-15597190D01*
X-48458477Y-15073380D02*
X-49077524Y-15073380D01*
X-48744191Y-15454333D01*
X-48887048Y-15454333D01*
X-48982286Y-15501952D01*
X-49029905Y-15549571D01*
X-49077524Y-15644809D01*
X-49077524Y-15882904D01*
X-49029905Y-15978142D01*
X-48982286Y-16025761D01*
X-48887048Y-16073380D01*
X-48601334Y-16073380D01*
X-48506096Y-16025761D01*
X-48458477Y-15978142D01*
X-49934667Y-15406714D02*
X-49934667Y-16073380D01*
X-49696572Y-15025761D02*
X-49458477Y-15740047D01*
X-50077524Y-15740047D01*
%TO.C,R7-1*%
X-88791024Y-20518380D02*
X-88457691Y-20042190D01*
X-88219596Y-20518380D02*
X-88219596Y-19518380D01*
X-88600548Y-19518380D01*
X-88695786Y-19566000D01*
X-88743405Y-19613619D01*
X-88791024Y-19708857D01*
X-88791024Y-19851714D01*
X-88743405Y-19946952D01*
X-88695786Y-19994571D01*
X-88600548Y-20042190D01*
X-88219596Y-20042190D01*
X-89124358Y-19518380D02*
X-89791024Y-19518380D01*
X-89362453Y-20518380D01*
X-90171977Y-20137428D02*
X-90933881Y-20137428D01*
X-91933881Y-20518380D02*
X-91362453Y-20518380D01*
X-91648167Y-20518380D02*
X-91648167Y-19518380D01*
X-91552929Y-19661238D01*
X-91457691Y-19756476D01*
X-91362453Y-19804095D01*
%TO.C,R7-2*%
X-88791024Y-30241878D02*
X-88457691Y-29765688D01*
X-88219596Y-30241878D02*
X-88219596Y-29241878D01*
X-88600548Y-29241878D01*
X-88695786Y-29289498D01*
X-88743405Y-29337117D01*
X-88791024Y-29432355D01*
X-88791024Y-29575212D01*
X-88743405Y-29670450D01*
X-88695786Y-29718069D01*
X-88600548Y-29765688D01*
X-88219596Y-29765688D01*
X-89124358Y-29241878D02*
X-89791024Y-29241878D01*
X-89362453Y-30241878D01*
X-90171977Y-29860926D02*
X-90933881Y-29860926D01*
X-91362453Y-29337117D02*
X-91410072Y-29289498D01*
X-91505310Y-29241878D01*
X-91743405Y-29241878D01*
X-91838643Y-29289498D01*
X-91886262Y-29337117D01*
X-91933881Y-29432355D01*
X-91933881Y-29527593D01*
X-91886262Y-29670450D01*
X-91314834Y-30241878D01*
X-91933881Y-30241878D01*
%TO.C,R25*%
X-60343024Y11231620D02*
X-60009691Y11707810D01*
X-59771596Y11231620D02*
X-59771596Y12231620D01*
X-60152548Y12231620D01*
X-60247786Y12184000D01*
X-60295405Y12136381D01*
X-60343024Y12041143D01*
X-60343024Y11898286D01*
X-60295405Y11803048D01*
X-60247786Y11755429D01*
X-60152548Y11707810D01*
X-59771596Y11707810D01*
X-60723977Y12136381D02*
X-60771596Y12184000D01*
X-60866834Y12231620D01*
X-61104929Y12231620D01*
X-61200167Y12184000D01*
X-61247786Y12136381D01*
X-61295405Y12041143D01*
X-61295405Y11945905D01*
X-61247786Y11803048D01*
X-60676358Y11231620D01*
X-61295405Y11231620D01*
X-62200167Y12231620D02*
X-61723977Y12231620D01*
X-61676358Y11755429D01*
X-61723977Y11803048D01*
X-61819215Y11850667D01*
X-62057310Y11850667D01*
X-62152548Y11803048D01*
X-62200167Y11755429D01*
X-62247786Y11660191D01*
X-62247786Y11422096D01*
X-62200167Y11326858D01*
X-62152548Y11279239D01*
X-62057310Y11231620D01*
X-61819215Y11231620D01*
X-61723977Y11279239D01*
X-61676358Y11326858D01*
%TO.C,R35*%
X-56697620Y-25773142D02*
X-57173810Y-25439809D01*
X-56697620Y-25201714D02*
X-57697620Y-25201714D01*
X-57697620Y-25582666D01*
X-57650000Y-25677904D01*
X-57602381Y-25725523D01*
X-57507143Y-25773142D01*
X-57364286Y-25773142D01*
X-57269048Y-25725523D01*
X-57221429Y-25677904D01*
X-57173810Y-25582666D01*
X-57173810Y-25201714D01*
X-57697620Y-26106476D02*
X-57697620Y-26725523D01*
X-57316667Y-26392190D01*
X-57316667Y-26535047D01*
X-57269048Y-26630285D01*
X-57221429Y-26677904D01*
X-57126191Y-26725523D01*
X-56888096Y-26725523D01*
X-56792858Y-26677904D01*
X-56745239Y-26630285D01*
X-56697620Y-26535047D01*
X-56697620Y-26249333D01*
X-56745239Y-26154095D01*
X-56792858Y-26106476D01*
X-57697620Y-27630285D02*
X-57697620Y-27154095D01*
X-57221429Y-27106476D01*
X-57269048Y-27154095D01*
X-57316667Y-27249333D01*
X-57316667Y-27487428D01*
X-57269048Y-27582666D01*
X-57221429Y-27630285D01*
X-57126191Y-27677904D01*
X-56888096Y-27677904D01*
X-56792858Y-27630285D01*
X-56745239Y-27582666D01*
X-56697620Y-27487428D01*
X-56697620Y-27249333D01*
X-56745239Y-27154095D01*
X-56792858Y-27106476D01*
%TO.C,R4*%
X-8310620Y-14311333D02*
X-8786810Y-13978000D01*
X-8310620Y-13739904D02*
X-9310620Y-13739904D01*
X-9310620Y-14120857D01*
X-9263000Y-14216095D01*
X-9215381Y-14263714D01*
X-9120143Y-14311333D01*
X-8977286Y-14311333D01*
X-8882048Y-14263714D01*
X-8834429Y-14216095D01*
X-8786810Y-14120857D01*
X-8786810Y-13739904D01*
X-8977286Y-15168476D02*
X-8310620Y-15168476D01*
X-9358239Y-14930380D02*
X-8643953Y-14692285D01*
X-8643953Y-15311333D01*
%TO.C,J3V1*%
X-65560905Y10072620D02*
X-65560905Y9358334D01*
X-65513286Y9215477D01*
X-65418048Y9120239D01*
X-65275191Y9072620D01*
X-65179953Y9072620D01*
X-65941858Y10072620D02*
X-66560905Y10072620D01*
X-66227572Y9691667D01*
X-66370429Y9691667D01*
X-66465667Y9644048D01*
X-66513286Y9596429D01*
X-66560905Y9501191D01*
X-66560905Y9263096D01*
X-66513286Y9167858D01*
X-66465667Y9120239D01*
X-66370429Y9072620D01*
X-66084715Y9072620D01*
X-65989477Y9120239D01*
X-65941858Y9167858D01*
X-66846620Y10072620D02*
X-67179953Y9072620D01*
X-67513286Y10072620D01*
X-68370429Y9072620D02*
X-67799000Y9072620D01*
X-68084715Y9072620D02*
X-68084715Y10072620D01*
X-67989477Y9929762D01*
X-67894239Y9834524D01*
X-67799000Y9786905D01*
%TO.C,R43*%
X-25760420Y-8882142D02*
X-26236610Y-8548809D01*
X-25760420Y-8310714D02*
X-26760420Y-8310714D01*
X-26760420Y-8691666D01*
X-26712800Y-8786904D01*
X-26665181Y-8834523D01*
X-26569943Y-8882142D01*
X-26427086Y-8882142D01*
X-26331848Y-8834523D01*
X-26284229Y-8786904D01*
X-26236610Y-8691666D01*
X-26236610Y-8310714D01*
X-26427086Y-9739285D02*
X-25760420Y-9739285D01*
X-26808039Y-9501190D02*
X-26093753Y-9263095D01*
X-26093753Y-9882142D01*
X-26760420Y-10167857D02*
X-26760420Y-10786904D01*
X-26379467Y-10453571D01*
X-26379467Y-10596428D01*
X-26331848Y-10691666D01*
X-26284229Y-10739285D01*
X-26188991Y-10786904D01*
X-25950896Y-10786904D01*
X-25855658Y-10739285D01*
X-25808039Y-10691666D01*
X-25760420Y-10596428D01*
X-25760420Y-10310714D01*
X-25808039Y-10215476D01*
X-25855658Y-10167857D01*
%TO.C,R65*%
X-77081143Y-23566380D02*
X-76747810Y-23090190D01*
X-76509715Y-23566380D02*
X-76509715Y-22566380D01*
X-76890667Y-22566380D01*
X-76985905Y-22614000D01*
X-77033524Y-22661619D01*
X-77081143Y-22756857D01*
X-77081143Y-22899714D01*
X-77033524Y-22994952D01*
X-76985905Y-23042571D01*
X-76890667Y-23090190D01*
X-76509715Y-23090190D01*
X-77938286Y-22566380D02*
X-77747810Y-22566380D01*
X-77652572Y-22614000D01*
X-77604953Y-22661619D01*
X-77509715Y-22804476D01*
X-77462096Y-22994952D01*
X-77462096Y-23375904D01*
X-77509715Y-23471142D01*
X-77557334Y-23518761D01*
X-77652572Y-23566380D01*
X-77843048Y-23566380D01*
X-77938286Y-23518761D01*
X-77985905Y-23471142D01*
X-78033524Y-23375904D01*
X-78033524Y-23137809D01*
X-77985905Y-23042571D01*
X-77938286Y-22994952D01*
X-77843048Y-22947333D01*
X-77652572Y-22947333D01*
X-77557334Y-22994952D01*
X-77509715Y-23042571D01*
X-77462096Y-23137809D01*
X-78938286Y-22566380D02*
X-78462096Y-22566380D01*
X-78414477Y-23042571D01*
X-78462096Y-22994952D01*
X-78557334Y-22947333D01*
X-78795429Y-22947333D01*
X-78890667Y-22994952D01*
X-78938286Y-23042571D01*
X-78985905Y-23137809D01*
X-78985905Y-23375904D01*
X-78938286Y-23471142D01*
X-78890667Y-23518761D01*
X-78795429Y-23566380D01*
X-78557334Y-23566380D01*
X-78462096Y-23518761D01*
X-78414477Y-23471142D01*
%TO.C,R37*%
X-60761620Y-25773142D02*
X-61237810Y-25439809D01*
X-60761620Y-25201714D02*
X-61761620Y-25201714D01*
X-61761620Y-25582666D01*
X-61714000Y-25677904D01*
X-61666381Y-25725523D01*
X-61571143Y-25773142D01*
X-61428286Y-25773142D01*
X-61333048Y-25725523D01*
X-61285429Y-25677904D01*
X-61237810Y-25582666D01*
X-61237810Y-25201714D01*
X-61761620Y-26106476D02*
X-61761620Y-26725523D01*
X-61380667Y-26392190D01*
X-61380667Y-26535047D01*
X-61333048Y-26630285D01*
X-61285429Y-26677904D01*
X-61190191Y-26725523D01*
X-60952096Y-26725523D01*
X-60856858Y-26677904D01*
X-60809239Y-26630285D01*
X-60761620Y-26535047D01*
X-60761620Y-26249333D01*
X-60809239Y-26154095D01*
X-60856858Y-26106476D01*
X-61761620Y-27058857D02*
X-61761620Y-27725523D01*
X-60761620Y-27296952D01*
%TO.C,R46*%
X-35107620Y-9263142D02*
X-35583810Y-8929809D01*
X-35107620Y-8691714D02*
X-36107620Y-8691714D01*
X-36107620Y-9072666D01*
X-36060000Y-9167904D01*
X-36012381Y-9215523D01*
X-35917143Y-9263142D01*
X-35774286Y-9263142D01*
X-35679048Y-9215523D01*
X-35631429Y-9167904D01*
X-35583810Y-9072666D01*
X-35583810Y-8691714D01*
X-35774286Y-10120285D02*
X-35107620Y-10120285D01*
X-36155239Y-9882190D02*
X-35440953Y-9644095D01*
X-35440953Y-10263142D01*
X-36107620Y-11072666D02*
X-36107620Y-10882190D01*
X-36060000Y-10786952D01*
X-36012381Y-10739333D01*
X-35869524Y-10644095D01*
X-35679048Y-10596476D01*
X-35298096Y-10596476D01*
X-35202858Y-10644095D01*
X-35155239Y-10691714D01*
X-35107620Y-10786952D01*
X-35107620Y-10977428D01*
X-35155239Y-11072666D01*
X-35202858Y-11120285D01*
X-35298096Y-11167904D01*
X-35536191Y-11167904D01*
X-35631429Y-11120285D01*
X-35679048Y-11072666D01*
X-35726667Y-10977428D01*
X-35726667Y-10786952D01*
X-35679048Y-10691714D01*
X-35631429Y-10644095D01*
X-35536191Y-10596476D01*
%TO.C,R27*%
X-48151024Y8056620D02*
X-47817691Y8532810D01*
X-47579596Y8056620D02*
X-47579596Y9056620D01*
X-47960548Y9056620D01*
X-48055786Y9009000D01*
X-48103405Y8961381D01*
X-48151024Y8866143D01*
X-48151024Y8723286D01*
X-48103405Y8628048D01*
X-48055786Y8580429D01*
X-47960548Y8532810D01*
X-47579596Y8532810D01*
X-48531977Y8961381D02*
X-48579596Y9009000D01*
X-48674834Y9056620D01*
X-48912929Y9056620D01*
X-49008167Y9009000D01*
X-49055786Y8961381D01*
X-49103405Y8866143D01*
X-49103405Y8770905D01*
X-49055786Y8628048D01*
X-48484358Y8056620D01*
X-49103405Y8056620D01*
X-49436739Y9056620D02*
X-50103405Y9056620D01*
X-49674834Y8056620D01*
%TO.C,JGPS1*%
X-79089477Y-32472380D02*
X-79089477Y-33186666D01*
X-79041858Y-33329523D01*
X-78946620Y-33424761D01*
X-78803762Y-33472380D01*
X-78708524Y-33472380D01*
X-80089477Y-32520000D02*
X-79994239Y-32472380D01*
X-79851381Y-32472380D01*
X-79708524Y-32520000D01*
X-79613286Y-32615238D01*
X-79565667Y-32710476D01*
X-79518048Y-32900952D01*
X-79518048Y-33043809D01*
X-79565667Y-33234285D01*
X-79613286Y-33329523D01*
X-79708524Y-33424761D01*
X-79851381Y-33472380D01*
X-79946620Y-33472380D01*
X-80089477Y-33424761D01*
X-80137096Y-33377142D01*
X-80137096Y-33043809D01*
X-79946620Y-33043809D01*
X-80565667Y-33472380D02*
X-80565667Y-32472380D01*
X-80946620Y-32472380D01*
X-81041858Y-32520000D01*
X-81089477Y-32567619D01*
X-81137096Y-32662857D01*
X-81137096Y-32805714D01*
X-81089477Y-32900952D01*
X-81041858Y-32948571D01*
X-80946620Y-32996190D01*
X-80565667Y-32996190D01*
X-81518048Y-33424761D02*
X-81660905Y-33472380D01*
X-81899000Y-33472380D01*
X-81994239Y-33424761D01*
X-82041858Y-33377142D01*
X-82089477Y-33281904D01*
X-82089477Y-33186666D01*
X-82041858Y-33091428D01*
X-81994239Y-33043809D01*
X-81899000Y-32996190D01*
X-81708524Y-32948571D01*
X-81613286Y-32900952D01*
X-81565667Y-32853333D01*
X-81518048Y-32758095D01*
X-81518048Y-32662857D01*
X-81565667Y-32567619D01*
X-81613286Y-32520000D01*
X-81708524Y-32472380D01*
X-81946620Y-32472380D01*
X-82089477Y-32520000D01*
X-83041858Y-33472380D02*
X-82470429Y-33472380D01*
X-82756143Y-33472380D02*
X-82756143Y-32472380D01*
X-82660905Y-32615238D01*
X-82565667Y-32710476D01*
X-82470429Y-32758095D01*
%TO.C,R57*%
X-19359620Y19565858D02*
X-19835810Y19899191D01*
X-19359620Y20137286D02*
X-20359620Y20137286D01*
X-20359620Y19756334D01*
X-20312000Y19661096D01*
X-20264381Y19613477D01*
X-20169143Y19565858D01*
X-20026286Y19565858D01*
X-19931048Y19613477D01*
X-19883429Y19661096D01*
X-19835810Y19756334D01*
X-19835810Y20137286D01*
X-20359620Y18661096D02*
X-20359620Y19137286D01*
X-19883429Y19184905D01*
X-19931048Y19137286D01*
X-19978667Y19042048D01*
X-19978667Y18803953D01*
X-19931048Y18708715D01*
X-19883429Y18661096D01*
X-19788191Y18613477D01*
X-19550096Y18613477D01*
X-19454858Y18661096D01*
X-19407239Y18708715D01*
X-19359620Y18803953D01*
X-19359620Y19042048D01*
X-19407239Y19137286D01*
X-19454858Y19184905D01*
X-20359620Y18280143D02*
X-20359620Y17613477D01*
X-19359620Y18042048D01*
%TO.C,R8*%
X-10840988Y-20417705D02*
X-10942003Y-19845285D01*
X-10436927Y-20013644D02*
X-11144033Y-19306537D01*
X-11413408Y-19575911D01*
X-11447079Y-19676926D01*
X-11447079Y-19744270D01*
X-11413408Y-19845285D01*
X-11312392Y-19946300D01*
X-11211377Y-19979972D01*
X-11144033Y-19979972D01*
X-11043018Y-19946300D01*
X-10773644Y-19676926D01*
X-11649110Y-20417705D02*
X-11615438Y-20316690D01*
X-11615438Y-20249346D01*
X-11649110Y-20148331D01*
X-11682782Y-20114659D01*
X-11783797Y-20080987D01*
X-11851140Y-20080987D01*
X-11952156Y-20114659D01*
X-12086843Y-20249346D01*
X-12120514Y-20350362D01*
X-12120514Y-20417705D01*
X-12086843Y-20518720D01*
X-12053171Y-20552392D01*
X-11952156Y-20586064D01*
X-11884812Y-20586064D01*
X-11783797Y-20552392D01*
X-11649110Y-20417705D01*
X-11548095Y-20384033D01*
X-11480751Y-20384033D01*
X-11379736Y-20417705D01*
X-11245049Y-20552392D01*
X-11211377Y-20653407D01*
X-11211377Y-20720751D01*
X-11245049Y-20821766D01*
X-11379736Y-20956453D01*
X-11480751Y-20990125D01*
X-11548095Y-20990125D01*
X-11649110Y-20956453D01*
X-11783797Y-20821766D01*
X-11817469Y-20720751D01*
X-11817469Y-20653407D01*
X-11783797Y-20552392D01*
%TO.C,R24*%
X-60317143Y13263620D02*
X-59983810Y13739810D01*
X-59745715Y13263620D02*
X-59745715Y14263620D01*
X-60126667Y14263620D01*
X-60221905Y14216000D01*
X-60269524Y14168381D01*
X-60317143Y14073143D01*
X-60317143Y13930286D01*
X-60269524Y13835048D01*
X-60221905Y13787429D01*
X-60126667Y13739810D01*
X-59745715Y13739810D01*
X-60698096Y14168381D02*
X-60745715Y14216000D01*
X-60840953Y14263620D01*
X-61079048Y14263620D01*
X-61174286Y14216000D01*
X-61221905Y14168381D01*
X-61269524Y14073143D01*
X-61269524Y13977905D01*
X-61221905Y13835048D01*
X-60650477Y13263620D01*
X-61269524Y13263620D01*
X-62126667Y13930286D02*
X-62126667Y13263620D01*
X-61888572Y14311239D02*
X-61650477Y13596953D01*
X-62269524Y13596953D01*
%TO.C,C7-1*%
X-88791024Y-28117240D02*
X-88743405Y-28164859D01*
X-88600548Y-28212478D01*
X-88505310Y-28212478D01*
X-88362453Y-28164859D01*
X-88267215Y-28069621D01*
X-88219596Y-27974383D01*
X-88171977Y-27783907D01*
X-88171977Y-27641050D01*
X-88219596Y-27450574D01*
X-88267215Y-27355336D01*
X-88362453Y-27260098D01*
X-88505310Y-27212478D01*
X-88600548Y-27212478D01*
X-88743405Y-27260098D01*
X-88791024Y-27307717D01*
X-89124358Y-27212478D02*
X-89791024Y-27212478D01*
X-89362453Y-28212478D01*
X-90171977Y-27831526D02*
X-90933881Y-27831526D01*
X-91933881Y-28212478D02*
X-91362453Y-28212478D01*
X-91648167Y-28212478D02*
X-91648167Y-27212478D01*
X-91552929Y-27355336D01*
X-91457691Y-27450574D01*
X-91362453Y-27498193D01*
%TO.C,R60*%
X-77081143Y-10866380D02*
X-76747810Y-10390190D01*
X-76509715Y-10866380D02*
X-76509715Y-9866380D01*
X-76890667Y-9866380D01*
X-76985905Y-9914000D01*
X-77033524Y-9961619D01*
X-77081143Y-10056857D01*
X-77081143Y-10199714D01*
X-77033524Y-10294952D01*
X-76985905Y-10342571D01*
X-76890667Y-10390190D01*
X-76509715Y-10390190D01*
X-77938286Y-9866380D02*
X-77747810Y-9866380D01*
X-77652572Y-9914000D01*
X-77604953Y-9961619D01*
X-77509715Y-10104476D01*
X-77462096Y-10294952D01*
X-77462096Y-10675904D01*
X-77509715Y-10771142D01*
X-77557334Y-10818761D01*
X-77652572Y-10866380D01*
X-77843048Y-10866380D01*
X-77938286Y-10818761D01*
X-77985905Y-10771142D01*
X-78033524Y-10675904D01*
X-78033524Y-10437809D01*
X-77985905Y-10342571D01*
X-77938286Y-10294952D01*
X-77843048Y-10247333D01*
X-77652572Y-10247333D01*
X-77557334Y-10294952D01*
X-77509715Y-10342571D01*
X-77462096Y-10437809D01*
X-78652572Y-9866380D02*
X-78747810Y-9866380D01*
X-78843048Y-9914000D01*
X-78890667Y-9961619D01*
X-78938286Y-10056857D01*
X-78985905Y-10247333D01*
X-78985905Y-10485428D01*
X-78938286Y-10675904D01*
X-78890667Y-10771142D01*
X-78843048Y-10818761D01*
X-78747810Y-10866380D01*
X-78652572Y-10866380D01*
X-78557334Y-10818761D01*
X-78509715Y-10771142D01*
X-78462096Y-10675904D01*
X-78414477Y-10485428D01*
X-78414477Y-10247333D01*
X-78462096Y-10056857D01*
X-78509715Y-9961619D01*
X-78557334Y-9914000D01*
X-78652572Y-9866380D01*
%TO.C,R17*%
X-44595024Y-8834380D02*
X-44261691Y-8358190D01*
X-44023596Y-8834380D02*
X-44023596Y-7834380D01*
X-44404548Y-7834380D01*
X-44499786Y-7882000D01*
X-44547405Y-7929619D01*
X-44595024Y-8024857D01*
X-44595024Y-8167714D01*
X-44547405Y-8262952D01*
X-44499786Y-8310571D01*
X-44404548Y-8358190D01*
X-44023596Y-8358190D01*
X-45547405Y-8834380D02*
X-44975977Y-8834380D01*
X-45261691Y-8834380D02*
X-45261691Y-7834380D01*
X-45166453Y-7977238D01*
X-45071215Y-8072476D01*
X-44975977Y-8120095D01*
X-45880739Y-7834380D02*
X-46547405Y-7834380D01*
X-46118834Y-8834380D01*
%TO.C,JAUX1*%
X-66436096Y-35558880D02*
X-66436096Y-36273166D01*
X-66388477Y-36416023D01*
X-66293239Y-36511261D01*
X-66150381Y-36558880D01*
X-66055143Y-36558880D01*
X-66864667Y-36273166D02*
X-67340858Y-36273166D01*
X-66769429Y-36558880D02*
X-67102762Y-35558880D01*
X-67436096Y-36558880D01*
X-67769429Y-35558880D02*
X-67769429Y-36368404D01*
X-67817048Y-36463642D01*
X-67864667Y-36511261D01*
X-67959905Y-36558880D01*
X-68150381Y-36558880D01*
X-68245620Y-36511261D01*
X-68293239Y-36463642D01*
X-68340858Y-36368404D01*
X-68340858Y-35558880D01*
X-68721810Y-35558880D02*
X-69388477Y-36558880D01*
X-69388477Y-35558880D02*
X-68721810Y-36558880D01*
X-70293239Y-36558880D02*
X-69721810Y-36558880D01*
X-70007524Y-36558880D02*
X-70007524Y-35558880D01*
X-69912286Y-35701738D01*
X-69817048Y-35796976D01*
X-69721810Y-35844595D01*
%TO.C,J2-2*%
X-20033429Y-20407380D02*
X-20033429Y-21121666D01*
X-19985810Y-21264523D01*
X-19890572Y-21359761D01*
X-19747715Y-21407380D01*
X-19652477Y-21407380D01*
X-20462000Y-20502619D02*
X-20509620Y-20455000D01*
X-20604858Y-20407380D01*
X-20842953Y-20407380D01*
X-20938191Y-20455000D01*
X-20985810Y-20502619D01*
X-21033429Y-20597857D01*
X-21033429Y-20693095D01*
X-20985810Y-20835952D01*
X-20414381Y-21407380D01*
X-21033429Y-21407380D01*
X-21462000Y-21026428D02*
X-22223905Y-21026428D01*
X-22652477Y-20502619D02*
X-22700096Y-20455000D01*
X-22795334Y-20407380D01*
X-23033429Y-20407380D01*
X-23128667Y-20455000D01*
X-23176286Y-20502619D01*
X-23223905Y-20597857D01*
X-23223905Y-20693095D01*
X-23176286Y-20835952D01*
X-22604858Y-21407380D01*
X-23223905Y-21407380D01*
%TO.C,R33*%
X-48125143Y-13533380D02*
X-47791810Y-13057190D01*
X-47553715Y-13533380D02*
X-47553715Y-12533380D01*
X-47934667Y-12533380D01*
X-48029905Y-12581000D01*
X-48077524Y-12628619D01*
X-48125143Y-12723857D01*
X-48125143Y-12866714D01*
X-48077524Y-12961952D01*
X-48029905Y-13009571D01*
X-47934667Y-13057190D01*
X-47553715Y-13057190D01*
X-48458477Y-12533380D02*
X-49077524Y-12533380D01*
X-48744191Y-12914333D01*
X-48887048Y-12914333D01*
X-48982286Y-12961952D01*
X-49029905Y-13009571D01*
X-49077524Y-13104809D01*
X-49077524Y-13342904D01*
X-49029905Y-13438142D01*
X-48982286Y-13485761D01*
X-48887048Y-13533380D01*
X-48601334Y-13533380D01*
X-48506096Y-13485761D01*
X-48458477Y-13438142D01*
X-49410858Y-12533380D02*
X-50029905Y-12533380D01*
X-49696572Y-12914333D01*
X-49839429Y-12914333D01*
X-49934667Y-12961952D01*
X-49982286Y-13009571D01*
X-50029905Y-13104809D01*
X-50029905Y-13342904D01*
X-49982286Y-13438142D01*
X-49934667Y-13485761D01*
X-49839429Y-13533380D01*
X-49553715Y-13533380D01*
X-49458477Y-13485761D01*
X-49410858Y-13438142D01*
%TO.C,R48*%
X-1071620Y19565858D02*
X-1547810Y19899191D01*
X-1071620Y20137286D02*
X-2071620Y20137286D01*
X-2071620Y19756334D01*
X-2024000Y19661096D01*
X-1976381Y19613477D01*
X-1881143Y19565858D01*
X-1738286Y19565858D01*
X-1643048Y19613477D01*
X-1595429Y19661096D01*
X-1547810Y19756334D01*
X-1547810Y20137286D01*
X-1738286Y18708715D02*
X-1071620Y18708715D01*
X-2119239Y18946810D02*
X-1404953Y19184905D01*
X-1404953Y18565858D01*
X-1643048Y18042048D02*
X-1690667Y18137286D01*
X-1738286Y18184905D01*
X-1833524Y18232524D01*
X-1881143Y18232524D01*
X-1976381Y18184905D01*
X-2024000Y18137286D01*
X-2071620Y18042048D01*
X-2071620Y17851572D01*
X-2024000Y17756334D01*
X-1976381Y17708715D01*
X-1881143Y17661096D01*
X-1833524Y17661096D01*
X-1738286Y17708715D01*
X-1690667Y17756334D01*
X-1643048Y17851572D01*
X-1643048Y18042048D01*
X-1595429Y18137286D01*
X-1547810Y18184905D01*
X-1452572Y18232524D01*
X-1262096Y18232524D01*
X-1166858Y18184905D01*
X-1119239Y18137286D01*
X-1071620Y18042048D01*
X-1071620Y17851572D01*
X-1119239Y17756334D01*
X-1166858Y17708715D01*
X-1262096Y17661096D01*
X-1452572Y17661096D01*
X-1547810Y17708715D01*
X-1595429Y17756334D01*
X-1643048Y17851572D01*
%TO.C,R10*%
X-44595024Y-26614380D02*
X-44261691Y-26138190D01*
X-44023596Y-26614380D02*
X-44023596Y-25614380D01*
X-44404548Y-25614380D01*
X-44499786Y-25662000D01*
X-44547405Y-25709619D01*
X-44595024Y-25804857D01*
X-44595024Y-25947714D01*
X-44547405Y-26042952D01*
X-44499786Y-26090571D01*
X-44404548Y-26138190D01*
X-44023596Y-26138190D01*
X-45547405Y-26614380D02*
X-44975977Y-26614380D01*
X-45261691Y-26614380D02*
X-45261691Y-25614380D01*
X-45166453Y-25757238D01*
X-45071215Y-25852476D01*
X-44975977Y-25900095D01*
X-46166453Y-25614380D02*
X-46261691Y-25614380D01*
X-46356929Y-25662000D01*
X-46404548Y-25709619D01*
X-46452167Y-25804857D01*
X-46499786Y-25995333D01*
X-46499786Y-26233428D01*
X-46452167Y-26423904D01*
X-46404548Y-26519142D01*
X-46356929Y-26566761D01*
X-46261691Y-26614380D01*
X-46166453Y-26614380D01*
X-46071215Y-26566761D01*
X-46023596Y-26519142D01*
X-45975977Y-26423904D01*
X-45928358Y-26233428D01*
X-45928358Y-25995333D01*
X-45975977Y-25804857D01*
X-46023596Y-25709619D01*
X-46071215Y-25662000D01*
X-46166453Y-25614380D01*
%TO.C,R28*%
X-48125143Y1655820D02*
X-47791810Y2132010D01*
X-47553715Y1655820D02*
X-47553715Y2655820D01*
X-47934667Y2655820D01*
X-48029905Y2608200D01*
X-48077524Y2560581D01*
X-48125143Y2465343D01*
X-48125143Y2322486D01*
X-48077524Y2227248D01*
X-48029905Y2179629D01*
X-47934667Y2132010D01*
X-47553715Y2132010D01*
X-48506096Y2560581D02*
X-48553715Y2608200D01*
X-48648953Y2655820D01*
X-48887048Y2655820D01*
X-48982286Y2608200D01*
X-49029905Y2560581D01*
X-49077524Y2465343D01*
X-49077524Y2370105D01*
X-49029905Y2227248D01*
X-48458477Y1655820D01*
X-49077524Y1655820D01*
X-49648953Y2227248D02*
X-49553715Y2274867D01*
X-49506096Y2322486D01*
X-49458477Y2417724D01*
X-49458477Y2465343D01*
X-49506096Y2560581D01*
X-49553715Y2608200D01*
X-49648953Y2655820D01*
X-49839429Y2655820D01*
X-49934667Y2608200D01*
X-49982286Y2560581D01*
X-50029905Y2465343D01*
X-50029905Y2417724D01*
X-49982286Y2322486D01*
X-49934667Y2274867D01*
X-49839429Y2227248D01*
X-49648953Y2227248D01*
X-49553715Y2179629D01*
X-49506096Y2132010D01*
X-49458477Y2036772D01*
X-49458477Y1846296D01*
X-49506096Y1751058D01*
X-49553715Y1703439D01*
X-49648953Y1655820D01*
X-49839429Y1655820D01*
X-49934667Y1703439D01*
X-49982286Y1751058D01*
X-50029905Y1846296D01*
X-50029905Y2036772D01*
X-49982286Y2132010D01*
X-49934667Y2179629D01*
X-49839429Y2227248D01*
%TO.C,R63*%
X-77081143Y-18486380D02*
X-76747810Y-18010190D01*
X-76509715Y-18486380D02*
X-76509715Y-17486380D01*
X-76890667Y-17486380D01*
X-76985905Y-17534000D01*
X-77033524Y-17581619D01*
X-77081143Y-17676857D01*
X-77081143Y-17819714D01*
X-77033524Y-17914952D01*
X-76985905Y-17962571D01*
X-76890667Y-18010190D01*
X-76509715Y-18010190D01*
X-77938286Y-17486380D02*
X-77747810Y-17486380D01*
X-77652572Y-17534000D01*
X-77604953Y-17581619D01*
X-77509715Y-17724476D01*
X-77462096Y-17914952D01*
X-77462096Y-18295904D01*
X-77509715Y-18391142D01*
X-77557334Y-18438761D01*
X-77652572Y-18486380D01*
X-77843048Y-18486380D01*
X-77938286Y-18438761D01*
X-77985905Y-18391142D01*
X-78033524Y-18295904D01*
X-78033524Y-18057809D01*
X-77985905Y-17962571D01*
X-77938286Y-17914952D01*
X-77843048Y-17867333D01*
X-77652572Y-17867333D01*
X-77557334Y-17914952D01*
X-77509715Y-17962571D01*
X-77462096Y-18057809D01*
X-78366858Y-17486380D02*
X-78985905Y-17486380D01*
X-78652572Y-17867333D01*
X-78795429Y-17867333D01*
X-78890667Y-17914952D01*
X-78938286Y-17962571D01*
X-78985905Y-18057809D01*
X-78985905Y-18295904D01*
X-78938286Y-18391142D01*
X-78890667Y-18438761D01*
X-78795429Y-18486380D01*
X-78509715Y-18486380D01*
X-78414477Y-18438761D01*
X-78366858Y-18391142D01*
%TO.C,U4*%
X-19216620Y-14859095D02*
X-18407096Y-14859095D01*
X-18311858Y-14906714D01*
X-18264239Y-14954333D01*
X-18216620Y-15049571D01*
X-18216620Y-15240047D01*
X-18264239Y-15335285D01*
X-18311858Y-15382904D01*
X-18407096Y-15430523D01*
X-19216620Y-15430523D01*
X-18883286Y-16335285D02*
X-18216620Y-16335285D01*
X-19264239Y-16097190D02*
X-18549953Y-15859095D01*
X-18549953Y-16478142D01*
%TO.C,R11*%
X-44595024Y-24074380D02*
X-44261691Y-23598190D01*
X-44023596Y-24074380D02*
X-44023596Y-23074380D01*
X-44404548Y-23074380D01*
X-44499786Y-23122000D01*
X-44547405Y-23169619D01*
X-44595024Y-23264857D01*
X-44595024Y-23407714D01*
X-44547405Y-23502952D01*
X-44499786Y-23550571D01*
X-44404548Y-23598190D01*
X-44023596Y-23598190D01*
X-45547405Y-24074380D02*
X-44975977Y-24074380D01*
X-45261691Y-24074380D02*
X-45261691Y-23074380D01*
X-45166453Y-23217238D01*
X-45071215Y-23312476D01*
X-44975977Y-23360095D01*
X-46499786Y-24074380D02*
X-45928358Y-24074380D01*
X-46214072Y-24074380D02*
X-46214072Y-23074380D01*
X-46118834Y-23217238D01*
X-46023596Y-23312476D01*
X-45928358Y-23360095D01*
%TO.C,JP8*%
X-16946667Y-21274380D02*
X-16946667Y-21988666D01*
X-16899048Y-22131523D01*
X-16803810Y-22226761D01*
X-16660953Y-22274380D01*
X-16565715Y-22274380D01*
X-17422858Y-22274380D02*
X-17422858Y-21274380D01*
X-17803810Y-21274380D01*
X-17899048Y-21322000D01*
X-17946667Y-21369619D01*
X-17994286Y-21464857D01*
X-17994286Y-21607714D01*
X-17946667Y-21702952D01*
X-17899048Y-21750571D01*
X-17803810Y-21798190D01*
X-17422858Y-21798190D01*
X-18565715Y-21702952D02*
X-18470477Y-21655333D01*
X-18422858Y-21607714D01*
X-18375239Y-21512476D01*
X-18375239Y-21464857D01*
X-18422858Y-21369619D01*
X-18470477Y-21322000D01*
X-18565715Y-21274380D01*
X-18756191Y-21274380D01*
X-18851429Y-21322000D01*
X-18899048Y-21369619D01*
X-18946667Y-21464857D01*
X-18946667Y-21512476D01*
X-18899048Y-21607714D01*
X-18851429Y-21655333D01*
X-18756191Y-21702952D01*
X-18565715Y-21702952D01*
X-18470477Y-21750571D01*
X-18422858Y-21798190D01*
X-18375239Y-21893428D01*
X-18375239Y-22083904D01*
X-18422858Y-22179142D01*
X-18470477Y-22226761D01*
X-18565715Y-22274380D01*
X-18756191Y-22274380D01*
X-18851429Y-22226761D01*
X-18899048Y-22179142D01*
X-18946667Y-22083904D01*
X-18946667Y-21893428D01*
X-18899048Y-21798190D01*
X-18851429Y-21750571D01*
X-18756191Y-21702952D01*
%TO.C,R6*%
X-64063620Y-7707333D02*
X-64539810Y-7374000D01*
X-64063620Y-7135904D02*
X-65063620Y-7135904D01*
X-65063620Y-7516857D01*
X-65016000Y-7612095D01*
X-64968381Y-7659714D01*
X-64873143Y-7707333D01*
X-64730286Y-7707333D01*
X-64635048Y-7659714D01*
X-64587429Y-7612095D01*
X-64539810Y-7516857D01*
X-64539810Y-7135904D01*
X-65063620Y-8564476D02*
X-65063620Y-8374000D01*
X-65016000Y-8278761D01*
X-64968381Y-8231142D01*
X-64825524Y-8135904D01*
X-64635048Y-8088285D01*
X-64254096Y-8088285D01*
X-64158858Y-8135904D01*
X-64111239Y-8183523D01*
X-64063620Y-8278761D01*
X-64063620Y-8469238D01*
X-64111239Y-8564476D01*
X-64158858Y-8612095D01*
X-64254096Y-8659714D01*
X-64492191Y-8659714D01*
X-64587429Y-8612095D01*
X-64635048Y-8564476D01*
X-64682667Y-8469238D01*
X-64682667Y-8278761D01*
X-64635048Y-8183523D01*
X-64587429Y-8135904D01*
X-64492191Y-8088285D01*
%TO.C,R31*%
X-48125143Y-8453380D02*
X-47791810Y-7977190D01*
X-47553715Y-8453380D02*
X-47553715Y-7453380D01*
X-47934667Y-7453380D01*
X-48029905Y-7501000D01*
X-48077524Y-7548619D01*
X-48125143Y-7643857D01*
X-48125143Y-7786714D01*
X-48077524Y-7881952D01*
X-48029905Y-7929571D01*
X-47934667Y-7977190D01*
X-47553715Y-7977190D01*
X-48458477Y-7453380D02*
X-49077524Y-7453380D01*
X-48744191Y-7834333D01*
X-48887048Y-7834333D01*
X-48982286Y-7881952D01*
X-49029905Y-7929571D01*
X-49077524Y-8024809D01*
X-49077524Y-8262904D01*
X-49029905Y-8358142D01*
X-48982286Y-8405761D01*
X-48887048Y-8453380D01*
X-48601334Y-8453380D01*
X-48506096Y-8405761D01*
X-48458477Y-8358142D01*
X-50029905Y-8453380D02*
X-49458477Y-8453380D01*
X-49744191Y-8453380D02*
X-49744191Y-7453380D01*
X-49648953Y-7596238D01*
X-49553715Y-7691476D01*
X-49458477Y-7739095D01*
%TO.C,R18*%
X-119143Y-9545580D02*
X214190Y-9069390D01*
X452285Y-9545580D02*
X452285Y-8545580D01*
X71333Y-8545580D01*
X-23905Y-8593200D01*
X-71524Y-8640819D01*
X-119143Y-8736057D01*
X-119143Y-8878914D01*
X-71524Y-8974152D01*
X-23905Y-9021771D01*
X71333Y-9069390D01*
X452285Y-9069390D01*
X-1071524Y-9545580D02*
X-500096Y-9545580D01*
X-785810Y-9545580D02*
X-785810Y-8545580D01*
X-690572Y-8688438D01*
X-595334Y-8783676D01*
X-500096Y-8831295D01*
X-1642953Y-8974152D02*
X-1547715Y-8926533D01*
X-1500096Y-8878914D01*
X-1452477Y-8783676D01*
X-1452477Y-8736057D01*
X-1500096Y-8640819D01*
X-1547715Y-8593200D01*
X-1642953Y-8545580D01*
X-1833429Y-8545580D01*
X-1928667Y-8593200D01*
X-1976286Y-8640819D01*
X-2023905Y-8736057D01*
X-2023905Y-8783676D01*
X-1976286Y-8878914D01*
X-1928667Y-8926533D01*
X-1833429Y-8974152D01*
X-1642953Y-8974152D01*
X-1547715Y-9021771D01*
X-1500096Y-9069390D01*
X-1452477Y-9164628D01*
X-1452477Y-9355104D01*
X-1500096Y-9450342D01*
X-1547715Y-9497961D01*
X-1642953Y-9545580D01*
X-1833429Y-9545580D01*
X-1928667Y-9497961D01*
X-1976286Y-9450342D01*
X-2023905Y-9355104D01*
X-2023905Y-9164628D01*
X-1976286Y-9069390D01*
X-1928667Y-9021771D01*
X-1833429Y-8974152D01*
%TO.C,R53*%
X-11231620Y19565858D02*
X-11707810Y19899191D01*
X-11231620Y20137286D02*
X-12231620Y20137286D01*
X-12231620Y19756334D01*
X-12184000Y19661096D01*
X-12136381Y19613477D01*
X-12041143Y19565858D01*
X-11898286Y19565858D01*
X-11803048Y19613477D01*
X-11755429Y19661096D01*
X-11707810Y19756334D01*
X-11707810Y20137286D01*
X-12231620Y18661096D02*
X-12231620Y19137286D01*
X-11755429Y19184905D01*
X-11803048Y19137286D01*
X-11850667Y19042048D01*
X-11850667Y18803953D01*
X-11803048Y18708715D01*
X-11755429Y18661096D01*
X-11660191Y18613477D01*
X-11422096Y18613477D01*
X-11326858Y18661096D01*
X-11279239Y18708715D01*
X-11231620Y18803953D01*
X-11231620Y19042048D01*
X-11279239Y19137286D01*
X-11326858Y19184905D01*
X-12231620Y18280143D02*
X-12231620Y17661096D01*
X-11850667Y17994429D01*
X-11850667Y17851572D01*
X-11803048Y17756334D01*
X-11755429Y17708715D01*
X-11660191Y17661096D01*
X-11422096Y17661096D01*
X-11326858Y17708715D01*
X-11279239Y17756334D01*
X-11231620Y17851572D01*
X-11231620Y18137286D01*
X-11279239Y18232524D01*
X-11326858Y18280143D01*
%TO.C,R54*%
X-13263620Y19565858D02*
X-13739810Y19899191D01*
X-13263620Y20137286D02*
X-14263620Y20137286D01*
X-14263620Y19756334D01*
X-14216000Y19661096D01*
X-14168381Y19613477D01*
X-14073143Y19565858D01*
X-13930286Y19565858D01*
X-13835048Y19613477D01*
X-13787429Y19661096D01*
X-13739810Y19756334D01*
X-13739810Y20137286D01*
X-14263620Y18661096D02*
X-14263620Y19137286D01*
X-13787429Y19184905D01*
X-13835048Y19137286D01*
X-13882667Y19042048D01*
X-13882667Y18803953D01*
X-13835048Y18708715D01*
X-13787429Y18661096D01*
X-13692191Y18613477D01*
X-13454096Y18613477D01*
X-13358858Y18661096D01*
X-13311239Y18708715D01*
X-13263620Y18803953D01*
X-13263620Y19042048D01*
X-13311239Y19137286D01*
X-13358858Y19184905D01*
X-13930286Y17756334D02*
X-13263620Y17756334D01*
X-14311239Y17994429D02*
X-13596953Y18232524D01*
X-13596953Y17613477D01*
%TO.C,R32*%
X-48125143Y-10993380D02*
X-47791810Y-10517190D01*
X-47553715Y-10993380D02*
X-47553715Y-9993380D01*
X-47934667Y-9993380D01*
X-48029905Y-10041000D01*
X-48077524Y-10088619D01*
X-48125143Y-10183857D01*
X-48125143Y-10326714D01*
X-48077524Y-10421952D01*
X-48029905Y-10469571D01*
X-47934667Y-10517190D01*
X-47553715Y-10517190D01*
X-48458477Y-9993380D02*
X-49077524Y-9993380D01*
X-48744191Y-10374333D01*
X-48887048Y-10374333D01*
X-48982286Y-10421952D01*
X-49029905Y-10469571D01*
X-49077524Y-10564809D01*
X-49077524Y-10802904D01*
X-49029905Y-10898142D01*
X-48982286Y-10945761D01*
X-48887048Y-10993380D01*
X-48601334Y-10993380D01*
X-48506096Y-10945761D01*
X-48458477Y-10898142D01*
X-49458477Y-10088619D02*
X-49506096Y-10041000D01*
X-49601334Y-9993380D01*
X-49839429Y-9993380D01*
X-49934667Y-10041000D01*
X-49982286Y-10088619D01*
X-50029905Y-10183857D01*
X-50029905Y-10279095D01*
X-49982286Y-10421952D01*
X-49410858Y-10993380D01*
X-50029905Y-10993380D01*
%TO.C,R26*%
X-60317143Y9199620D02*
X-59983810Y9675810D01*
X-59745715Y9199620D02*
X-59745715Y10199620D01*
X-60126667Y10199620D01*
X-60221905Y10152000D01*
X-60269524Y10104381D01*
X-60317143Y10009143D01*
X-60317143Y9866286D01*
X-60269524Y9771048D01*
X-60221905Y9723429D01*
X-60126667Y9675810D01*
X-59745715Y9675810D01*
X-60698096Y10104381D02*
X-60745715Y10152000D01*
X-60840953Y10199620D01*
X-61079048Y10199620D01*
X-61174286Y10152000D01*
X-61221905Y10104381D01*
X-61269524Y10009143D01*
X-61269524Y9913905D01*
X-61221905Y9771048D01*
X-60650477Y9199620D01*
X-61269524Y9199620D01*
X-62126667Y10199620D02*
X-61936191Y10199620D01*
X-61840953Y10152000D01*
X-61793334Y10104381D01*
X-61698096Y9961524D01*
X-61650477Y9771048D01*
X-61650477Y9390096D01*
X-61698096Y9294858D01*
X-61745715Y9247239D01*
X-61840953Y9199620D01*
X-62031429Y9199620D01*
X-62126667Y9247239D01*
X-62174286Y9294858D01*
X-62221905Y9390096D01*
X-62221905Y9628191D01*
X-62174286Y9723429D01*
X-62126667Y9771048D01*
X-62031429Y9818667D01*
X-61840953Y9818667D01*
X-61745715Y9771048D01*
X-61698096Y9723429D01*
X-61650477Y9628191D01*
%TO.C,R15*%
X-44595024Y-13914380D02*
X-44261691Y-13438190D01*
X-44023596Y-13914380D02*
X-44023596Y-12914380D01*
X-44404548Y-12914380D01*
X-44499786Y-12962000D01*
X-44547405Y-13009619D01*
X-44595024Y-13104857D01*
X-44595024Y-13247714D01*
X-44547405Y-13342952D01*
X-44499786Y-13390571D01*
X-44404548Y-13438190D01*
X-44023596Y-13438190D01*
X-45547405Y-13914380D02*
X-44975977Y-13914380D01*
X-45261691Y-13914380D02*
X-45261691Y-12914380D01*
X-45166453Y-13057238D01*
X-45071215Y-13152476D01*
X-44975977Y-13200095D01*
X-46452167Y-12914380D02*
X-45975977Y-12914380D01*
X-45928358Y-13390571D01*
X-45975977Y-13342952D01*
X-46071215Y-13295333D01*
X-46309310Y-13295333D01*
X-46404548Y-13342952D01*
X-46452167Y-13390571D01*
X-46499786Y-13485809D01*
X-46499786Y-13723904D01*
X-46452167Y-13819142D01*
X-46404548Y-13866761D01*
X-46309310Y-13914380D01*
X-46071215Y-13914380D01*
X-45975977Y-13866761D01*
X-45928358Y-13819142D01*
%TO.C,JAPC1*%
X-27320542Y-18756380D02*
X-27320542Y-19470666D01*
X-27272923Y-19613523D01*
X-27177685Y-19708761D01*
X-27034827Y-19756380D01*
X-26939589Y-19756380D01*
X-27749113Y-19470666D02*
X-28225304Y-19470666D01*
X-27653875Y-19756380D02*
X-27987208Y-18756380D01*
X-28320542Y-19756380D01*
X-28653875Y-19756380D02*
X-28653875Y-18756380D01*
X-29034827Y-18756380D01*
X-29130066Y-18804000D01*
X-29177685Y-18851619D01*
X-29225304Y-18946857D01*
X-29225304Y-19089714D01*
X-29177685Y-19184952D01*
X-29130066Y-19232571D01*
X-29034827Y-19280190D01*
X-28653875Y-19280190D01*
X-30225304Y-19661142D02*
X-30177685Y-19708761D01*
X-30034827Y-19756380D01*
X-29939589Y-19756380D01*
X-29796732Y-19708761D01*
X-29701494Y-19613523D01*
X-29653875Y-19518285D01*
X-29606256Y-19327809D01*
X-29606256Y-19184952D01*
X-29653875Y-18994476D01*
X-29701494Y-18899238D01*
X-29796732Y-18804000D01*
X-29939589Y-18756380D01*
X-30034827Y-18756380D01*
X-30177685Y-18804000D01*
X-30225304Y-18851619D01*
X-31177685Y-19756380D02*
X-30606256Y-19756380D01*
X-30891970Y-19756380D02*
X-30891970Y-18756380D01*
X-30796732Y-18899238D01*
X-30701494Y-18994476D01*
X-30606256Y-19042095D01*
%TO.C,R14*%
X-44595024Y-16454380D02*
X-44261691Y-15978190D01*
X-44023596Y-16454380D02*
X-44023596Y-15454380D01*
X-44404548Y-15454380D01*
X-44499786Y-15502000D01*
X-44547405Y-15549619D01*
X-44595024Y-15644857D01*
X-44595024Y-15787714D01*
X-44547405Y-15882952D01*
X-44499786Y-15930571D01*
X-44404548Y-15978190D01*
X-44023596Y-15978190D01*
X-45547405Y-16454380D02*
X-44975977Y-16454380D01*
X-45261691Y-16454380D02*
X-45261691Y-15454380D01*
X-45166453Y-15597238D01*
X-45071215Y-15692476D01*
X-44975977Y-15740095D01*
X-46404548Y-15787714D02*
X-46404548Y-16454380D01*
X-46166453Y-15406761D02*
X-45928358Y-16121047D01*
X-46547405Y-16121047D01*
%TO.C,R39*%
X-23995143Y-4262380D02*
X-23661810Y-3786190D01*
X-23423715Y-4262380D02*
X-23423715Y-3262380D01*
X-23804667Y-3262380D01*
X-23899905Y-3310000D01*
X-23947524Y-3357619D01*
X-23995143Y-3452857D01*
X-23995143Y-3595714D01*
X-23947524Y-3690952D01*
X-23899905Y-3738571D01*
X-23804667Y-3786190D01*
X-23423715Y-3786190D01*
X-24328477Y-3262380D02*
X-24947524Y-3262380D01*
X-24614191Y-3643333D01*
X-24757048Y-3643333D01*
X-24852286Y-3690952D01*
X-24899905Y-3738571D01*
X-24947524Y-3833809D01*
X-24947524Y-4071904D01*
X-24899905Y-4167142D01*
X-24852286Y-4214761D01*
X-24757048Y-4262380D01*
X-24471334Y-4262380D01*
X-24376096Y-4214761D01*
X-24328477Y-4167142D01*
X-25423715Y-4262380D02*
X-25614191Y-4262380D01*
X-25709429Y-4214761D01*
X-25757048Y-4167142D01*
X-25852286Y-4024285D01*
X-25899905Y-3833809D01*
X-25899905Y-3452857D01*
X-25852286Y-3357619D01*
X-25804667Y-3310000D01*
X-25709429Y-3262380D01*
X-25518953Y-3262380D01*
X-25423715Y-3310000D01*
X-25376096Y-3357619D01*
X-25328477Y-3452857D01*
X-25328477Y-3690952D01*
X-25376096Y-3786190D01*
X-25423715Y-3833809D01*
X-25518953Y-3881428D01*
X-25709429Y-3881428D01*
X-25804667Y-3833809D01*
X-25852286Y-3786190D01*
X-25899905Y-3690952D01*
%TO.C,R44*%
X-36377620Y-5656342D02*
X-36853810Y-5323009D01*
X-36377620Y-5084914D02*
X-37377620Y-5084914D01*
X-37377620Y-5465866D01*
X-37330000Y-5561104D01*
X-37282381Y-5608723D01*
X-37187143Y-5656342D01*
X-37044286Y-5656342D01*
X-36949048Y-5608723D01*
X-36901429Y-5561104D01*
X-36853810Y-5465866D01*
X-36853810Y-5084914D01*
X-37044286Y-6513485D02*
X-36377620Y-6513485D01*
X-37425239Y-6275390D02*
X-36710953Y-6037295D01*
X-36710953Y-6656342D01*
X-37044286Y-7465866D02*
X-36377620Y-7465866D01*
X-37425239Y-7227771D02*
X-36710953Y-6989676D01*
X-36710953Y-7608723D01*
%TO.C,U6*%
X-60960096Y-11366380D02*
X-60960096Y-12175904D01*
X-61007715Y-12271142D01*
X-61055334Y-12318761D01*
X-61150572Y-12366380D01*
X-61341048Y-12366380D01*
X-61436286Y-12318761D01*
X-61483905Y-12271142D01*
X-61531524Y-12175904D01*
X-61531524Y-11366380D01*
X-62436286Y-11366380D02*
X-62245810Y-11366380D01*
X-62150572Y-11414000D01*
X-62102953Y-11461619D01*
X-62007715Y-11604476D01*
X-61960096Y-11794952D01*
X-61960096Y-12175904D01*
X-62007715Y-12271142D01*
X-62055334Y-12318761D01*
X-62150572Y-12366380D01*
X-62341048Y-12366380D01*
X-62436286Y-12318761D01*
X-62483905Y-12271142D01*
X-62531524Y-12175904D01*
X-62531524Y-11937809D01*
X-62483905Y-11842571D01*
X-62436286Y-11794952D01*
X-62341048Y-11747333D01*
X-62150572Y-11747333D01*
X-62055334Y-11794952D01*
X-62007715Y-11842571D01*
X-61960096Y-11937809D01*
%TO.C,R22*%
X-60317143Y17327620D02*
X-59983810Y17803810D01*
X-59745715Y17327620D02*
X-59745715Y18327620D01*
X-60126667Y18327620D01*
X-60221905Y18280000D01*
X-60269524Y18232381D01*
X-60317143Y18137143D01*
X-60317143Y17994286D01*
X-60269524Y17899048D01*
X-60221905Y17851429D01*
X-60126667Y17803810D01*
X-59745715Y17803810D01*
X-60698096Y18232381D02*
X-60745715Y18280000D01*
X-60840953Y18327620D01*
X-61079048Y18327620D01*
X-61174286Y18280000D01*
X-61221905Y18232381D01*
X-61269524Y18137143D01*
X-61269524Y18041905D01*
X-61221905Y17899048D01*
X-60650477Y17327620D01*
X-61269524Y17327620D01*
X-61650477Y18232381D02*
X-61698096Y18280000D01*
X-61793334Y18327620D01*
X-62031429Y18327620D01*
X-62126667Y18280000D01*
X-62174286Y18232381D01*
X-62221905Y18137143D01*
X-62221905Y18041905D01*
X-62174286Y17899048D01*
X-61602858Y17327620D01*
X-62221905Y17327620D01*
%TO.C,R45*%
X-35107620Y-5656342D02*
X-35583810Y-5323009D01*
X-35107620Y-5084914D02*
X-36107620Y-5084914D01*
X-36107620Y-5465866D01*
X-36060000Y-5561104D01*
X-36012381Y-5608723D01*
X-35917143Y-5656342D01*
X-35774286Y-5656342D01*
X-35679048Y-5608723D01*
X-35631429Y-5561104D01*
X-35583810Y-5465866D01*
X-35583810Y-5084914D01*
X-35774286Y-6513485D02*
X-35107620Y-6513485D01*
X-36155239Y-6275390D02*
X-35440953Y-6037295D01*
X-35440953Y-6656342D01*
X-36107620Y-7513485D02*
X-36107620Y-7037295D01*
X-35631429Y-6989676D01*
X-35679048Y-7037295D01*
X-35726667Y-7132533D01*
X-35726667Y-7370628D01*
X-35679048Y-7465866D01*
X-35631429Y-7513485D01*
X-35536191Y-7561104D01*
X-35298096Y-7561104D01*
X-35202858Y-7513485D01*
X-35155239Y-7465866D01*
X-35107620Y-7370628D01*
X-35107620Y-7132533D01*
X-35155239Y-7037295D01*
X-35202858Y-6989676D01*
%TO.C,U5*%
X-7127620Y2539905D02*
X-6318096Y2539905D01*
X-6222858Y2492286D01*
X-6175239Y2444667D01*
X-6127620Y2349429D01*
X-6127620Y2158953D01*
X-6175239Y2063715D01*
X-6222858Y2016096D01*
X-6318096Y1968477D01*
X-7127620Y1968477D01*
X-7127620Y1016096D02*
X-7127620Y1492286D01*
X-6651429Y1539905D01*
X-6699048Y1492286D01*
X-6746667Y1397048D01*
X-6746667Y1158953D01*
X-6699048Y1063715D01*
X-6651429Y1016096D01*
X-6556191Y968477D01*
X-6318096Y968477D01*
X-6222858Y1016096D01*
X-6175239Y1063715D01*
X-6127620Y1158953D01*
X-6127620Y1397048D01*
X-6175239Y1492286D01*
X-6222858Y1539905D01*
%TO.C,R52*%
X-9199620Y19565858D02*
X-9675810Y19899191D01*
X-9199620Y20137286D02*
X-10199620Y20137286D01*
X-10199620Y19756334D01*
X-10152000Y19661096D01*
X-10104381Y19613477D01*
X-10009143Y19565858D01*
X-9866286Y19565858D01*
X-9771048Y19613477D01*
X-9723429Y19661096D01*
X-9675810Y19756334D01*
X-9675810Y20137286D01*
X-10199620Y18661096D02*
X-10199620Y19137286D01*
X-9723429Y19184905D01*
X-9771048Y19137286D01*
X-9818667Y19042048D01*
X-9818667Y18803953D01*
X-9771048Y18708715D01*
X-9723429Y18661096D01*
X-9628191Y18613477D01*
X-9390096Y18613477D01*
X-9294858Y18661096D01*
X-9247239Y18708715D01*
X-9199620Y18803953D01*
X-9199620Y19042048D01*
X-9247239Y19137286D01*
X-9294858Y19184905D01*
X-10104381Y18232524D02*
X-10152000Y18184905D01*
X-10199620Y18089667D01*
X-10199620Y17851572D01*
X-10152000Y17756334D01*
X-10104381Y17708715D01*
X-10009143Y17661096D01*
X-9913905Y17661096D01*
X-9771048Y17708715D01*
X-9199620Y18280143D01*
X-9199620Y17661096D01*
%TO.C,R62*%
X-77081143Y-15946380D02*
X-76747810Y-15470190D01*
X-76509715Y-15946380D02*
X-76509715Y-14946380D01*
X-76890667Y-14946380D01*
X-76985905Y-14994000D01*
X-77033524Y-15041619D01*
X-77081143Y-15136857D01*
X-77081143Y-15279714D01*
X-77033524Y-15374952D01*
X-76985905Y-15422571D01*
X-76890667Y-15470190D01*
X-76509715Y-15470190D01*
X-77938286Y-14946380D02*
X-77747810Y-14946380D01*
X-77652572Y-14994000D01*
X-77604953Y-15041619D01*
X-77509715Y-15184476D01*
X-77462096Y-15374952D01*
X-77462096Y-15755904D01*
X-77509715Y-15851142D01*
X-77557334Y-15898761D01*
X-77652572Y-15946380D01*
X-77843048Y-15946380D01*
X-77938286Y-15898761D01*
X-77985905Y-15851142D01*
X-78033524Y-15755904D01*
X-78033524Y-15517809D01*
X-77985905Y-15422571D01*
X-77938286Y-15374952D01*
X-77843048Y-15327333D01*
X-77652572Y-15327333D01*
X-77557334Y-15374952D01*
X-77509715Y-15422571D01*
X-77462096Y-15517809D01*
X-78414477Y-15041619D02*
X-78462096Y-14994000D01*
X-78557334Y-14946380D01*
X-78795429Y-14946380D01*
X-78890667Y-14994000D01*
X-78938286Y-15041619D01*
X-78985905Y-15136857D01*
X-78985905Y-15232095D01*
X-78938286Y-15374952D01*
X-78366858Y-15946380D01*
X-78985905Y-15946380D01*
D14*
%TO.C,R55*%
X-15013000Y15520936D02*
X-15013000Y15975064D01*
X-16483000Y15520936D02*
X-16483000Y15975064D01*
%TO.C,JUT1*%
X-20132000Y-17965949D02*
X-22792000Y-17965949D01*
X-22792000Y-7685949D02*
X-22792000Y-9015949D01*
X-20132000Y-10285949D02*
X-20132000Y-17965949D01*
X-22792000Y-10285949D02*
X-22792000Y-17965949D01*
X-20132000Y-10285949D02*
X-22792000Y-10285949D01*
X-21462000Y-7685949D02*
X-22792000Y-7685949D01*
%TO.C,R47*%
X-34645000Y-10069564D02*
X-34645000Y-9615436D01*
X-33175000Y-10069564D02*
X-33175000Y-9615436D01*
%TO.C,R42*%
X-23522000Y-12472936D02*
X-23522000Y-12927064D01*
X-24992000Y-12472936D02*
X-24992000Y-12927064D01*
%TO.C,R21*%
X-4291064Y-2565949D02*
X-3836936Y-2565949D01*
X-4291064Y-4035949D02*
X-3836936Y-4035949D01*
%TO.C,JP7*%
X-16380000Y-26462000D02*
X-16380000Y-25862000D01*
X-19180000Y-25862000D02*
X-19180000Y-26462000D01*
X-17080000Y-25162000D02*
X-18480000Y-25162000D01*
X-18480000Y-27162000D02*
X-17080000Y-27162000D01*
X-18480000Y-25162000D02*
G75*
G03*
X-19180000Y-25862000I-1J-699999D01*
G01*
X-17080000Y-27162000D02*
G75*
G03*
X-16380000Y-26462000I1J699999D01*
G01*
X-19180000Y-26462000D02*
G75*
G03*
X-18480000Y-27162000I699999J-1D01*
G01*
X-16380000Y-25862000D02*
G75*
G03*
X-17080000Y-25162000I-699999J1D01*
G01*
%TO.C,R13*%
X-41936936Y-19277000D02*
X-42391064Y-19277000D01*
X-41936936Y-17807000D02*
X-42391064Y-17807000D01*
%TO.C,R36*%
X-58447000Y-23140936D02*
X-58447000Y-23595064D01*
X-59917000Y-23140936D02*
X-59917000Y-23595064D01*
%TO.C,R41*%
X-24918936Y4853000D02*
X-25373064Y4853000D01*
X-24918936Y6323000D02*
X-25373064Y6323000D01*
%TO.C,R64*%
X-74194936Y-19839000D02*
X-74649064Y-19839000D01*
X-74194936Y-21309000D02*
X-74649064Y-21309000D01*
%TO.C,R29*%
X-52043064Y-2186000D02*
X-51588936Y-2186000D01*
X-52043064Y-3656000D02*
X-51588936Y-3656000D01*
%TO.C,R61*%
X-74194936Y-12219000D02*
X-74649064Y-12219000D01*
X-74194936Y-13689000D02*
X-74649064Y-13689000D01*
%TO.C,C5*%
X-4056748Y7647000D02*
X-4579252Y7647000D01*
X-4056748Y9117000D02*
X-4579252Y9117000D01*
%TO.C,R40*%
X-24918936Y2313000D02*
X-25373064Y2313000D01*
X-24918936Y3783000D02*
X-25373064Y3783000D01*
%TO.C,C6*%
X-63273000Y-23629252D02*
X-63273000Y-23106748D01*
X-64743000Y-23629252D02*
X-64743000Y-23106748D01*
%TO.C,J2-1*%
X-30412446Y-24890949D02*
X-30412446Y-32570949D01*
X-27752446Y-32570949D02*
X-30412446Y-32570949D01*
X-27752446Y-24890949D02*
X-30412446Y-24890949D01*
X-30412446Y-22290949D02*
X-30412446Y-23620949D01*
X-29082446Y-22290949D02*
X-30412446Y-22290949D01*
X-27752446Y-24890949D02*
X-27752446Y-32570949D01*
%TO.C,JD1*%
X-20132000Y-3360949D02*
X-22792000Y-3360949D01*
X-21462000Y6919051D02*
X-22792000Y6919051D01*
X-20132000Y4319051D02*
X-20132000Y-3360949D01*
X-20132000Y4319051D02*
X-22792000Y4319051D01*
X-22792000Y6919051D02*
X-22792000Y5589051D01*
X-22792000Y4319051D02*
X-22792000Y-3360949D01*
%TO.C,JP6*%
X-18480000Y-29702000D02*
X-17080000Y-29702000D01*
X-16380000Y-29002000D02*
X-16380000Y-28402000D01*
X-19180000Y-28402000D02*
X-19180000Y-29002000D01*
X-17080000Y-27702000D02*
X-18480000Y-27702000D01*
X-16380000Y-28402000D02*
G75*
G03*
X-17080000Y-27702000I-699999J1D01*
G01*
X-18480000Y-27702000D02*
G75*
G03*
X-19180000Y-28402000I-1J-699999D01*
G01*
X-17080000Y-29702000D02*
G75*
G03*
X-16380000Y-29002000I1J699999D01*
G01*
X-19180000Y-29002000D02*
G75*
G03*
X-18480000Y-29702000I699999J-1D01*
G01*
%TO.C,R66*%
X-74194936Y-24919000D02*
X-74649064Y-24919000D01*
X-74194936Y-26389000D02*
X-74649064Y-26389000D01*
%TO.C,R9*%
X-41936936Y-27967000D02*
X-42391064Y-27967000D01*
X-41936936Y-29437000D02*
X-42391064Y-29437000D01*
%TO.C,U7*%
X-87860000Y-22452949D02*
X-87860000Y-25452949D01*
X-84860000Y-22452949D02*
X-84860000Y-26452949D01*
%TO.C,C4*%
X-7358748Y-8536000D02*
X-7881252Y-8536000D01*
X-7358748Y-10006000D02*
X-7881252Y-10006000D01*
%TO.C,R5*%
X-4545064Y7085000D02*
X-4090936Y7085000D01*
X-4545064Y5615000D02*
X-4090936Y5615000D01*
%TO.C,R23*%
X-57684936Y16483000D02*
X-58139064Y16483000D01*
X-57684936Y15013000D02*
X-58139064Y15013000D01*
%TO.C,R20*%
X-4291064Y-4497400D02*
X-3836936Y-4497400D01*
X-4291064Y-5967400D02*
X-3836936Y-5967400D01*
%TO.C,R50*%
X-6323000Y15520936D02*
X-6323000Y15975064D01*
X-4853000Y15520936D02*
X-4853000Y15975064D01*
%TO.C,JP2*%
X-33466000Y-27162000D02*
X-32066000Y-27162000D01*
X-34166000Y-25862000D02*
X-34166000Y-26462000D01*
X-32066000Y-25162000D02*
X-33466000Y-25162000D01*
X-31366000Y-26462000D02*
X-31366000Y-25862000D01*
X-31366000Y-25862000D02*
G75*
G03*
X-32066000Y-25162000I-699999J1D01*
G01*
X-34166000Y-26462000D02*
G75*
G03*
X-33466000Y-27162000I699999J-1D01*
G01*
X-32066000Y-27162000D02*
G75*
G03*
X-31366000Y-26462000I1J699999D01*
G01*
X-33466000Y-25162000D02*
G75*
G03*
X-34166000Y-25862000I-1J-699999D01*
G01*
%TO.C,R56*%
X-18515000Y15520936D02*
X-18515000Y15975064D01*
X-17045000Y15520936D02*
X-17045000Y15975064D01*
%TO.C,R12*%
X-41936936Y-21817000D02*
X-42391064Y-21817000D01*
X-41936936Y-20347000D02*
X-42391064Y-20347000D01*
%TO.C,JADC1*%
X-27752446Y-3360949D02*
X-30412446Y-3360949D01*
X-29082446Y6919051D02*
X-30412446Y6919051D01*
X-30412446Y6919051D02*
X-30412446Y5589051D01*
X-30412446Y4319051D02*
X-30412446Y-3360949D01*
X-27752446Y4319051D02*
X-30412446Y4319051D01*
X-27752446Y4319051D02*
X-27752446Y-3360949D01*
%TO.C,R30*%
X-52043064Y-4726000D02*
X-51588936Y-4726000D01*
X-52043064Y-6196000D02*
X-51588936Y-6196000D01*
%TO.C,JP1*%
X-32066000Y-22622000D02*
X-33466000Y-22622000D01*
X-33466000Y-24622000D02*
X-32066000Y-24622000D01*
X-31366000Y-23922000D02*
X-31366000Y-23322000D01*
X-34166000Y-23322000D02*
X-34166000Y-23922000D01*
X-31366000Y-23322000D02*
G75*
G03*
X-32066000Y-22622000I-699999J1D01*
G01*
X-33466000Y-22622000D02*
G75*
G03*
X-34166000Y-23322000I-1J-699999D01*
G01*
X-32066000Y-24622000D02*
G75*
G03*
X-31366000Y-23922000I1J699999D01*
G01*
X-34166000Y-23922000D02*
G75*
G03*
X-33466000Y-24622000I699999J-1D01*
G01*
%TO.C,JVIN1*%
X-9083000Y26222000D02*
X-9083000Y26102000D01*
X-9083000Y26102000D02*
X-11743000Y26102000D01*
X-11743000Y28762000D02*
X-11743000Y27432000D01*
X-11743000Y26222000D02*
X-11743000Y26102000D01*
X-10413000Y28762000D02*
X-11743000Y28762000D01*
%TO.C,R49*%
X-2821000Y15520936D02*
X-2821000Y15975064D01*
X-4291000Y15520936D02*
X-4291000Y15975064D01*
%TO.C,R67*%
X-74194936Y-28929000D02*
X-74649064Y-28929000D01*
X-74194936Y-27459000D02*
X-74649064Y-27459000D01*
%TO.C,R16*%
X-41936936Y-11657000D02*
X-42391064Y-11657000D01*
X-41936936Y-10187000D02*
X-42391064Y-10187000D01*
%TO.C,JP3*%
X-32066000Y-27702000D02*
X-33466000Y-27702000D01*
X-31366000Y-29002000D02*
X-31366000Y-28402000D01*
X-33466000Y-29702000D02*
X-32066000Y-29702000D01*
X-34166000Y-28402000D02*
X-34166000Y-29002000D01*
X-32066000Y-29702000D02*
G75*
G03*
X-31366000Y-29002000I1J699999D01*
G01*
X-31366000Y-28402000D02*
G75*
G03*
X-32066000Y-27702000I-699999J1D01*
G01*
X-34166000Y-29002000D02*
G75*
G03*
X-33466000Y-29702000I699999J-1D01*
G01*
X-33466000Y-27702000D02*
G75*
G03*
X-34166000Y-28402000I-1J-699999D01*
G01*
%TO.C,JP4*%
X-33466000Y-32242000D02*
X-32066000Y-32242000D01*
X-32066000Y-30242000D02*
X-33466000Y-30242000D01*
X-34166000Y-30942000D02*
X-34166000Y-31542000D01*
X-31366000Y-31542000D02*
X-31366000Y-30942000D01*
X-34166000Y-31542000D02*
G75*
G03*
X-33466000Y-32242000I699999J-1D01*
G01*
X-32066000Y-32242000D02*
G75*
G03*
X-31366000Y-31542000I1J699999D01*
G01*
X-33466000Y-30242000D02*
G75*
G03*
X-34166000Y-30942000I-1J-699999D01*
G01*
X-31366000Y-30942000D02*
G75*
G03*
X-32066000Y-30242000I-699999J1D01*
G01*
%TO.C,C7-2*%
X-82958000Y-23045748D02*
X-82958000Y-23568252D01*
X-84428000Y-23045748D02*
X-84428000Y-23568252D01*
%TO.C,R59*%
X-74194936Y-8609000D02*
X-74649064Y-8609000D01*
X-74194936Y-7139000D02*
X-74649064Y-7139000D01*
%TO.C,R51*%
X-6885000Y15520936D02*
X-6885000Y15975064D01*
X-8355000Y15520936D02*
X-8355000Y15975064D01*
%TO.C,R19*%
X-4291064Y-6427800D02*
X-3836936Y-6427800D01*
X-4291064Y-7897800D02*
X-3836936Y-7897800D01*
%TO.C,R38*%
X-19023000Y-1497064D02*
X-19023000Y-1042936D01*
X-17553000Y-1497064D02*
X-17553000Y-1042936D01*
%TO.C,R58*%
X-74194936Y-4599000D02*
X-74649064Y-4599000D01*
X-74194936Y-6069000D02*
X-74649064Y-6069000D01*
%TO.C,R34*%
X-52043064Y-14886000D02*
X-51588936Y-14886000D01*
X-52043064Y-16356000D02*
X-51588936Y-16356000D01*
%TO.C,R7-1*%
X-86100298Y-20697049D02*
X-86554426Y-20697049D01*
X-86100298Y-19227049D02*
X-86554426Y-19227049D01*
%TO.C,R7-2*%
X-86569626Y-30552249D02*
X-86115498Y-30552249D01*
X-86569626Y-29082249D02*
X-86115498Y-29082249D01*
%TO.C,R25*%
X-57684936Y10949000D02*
X-58139064Y10949000D01*
X-57684936Y12419000D02*
X-58139064Y12419000D01*
%TO.C,R35*%
X-56415000Y-23140936D02*
X-56415000Y-23595064D01*
X-57885000Y-23140936D02*
X-57885000Y-23595064D01*
%TO.C,JP5*%
X-19180000Y-30942000D02*
X-19180000Y-31542000D01*
X-17080000Y-30242000D02*
X-18480000Y-30242000D01*
X-16380000Y-31542000D02*
X-16380000Y-30942000D01*
X-18480000Y-32242000D02*
X-17080000Y-32242000D01*
X-16380000Y-30942000D02*
G75*
G03*
X-17080000Y-30242000I-699999J1D01*
G01*
X-19180000Y-31542000D02*
G75*
G03*
X-18480000Y-32242000I699999J-1D01*
G01*
X-17080000Y-32242000D02*
G75*
G03*
X-16380000Y-31542000I1J699999D01*
G01*
X-18480000Y-30242000D02*
G75*
G03*
X-19180000Y-30942000I-1J-699999D01*
G01*
%TO.C,R4*%
X-8028000Y-11710936D02*
X-8028000Y-12165064D01*
X-9498000Y-11710936D02*
X-9498000Y-12165064D01*
%TO.C,J3V1*%
X-65469000Y11170000D02*
X-65469000Y11050000D01*
X-68129000Y13710000D02*
X-68129000Y12380000D01*
X-65469000Y11050000D02*
X-68129000Y11050000D01*
X-66799000Y13710000D02*
X-68129000Y13710000D01*
X-68129000Y11170000D02*
X-68129000Y11050000D01*
%TO.C,R43*%
X-26947800Y-12472936D02*
X-26947800Y-12927064D01*
X-25477800Y-12472936D02*
X-25477800Y-12927064D01*
%TO.C,R65*%
X-74194936Y-23849000D02*
X-74649064Y-23849000D01*
X-74194936Y-22379000D02*
X-74649064Y-22379000D01*
%TO.C,R37*%
X-61949000Y-23140936D02*
X-61949000Y-23595064D01*
X-60479000Y-23140936D02*
X-60479000Y-23595064D01*
%TO.C,R46*%
X-31143000Y-10069564D02*
X-31143000Y-9615436D01*
X-32613000Y-10069564D02*
X-32613000Y-9615436D01*
%TO.C,R27*%
X-45492936Y9244000D02*
X-45947064Y9244000D01*
X-45492936Y7774000D02*
X-45947064Y7774000D01*
%TO.C,JGPS1*%
X-82229000Y-21280000D02*
X-82229000Y-31500000D01*
X-79569000Y-21280000D02*
X-79569000Y-31500000D01*
X-79569000Y-21280000D02*
X-82229000Y-21280000D01*
X-79569000Y-31500000D02*
X-82229000Y-31500000D01*
X-80899000Y-18680000D02*
X-82229000Y-18680000D01*
X-82229000Y-18680000D02*
X-82229000Y-20010000D01*
%TO.C,R57*%
X-20547000Y15520936D02*
X-20547000Y15975064D01*
X-19077000Y15520936D02*
X-19077000Y15975064D01*
%TO.C,R8*%
X-13125728Y-18689784D02*
X-12804611Y-18368667D01*
X-12086281Y-19729231D02*
X-11765164Y-19408114D01*
%TO.C,R24*%
X-57684936Y14451000D02*
X-58139064Y14451000D01*
X-57684936Y12981000D02*
X-58139064Y12981000D01*
%TO.C,C7-1*%
X-86081310Y-28521549D02*
X-86603814Y-28521549D01*
X-86081310Y-27051549D02*
X-86603814Y-27051549D01*
%TO.C,R60*%
X-74194936Y-11149000D02*
X-74649064Y-11149000D01*
X-74194936Y-9679000D02*
X-74649064Y-9679000D01*
%TO.C,R17*%
X-41936936Y-9117000D02*
X-42391064Y-9117000D01*
X-41936936Y-7647000D02*
X-42391064Y-7647000D01*
%TO.C,JAUX1*%
X-66868000Y-34666500D02*
X-66868000Y-33336500D01*
X-68198000Y-34666500D02*
X-66868000Y-34666500D01*
X-69528000Y-32066500D02*
X-66868000Y-32066500D01*
X-69528000Y-32066500D02*
X-69528000Y-4066500D01*
X-69528000Y-4066500D02*
X-66868000Y-4066500D01*
X-66868000Y-32066500D02*
X-66868000Y-4066500D01*
%TO.C,J2-2*%
X-20132000Y-24890949D02*
X-20132000Y-32570949D01*
X-22792000Y-22290949D02*
X-22792000Y-23620949D01*
X-21462000Y-22290949D02*
X-22792000Y-22290949D01*
X-20132000Y-32570949D02*
X-22792000Y-32570949D01*
X-22792000Y-24890949D02*
X-22792000Y-32570949D01*
X-20132000Y-24890949D02*
X-22792000Y-24890949D01*
%TO.C,R33*%
X-52043064Y-12346000D02*
X-51588936Y-12346000D01*
X-52043064Y-13816000D02*
X-51588936Y-13816000D01*
%TO.C,R48*%
X-2259000Y15520936D02*
X-2259000Y15975064D01*
X-789000Y15520936D02*
X-789000Y15975064D01*
%TO.C,R10*%
X-41936936Y-26897000D02*
X-42391064Y-26897000D01*
X-41936936Y-25427000D02*
X-42391064Y-25427000D01*
%TO.C,R28*%
X-45492936Y2843200D02*
X-45947064Y2843200D01*
X-45492936Y1373200D02*
X-45947064Y1373200D01*
%TO.C,R63*%
X-74194936Y-18769000D02*
X-74649064Y-18769000D01*
X-74194936Y-17299000D02*
X-74649064Y-17299000D01*
%TO.C,U4*%
X-9935000Y-12700000D02*
X-9935000Y-10500000D01*
X-9935000Y-12700000D02*
X-9935000Y-16300000D01*
X-18005000Y-12700000D02*
X-18005000Y-10500000D01*
X-18005000Y-12700000D02*
X-18005000Y-14900000D01*
%TO.C,R11*%
X-41936936Y-24357000D02*
X-42391064Y-24357000D01*
X-41936936Y-22887000D02*
X-42391064Y-22887000D01*
%TO.C,JP8*%
X-19180000Y-23322000D02*
X-19180000Y-23922000D01*
X-17080000Y-22622000D02*
X-18480000Y-22622000D01*
X-18480000Y-24622000D02*
X-17080000Y-24622000D01*
X-16380000Y-23922000D02*
X-16380000Y-23322000D01*
X-19180000Y-23922000D02*
G75*
G03*
X-18480000Y-24622000I699999J-1D01*
G01*
X-17080000Y-24622000D02*
G75*
G03*
X-16380000Y-23922000I1J699999D01*
G01*
X-16380000Y-23322000D02*
G75*
G03*
X-17080000Y-22622000I-699999J1D01*
G01*
X-18480000Y-22622000D02*
G75*
G03*
X-19180000Y-23322000I-1J-699999D01*
G01*
%TO.C,JP10*%
X-27810000Y-34590000D02*
X-27810000Y-33990000D01*
X-29910000Y-35290000D02*
X-28510000Y-35290000D01*
X-28510000Y-33290000D02*
X-29910000Y-33290000D01*
X-30610000Y-33990000D02*
X-30610000Y-34590000D01*
X-30610000Y-34590000D02*
G75*
G03*
X-29910000Y-35290000I699999J-1D01*
G01*
X-27810000Y-33990000D02*
G75*
G03*
X-28510000Y-33290000I-699999J1D01*
G01*
X-29910000Y-33290000D02*
G75*
G03*
X-30610000Y-33990000I-1J-699999D01*
G01*
X-28510000Y-35290000D02*
G75*
G03*
X-27810000Y-34590000I1J699999D01*
G01*
%TO.C,R6*%
X-63781000Y-10791564D02*
X-63781000Y-10337436D01*
X-65251000Y-10791564D02*
X-65251000Y-10337436D01*
%TO.C,R31*%
X-52043064Y-7266000D02*
X-51588936Y-7266000D01*
X-52043064Y-8736000D02*
X-51588936Y-8736000D01*
%TO.C,R18*%
X-4291064Y-8358200D02*
X-3836936Y-8358200D01*
X-4291064Y-9828200D02*
X-3836936Y-9828200D01*
%TO.C,R53*%
X-10949000Y15520936D02*
X-10949000Y15975064D01*
X-12419000Y15520936D02*
X-12419000Y15975064D01*
%TO.C,R54*%
X-12981000Y15520936D02*
X-12981000Y15975064D01*
X-14451000Y15520936D02*
X-14451000Y15975064D01*
%TO.C,R32*%
X-52043064Y-11276000D02*
X-51588936Y-11276000D01*
X-52043064Y-9806000D02*
X-51588936Y-9806000D01*
%TO.C,R26*%
X-57684936Y8917000D02*
X-58139064Y8917000D01*
X-57684936Y10387000D02*
X-58139064Y10387000D01*
%TO.C,R15*%
X-41936936Y-12727000D02*
X-42391064Y-12727000D01*
X-41936936Y-14197000D02*
X-42391064Y-14197000D01*
%TO.C,JP9*%
X-24508000Y-34590000D02*
X-24508000Y-33990000D01*
X-26608000Y-35290000D02*
X-25208000Y-35290000D01*
X-27308000Y-33990000D02*
X-27308000Y-34590000D01*
X-25208000Y-33290000D02*
X-26608000Y-33290000D01*
X-27308000Y-34590000D02*
G75*
G03*
X-26608000Y-35290000I699999J-1D01*
G01*
X-24508000Y-33990000D02*
G75*
G03*
X-25208000Y-33290000I-699999J1D01*
G01*
X-26608000Y-33290000D02*
G75*
G03*
X-27308000Y-33990000I-1J-699999D01*
G01*
X-25208000Y-35290000D02*
G75*
G03*
X-24508000Y-34590000I1J699999D01*
G01*
%TO.C,JAPC1*%
X-29082446Y-7685949D02*
X-30412446Y-7685949D01*
X-27752446Y-17965949D02*
X-30412446Y-17965949D01*
X-27752446Y-10285949D02*
X-27752446Y-17965949D01*
X-30412446Y-10285949D02*
X-30412446Y-17965949D01*
X-27752446Y-10285949D02*
X-30412446Y-10285949D01*
X-30412446Y-7685949D02*
X-30412446Y-9015949D01*
%TO.C,R14*%
X-41936936Y-16737000D02*
X-42391064Y-16737000D01*
X-41936936Y-15267000D02*
X-42391064Y-15267000D01*
%TO.C,R39*%
X-24918936Y1243000D02*
X-25373064Y1243000D01*
X-24918936Y-227000D02*
X-25373064Y-227000D01*
%TO.C,R44*%
X-33175000Y-6059436D02*
X-33175000Y-6513564D01*
X-34645000Y-6059436D02*
X-34645000Y-6513564D01*
%TO.C,U6*%
X-61722000Y-20799000D02*
X-63922000Y-20799000D01*
X-61722000Y-20799000D02*
X-59522000Y-20799000D01*
X-61722000Y-12729000D02*
X-58122000Y-12729000D01*
X-61722000Y-12729000D02*
X-63922000Y-12729000D01*
%TO.C,R22*%
X-57684936Y18515000D02*
X-58139064Y18515000D01*
X-57684936Y17045000D02*
X-58139064Y17045000D01*
%TO.C,R45*%
X-31143000Y-6059436D02*
X-31143000Y-6513564D01*
X-32613000Y-6059436D02*
X-32613000Y-6513564D01*
%TO.C,U5*%
X-7395000Y1778000D02*
X-7395000Y-1822000D01*
X-15465000Y1778000D02*
X-15465000Y3978000D01*
X-7395000Y1778000D02*
X-7395000Y3978000D01*
X-15465000Y1778000D02*
X-15465000Y-422000D01*
%TO.C,R52*%
X-10387000Y15520936D02*
X-10387000Y15975064D01*
X-8917000Y15520936D02*
X-8917000Y15975064D01*
%TO.C,R62*%
X-74194936Y-14759000D02*
X-74649064Y-14759000D01*
X-74194936Y-16229000D02*
X-74649064Y-16229000D01*
%TD*%
M02*
