%TF.GenerationSoftware,KiCad,Pcbnew,6.0.2+dfsg-1*%
%TF.CreationDate,2023-07-10T21:47:24-06:00*%
%TF.ProjectId,SpectDrone,53706563-7444-4726-9f6e-652e6b696361,rev?*%
%TF.SameCoordinates,PXd18240cPY697af44*%
%TF.FileFunction,Profile,NP*%
%FSLAX46Y46*%
G04 Gerber Fmt 4.6, Leading zero omitted, Abs format (unit mm)*
G04 Created by KiCad (PCBNEW 6.0.2+dfsg-1) date 2023-07-10 21:47:24*
%MOMM*%
%LPD*%
G01*
G04 APERTURE LIST*
%TA.AperFunction,Profile*%
%ADD10C,0.100000*%
%TD*%
G04 APERTURE END LIST*
D10*
X57148700Y35560001D02*
G75*
G03*
X55878701Y36830000I-1269999J0D01*
G01*
X-199899300Y35433000D02*
X-199899300Y-35433000D01*
X-98299300Y2794000D02*
G75*
G03*
X-97791300Y2794000I254000J0D01*
G01*
X-97791300Y35433000D02*
X-97791300Y2794000D01*
X-198502300Y36830000D02*
G75*
G03*
X-199899300Y35433000I1J-1397001D01*
G01*
X-96394300Y36830000D02*
G75*
G03*
X-97791300Y35433000I1J-1397001D01*
G01*
X-99696300Y-36830000D02*
G75*
G03*
X-98299300Y-35433000I-1J1397001D01*
G01*
X55878700Y-36830000D02*
G75*
G03*
X57148700Y-35560001I1J1269999D01*
G01*
X-97795300Y-1672400D02*
G75*
G03*
X-97795300Y-1672400I-250000J0D01*
G01*
X-97791300Y-2794000D02*
G75*
G03*
X-98299300Y-2794000I-254000J0D01*
G01*
X57148700Y35560001D02*
X57148700Y-35560001D01*
X-97789600Y554800D02*
G75*
G03*
X-97789600Y554800I-250000J0D01*
G01*
X-198502300Y-36830000D02*
X-99696300Y-36830000D01*
X-198502300Y36830000D02*
X-99696300Y36830000D01*
X-97795300Y-554800D02*
G75*
G03*
X-97795300Y-554800I-250000J0D01*
G01*
X-96394300Y36830000D02*
X55878701Y36830000D01*
X-98299300Y-35433000D02*
X-98299300Y-2794000D01*
X55878700Y-36830000D02*
X-96394300Y-36830000D01*
X-98299300Y2794000D02*
X-98299300Y35433000D01*
X-97795300Y1672400D02*
G75*
G03*
X-97795300Y1672400I-250000J0D01*
G01*
X-97791300Y-35433000D02*
G75*
G03*
X-96394300Y-36830000I1397001J1D01*
G01*
X-97791300Y-2794000D02*
X-97791300Y-35433000D01*
X-199899300Y-35433000D02*
G75*
G03*
X-198502300Y-36830000I1397001J1D01*
G01*
X-98299300Y35433000D02*
G75*
G03*
X-99696300Y36830000I-1397001J-1D01*
G01*
M02*
