%TF.GenerationSoftware,KiCad,Pcbnew,6.0.2+dfsg-1*%
%TF.CreationDate,2023-07-10T21:47:24-06:00*%
%TF.ProjectId,SpectDrone,53706563-7444-4726-9f6e-652e6b696361,rev?*%
%TF.SameCoordinates,PXd18240cPY697af44*%
%TF.FileFunction,Soldermask,Bot*%
%TF.FilePolarity,Negative*%
%FSLAX46Y46*%
G04 Gerber Fmt 4.6, Leading zero omitted, Abs format (unit mm)*
G04 Created by KiCad (PCBNEW 6.0.2+dfsg-1) date 2023-07-10 21:47:24*
%MOMM*%
%LPD*%
G01*
G04 APERTURE LIST*
G04 Aperture macros list*
%AMRoundRect*
0 Rectangle with rounded corners*
0 $1 Rounding radius*
0 $2 $3 $4 $5 $6 $7 $8 $9 X,Y pos of 4 corners*
0 Add a 4 corners polygon primitive as box body*
4,1,4,$2,$3,$4,$5,$6,$7,$8,$9,$2,$3,0*
0 Add four circle primitives for the rounded corners*
1,1,$1+$1,$2,$3*
1,1,$1+$1,$4,$5*
1,1,$1+$1,$6,$7*
1,1,$1+$1,$8,$9*
0 Add four rect primitives between the rounded corners*
20,1,$1+$1,$2,$3,$4,$5,0*
20,1,$1+$1,$4,$5,$6,$7,0*
20,1,$1+$1,$6,$7,$8,$9,0*
20,1,$1+$1,$8,$9,$2,$3,0*%
%AMFreePoly0*
4,1,22,0.500000,-0.750000,0.000000,-0.750000,0.000000,-0.745033,-0.079941,-0.743568,-0.215256,-0.701293,-0.333266,-0.622738,-0.424486,-0.514219,-0.481581,-0.384460,-0.499164,-0.250000,-0.500000,-0.250000,-0.500000,0.250000,-0.499164,0.250000,-0.499963,0.256109,-0.478152,0.396186,-0.417904,0.524511,-0.324060,0.630769,-0.204165,0.706417,-0.067858,0.745374,0.000000,0.744959,0.000000,0.750000,
0.500000,0.750000,0.500000,-0.750000,0.500000,-0.750000,$1*%
%AMFreePoly1*
4,1,20,0.000000,0.744959,0.073905,0.744508,0.209726,0.703889,0.328688,0.626782,0.421226,0.519385,0.479903,0.390333,0.500000,0.250000,0.500000,-0.250000,0.499851,-0.262216,0.476331,-0.402017,0.414519,-0.529596,0.319384,-0.634700,0.198574,-0.708877,0.061801,-0.746166,0.000000,-0.745033,0.000000,-0.750000,-0.500000,-0.750000,-0.500000,0.750000,0.000000,0.750000,0.000000,0.744959,
0.000000,0.744959,$1*%
%AMFreePoly2*
4,1,16,0.300000,-0.231000,-0.349600,-0.231000,-0.349600,-0.230920,-0.350000,-0.231000,-0.438400,-0.213416,-0.513342,-0.163342,-0.563416,-0.088400,-0.581000,0.000000,-0.563416,0.088400,-0.513342,0.163342,-0.438400,0.213416,-0.350000,0.231000,-0.349600,0.230920,-0.349600,0.231000,0.300000,0.231000,0.300000,-0.231000,0.300000,-0.231000,$1*%
%AMFreePoly3*
4,1,12,0.350000,0.230000,0.438017,0.212492,0.512635,0.162635,0.562492,0.088017,0.580000,0.000000,0.562492,-0.088017,0.512635,-0.162635,0.438017,-0.212492,0.350000,-0.230000,-0.300000,-0.231000,-0.300000,0.231000,0.350000,0.230000,0.350000,0.230000,$1*%
%AMFreePoly4*
4,1,9,3.862500,-0.866500,0.737500,-0.866500,0.737500,-0.450000,-0.737500,-0.450000,-0.737500,0.450000,0.737500,0.450000,0.737500,0.866500,3.862500,0.866500,3.862500,-0.866500,3.862500,-0.866500,$1*%
%AMFreePoly5*
4,1,13,0.412500,-0.525000,-0.137500,-0.525000,-0.242738,-0.504067,-0.331954,-0.444454,-0.391567,-0.355238,-0.412500,-0.250000,-0.412500,0.250000,-0.391567,0.355238,-0.331954,0.444454,-0.242738,0.504067,-0.137500,0.525000,0.412500,0.525000,0.412500,-0.525000,0.412500,-0.525000,$1*%
%AMFreePoly6*
4,1,13,0.242738,0.504067,0.331954,0.444454,0.391567,0.355238,0.412500,0.250000,0.412500,-0.250000,0.391567,-0.355238,0.331954,-0.444454,0.242738,-0.504067,0.137500,-0.525000,-0.412500,-0.525000,-0.412500,0.525000,0.137500,0.525000,0.242738,0.504067,0.242738,0.504067,$1*%
G04 Aperture macros list end*
%ADD10C,2.600000*%
%ADD11C,3.800000*%
%ADD12C,2.500000*%
%ADD13C,1.700000*%
%ADD14R,1.700000X1.700000*%
%ADD15O,1.700000X1.700000*%
%ADD16RoundRect,0.249900X-0.450100X-0.450100X0.450100X-0.450100X0.450100X0.450100X-0.450100X0.450100X0*%
%ADD17C,1.400000*%
%ADD18C,1.440000*%
%ADD19O,1.600000X1.200000*%
%ADD20O,1.200000X1.200000*%
%ADD21R,1.500000X1.050000*%
%ADD22O,1.500000X1.050000*%
%ADD23C,2.000000*%
%ADD24RoundRect,0.250000X-0.450000X0.262500X-0.450000X-0.262500X0.450000X-0.262500X0.450000X0.262500X0*%
%ADD25FreePoly0,180.000000*%
%ADD26FreePoly1,180.000000*%
%ADD27R,0.300000X0.800000*%
%ADD28R,1.500000X2.000000*%
%ADD29R,3.800000X2.000000*%
%ADD30RoundRect,0.200000X-0.200000X-0.275000X0.200000X-0.275000X0.200000X0.275000X-0.200000X0.275000X0*%
%ADD31RoundRect,0.140000X-0.140000X-0.170000X0.140000X-0.170000X0.140000X0.170000X-0.140000X0.170000X0*%
%ADD32RoundRect,0.250000X0.450000X-0.262500X0.450000X0.262500X-0.450000X0.262500X-0.450000X-0.262500X0*%
%ADD33RoundRect,0.140000X0.140000X0.170000X-0.140000X0.170000X-0.140000X-0.170000X0.140000X-0.170000X0*%
%ADD34RoundRect,0.135000X-0.185000X0.135000X-0.185000X-0.135000X0.185000X-0.135000X0.185000X0.135000X0*%
%ADD35RoundRect,0.100000X0.712500X0.100000X-0.712500X0.100000X-0.712500X-0.100000X0.712500X-0.100000X0*%
%ADD36RoundRect,0.275000X-0.537500X-0.125000X0.537500X-0.125000X0.537500X0.125000X-0.537500X0.125000X0*%
%ADD37RoundRect,0.250000X-0.250000X-0.475000X0.250000X-0.475000X0.250000X0.475000X-0.250000X0.475000X0*%
%ADD38RoundRect,0.225000X0.250000X-0.225000X0.250000X0.225000X-0.250000X0.225000X-0.250000X-0.225000X0*%
%ADD39RoundRect,0.250000X-0.475000X0.250000X-0.475000X-0.250000X0.475000X-0.250000X0.475000X0.250000X0*%
%ADD40RoundRect,0.250000X-0.275000X0.312500X-0.275000X-0.312500X0.275000X-0.312500X0.275000X0.312500X0*%
%ADD41RoundRect,0.135000X0.135000X0.185000X-0.135000X0.185000X-0.135000X-0.185000X0.135000X-0.185000X0*%
%ADD42RoundRect,0.150000X-0.587500X-0.150000X0.587500X-0.150000X0.587500X0.150000X-0.587500X0.150000X0*%
%ADD43RoundRect,0.250000X0.475000X-0.250000X0.475000X0.250000X-0.475000X0.250000X-0.475000X-0.250000X0*%
%ADD44RoundRect,0.225000X-0.225000X-0.250000X0.225000X-0.250000X0.225000X0.250000X-0.225000X0.250000X0*%
%ADD45FreePoly2,180.000000*%
%ADD46FreePoly3,180.000000*%
%ADD47RoundRect,0.140000X-0.170000X0.140000X-0.170000X-0.140000X0.170000X-0.140000X0.170000X0.140000X0*%
%ADD48RoundRect,0.250000X0.600000X0.725000X-0.600000X0.725000X-0.600000X-0.725000X0.600000X-0.725000X0*%
%ADD49O,1.700000X1.950000*%
%ADD50R,0.900000X1.300000*%
%ADD51FreePoly4,270.000000*%
%ADD52RoundRect,0.250000X0.262500X0.450000X-0.262500X0.450000X-0.262500X-0.450000X0.262500X-0.450000X0*%
%ADD53R,3.800000X1.000000*%
%ADD54R,1.000000X1.650000*%
%ADD55R,1.000000X3.800000*%
%ADD56R,1.000000X1.000000*%
%ADD57R,2.130000X1.000000*%
%ADD58RoundRect,0.200000X-0.275000X0.200000X-0.275000X-0.200000X0.275000X-0.200000X0.275000X0.200000X0*%
%ADD59C,1.600000*%
%ADD60R,1.600000X1.600000*%
%ADD61RoundRect,0.200000X0.200000X0.275000X-0.200000X0.275000X-0.200000X-0.275000X0.200000X-0.275000X0*%
%ADD62RoundRect,0.135000X0.185000X-0.135000X0.185000X0.135000X-0.185000X0.135000X-0.185000X-0.135000X0*%
%ADD63FreePoly0,270.000000*%
%ADD64FreePoly1,270.000000*%
%ADD65RoundRect,0.140000X0.170000X-0.140000X0.170000X0.140000X-0.170000X0.140000X-0.170000X-0.140000X0*%
%ADD66R,1.200000X1.200000*%
%ADD67RoundRect,0.225000X-0.250000X0.225000X-0.250000X-0.225000X0.250000X-0.225000X0.250000X0.225000X0*%
%ADD68RoundRect,0.250000X-0.600000X-0.725000X0.600000X-0.725000X0.600000X0.725000X-0.600000X0.725000X0*%
%ADD69R,3.500000X3.500000*%
%ADD70RoundRect,0.750000X-1.000000X0.750000X-1.000000X-0.750000X1.000000X-0.750000X1.000000X0.750000X0*%
%ADD71RoundRect,0.875000X-0.875000X0.875000X-0.875000X-0.875000X0.875000X-0.875000X0.875000X0.875000X0*%
%ADD72FreePoly5,90.000000*%
%ADD73R,1.050000X1.050000*%
%ADD74FreePoly6,90.000000*%
%ADD75FreePoly6,0.000000*%
%ADD76R,1.600000X0.300000*%
%ADD77RoundRect,0.250000X-0.262500X-0.450000X0.262500X-0.450000X0.262500X0.450000X-0.262500X0.450000X0*%
%ADD78RoundRect,0.250000X0.850000X0.550000X-0.850000X0.550000X-0.850000X-0.550000X0.850000X-0.550000X0*%
%ADD79RoundRect,0.150000X0.150000X-0.587500X0.150000X0.587500X-0.150000X0.587500X-0.150000X-0.587500X0*%
%ADD80C,3.000000*%
%ADD81RoundRect,0.250001X0.499999X0.499999X-0.499999X0.499999X-0.499999X-0.499999X0.499999X-0.499999X0*%
%ADD82C,1.500000*%
%ADD83RoundRect,0.250000X-0.850000X-0.550000X0.850000X-0.550000X0.850000X0.550000X-0.850000X0.550000X0*%
%ADD84RoundRect,0.150000X0.150000X0.700000X-0.150000X0.700000X-0.150000X-0.700000X0.150000X-0.700000X0*%
%ADD85RoundRect,0.250000X0.250000X1.100000X-0.250000X1.100000X-0.250000X-1.100000X0.250000X-1.100000X0*%
%ADD86FreePoly0,0.000000*%
%ADD87FreePoly1,0.000000*%
%ADD88RoundRect,0.250000X0.250000X0.475000X-0.250000X0.475000X-0.250000X-0.475000X0.250000X-0.475000X0*%
%ADD89FreePoly0,90.000000*%
%ADD90FreePoly1,90.000000*%
G04 APERTURE END LIST*
D10*
%TO.C,H8*%
X22677600Y13999800D03*
D11*
X22677600Y13999800D03*
%TD*%
D12*
%TO.C,H17*%
X-126905300Y28753000D03*
%TD*%
D13*
%TO.C,JRX8*%
X-109195900Y-34175900D03*
%TD*%
%TO.C,JA17*%
X-126975900Y-34175900D03*
%TD*%
D14*
%TO.C,J1-2*%
X-24003000Y-9016949D03*
D15*
X-24003000Y-11556949D03*
X-24003000Y-14096949D03*
X-24003000Y-16636949D03*
X-26503000Y-16636949D03*
X-26503000Y-14096949D03*
X-26503000Y-11556949D03*
X-26503000Y-9016949D03*
%TD*%
D16*
%TO.C,U2*%
X7620000Y-4064000D03*
D17*
X7620000Y-6604000D03*
X7620000Y-14224000D03*
X7620000Y-16764000D03*
X7620000Y-19304000D03*
X15240000Y-19304000D03*
X15240000Y-16764000D03*
X15240000Y-14224000D03*
X15240000Y-6604000D03*
X15240000Y-4064000D03*
%TD*%
D14*
%TO.C,JVIN1*%
X-10414000Y27432100D03*
%TD*%
D10*
%TO.C,H7*%
X50677600Y-14000200D03*
D11*
X50677600Y-14000200D03*
%TD*%
D13*
%TO.C,JRX7*%
X-116815900Y-13855900D03*
%TD*%
D11*
%TO.C,H14*%
X-196089300Y33020000D03*
D10*
X-196089300Y33020000D03*
%TD*%
D13*
%TO.C,JA16*%
X-124435900Y-34175900D03*
%TD*%
D14*
%TO.C,JAC1*%
X45552800Y-23398400D03*
D15*
X43012800Y-23398400D03*
X40472800Y-23398400D03*
X37932800Y-23398400D03*
X35392800Y-23398400D03*
X32852800Y-23398400D03*
X30312800Y-23398400D03*
X27772800Y-23398400D03*
%TD*%
D10*
%TO.C,H11*%
X-35560000Y5007100D03*
D11*
X-35560000Y5007100D03*
%TD*%
%TO.C,H4*%
X-93980000Y-33020000D03*
D10*
X-93980000Y-33020000D03*
%TD*%
D13*
%TO.C,J3V2*%
X-129515900Y-13855900D03*
%TD*%
D10*
%TO.C,H3*%
X-93980000Y33020000D03*
D11*
X-93980000Y33020000D03*
%TD*%
D14*
%TO.C,JAUX1*%
X-68199000Y-33337500D03*
D15*
X-68199000Y-30797500D03*
X-68199000Y-28257500D03*
X-68199000Y-25717500D03*
X-68199000Y-23177500D03*
X-68199000Y-20637500D03*
X-68199000Y-18097500D03*
X-68199000Y-15557500D03*
X-68199000Y-13017500D03*
X-68199000Y-10477500D03*
X-68199000Y-7937500D03*
X-68199000Y-5397500D03*
%TD*%
D13*
%TO.C,JA12*%
X-121895900Y-13855900D03*
%TD*%
D14*
%TO.C,JAPC1*%
X-29083446Y-9016949D03*
D15*
X-29083446Y-11556949D03*
X-29083446Y-14096949D03*
X-29083446Y-16636949D03*
%TD*%
D10*
%TO.C,H15*%
X-196057300Y-33020000D03*
D11*
X-196057300Y-33020000D03*
%TD*%
D14*
%TO.C,J3V3*%
X-66800000Y12380000D03*
%TD*%
%TO.C,J1-3*%
X-24003000Y-23621949D03*
D15*
X-24003000Y-26161949D03*
X-24003000Y-28701949D03*
X-24003000Y-31241949D03*
X-26503000Y-31241949D03*
X-26503000Y-28701949D03*
X-26503000Y-26161949D03*
X-26503000Y-23621949D03*
%TD*%
D13*
%TO.C,JRX3*%
X-111735900Y-13855900D03*
%TD*%
D14*
%TO.C,J1-3-1*%
X-29083446Y-23621949D03*
D15*
X-29083446Y-26161949D03*
X-29083446Y-28701949D03*
X-29083446Y-31241949D03*
%TD*%
D11*
%TO.C,H9*%
X-63560000Y5007100D03*
D10*
X-63560000Y5007100D03*
%TD*%
D13*
%TO.C,CAN1*%
X-48489900Y-20459900D03*
D15*
X-48489900Y-17919900D03*
%TD*%
D11*
%TO.C,H6*%
X50677600Y13999800D03*
D10*
X50677600Y13999800D03*
%TD*%
%TO.C,H12*%
X-63560000Y33007100D03*
D11*
X-63560000Y33007100D03*
%TD*%
%TO.C,H13*%
X-102109300Y33020000D03*
D10*
X-102109300Y33020000D03*
%TD*%
D14*
%TO.C,JUT1*%
X-21463000Y-9016949D03*
D15*
X-21463000Y-11556949D03*
X-21463000Y-14096949D03*
X-21463000Y-16636949D03*
%TD*%
D13*
%TO.C,JTX3*%
X-109195900Y-13855900D03*
%TD*%
%TO.C,JA11*%
X-124435900Y-13855900D03*
%TD*%
D18*
%TO.C,RV1*%
X-9627900Y12687100D03*
X-12167900Y15227100D03*
X-14707900Y12687100D03*
%TD*%
D11*
%TO.C,H2*%
X0Y33020000D03*
D10*
X0Y33020000D03*
%TD*%
D14*
%TO.C,JGPS1*%
X-80900000Y-20011000D03*
D15*
X-80900000Y-22551000D03*
X-80900000Y-25091000D03*
X-80900000Y-27631000D03*
X-80900000Y-30171000D03*
%TD*%
D19*
%TO.C,PD1*%
X8128000Y25908000D03*
D20*
X5588000Y25908000D03*
%TD*%
D14*
%TO.C,JA1*%
X-29083446Y5588051D03*
D15*
X-29083446Y3048051D03*
X-29083446Y508051D03*
X-29083446Y-2031949D03*
%TD*%
D13*
%TO.C,JTX8*%
X-111735900Y-34175900D03*
%TD*%
D21*
%TO.C,UT2*%
X3505200Y-13462000D03*
D22*
X3505200Y-12192000D03*
X3505200Y-10922000D03*
%TD*%
D11*
%TO.C,H10*%
X-35560000Y33007100D03*
D10*
X-35560000Y33007100D03*
%TD*%
D13*
%TO.C,JCK2*%
X-106655900Y-34175900D03*
%TD*%
%TO.C,JTX7*%
X-114275900Y-13855900D03*
%TD*%
D12*
%TO.C,H20*%
X-178905300Y28753000D03*
%TD*%
D14*
%TO.C,JD1*%
X-21463000Y5588051D03*
D15*
X-21463000Y3048051D03*
X-21463000Y508051D03*
X-21463000Y-2031949D03*
%TD*%
D13*
%TO.C,JSS1*%
X-119355900Y-34175900D03*
%TD*%
D12*
%TO.C,H18*%
X-126905300Y-2947000D03*
%TD*%
D13*
%TO.C,JGND1*%
X-129515900Y-34175900D03*
%TD*%
D12*
%TO.C,H19*%
X-178905300Y-2947000D03*
%TD*%
D13*
%TO.C,JSS2*%
X-116815900Y-34175900D03*
%TD*%
%TO.C,JA13*%
X-119355900Y-13855900D03*
%TD*%
D10*
%TO.C,H5*%
X22677600Y-14000200D03*
D11*
X22677600Y-14000200D03*
%TD*%
%TO.C,H1*%
X0Y-33020000D03*
D10*
X0Y-33020000D03*
%TD*%
D11*
%TO.C,H16*%
X-102109300Y-33020000D03*
D10*
X-102109300Y-33020000D03*
%TD*%
D14*
%TO.C,J1-1*%
X-24004300Y5588000D03*
D15*
X-24004300Y3048000D03*
X-24004300Y508000D03*
X-24004300Y-2032000D03*
X-26504300Y-2032000D03*
X-26504300Y508000D03*
X-26504300Y3048000D03*
X-26504300Y5588000D03*
%TD*%
D13*
%TO.C,JSS3*%
X-114275900Y-34175900D03*
%TD*%
%TO.C,JOUT1*%
X-106655900Y-13855900D03*
%TD*%
D14*
%TO.C,J1-3-2*%
X-21463000Y-23621949D03*
D15*
X-21463000Y-26161949D03*
X-21463000Y-28701949D03*
X-21463000Y-31241949D03*
%TD*%
D13*
%TO.C,JA10*%
X-126975900Y-13855900D03*
%TD*%
D23*
%TO.C,TP4*%
X-103086300Y22733000D03*
%TD*%
D13*
%TO.C,JMISO1*%
X-121895900Y-34175900D03*
%TD*%
D24*
%TO.C,RS7*%
X2540000Y-17121500D03*
X2540000Y-18946500D03*
%TD*%
D23*
%TO.C,SW5*%
X-179764300Y-16510000D03*
X-186264300Y-16510000D03*
X-186264300Y-21010000D03*
X-179764300Y-21010000D03*
%TD*%
D25*
%TO.C,JPD4*%
X-763300Y-13970000D03*
D26*
X-2063300Y-13970000D03*
%TD*%
D27*
%TO.C,U11*%
X-58178000Y-29998000D03*
X-58678000Y-29998000D03*
X-59178000Y-29998000D03*
X-59678000Y-29998000D03*
X-59678000Y-26898000D03*
X-59178000Y-26898000D03*
X-58678000Y-26898000D03*
X-58178000Y-26898000D03*
%TD*%
D28*
%TO.C,U4*%
X-23583900Y13728100D03*
D29*
X-25883900Y20028100D03*
D28*
X-25883900Y13728100D03*
X-28183900Y13728100D03*
%TD*%
D23*
%TO.C,SW0*%
X-195796300Y0D03*
X-189296300Y0D03*
X-195796300Y-4500000D03*
X-189296300Y-4500000D03*
%TD*%
D30*
%TO.C,R10*%
X1967700Y2921000D03*
X3617700Y2921000D03*
%TD*%
D31*
%TO.C,C22*%
X-14684575Y3922000D03*
X-13724575Y3922000D03*
%TD*%
D14*
%TO.C,J7*%
X55372000Y-27432000D03*
D15*
X52832000Y-27432000D03*
X50292000Y-27432000D03*
X47752000Y-27432000D03*
X45212000Y-27432000D03*
X42672000Y-27432000D03*
X40132000Y-27432000D03*
X37592000Y-27432000D03*
X35052000Y-27432000D03*
X32512000Y-27432000D03*
X29972000Y-27432000D03*
X27432000Y-27432000D03*
X24892000Y-27432000D03*
X22352000Y-27432000D03*
X19812000Y-27432000D03*
X17272000Y-27432000D03*
X55372000Y-29972000D03*
X52832000Y-29972000D03*
X50292000Y-29972000D03*
X47752000Y-29972000D03*
X45212000Y-29972000D03*
X42672000Y-29972000D03*
X40132000Y-29972000D03*
X37592000Y-29972000D03*
X35052000Y-29972000D03*
X32512000Y-29972000D03*
X29972000Y-29972000D03*
X27432000Y-29972000D03*
X24892000Y-29972000D03*
X22352000Y-29972000D03*
X19812000Y-29972000D03*
X17272000Y-29972000D03*
X55372000Y-32512000D03*
X52832000Y-32512000D03*
X50292000Y-32512000D03*
X47752000Y-32512000D03*
X45212000Y-32512000D03*
X42672000Y-32512000D03*
X40132000Y-32512000D03*
X37592000Y-32512000D03*
X35052000Y-32512000D03*
X32512000Y-32512000D03*
X29972000Y-32512000D03*
X27432000Y-32512000D03*
X24892000Y-32512000D03*
X22352000Y-32512000D03*
X19812000Y-32512000D03*
X17272000Y-32512000D03*
X55372000Y-35052000D03*
X52832000Y-35052000D03*
X50292000Y-35052000D03*
X47752000Y-35052000D03*
X45212000Y-35052000D03*
X42672000Y-35052000D03*
X40132000Y-35052000D03*
X37592000Y-35052000D03*
X35052000Y-35052000D03*
X32512000Y-35052000D03*
X29972000Y-35052000D03*
X27432000Y-35052000D03*
X24892000Y-35052000D03*
X22352000Y-35052000D03*
X19812000Y-35052000D03*
X17272000Y-35052000D03*
%TD*%
D32*
%TO.C,R7*%
X-59309000Y-24534500D03*
X-59309000Y-22709500D03*
%TD*%
D33*
%TO.C,CS8*%
X-5870000Y-20955000D03*
X-6830000Y-20955000D03*
%TD*%
D34*
%TO.C,R16*%
X-15680500Y-3171000D03*
X-15680500Y-4191000D03*
%TD*%
D35*
%TO.C,US2*%
X-3729500Y-17059000D03*
X-3729500Y-17709000D03*
X-3729500Y-18359000D03*
X-3729500Y-19009000D03*
X-7954500Y-19009000D03*
X-7954500Y-18359000D03*
X-7954500Y-17709000D03*
X-7954500Y-17059000D03*
%TD*%
D31*
%TO.C,C23*%
X-12766575Y3922000D03*
X-11806575Y3922000D03*
%TD*%
D36*
%TO.C,U12*%
X-12314800Y-4150000D03*
X-12314800Y-3500000D03*
X-12314800Y-2850000D03*
X-12314800Y-2200000D03*
X-10039800Y-2200000D03*
X-10039800Y-2850000D03*
X-10039800Y-3500000D03*
X-10039800Y-4150000D03*
%TD*%
D23*
%TO.C,SW2*%
X-186264300Y-8255000D03*
X-179764300Y-8255000D03*
X-179764300Y-12755000D03*
X-186264300Y-12755000D03*
%TD*%
D32*
%TO.C,R11*%
X-59410600Y-33424500D03*
X-59410600Y-31599500D03*
%TD*%
D14*
%TO.C,J5-1*%
X-85090000Y-3810000D03*
D15*
X-82550000Y-3810000D03*
X-80010000Y-3810000D03*
X-77470000Y-3810000D03*
X-74930000Y-3810000D03*
X-72390000Y-3810000D03*
%TD*%
D37*
%TO.C,C13*%
X-6986300Y-4064000D03*
X-5086300Y-4064000D03*
%TD*%
D38*
%TO.C,CS6*%
X508000Y-18809000D03*
X508000Y-17259000D03*
%TD*%
D39*
%TO.C,CS4*%
X-10160000Y18984000D03*
X-10160000Y17084000D03*
%TD*%
%TO.C,C3*%
X-20574000Y24061500D03*
X-20574000Y22161500D03*
%TD*%
D14*
%TO.C,J3V1-1*%
X-19051300Y17526000D03*
%TD*%
D40*
%TO.C,C16*%
X-8577000Y4646700D03*
X-8577000Y2871700D03*
%TD*%
D34*
%TO.C,R17*%
X-15680500Y-1253000D03*
X-15680500Y-2273000D03*
%TD*%
D23*
%TO.C,SW9*%
X-189289300Y-24765000D03*
X-195789300Y-24765000D03*
X-189289300Y-29265000D03*
X-195789300Y-29265000D03*
%TD*%
%TO.C,TP1*%
X-13843000Y31496000D03*
%TD*%
D14*
%TO.C,JAPC-1*%
X-33528000Y-12900D03*
D15*
X-36068000Y-12900D03*
X-38608000Y-12900D03*
X-41148000Y-12900D03*
X-43688000Y-12900D03*
X-46228000Y-12900D03*
X-48768000Y-12900D03*
%TD*%
D32*
%TO.C,R6*%
X-33324800Y-19657700D03*
X-33324800Y-17832700D03*
%TD*%
D14*
%TO.C,J5V3-1*%
X-18035300Y32766000D03*
%TD*%
D39*
%TO.C,C9*%
X-41149300Y-17780000D03*
X-41149300Y-19680000D03*
%TD*%
D32*
%TO.C,R2*%
X-115651300Y15283500D03*
X-115651300Y17108500D03*
%TD*%
D33*
%TO.C,CS7*%
X-5362000Y-15240000D03*
X-6322000Y-15240000D03*
%TD*%
D41*
%TO.C,R20*%
X-13694575Y4938000D03*
X-14714575Y4938000D03*
%TD*%
D42*
%TO.C,U13*%
X1961200Y4450000D03*
X1961200Y6350000D03*
X3836200Y5400000D03*
%TD*%
D33*
%TO.C,CS2*%
X-5362000Y20828000D03*
X-6322000Y20828000D03*
%TD*%
D43*
%TO.C,CS5*%
X-12192000Y17084000D03*
X-12192000Y18984000D03*
%TD*%
D14*
%TO.C,JI2C3v-1*%
X-54610000Y-21711600D03*
D15*
X-54610000Y-24251600D03*
X-54610000Y-26791600D03*
X-54610000Y-29331600D03*
%TD*%
D44*
%TO.C,C17*%
X-6811300Y-762000D03*
X-5261300Y-762000D03*
%TD*%
D45*
%TO.C,JP15*%
X-97642600Y-2230001D03*
D46*
X-98442600Y-2230001D03*
%TD*%
D23*
%TO.C,TP5v0-1*%
X-17400300Y23368000D03*
%TD*%
D21*
%TO.C,UT1*%
X3505200Y13462000D03*
D22*
X3505200Y12192000D03*
X3505200Y10922000D03*
%TD*%
D47*
%TO.C,C21*%
X-14654900Y607000D03*
X-14654900Y-353000D03*
%TD*%
D48*
%TO.C,JCAM2*%
X-54737000Y-12954000D03*
D49*
X-57237000Y-12954000D03*
X-59737000Y-12954000D03*
X-62237000Y-12954000D03*
%TD*%
D50*
%TO.C,U3*%
X-25122000Y29145500D03*
D51*
X-23622000Y29058000D03*
D50*
X-22122000Y29145500D03*
%TD*%
D23*
%TO.C,TP2*%
X-9653300Y31496000D03*
%TD*%
D14*
%TO.C,J3V0-1*%
X-7620000Y-29337000D03*
%TD*%
D52*
%TO.C,RSW1*%
X-191619500Y12446000D03*
X-193444500Y12446000D03*
%TD*%
D53*
%TO.C,J5*%
X-10253100Y-6237100D03*
D54*
X-16983100Y-4912100D03*
D55*
X-3523100Y12900D03*
D54*
X-3523100Y4937900D03*
D56*
X-16983100Y6262900D03*
X-3523100Y-6237100D03*
D53*
X-10253100Y6262900D03*
D56*
X-16983100Y-6237100D03*
D57*
X-5088100Y-6237100D03*
D54*
X-3523100Y-4912100D03*
X-16983100Y4937900D03*
D57*
X-15418100Y6262900D03*
X-15418100Y-6237100D03*
D56*
X-3523100Y6262900D03*
D55*
X-16983100Y12900D03*
D57*
X-5088100Y6262900D03*
%TD*%
D58*
%TO.C,R14*%
X-10304200Y4749600D03*
X-10304200Y3099600D03*
%TD*%
D25*
%TO.C,JPV2*%
X13250000Y25900000D03*
D26*
X11950000Y25900000D03*
%TD*%
D59*
%TO.C,U7*%
X-132055900Y-18935900D03*
X-132055900Y-21475900D03*
X-132055900Y-24015900D03*
X-132055900Y-26555900D03*
X-132055900Y-29095900D03*
D60*
X-165075900Y-16395900D03*
D59*
X-162535900Y-16395900D03*
X-159995900Y-16395900D03*
X-157455900Y-16395900D03*
X-154915900Y-16395900D03*
X-152375900Y-16395900D03*
X-149835900Y-16395900D03*
X-147295900Y-16395900D03*
X-144755900Y-16395900D03*
X-142215900Y-16395900D03*
X-139675900Y-16395900D03*
X-137135900Y-16395900D03*
X-134595900Y-16395900D03*
X-132055900Y-16395900D03*
X-129515900Y-16395900D03*
X-126975900Y-16395900D03*
X-124435900Y-16395900D03*
X-121895900Y-16395900D03*
X-119355900Y-16395900D03*
X-116815900Y-16395900D03*
X-114275900Y-16395900D03*
X-111735900Y-16395900D03*
X-109195900Y-16395900D03*
X-106655900Y-16395900D03*
X-106655900Y-31635900D03*
X-109195900Y-31635900D03*
X-111735900Y-31635900D03*
X-114275900Y-31635900D03*
X-116815900Y-31635900D03*
X-119355900Y-31635900D03*
X-121895900Y-31635900D03*
X-124435900Y-31635900D03*
X-126975900Y-31635900D03*
X-129515900Y-31635900D03*
X-132055900Y-31635900D03*
X-134595900Y-31635900D03*
X-137135900Y-31635900D03*
X-139675900Y-31635900D03*
X-142215900Y-31635900D03*
X-144755900Y-31635900D03*
X-147295900Y-31635900D03*
X-149835900Y-31635900D03*
X-152375900Y-31635900D03*
X-154915900Y-31635900D03*
X-157455900Y-31635900D03*
X-159995900Y-31635900D03*
X-162535900Y-31635900D03*
X-165075900Y-31635900D03*
X-162535900Y-29095900D03*
X-119355900Y-18935900D03*
X-119355900Y-21475900D03*
X-119355900Y-24015900D03*
X-119355900Y-26555900D03*
X-119355900Y-29095900D03*
%TD*%
D32*
%TO.C,RS5*%
X-1524000Y-18946500D03*
X-1524000Y-17121500D03*
%TD*%
D61*
%TO.C,R15*%
X-5211300Y762000D03*
X-6861300Y762000D03*
%TD*%
D24*
%TO.C,R_{PD.bias}1*%
X-8637300Y22690500D03*
X-8637300Y20865500D03*
%TD*%
D47*
%TO.C,C24*%
X-13336300Y2398000D03*
X-13336300Y1438000D03*
%TD*%
D62*
%TO.C,R23*%
X-12320300Y-510000D03*
X-12320300Y510000D03*
%TD*%
D23*
%TO.C,SW7*%
X-170246300Y-24765000D03*
X-176746300Y-24765000D03*
X-170246300Y-29265000D03*
X-176746300Y-29265000D03*
%TD*%
D39*
%TO.C,C5*%
X-111587300Y17146000D03*
X-111587300Y15246000D03*
%TD*%
D63*
%TO.C,JPD2*%
X-1300Y23256000D03*
D64*
X-1300Y21956000D03*
%TD*%
D65*
%TO.C,C18*%
X-14664500Y-4161000D03*
X-14664500Y-3201000D03*
%TD*%
D66*
%TO.C,D1*%
X-27562000Y31292800D03*
X-24762000Y31292800D03*
%TD*%
D16*
%TO.C,U1*%
X7620000Y4064000D03*
D17*
X7620000Y6604000D03*
X7620000Y14224000D03*
X7620000Y16764000D03*
X7620000Y19304000D03*
X15240000Y19304000D03*
X15240000Y16764000D03*
X15240000Y14224000D03*
X15240000Y6604000D03*
X15240000Y4064000D03*
%TD*%
D39*
%TO.C,CS9*%
X-10160000Y-17084000D03*
X-10160000Y-18984000D03*
%TD*%
D23*
%TO.C,SW1*%
X-170239300Y-8255000D03*
X-176739300Y-8255000D03*
X-176739300Y-12755000D03*
X-170239300Y-12755000D03*
%TD*%
D65*
%TO.C,C19*%
X-14664500Y-2243000D03*
X-14664500Y-1283000D03*
%TD*%
D14*
%TO.C,J4*%
X-72390000Y16510000D03*
D15*
X-74930000Y16510000D03*
X-77470000Y16510000D03*
X-80010000Y16510000D03*
X-82550000Y16510000D03*
X-85090000Y16510000D03*
X-87630000Y16510000D03*
%TD*%
D25*
%TO.C,JPV3*%
X13247100Y23317200D03*
D26*
X11947100Y23317200D03*
%TD*%
D43*
%TO.C,C8*%
X-113619300Y15246000D03*
X-113619300Y17146000D03*
%TD*%
D67*
%TO.C,C11*%
X1016000Y-11417000D03*
X1016000Y-12967000D03*
%TD*%
D38*
%TO.C,CS1*%
X508000Y17259000D03*
X508000Y18809000D03*
%TD*%
D68*
%TO.C,JALT1*%
X-48648000Y-24645500D03*
D49*
X-46148000Y-24645500D03*
X-43648000Y-24645500D03*
X-41148000Y-24645500D03*
X-38648000Y-24645500D03*
X-36148000Y-24645500D03*
X-33648000Y-24645500D03*
%TD*%
D32*
%TO.C,R1*%
X-24638000Y22199000D03*
X-24638000Y24024000D03*
%TD*%
D23*
%TO.C,TP3*%
X-5462300Y31496000D03*
%TD*%
%TO.C,SW8*%
X-179764300Y-24765000D03*
X-186264300Y-24765000D03*
X-179764300Y-29265000D03*
X-186264300Y-29265000D03*
%TD*%
D69*
%TO.C,J3*%
X-188684300Y21590000D03*
D70*
X-188684300Y27590000D03*
D71*
X-183984300Y24590000D03*
%TD*%
D38*
%TO.C,C12*%
X1014000Y11411000D03*
X1014000Y12961000D03*
%TD*%
D62*
%TO.C,R22*%
X-12320300Y1408000D03*
X-12320300Y2428000D03*
%TD*%
D72*
%TO.C,JP16*%
X-1387300Y2698300D03*
D73*
X-1387300Y3860800D03*
D74*
X-1387300Y5023300D03*
D75*
X-224800Y3860800D03*
%TD*%
D23*
%TO.C,TPv1-1*%
X-13835900Y23400000D03*
%TD*%
D14*
%TO.C,JIR1*%
X-82550000Y29210000D03*
D15*
X-82550000Y26670000D03*
X-82550000Y24130000D03*
X-82550000Y21590000D03*
%TD*%
D76*
%TO.C,U10*%
X-39015700Y-19687562D03*
X-39015700Y-19037562D03*
X-39015700Y-18387562D03*
X-39015700Y-17737562D03*
X-35615700Y-17737562D03*
X-35615700Y-18387562D03*
X-35615700Y-19037562D03*
X-35615700Y-19687562D03*
%TD*%
D14*
%TO.C,JIF1*%
X-95250000Y3810000D03*
D15*
X-95250000Y1270000D03*
X-95250000Y-1270000D03*
X-95250000Y-3810000D03*
%TD*%
D23*
%TO.C,SW10*%
X-189296300Y8382000D03*
X-195796300Y8382000D03*
X-195796300Y3882000D03*
X-189296300Y3882000D03*
%TD*%
D47*
%TO.C,C20*%
X-14654900Y2512000D03*
X-14654900Y1552000D03*
%TD*%
D32*
%TO.C,RS2*%
X-1524000Y17121500D03*
X-1524000Y18946500D03*
%TD*%
D35*
%TO.C,US1*%
X-3729500Y19009000D03*
X-3729500Y18359000D03*
X-3729500Y17709000D03*
X-3729500Y17059000D03*
X-7954500Y17059000D03*
X-7954500Y17709000D03*
X-7954500Y18359000D03*
X-7954500Y19009000D03*
%TD*%
D14*
%TO.C,JDIS2*%
X-126905300Y25603000D03*
D15*
X-126905300Y23063000D03*
X-126905300Y20523000D03*
X-126905300Y17983000D03*
X-126905300Y15443000D03*
X-126905300Y12903000D03*
X-126905300Y10363000D03*
X-126905300Y7823000D03*
X-126905300Y5283000D03*
X-126905300Y2743000D03*
X-126905300Y203000D03*
%TD*%
D14*
%TO.C,J5V3-2*%
X-11303000Y-29337000D03*
%TD*%
D32*
%TO.C,R8*%
X-57429400Y-33424500D03*
X-57429400Y-31599500D03*
%TD*%
D50*
%TO.C,U5*%
X-116135300Y22230000D03*
D51*
X-114635300Y22142500D03*
D50*
X-113135300Y22230000D03*
%TD*%
D42*
%TO.C,U9*%
X-6838800Y-24550000D03*
X-6838800Y-22650000D03*
X-4963800Y-23600000D03*
%TD*%
D14*
%TO.C,JI2C1*%
X-62254000Y-21711600D03*
D15*
X-62254000Y-24251600D03*
X-62254000Y-26791600D03*
X-62254000Y-29331600D03*
%TD*%
D33*
%TO.C,CS3*%
X-5870000Y15113000D03*
X-6830000Y15113000D03*
%TD*%
D62*
%TO.C,R18*%
X-15670900Y1580200D03*
X-15670900Y2600200D03*
%TD*%
D43*
%TO.C,CS10*%
X-12192000Y-18984000D03*
X-12192000Y-17084000D03*
%TD*%
D48*
%TO.C,JCAM1*%
X-54730000Y-2794000D03*
D49*
X-57230000Y-2794000D03*
X-59730000Y-2794000D03*
X-62230000Y-2794000D03*
%TD*%
D14*
%TO.C,JGND1-1*%
X3810000Y32766000D03*
%TD*%
D45*
%TO.C,JP12*%
X-97642600Y2229999D03*
D46*
X-98442600Y2229999D03*
%TD*%
D43*
%TO.C,C7*%
X-22606000Y22161500D03*
X-22606000Y24061500D03*
%TD*%
D47*
%TO.C,C25*%
X-13336300Y480000D03*
X-13336300Y-480000D03*
%TD*%
D52*
%TO.C,R3*%
X-152225400Y-11061900D03*
X-154050400Y-11061900D03*
%TD*%
D77*
%TO.C,RS8*%
X-6754500Y-13208000D03*
X-4929500Y-13208000D03*
%TD*%
D78*
%TO.C,C2*%
X4778000Y0D03*
X1778000Y0D03*
%TD*%
D68*
%TO.C,JGPS3*%
X-88098000Y-15887900D03*
D49*
X-85598000Y-15887900D03*
X-83098000Y-15887900D03*
X-80598000Y-15887900D03*
X-78098000Y-15887900D03*
X-75598000Y-15887900D03*
%TD*%
D79*
%TO.C,Q1*%
X-26990000Y26240500D03*
X-28890000Y26240500D03*
X-27940000Y28115500D03*
%TD*%
D25*
%TO.C,JPD6*%
X-763300Y-8890000D03*
D26*
X-2063300Y-8890000D03*
%TD*%
D23*
%TO.C,SW6*%
X-189296300Y-16510000D03*
X-195796300Y-16510000D03*
X-195796300Y-21010000D03*
X-189296300Y-21010000D03*
%TD*%
D80*
%TO.C,JBAT2*%
X-109189300Y30048000D03*
D81*
X-109189300Y25728000D03*
D82*
X-109189300Y22728000D03*
%TD*%
D23*
%TO.C,SW3*%
X-189296300Y-8255000D03*
X-195796300Y-8255000D03*
X-195796300Y-12755000D03*
X-189296300Y-12755000D03*
%TD*%
D67*
%TO.C,C27*%
X-5275000Y3924600D03*
X-5275000Y2374600D03*
%TD*%
D25*
%TO.C,JP11*%
X-335900Y-2370900D03*
D26*
X-1635900Y-2370900D03*
%TD*%
D47*
%TO.C,C26*%
X-6808500Y3629600D03*
X-6808500Y2669600D03*
%TD*%
D83*
%TO.C,C6*%
X-121215300Y16389000D03*
X-118215300Y16389000D03*
%TD*%
D14*
%TO.C,J5-2*%
X-82550000Y11430000D03*
D15*
X-80010000Y11430000D03*
X-77470000Y11430000D03*
X-74930000Y11430000D03*
%TD*%
D14*
%TO.C,JGPS2*%
X-85090000Y-8890000D03*
D15*
X-82550000Y-8890000D03*
X-80010000Y-8890000D03*
X-77470000Y-8890000D03*
X-74930000Y-8890000D03*
%TD*%
D14*
%TO.C,JAPC-2*%
X-106649300Y-12900D03*
D15*
X-109189300Y-12900D03*
X-111729300Y-12900D03*
X-114269300Y-12900D03*
X-116809300Y-12900D03*
X-119349300Y-12900D03*
X-121889300Y-12900D03*
%TD*%
D32*
%TO.C,R4*%
X-2541300Y12549500D03*
X-2541300Y14374500D03*
%TD*%
D66*
%TO.C,D3*%
X-71193200Y-33375600D03*
X-73993200Y-33375600D03*
%TD*%
D25*
%TO.C,JPD5*%
X-763300Y-11430000D03*
D26*
X-2063300Y-11430000D03*
%TD*%
D23*
%TO.C,SW4*%
X-176739300Y-16510000D03*
X-170239300Y-16510000D03*
X-176739300Y-21010000D03*
X-170239300Y-21010000D03*
%TD*%
D32*
%TO.C,R12*%
X-43180000Y-19642500D03*
X-43180000Y-17817500D03*
%TD*%
D65*
%TO.C,C15*%
X694000Y-5875900D03*
X694000Y-4915900D03*
%TD*%
D24*
%TO.C,RS3*%
X2540000Y18946500D03*
X2540000Y17121500D03*
%TD*%
D44*
%TO.C,C14*%
X-6824300Y-2286000D03*
X-5274300Y-2286000D03*
%TD*%
D52*
%TO.C,R9*%
X-8403400Y15244100D03*
X-10228400Y15244100D03*
%TD*%
D14*
%TO.C,JGND1-2*%
X508000Y-25908000D03*
%TD*%
%TO.C,JAC2*%
X45552700Y23398000D03*
D15*
X43012700Y23398000D03*
X40472700Y23398000D03*
X37932700Y23398000D03*
X35392700Y23398000D03*
X32852700Y23398000D03*
X30312700Y23398000D03*
X27772700Y23398000D03*
%TD*%
D84*
%TO.C,JALT2*%
X-37398000Y-27614000D03*
X-38648000Y-27614000D03*
X-39898000Y-27614000D03*
X-41148000Y-27614000D03*
X-42398000Y-27614000D03*
X-43648000Y-27614000D03*
X-44898000Y-27614000D03*
D85*
X-46748000Y-30814000D03*
X-35548000Y-30814000D03*
%TD*%
D42*
%TO.C,U8*%
X-6838800Y11500000D03*
X-6838800Y13400000D03*
X-4963800Y12450000D03*
%TD*%
D23*
%TO.C,TPv1-2*%
X-13835900Y-12715000D03*
%TD*%
D77*
%TO.C,RS6*%
X-6754500Y22860000D03*
X-4929500Y22860000D03*
%TD*%
D63*
%TO.C,JPD1*%
X2538700Y23256000D03*
D64*
X2538700Y21956000D03*
%TD*%
D83*
%TO.C,C4*%
X-30202000Y23241000D03*
X-27202000Y23241000D03*
%TD*%
D44*
%TO.C,C1*%
X8115000Y0D03*
X9665000Y0D03*
%TD*%
D28*
%TO.C,U6*%
X-114605200Y6854100D03*
D29*
X-116905200Y13154100D03*
D28*
X-116905200Y6854100D03*
X-119205200Y6854100D03*
%TD*%
D86*
%TO.C,JPV1*%
X548700Y-22098000D03*
D87*
X1848700Y-22098000D03*
%TD*%
D79*
%TO.C,Q2*%
X-118003300Y19388500D03*
X-119903300Y19388500D03*
X-118953300Y21263500D03*
%TD*%
D14*
%TO.C,JVIN1-1*%
X-18035300Y28702000D03*
%TD*%
%TO.C,JDIS1*%
X-137894300Y28917000D03*
D15*
X-140434300Y28917000D03*
X-142974300Y28917000D03*
X-145514300Y28917000D03*
X-148054300Y28917000D03*
X-150594300Y28917000D03*
X-153134300Y28917000D03*
X-155674300Y28917000D03*
%TD*%
D14*
%TO.C,JIF2*%
X-100838000Y3810000D03*
D15*
X-100838000Y1270000D03*
X-100838000Y-1270000D03*
X-100838000Y-3810000D03*
%TD*%
D66*
%TO.C,D2*%
X-118575300Y24390000D03*
X-115775300Y24390000D03*
%TD*%
D88*
%TO.C,C10*%
X-36363900Y-21386800D03*
X-38263900Y-21386800D03*
%TD*%
D32*
%TO.C,R5*%
X-2541300Y-23518500D03*
X-2541300Y-21693500D03*
%TD*%
D45*
%TO.C,JP13*%
X-97642600Y1109999D03*
D46*
X-98442600Y1109999D03*
%TD*%
D80*
%TO.C,JBAT1*%
X-72390000Y30050000D03*
D81*
X-72390000Y25730000D03*
D82*
X-72390000Y22730000D03*
%TD*%
D52*
%TO.C,R_{PD}1*%
X-4930800Y24892000D03*
X-6755800Y24892000D03*
%TD*%
D23*
%TO.C,TP5*%
X-13843000Y27432000D03*
%TD*%
D19*
%TO.C,PD2*%
X8128000Y-25908000D03*
D20*
X5588000Y-25908000D03*
%TD*%
D32*
%TO.C,R13*%
X-1465000Y-6308400D03*
X-1465000Y-4483400D03*
%TD*%
D24*
%TO.C,R_{PD.bias}2*%
X-8637300Y-13377500D03*
X-8637300Y-15202500D03*
%TD*%
D89*
%TO.C,JPD3*%
X-2541300Y21956000D03*
D90*
X-2541300Y23256000D03*
%TD*%
D62*
%TO.C,R19*%
X-15670900Y-337800D03*
X-15670900Y682200D03*
%TD*%
D14*
%TO.C,J6*%
X55372000Y35052000D03*
D15*
X52832000Y35052000D03*
X50292000Y35052000D03*
X47752000Y35052000D03*
X45212000Y35052000D03*
X42672000Y35052000D03*
X40132000Y35052000D03*
X37592000Y35052000D03*
X35052000Y35052000D03*
X32512000Y35052000D03*
X29972000Y35052000D03*
X27432000Y35052000D03*
X24892000Y35052000D03*
X22352000Y35052000D03*
X19812000Y35052000D03*
X17272000Y35052000D03*
X55372000Y32512000D03*
X52832000Y32512000D03*
X50292000Y32512000D03*
X47752000Y32512000D03*
X45212000Y32512000D03*
X42672000Y32512000D03*
X40132000Y32512000D03*
X37592000Y32512000D03*
X35052000Y32512000D03*
X32512000Y32512000D03*
X29972000Y32512000D03*
X27432000Y32512000D03*
X24892000Y32512000D03*
X22352000Y32512000D03*
X19812000Y32512000D03*
X17272000Y32512000D03*
X55372000Y29972000D03*
X52832000Y29972000D03*
X50292000Y29972000D03*
X47752000Y29972000D03*
X45212000Y29972000D03*
X42672000Y29972000D03*
X40132000Y29972000D03*
X37592000Y29972000D03*
X35052000Y29972000D03*
X32512000Y29972000D03*
X29972000Y29972000D03*
X27432000Y29972000D03*
X24892000Y29972000D03*
X22352000Y29972000D03*
X19812000Y29972000D03*
X17272000Y29972000D03*
X55372000Y27432000D03*
X52832000Y27432000D03*
X50292000Y27432000D03*
X47752000Y27432000D03*
X45212000Y27432000D03*
X42672000Y27432000D03*
X40132000Y27432000D03*
X37592000Y27432000D03*
X35052000Y27432000D03*
X32512000Y27432000D03*
X29972000Y27432000D03*
X27432000Y27432000D03*
X24892000Y27432000D03*
X22352000Y27432000D03*
X19812000Y27432000D03*
X17272000Y27432000D03*
%TD*%
D52*
%TO.C,R_{PD}2*%
X-4930800Y-11176000D03*
X-6755800Y-11176000D03*
%TD*%
D45*
%TO.C,JP14*%
X-97642600Y-1110001D03*
D46*
X-98442600Y-1110001D03*
%TD*%
D41*
%TO.C,R21*%
X-11776575Y4938000D03*
X-12796575Y4938000D03*
%TD*%
M02*
