%TF.GenerationSoftware,KiCad,Pcbnew,6.0.2+dfsg-1*%
%TF.CreationDate,2023-06-28T13:42:52-06:00*%
%TF.ProjectId,SpectDrone,53706563-7444-4726-9f6e-652e6b696361,rev?*%
%TF.SameCoordinates,PXd18240cPY697af44*%
%TF.FileFunction,Soldermask,Top*%
%TF.FilePolarity,Negative*%
%FSLAX46Y46*%
G04 Gerber Fmt 4.6, Leading zero omitted, Abs format (unit mm)*
G04 Created by KiCad (PCBNEW 6.0.2+dfsg-1) date 2023-06-28 13:42:52*
%MOMM*%
%LPD*%
G01*
G04 APERTURE LIST*
G04 Aperture macros list*
%AMRoundRect*
0 Rectangle with rounded corners*
0 $1 Rounding radius*
0 $2 $3 $4 $5 $6 $7 $8 $9 X,Y pos of 4 corners*
0 Add a 4 corners polygon primitive as box body*
4,1,4,$2,$3,$4,$5,$6,$7,$8,$9,$2,$3,0*
0 Add four circle primitives for the rounded corners*
1,1,$1+$1,$2,$3*
1,1,$1+$1,$4,$5*
1,1,$1+$1,$6,$7*
1,1,$1+$1,$8,$9*
0 Add four rect primitives between the rounded corners*
20,1,$1+$1,$2,$3,$4,$5,0*
20,1,$1+$1,$4,$5,$6,$7,0*
20,1,$1+$1,$6,$7,$8,$9,0*
20,1,$1+$1,$8,$9,$2,$3,0*%
%AMFreePoly0*
4,1,22,0.500000,-0.750000,0.000000,-0.750000,0.000000,-0.745033,-0.079941,-0.743568,-0.215256,-0.701293,-0.333266,-0.622738,-0.424486,-0.514219,-0.481581,-0.384460,-0.499164,-0.250000,-0.500000,-0.250000,-0.500000,0.250000,-0.499164,0.250000,-0.499963,0.256109,-0.478152,0.396186,-0.417904,0.524511,-0.324060,0.630769,-0.204165,0.706417,-0.067858,0.745374,0.000000,0.744959,0.000000,0.750000,
0.500000,0.750000,0.500000,-0.750000,0.500000,-0.750000,$1*%
%AMFreePoly1*
4,1,20,0.000000,0.744959,0.073905,0.744508,0.209726,0.703889,0.328688,0.626782,0.421226,0.519385,0.479903,0.390333,0.500000,0.250000,0.500000,-0.250000,0.499851,-0.262216,0.476331,-0.402017,0.414519,-0.529596,0.319384,-0.634700,0.198574,-0.708877,0.061801,-0.746166,0.000000,-0.745033,0.000000,-0.750000,-0.500000,-0.750000,-0.500000,0.750000,0.000000,0.750000,0.000000,0.744959,
0.000000,0.744959,$1*%
%AMFreePoly2*
4,1,22,0.550000,-0.750000,0.000000,-0.750000,0.000000,-0.745033,-0.079941,-0.743568,-0.215256,-0.701293,-0.333266,-0.622738,-0.424486,-0.514219,-0.481581,-0.384460,-0.499164,-0.250000,-0.500000,-0.250000,-0.500000,0.250000,-0.499164,0.250000,-0.499963,0.256109,-0.478152,0.396186,-0.417904,0.524511,-0.324060,0.630769,-0.204165,0.706417,-0.067858,0.745374,0.000000,0.744959,0.000000,0.750000,
0.550000,0.750000,0.550000,-0.750000,0.550000,-0.750000,$1*%
%AMFreePoly3*
4,1,20,0.000000,0.744959,0.073905,0.744508,0.209726,0.703889,0.328688,0.626782,0.421226,0.519385,0.479903,0.390333,0.500000,0.250000,0.500000,-0.250000,0.499851,-0.262216,0.476331,-0.402017,0.414519,-0.529596,0.319384,-0.634700,0.198574,-0.708877,0.061801,-0.746166,0.000000,-0.745033,0.000000,-0.750000,-0.550000,-0.750000,-0.550000,0.750000,0.000000,0.750000,0.000000,0.744959,
0.000000,0.744959,$1*%
G04 Aperture macros list end*
%ADD10C,2.600000*%
%ADD11C,3.800000*%
%ADD12C,2.500000*%
%ADD13C,1.700000*%
%ADD14R,1.700000X1.700000*%
%ADD15O,1.700000X1.700000*%
%ADD16R,3.500000X3.300000*%
%ADD17C,10.200000*%
%ADD18RoundRect,0.249900X-0.450100X-0.450100X0.450100X-0.450100X0.450100X0.450100X-0.450100X0.450100X0*%
%ADD19C,1.400000*%
%ADD20FreePoly0,90.000000*%
%ADD21FreePoly1,90.000000*%
%ADD22RoundRect,0.150000X-0.150000X-0.625000X0.150000X-0.625000X0.150000X0.625000X-0.150000X0.625000X0*%
%ADD23RoundRect,0.250000X-0.350000X-0.650000X0.350000X-0.650000X0.350000X0.650000X-0.350000X0.650000X0*%
%ADD24FreePoly2,180.000000*%
%ADD25R,1.000000X1.500000*%
%ADD26FreePoly3,180.000000*%
%ADD27FreePoly0,180.000000*%
%ADD28FreePoly1,180.000000*%
%ADD29C,1.440000*%
%ADD30FreePoly2,0.000000*%
%ADD31FreePoly3,0.000000*%
%ADD32O,1.600000X1.200000*%
%ADD33O,1.200000X1.200000*%
%ADD34R,1.500000X1.050000*%
%ADD35O,1.500000X1.050000*%
%ADD36FreePoly0,0.000000*%
%ADD37FreePoly1,0.000000*%
%ADD38C,2.000000*%
%ADD39RoundRect,0.250000X0.600000X0.725000X-0.600000X0.725000X-0.600000X-0.725000X0.600000X-0.725000X0*%
%ADD40O,1.700000X1.950000*%
%ADD41C,1.600000*%
%ADD42R,1.600000X1.600000*%
%ADD43RoundRect,0.250000X-0.600000X-0.725000X0.600000X-0.725000X0.600000X0.725000X-0.600000X0.725000X0*%
%ADD44R,3.500000X3.500000*%
%ADD45RoundRect,0.750000X-1.000000X0.750000X-1.000000X-0.750000X1.000000X-0.750000X1.000000X0.750000X0*%
%ADD46RoundRect,0.875000X-0.875000X0.875000X-0.875000X-0.875000X0.875000X-0.875000X0.875000X0.875000X0*%
%ADD47C,3.000000*%
%ADD48RoundRect,0.250001X0.499999X0.499999X-0.499999X0.499999X-0.499999X-0.499999X0.499999X-0.499999X0*%
%ADD49C,1.500000*%
G04 APERTURE END LIST*
D10*
%TO.C,H8*%
X22677600Y13999800D03*
D11*
X22677600Y13999800D03*
%TD*%
D12*
%TO.C,H17*%
X-126905300Y28753000D03*
%TD*%
D13*
%TO.C,JRX8*%
X-109195900Y-34175900D03*
%TD*%
%TO.C,JA17*%
X-126975900Y-34175900D03*
%TD*%
D14*
%TO.C,J1-2*%
X-24003000Y-9016949D03*
D15*
X-24003000Y-11556949D03*
X-24003000Y-14096949D03*
X-24003000Y-16636949D03*
X-26503000Y-16636949D03*
X-26503000Y-14096949D03*
X-26503000Y-11556949D03*
X-26503000Y-9016949D03*
%TD*%
D16*
%TO.C,BT1*%
X-159080900Y24244100D03*
X-174880900Y24244100D03*
D17*
X-166980900Y24244100D03*
%TD*%
D18*
%TO.C,U2*%
X7620000Y-4064000D03*
D19*
X7620000Y-6604000D03*
X7620000Y-14224000D03*
X7620000Y-16764000D03*
X7620000Y-19304000D03*
X15240000Y-19304000D03*
X15240000Y-16764000D03*
X15240000Y-14224000D03*
X15240000Y-6604000D03*
X15240000Y-4064000D03*
%TD*%
D14*
%TO.C,JVIN1*%
X-10414000Y27432100D03*
%TD*%
D20*
%TO.C,JP8*%
X-35672000Y-31907000D03*
D21*
X-35672000Y-30607000D03*
%TD*%
D11*
%TO.C,H7*%
X50677600Y-14000200D03*
D10*
X50677600Y-14000200D03*
%TD*%
D13*
%TO.C,JRX7*%
X-116815900Y-13855900D03*
%TD*%
D11*
%TO.C,H14*%
X-196089300Y33020000D03*
D10*
X-196089300Y33020000D03*
%TD*%
D22*
%TO.C,J8*%
X-42649300Y-31528000D03*
X-41649300Y-31528000D03*
X-40649300Y-31528000D03*
X-39649300Y-31528000D03*
D23*
X-43949300Y-35403000D03*
X-38349300Y-35403000D03*
%TD*%
D24*
%TO.C,JP17*%
X-57121300Y-29337000D03*
D25*
X-58421300Y-29337000D03*
D26*
X-59721300Y-29337000D03*
%TD*%
D13*
%TO.C,JA16*%
X-124435900Y-34175900D03*
%TD*%
D14*
%TO.C,JAC1*%
X45552800Y-23398400D03*
D15*
X43012800Y-23398400D03*
X40472800Y-23398400D03*
X37932800Y-23398400D03*
X35392800Y-23398400D03*
X32852800Y-23398400D03*
X30312800Y-23398400D03*
X27772800Y-23398400D03*
%TD*%
D10*
%TO.C,H11*%
X-35560000Y5007100D03*
D11*
X-35560000Y5007100D03*
%TD*%
D10*
%TO.C,H4*%
X-93980000Y-33020000D03*
D11*
X-93980000Y-33020000D03*
%TD*%
D13*
%TO.C,J3V2*%
X-129515900Y-13855900D03*
%TD*%
D10*
%TO.C,H3*%
X-93980000Y33020000D03*
D11*
X-93980000Y33020000D03*
%TD*%
D14*
%TO.C,JAUX1*%
X-68199000Y-33337500D03*
D15*
X-68199000Y-30797500D03*
X-68199000Y-28257500D03*
X-68199000Y-25717500D03*
X-68199000Y-23177500D03*
X-68199000Y-20637500D03*
X-68199000Y-18097500D03*
X-68199000Y-15557500D03*
X-68199000Y-13017500D03*
X-68199000Y-10477500D03*
X-68199000Y-7937500D03*
X-68199000Y-5397500D03*
%TD*%
D13*
%TO.C,JA12*%
X-121895900Y-13855900D03*
%TD*%
D27*
%TO.C,JP4*%
X-17130000Y-31242000D03*
D28*
X-18430000Y-31242000D03*
%TD*%
D14*
%TO.C,JAPC1*%
X-29083446Y-9016949D03*
D15*
X-29083446Y-11556949D03*
X-29083446Y-14096949D03*
X-29083446Y-16636949D03*
%TD*%
D11*
%TO.C,H15*%
X-196057300Y-33020000D03*
D10*
X-196057300Y-33020000D03*
%TD*%
D14*
%TO.C,J3V3*%
X-66800000Y12380000D03*
%TD*%
%TO.C,J1-3*%
X-24003000Y-23621949D03*
D15*
X-24003000Y-26161949D03*
X-24003000Y-28701949D03*
X-24003000Y-31241949D03*
X-26503000Y-31241949D03*
X-26503000Y-28701949D03*
X-26503000Y-26161949D03*
X-26503000Y-23621949D03*
%TD*%
D13*
%TO.C,JRX3*%
X-111735900Y-13855900D03*
%TD*%
D24*
%TO.C,JP18*%
X-57121300Y-26797000D03*
D25*
X-58421300Y-26797000D03*
D26*
X-59721300Y-26797000D03*
%TD*%
D14*
%TO.C,J1-3-1*%
X-29083446Y-23621949D03*
D15*
X-29083446Y-26161949D03*
X-29083446Y-28701949D03*
X-29083446Y-31241949D03*
%TD*%
D10*
%TO.C,H9*%
X-63560000Y5007100D03*
D11*
X-63560000Y5007100D03*
%TD*%
D13*
%TO.C,CAN1*%
X-48489900Y-20459900D03*
D15*
X-48489900Y-17919900D03*
%TD*%
D11*
%TO.C,H6*%
X50677600Y13999800D03*
D10*
X50677600Y13999800D03*
%TD*%
%TO.C,H12*%
X-63560000Y33007100D03*
D11*
X-63560000Y33007100D03*
%TD*%
D10*
%TO.C,H13*%
X-102109300Y33020000D03*
D11*
X-102109300Y33020000D03*
%TD*%
D14*
%TO.C,JUT1*%
X-21463000Y-9016949D03*
D15*
X-21463000Y-11556949D03*
X-21463000Y-14096949D03*
X-21463000Y-16636949D03*
%TD*%
D13*
%TO.C,JTX3*%
X-109195900Y-13855900D03*
%TD*%
%TO.C,JA11*%
X-124435900Y-13855900D03*
%TD*%
D29*
%TO.C,RV1*%
X-9627900Y12687100D03*
X-12167900Y15227100D03*
X-14707900Y12687100D03*
%TD*%
D10*
%TO.C,H2*%
X0Y33020000D03*
D11*
X0Y33020000D03*
%TD*%
D30*
%TO.C,JP2*%
X-41153900Y-20407800D03*
D25*
X-39853900Y-20407800D03*
D31*
X-38553900Y-20407800D03*
%TD*%
D14*
%TO.C,JGPS1*%
X-80900000Y-20011000D03*
D15*
X-80900000Y-22551000D03*
X-80900000Y-25091000D03*
X-80900000Y-27631000D03*
X-80900000Y-30171000D03*
%TD*%
D32*
%TO.C,PD1*%
X8128000Y25908000D03*
D33*
X5588000Y25908000D03*
%TD*%
D14*
%TO.C,JA1*%
X-29083446Y5588051D03*
D15*
X-29083446Y3048051D03*
X-29083446Y508051D03*
X-29083446Y-2031949D03*
%TD*%
D13*
%TO.C,JTX8*%
X-111735900Y-34175900D03*
%TD*%
D27*
%TO.C,JP9*%
X-17130000Y-26162000D03*
D28*
X-18430000Y-26162000D03*
%TD*%
D34*
%TO.C,UT2*%
X3505200Y-13462000D03*
D35*
X3505200Y-12192000D03*
X3505200Y-10922000D03*
%TD*%
D10*
%TO.C,H10*%
X-35560000Y33007100D03*
D11*
X-35560000Y33007100D03*
%TD*%
D27*
%TO.C,JP3*%
X-17130000Y-23622000D03*
D28*
X-18430000Y-23622000D03*
%TD*%
D13*
%TO.C,JCK2*%
X-106655900Y-34175900D03*
%TD*%
%TO.C,JTX7*%
X-114275900Y-13855900D03*
%TD*%
D12*
%TO.C,H20*%
X-178905300Y28753000D03*
%TD*%
D14*
%TO.C,JD1*%
X-21463000Y5588051D03*
D15*
X-21463000Y3048051D03*
X-21463000Y508051D03*
X-21463000Y-2031949D03*
%TD*%
D13*
%TO.C,JSS1*%
X-119355900Y-34175900D03*
%TD*%
D12*
%TO.C,H18*%
X-126905300Y-2947000D03*
%TD*%
D30*
%TO.C,JP1*%
X-41153900Y-17740800D03*
D25*
X-39853900Y-17740800D03*
D31*
X-38553900Y-17740800D03*
%TD*%
D13*
%TO.C,JGND1*%
X-129515900Y-34175900D03*
%TD*%
D12*
%TO.C,H19*%
X-178905300Y-2947000D03*
%TD*%
D36*
%TO.C,JP7*%
X-33290300Y-30226000D03*
D37*
X-31990300Y-30226000D03*
%TD*%
D13*
%TO.C,JSS2*%
X-116815900Y-34175900D03*
%TD*%
%TO.C,JA13*%
X-119355900Y-13855900D03*
%TD*%
D10*
%TO.C,H5*%
X22677600Y-14000200D03*
D11*
X22677600Y-14000200D03*
%TD*%
D27*
%TO.C,JP10*%
X-17130000Y-28702000D03*
D28*
X-18430000Y-28702000D03*
%TD*%
D10*
%TO.C,H1*%
X0Y-33020000D03*
D11*
X0Y-33020000D03*
%TD*%
%TO.C,H16*%
X-102109300Y-33020000D03*
D10*
X-102109300Y-33020000D03*
%TD*%
D14*
%TO.C,J1-1*%
X-24004300Y5588000D03*
D15*
X-24004300Y3048000D03*
X-24004300Y508000D03*
X-24004300Y-2032000D03*
X-26504300Y-2032000D03*
X-26504300Y508000D03*
X-26504300Y3048000D03*
X-26504300Y5588000D03*
%TD*%
D13*
%TO.C,JSS3*%
X-114275900Y-34175900D03*
%TD*%
%TO.C,JOUT1*%
X-106655900Y-13855900D03*
%TD*%
D14*
%TO.C,J1-3-2*%
X-21463000Y-23621949D03*
D15*
X-21463000Y-26161949D03*
X-21463000Y-28701949D03*
X-21463000Y-31241949D03*
%TD*%
D13*
%TO.C,JA10*%
X-126975900Y-13855900D03*
%TD*%
D36*
%TO.C,JP5*%
X-33416000Y-27686000D03*
D37*
X-32116000Y-27686000D03*
%TD*%
D38*
%TO.C,TP4*%
X-103086300Y22733000D03*
%TD*%
D13*
%TO.C,JMISO1*%
X-121895900Y-34175900D03*
%TD*%
D36*
%TO.C,JP6*%
X-33289000Y-32766000D03*
D37*
X-31989000Y-32766000D03*
%TD*%
D38*
%TO.C,SW5*%
X-179764300Y-16510000D03*
X-186264300Y-16510000D03*
X-186264300Y-21010000D03*
X-179764300Y-21010000D03*
%TD*%
%TO.C,SW0*%
X-195796300Y0D03*
X-189296300Y0D03*
X-195796300Y-4500000D03*
X-189296300Y-4500000D03*
%TD*%
D14*
%TO.C,J7*%
X55372000Y-27432000D03*
D15*
X52832000Y-27432000D03*
X50292000Y-27432000D03*
X47752000Y-27432000D03*
X45212000Y-27432000D03*
X42672000Y-27432000D03*
X40132000Y-27432000D03*
X37592000Y-27432000D03*
X35052000Y-27432000D03*
X32512000Y-27432000D03*
X29972000Y-27432000D03*
X27432000Y-27432000D03*
X24892000Y-27432000D03*
X22352000Y-27432000D03*
X19812000Y-27432000D03*
X17272000Y-27432000D03*
X55372000Y-29972000D03*
X52832000Y-29972000D03*
X50292000Y-29972000D03*
X47752000Y-29972000D03*
X45212000Y-29972000D03*
X42672000Y-29972000D03*
X40132000Y-29972000D03*
X37592000Y-29972000D03*
X35052000Y-29972000D03*
X32512000Y-29972000D03*
X29972000Y-29972000D03*
X27432000Y-29972000D03*
X24892000Y-29972000D03*
X22352000Y-29972000D03*
X19812000Y-29972000D03*
X17272000Y-29972000D03*
X55372000Y-32512000D03*
X52832000Y-32512000D03*
X50292000Y-32512000D03*
X47752000Y-32512000D03*
X45212000Y-32512000D03*
X42672000Y-32512000D03*
X40132000Y-32512000D03*
X37592000Y-32512000D03*
X35052000Y-32512000D03*
X32512000Y-32512000D03*
X29972000Y-32512000D03*
X27432000Y-32512000D03*
X24892000Y-32512000D03*
X22352000Y-32512000D03*
X19812000Y-32512000D03*
X17272000Y-32512000D03*
X55372000Y-35052000D03*
X52832000Y-35052000D03*
X50292000Y-35052000D03*
X47752000Y-35052000D03*
X45212000Y-35052000D03*
X42672000Y-35052000D03*
X40132000Y-35052000D03*
X37592000Y-35052000D03*
X35052000Y-35052000D03*
X32512000Y-35052000D03*
X29972000Y-35052000D03*
X27432000Y-35052000D03*
X24892000Y-35052000D03*
X22352000Y-35052000D03*
X19812000Y-35052000D03*
X17272000Y-35052000D03*
%TD*%
D38*
%TO.C,SW2*%
X-186264300Y-8255000D03*
X-179764300Y-8255000D03*
X-179764300Y-12755000D03*
X-186264300Y-12755000D03*
%TD*%
D14*
%TO.C,J5-1*%
X-85090000Y-3810000D03*
D15*
X-82550000Y-3810000D03*
X-80010000Y-3810000D03*
X-77470000Y-3810000D03*
X-74930000Y-3810000D03*
X-72390000Y-3810000D03*
%TD*%
D14*
%TO.C,J3V1-1*%
X-19051300Y17526000D03*
%TD*%
D38*
%TO.C,SW9*%
X-189289300Y-24765000D03*
X-195789300Y-24765000D03*
X-189289300Y-29265000D03*
X-195789300Y-29265000D03*
%TD*%
%TO.C,TP1*%
X-13843000Y31496000D03*
%TD*%
D14*
%TO.C,JAPC-1*%
X-33528000Y-12900D03*
D15*
X-36068000Y-12900D03*
X-38608000Y-12900D03*
X-41148000Y-12900D03*
X-43688000Y-12900D03*
X-46228000Y-12900D03*
X-48768000Y-12900D03*
%TD*%
D14*
%TO.C,J5V3-1*%
X-18035300Y32766000D03*
%TD*%
%TO.C,JI2C3v-1*%
X-54610000Y-21711600D03*
D15*
X-54610000Y-24251600D03*
X-54610000Y-26791600D03*
X-54610000Y-29331600D03*
%TD*%
D38*
%TO.C,TP5v0-1*%
X-17400300Y23368000D03*
%TD*%
D34*
%TO.C,UT1*%
X3505200Y13462000D03*
D35*
X3505200Y12192000D03*
X3505200Y10922000D03*
%TD*%
D39*
%TO.C,JCAM2*%
X-54737000Y-12954000D03*
D40*
X-57237000Y-12954000D03*
X-59737000Y-12954000D03*
X-62237000Y-12954000D03*
%TD*%
D38*
%TO.C,TP2*%
X-9653300Y31496000D03*
%TD*%
D14*
%TO.C,J3V0-1*%
X-7620000Y-29337000D03*
%TD*%
D41*
%TO.C,U7*%
X-132055900Y-18935900D03*
X-132055900Y-21475900D03*
X-132055900Y-24015900D03*
X-132055900Y-26555900D03*
X-132055900Y-29095900D03*
D42*
X-165075900Y-16395900D03*
D41*
X-162535900Y-16395900D03*
X-159995900Y-16395900D03*
X-157455900Y-16395900D03*
X-154915900Y-16395900D03*
X-152375900Y-16395900D03*
X-149835900Y-16395900D03*
X-147295900Y-16395900D03*
X-144755900Y-16395900D03*
X-142215900Y-16395900D03*
X-139675900Y-16395900D03*
X-137135900Y-16395900D03*
X-134595900Y-16395900D03*
X-132055900Y-16395900D03*
X-129515900Y-16395900D03*
X-126975900Y-16395900D03*
X-124435900Y-16395900D03*
X-121895900Y-16395900D03*
X-119355900Y-16395900D03*
X-116815900Y-16395900D03*
X-114275900Y-16395900D03*
X-111735900Y-16395900D03*
X-109195900Y-16395900D03*
X-106655900Y-16395900D03*
X-106655900Y-31635900D03*
X-109195900Y-31635900D03*
X-111735900Y-31635900D03*
X-114275900Y-31635900D03*
X-116815900Y-31635900D03*
X-119355900Y-31635900D03*
X-121895900Y-31635900D03*
X-124435900Y-31635900D03*
X-126975900Y-31635900D03*
X-129515900Y-31635900D03*
X-132055900Y-31635900D03*
X-134595900Y-31635900D03*
X-137135900Y-31635900D03*
X-139675900Y-31635900D03*
X-142215900Y-31635900D03*
X-144755900Y-31635900D03*
X-147295900Y-31635900D03*
X-149835900Y-31635900D03*
X-152375900Y-31635900D03*
X-154915900Y-31635900D03*
X-157455900Y-31635900D03*
X-159995900Y-31635900D03*
X-162535900Y-31635900D03*
X-165075900Y-31635900D03*
X-162535900Y-29095900D03*
X-119355900Y-18935900D03*
X-119355900Y-21475900D03*
X-119355900Y-24015900D03*
X-119355900Y-26555900D03*
X-119355900Y-29095900D03*
%TD*%
D38*
%TO.C,SW7*%
X-170246300Y-24765000D03*
X-176746300Y-24765000D03*
X-170246300Y-29265000D03*
X-176746300Y-29265000D03*
%TD*%
D18*
%TO.C,U1*%
X7620000Y4064000D03*
D19*
X7620000Y6604000D03*
X7620000Y14224000D03*
X7620000Y16764000D03*
X7620000Y19304000D03*
X15240000Y19304000D03*
X15240000Y16764000D03*
X15240000Y14224000D03*
X15240000Y6604000D03*
X15240000Y4064000D03*
%TD*%
D38*
%TO.C,SW1*%
X-170239300Y-8255000D03*
X-176739300Y-8255000D03*
X-176739300Y-12755000D03*
X-170239300Y-12755000D03*
%TD*%
D14*
%TO.C,J4*%
X-72390000Y16510000D03*
D15*
X-74930000Y16510000D03*
X-77470000Y16510000D03*
X-80010000Y16510000D03*
X-82550000Y16510000D03*
X-85090000Y16510000D03*
X-87630000Y16510000D03*
%TD*%
D43*
%TO.C,JALT1*%
X-48648000Y-24645500D03*
D40*
X-46148000Y-24645500D03*
X-43648000Y-24645500D03*
X-41148000Y-24645500D03*
X-38648000Y-24645500D03*
X-36148000Y-24645500D03*
X-33648000Y-24645500D03*
%TD*%
D38*
%TO.C,TP3*%
X-5462300Y31496000D03*
%TD*%
%TO.C,SW8*%
X-179764300Y-24765000D03*
X-186264300Y-24765000D03*
X-179764300Y-29265000D03*
X-186264300Y-29265000D03*
%TD*%
D44*
%TO.C,J3*%
X-188684300Y21590000D03*
D45*
X-188684300Y27590000D03*
D46*
X-183984300Y24590000D03*
%TD*%
D38*
%TO.C,TPv1-1*%
X-13835900Y23400000D03*
%TD*%
D14*
%TO.C,JIR1*%
X-82550000Y29210000D03*
D15*
X-82550000Y26670000D03*
X-82550000Y24130000D03*
X-82550000Y21590000D03*
%TD*%
D14*
%TO.C,JIF1*%
X-95250000Y3810000D03*
D15*
X-95250000Y1270000D03*
X-95250000Y-1270000D03*
X-95250000Y-3810000D03*
%TD*%
D38*
%TO.C,SW10*%
X-189296300Y8382000D03*
X-195796300Y8382000D03*
X-195796300Y3882000D03*
X-189296300Y3882000D03*
%TD*%
D14*
%TO.C,JDIS2*%
X-126905300Y25603000D03*
D15*
X-126905300Y23063000D03*
X-126905300Y20523000D03*
X-126905300Y17983000D03*
X-126905300Y15443000D03*
X-126905300Y12903000D03*
X-126905300Y10363000D03*
X-126905300Y7823000D03*
X-126905300Y5283000D03*
X-126905300Y2743000D03*
X-126905300Y203000D03*
%TD*%
D14*
%TO.C,J5V3-2*%
X-11303000Y-29337000D03*
%TD*%
D39*
%TO.C,JCAM1*%
X-54730000Y-2794000D03*
D40*
X-57230000Y-2794000D03*
X-59730000Y-2794000D03*
X-62230000Y-2794000D03*
%TD*%
D14*
%TO.C,JGND1-1*%
X3810000Y32766000D03*
%TD*%
D43*
%TO.C,JGPS3*%
X-88098000Y-15887900D03*
D40*
X-85598000Y-15887900D03*
X-83098000Y-15887900D03*
X-80598000Y-15887900D03*
X-78098000Y-15887900D03*
X-75598000Y-15887900D03*
%TD*%
D38*
%TO.C,SW6*%
X-189296300Y-16510000D03*
X-195796300Y-16510000D03*
X-195796300Y-21010000D03*
X-189296300Y-21010000D03*
%TD*%
D47*
%TO.C,JBAT2*%
X-109189300Y30048000D03*
D48*
X-109189300Y25728000D03*
D49*
X-109189300Y22728000D03*
%TD*%
D38*
%TO.C,SW3*%
X-189296300Y-8255000D03*
X-195796300Y-8255000D03*
X-195796300Y-12755000D03*
X-189296300Y-12755000D03*
%TD*%
D14*
%TO.C,J5-2*%
X-82550000Y11430000D03*
D15*
X-80010000Y11430000D03*
X-77470000Y11430000D03*
X-74930000Y11430000D03*
%TD*%
D14*
%TO.C,JGPS2*%
X-85090000Y-8890000D03*
D15*
X-82550000Y-8890000D03*
X-80010000Y-8890000D03*
X-77470000Y-8890000D03*
X-74930000Y-8890000D03*
%TD*%
D14*
%TO.C,JAPC-2*%
X-106649300Y-12900D03*
D15*
X-109189300Y-12900D03*
X-111729300Y-12900D03*
X-114269300Y-12900D03*
X-116809300Y-12900D03*
X-119349300Y-12900D03*
X-121889300Y-12900D03*
%TD*%
D38*
%TO.C,SW4*%
X-176739300Y-16510000D03*
X-170239300Y-16510000D03*
X-176739300Y-21010000D03*
X-170239300Y-21010000D03*
%TD*%
D14*
%TO.C,JGND1-2*%
X508000Y-25908000D03*
%TD*%
%TO.C,JAC2*%
X45552700Y23398000D03*
D15*
X43012700Y23398000D03*
X40472700Y23398000D03*
X37932700Y23398000D03*
X35392700Y23398000D03*
X32852700Y23398000D03*
X30312700Y23398000D03*
X27772700Y23398000D03*
%TD*%
D38*
%TO.C,TPv1-2*%
X-13835900Y-12715000D03*
%TD*%
D14*
%TO.C,JVIN1-1*%
X-18035300Y28702000D03*
%TD*%
%TO.C,JDIS1*%
X-137894300Y28917000D03*
D15*
X-140434300Y28917000D03*
X-142974300Y28917000D03*
X-145514300Y28917000D03*
X-148054300Y28917000D03*
X-150594300Y28917000D03*
X-153134300Y28917000D03*
X-155674300Y28917000D03*
%TD*%
D14*
%TO.C,JIF2*%
X-100838000Y3810000D03*
D15*
X-100838000Y1270000D03*
X-100838000Y-1270000D03*
X-100838000Y-3810000D03*
%TD*%
D47*
%TO.C,JBAT1*%
X-72390000Y30050000D03*
D48*
X-72390000Y25730000D03*
D49*
X-72390000Y22730000D03*
%TD*%
D38*
%TO.C,TP5*%
X-13843000Y27432000D03*
%TD*%
D32*
%TO.C,PD2*%
X8128000Y-25908000D03*
D33*
X5588000Y-25908000D03*
%TD*%
D14*
%TO.C,J6*%
X55372000Y35052000D03*
D15*
X52832000Y35052000D03*
X50292000Y35052000D03*
X47752000Y35052000D03*
X45212000Y35052000D03*
X42672000Y35052000D03*
X40132000Y35052000D03*
X37592000Y35052000D03*
X35052000Y35052000D03*
X32512000Y35052000D03*
X29972000Y35052000D03*
X27432000Y35052000D03*
X24892000Y35052000D03*
X22352000Y35052000D03*
X19812000Y35052000D03*
X17272000Y35052000D03*
X55372000Y32512000D03*
X52832000Y32512000D03*
X50292000Y32512000D03*
X47752000Y32512000D03*
X45212000Y32512000D03*
X42672000Y32512000D03*
X40132000Y32512000D03*
X37592000Y32512000D03*
X35052000Y32512000D03*
X32512000Y32512000D03*
X29972000Y32512000D03*
X27432000Y32512000D03*
X24892000Y32512000D03*
X22352000Y32512000D03*
X19812000Y32512000D03*
X17272000Y32512000D03*
X55372000Y29972000D03*
X52832000Y29972000D03*
X50292000Y29972000D03*
X47752000Y29972000D03*
X45212000Y29972000D03*
X42672000Y29972000D03*
X40132000Y29972000D03*
X37592000Y29972000D03*
X35052000Y29972000D03*
X32512000Y29972000D03*
X29972000Y29972000D03*
X27432000Y29972000D03*
X24892000Y29972000D03*
X22352000Y29972000D03*
X19812000Y29972000D03*
X17272000Y29972000D03*
X55372000Y27432000D03*
X52832000Y27432000D03*
X50292000Y27432000D03*
X47752000Y27432000D03*
X45212000Y27432000D03*
X42672000Y27432000D03*
X40132000Y27432000D03*
X37592000Y27432000D03*
X35052000Y27432000D03*
X32512000Y27432000D03*
X29972000Y27432000D03*
X27432000Y27432000D03*
X24892000Y27432000D03*
X22352000Y27432000D03*
X19812000Y27432000D03*
X17272000Y27432000D03*
%TD*%
D14*
%TO.C,JI2C1*%
X-62230000Y-21717000D03*
D15*
X-62230000Y-24257000D03*
X-62230000Y-26797000D03*
X-62230000Y-29337000D03*
%TD*%
M02*
