%TF.GenerationSoftware,KiCad,Pcbnew,6.0.2+dfsg-1*%
%TF.CreationDate,2023-07-10T21:46:12-06:00*%
%TF.ProjectId,SpectDroneControl,53706563-7444-4726-9f6e-65436f6e7472,rev?*%
%TF.SameCoordinates,PXbc941f8PY5f519c8*%
%TF.FileFunction,Paste,Bot*%
%TF.FilePolarity,Positive*%
%FSLAX46Y46*%
G04 Gerber Fmt 4.6, Leading zero omitted, Abs format (unit mm)*
G04 Created by KiCad (PCBNEW 6.0.2+dfsg-1) date 2023-07-10 21:46:12*
%MOMM*%
%LPD*%
G01*
G04 APERTURE LIST*
G04 Aperture macros list*
%AMRoundRect*
0 Rectangle with rounded corners*
0 $1 Rounding radius*
0 $2 $3 $4 $5 $6 $7 $8 $9 X,Y pos of 4 corners*
0 Add a 4 corners polygon primitive as box body*
4,1,4,$2,$3,$4,$5,$6,$7,$8,$9,$2,$3,0*
0 Add four circle primitives for the rounded corners*
1,1,$1+$1,$2,$3*
1,1,$1+$1,$4,$5*
1,1,$1+$1,$6,$7*
1,1,$1+$1,$8,$9*
0 Add four rect primitives between the rounded corners*
20,1,$1+$1,$2,$3,$4,$5,0*
20,1,$1+$1,$4,$5,$6,$7,0*
20,1,$1+$1,$6,$7,$8,$9,0*
20,1,$1+$1,$8,$9,$2,$3,0*%
G04 Aperture macros list end*
%ADD10RoundRect,0.250000X0.450000X-0.262500X0.450000X0.262500X-0.450000X0.262500X-0.450000X-0.262500X0*%
%ADD11RoundRect,0.250000X-0.450000X0.262500X-0.450000X-0.262500X0.450000X-0.262500X0.450000X0.262500X0*%
%ADD12RoundRect,0.250000X-0.262500X-0.450000X0.262500X-0.450000X0.262500X0.450000X-0.262500X0.450000X0*%
%ADD13RoundRect,0.250000X0.262500X0.450000X-0.262500X0.450000X-0.262500X-0.450000X0.262500X-0.450000X0*%
%ADD14RoundRect,0.250000X0.250000X0.475000X-0.250000X0.475000X-0.250000X-0.475000X0.250000X-0.475000X0*%
%ADD15RoundRect,0.250000X0.475000X-0.250000X0.475000X0.250000X-0.475000X0.250000X-0.475000X-0.250000X0*%
%ADD16R,0.300000X1.600000*%
%ADD17RoundRect,0.250000X-0.475000X0.250000X-0.475000X-0.250000X0.475000X-0.250000X0.475000X0.250000X0*%
%ADD18RoundRect,0.250000X0.132583X-0.503814X0.503814X-0.132583X-0.132583X0.503814X-0.503814X0.132583X0*%
%ADD19RoundRect,0.100000X0.100000X-0.637500X0.100000X0.637500X-0.100000X0.637500X-0.100000X-0.637500X0*%
%ADD20RoundRect,0.100000X0.637500X0.100000X-0.637500X0.100000X-0.637500X-0.100000X0.637500X-0.100000X0*%
G04 APERTURE END LIST*
D10*
%TO.C,R55*%
X-15748000Y14835500D03*
X-15748000Y16660500D03*
%TD*%
%TO.C,R47*%
X-33910000Y-10755000D03*
X-33910000Y-8930000D03*
%TD*%
D11*
%TO.C,R42*%
X-24257000Y-11787500D03*
X-24257000Y-13612500D03*
%TD*%
D12*
%TO.C,R21*%
X-4976500Y-3300949D03*
X-3151500Y-3300949D03*
%TD*%
D13*
%TO.C,R13*%
X-41251500Y-18542000D03*
X-43076500Y-18542000D03*
%TD*%
D11*
%TO.C,R36*%
X-59182000Y-22455500D03*
X-59182000Y-24280500D03*
%TD*%
D13*
%TO.C,R41*%
X-24233500Y5588000D03*
X-26058500Y5588000D03*
%TD*%
%TO.C,R64*%
X-73509500Y-20574000D03*
X-75334500Y-20574000D03*
%TD*%
D12*
%TO.C,R29*%
X-52728500Y-2921000D03*
X-50903500Y-2921000D03*
%TD*%
D13*
%TO.C,R61*%
X-73509500Y-12954000D03*
X-75334500Y-12954000D03*
%TD*%
D14*
%TO.C,C5*%
X-3368000Y8382000D03*
X-5268000Y8382000D03*
%TD*%
D13*
%TO.C,R40*%
X-24233500Y3048000D03*
X-26058500Y3048000D03*
%TD*%
D15*
%TO.C,C6*%
X-64008000Y-24318000D03*
X-64008000Y-22418000D03*
%TD*%
D13*
%TO.C,R66*%
X-73509500Y-25654000D03*
X-75334500Y-25654000D03*
%TD*%
%TO.C,R9*%
X-41251500Y-28702000D03*
X-43076500Y-28702000D03*
%TD*%
D16*
%TO.C,U7*%
X-85385000Y-25652949D03*
X-86035000Y-25652949D03*
X-86685000Y-25652949D03*
X-87335000Y-25652949D03*
X-87335000Y-22252949D03*
X-86685000Y-22252949D03*
X-86035000Y-22252949D03*
X-85385000Y-22252949D03*
%TD*%
D14*
%TO.C,C4*%
X-6670000Y-9271000D03*
X-8570000Y-9271000D03*
%TD*%
D12*
%TO.C,R5*%
X-5230500Y6350000D03*
X-3405500Y6350000D03*
%TD*%
D13*
%TO.C,R23*%
X-56999500Y15748000D03*
X-58824500Y15748000D03*
%TD*%
D12*
%TO.C,R20*%
X-4976500Y-5232400D03*
X-3151500Y-5232400D03*
%TD*%
D10*
%TO.C,R50*%
X-5588000Y14835500D03*
X-5588000Y16660500D03*
%TD*%
%TO.C,R56*%
X-17780000Y14835500D03*
X-17780000Y16660500D03*
%TD*%
D13*
%TO.C,R12*%
X-41251500Y-21082000D03*
X-43076500Y-21082000D03*
%TD*%
D12*
%TO.C,R30*%
X-52728500Y-5461000D03*
X-50903500Y-5461000D03*
%TD*%
D10*
%TO.C,R49*%
X-3556000Y14835500D03*
X-3556000Y16660500D03*
%TD*%
D13*
%TO.C,R67*%
X-73509500Y-28194000D03*
X-75334500Y-28194000D03*
%TD*%
%TO.C,R16*%
X-41251500Y-10922000D03*
X-43076500Y-10922000D03*
%TD*%
D17*
%TO.C,C7-2*%
X-83693000Y-22357000D03*
X-83693000Y-24257000D03*
%TD*%
D13*
%TO.C,R59*%
X-73509500Y-7874000D03*
X-75334500Y-7874000D03*
%TD*%
D10*
%TO.C,R51*%
X-7620000Y14835500D03*
X-7620000Y16660500D03*
%TD*%
D12*
%TO.C,R19*%
X-4976500Y-7162800D03*
X-3151500Y-7162800D03*
%TD*%
D10*
%TO.C,R38*%
X-18288000Y-2182500D03*
X-18288000Y-357500D03*
%TD*%
D13*
%TO.C,R58*%
X-73509500Y-5334000D03*
X-75334500Y-5334000D03*
%TD*%
D12*
%TO.C,R34*%
X-52728500Y-15621000D03*
X-50903500Y-15621000D03*
%TD*%
D13*
%TO.C,R7-1*%
X-85414862Y-19962049D03*
X-87239862Y-19962049D03*
%TD*%
D12*
%TO.C,R7-2*%
X-87255062Y-29817249D03*
X-85430062Y-29817249D03*
%TD*%
D13*
%TO.C,R25*%
X-56999500Y11684000D03*
X-58824500Y11684000D03*
%TD*%
D11*
%TO.C,R35*%
X-57150000Y-22455500D03*
X-57150000Y-24280500D03*
%TD*%
%TO.C,R4*%
X-8763000Y-11025500D03*
X-8763000Y-12850500D03*
%TD*%
%TO.C,R43*%
X-26212800Y-11787500D03*
X-26212800Y-13612500D03*
%TD*%
D13*
%TO.C,R65*%
X-73509500Y-23114000D03*
X-75334500Y-23114000D03*
%TD*%
D11*
%TO.C,R37*%
X-61214000Y-22455500D03*
X-61214000Y-24280500D03*
%TD*%
D10*
%TO.C,R46*%
X-31878000Y-10755000D03*
X-31878000Y-8930000D03*
%TD*%
D13*
%TO.C,R27*%
X-44807500Y8509000D03*
X-46632500Y8509000D03*
%TD*%
D10*
%TO.C,R57*%
X-19812000Y14835500D03*
X-19812000Y16660500D03*
%TD*%
D18*
%TO.C,R8*%
X-13090681Y-19694184D03*
X-11800211Y-18403714D03*
%TD*%
D13*
%TO.C,R24*%
X-56999500Y13716000D03*
X-58824500Y13716000D03*
%TD*%
D14*
%TO.C,C7-1*%
X-85392562Y-27786549D03*
X-87292562Y-27786549D03*
%TD*%
D13*
%TO.C,R60*%
X-73509500Y-10414000D03*
X-75334500Y-10414000D03*
%TD*%
%TO.C,R17*%
X-41251500Y-8382000D03*
X-43076500Y-8382000D03*
%TD*%
D12*
%TO.C,R33*%
X-52728500Y-13081000D03*
X-50903500Y-13081000D03*
%TD*%
D10*
%TO.C,R48*%
X-1524000Y14835500D03*
X-1524000Y16660500D03*
%TD*%
D13*
%TO.C,R10*%
X-41251500Y-26162000D03*
X-43076500Y-26162000D03*
%TD*%
%TO.C,R28*%
X-44807500Y2108200D03*
X-46632500Y2108200D03*
%TD*%
%TO.C,R63*%
X-73509500Y-18034000D03*
X-75334500Y-18034000D03*
%TD*%
D19*
%TO.C,U4*%
X-10395000Y-15562500D03*
X-11045000Y-15562500D03*
X-11695000Y-15562500D03*
X-12345000Y-15562500D03*
X-12995000Y-15562500D03*
X-13645000Y-15562500D03*
X-14295000Y-15562500D03*
X-14945000Y-15562500D03*
X-15595000Y-15562500D03*
X-16245000Y-15562500D03*
X-16895000Y-15562500D03*
X-17545000Y-15562500D03*
X-17545000Y-9837500D03*
X-16895000Y-9837500D03*
X-16245000Y-9837500D03*
X-15595000Y-9837500D03*
X-14945000Y-9837500D03*
X-14295000Y-9837500D03*
X-13645000Y-9837500D03*
X-12995000Y-9837500D03*
X-12345000Y-9837500D03*
X-11695000Y-9837500D03*
X-11045000Y-9837500D03*
X-10395000Y-9837500D03*
%TD*%
D13*
%TO.C,R11*%
X-41251500Y-23622000D03*
X-43076500Y-23622000D03*
%TD*%
D10*
%TO.C,R6*%
X-64516000Y-11477000D03*
X-64516000Y-9652000D03*
%TD*%
D12*
%TO.C,R31*%
X-52728500Y-8001000D03*
X-50903500Y-8001000D03*
%TD*%
%TO.C,R18*%
X-4976500Y-9093200D03*
X-3151500Y-9093200D03*
%TD*%
D10*
%TO.C,R53*%
X-11684000Y14835500D03*
X-11684000Y16660500D03*
%TD*%
%TO.C,R54*%
X-13716000Y14835500D03*
X-13716000Y16660500D03*
%TD*%
D12*
%TO.C,R32*%
X-52728500Y-10541000D03*
X-50903500Y-10541000D03*
%TD*%
D13*
%TO.C,R26*%
X-56999500Y9652000D03*
X-58824500Y9652000D03*
%TD*%
%TO.C,R15*%
X-41251500Y-13462000D03*
X-43076500Y-13462000D03*
%TD*%
%TO.C,R14*%
X-41251500Y-16002000D03*
X-43076500Y-16002000D03*
%TD*%
%TO.C,R39*%
X-24233500Y508000D03*
X-26058500Y508000D03*
%TD*%
D11*
%TO.C,R44*%
X-33910000Y-5374000D03*
X-33910000Y-7199000D03*
%TD*%
D20*
%TO.C,U6*%
X-58859500Y-13189000D03*
X-58859500Y-13839000D03*
X-58859500Y-14489000D03*
X-58859500Y-15139000D03*
X-58859500Y-15789000D03*
X-58859500Y-16439000D03*
X-58859500Y-17089000D03*
X-58859500Y-17739000D03*
X-58859500Y-18389000D03*
X-58859500Y-19039000D03*
X-58859500Y-19689000D03*
X-58859500Y-20339000D03*
X-64584500Y-20339000D03*
X-64584500Y-19689000D03*
X-64584500Y-19039000D03*
X-64584500Y-18389000D03*
X-64584500Y-17739000D03*
X-64584500Y-17089000D03*
X-64584500Y-16439000D03*
X-64584500Y-15789000D03*
X-64584500Y-15139000D03*
X-64584500Y-14489000D03*
X-64584500Y-13839000D03*
X-64584500Y-13189000D03*
%TD*%
D13*
%TO.C,R22*%
X-56999500Y17780000D03*
X-58824500Y17780000D03*
%TD*%
D11*
%TO.C,R45*%
X-31878000Y-5374000D03*
X-31878000Y-7199000D03*
%TD*%
D19*
%TO.C,U5*%
X-7855000Y-1084500D03*
X-8505000Y-1084500D03*
X-9155000Y-1084500D03*
X-9805000Y-1084500D03*
X-10455000Y-1084500D03*
X-11105000Y-1084500D03*
X-11755000Y-1084500D03*
X-12405000Y-1084500D03*
X-13055000Y-1084500D03*
X-13705000Y-1084500D03*
X-14355000Y-1084500D03*
X-15005000Y-1084500D03*
X-15005000Y4640500D03*
X-14355000Y4640500D03*
X-13705000Y4640500D03*
X-13055000Y4640500D03*
X-12405000Y4640500D03*
X-11755000Y4640500D03*
X-11105000Y4640500D03*
X-10455000Y4640500D03*
X-9805000Y4640500D03*
X-9155000Y4640500D03*
X-8505000Y4640500D03*
X-7855000Y4640500D03*
%TD*%
D10*
%TO.C,R52*%
X-9652000Y14835500D03*
X-9652000Y16660500D03*
%TD*%
D13*
%TO.C,R62*%
X-73509500Y-15494000D03*
X-75334500Y-15494000D03*
%TD*%
M02*
