%TF.GenerationSoftware,KiCad,Pcbnew,6.0.2+dfsg-1*%
%TF.CreationDate,2023-07-10T21:47:23-06:00*%
%TF.ProjectId,SpectDrone,53706563-7444-4726-9f6e-652e6b696361,rev?*%
%TF.SameCoordinates,PXd18240cPY697af44*%
%TF.FileFunction,Paste,Bot*%
%TF.FilePolarity,Positive*%
%FSLAX46Y46*%
G04 Gerber Fmt 4.6, Leading zero omitted, Abs format (unit mm)*
G04 Created by KiCad (PCBNEW 6.0.2+dfsg-1) date 2023-07-10 21:47:23*
%MOMM*%
%LPD*%
G01*
G04 APERTURE LIST*
G04 Aperture macros list*
%AMRoundRect*
0 Rectangle with rounded corners*
0 $1 Rounding radius*
0 $2 $3 $4 $5 $6 $7 $8 $9 X,Y pos of 4 corners*
0 Add a 4 corners polygon primitive as box body*
4,1,4,$2,$3,$4,$5,$6,$7,$8,$9,$2,$3,0*
0 Add four circle primitives for the rounded corners*
1,1,$1+$1,$2,$3*
1,1,$1+$1,$4,$5*
1,1,$1+$1,$6,$7*
1,1,$1+$1,$8,$9*
0 Add four rect primitives between the rounded corners*
20,1,$1+$1,$2,$3,$4,$5,0*
20,1,$1+$1,$4,$5,$6,$7,0*
20,1,$1+$1,$6,$7,$8,$9,0*
20,1,$1+$1,$8,$9,$2,$3,0*%
%AMFreePoly0*
4,1,9,3.862500,-0.866500,0.737500,-0.866500,0.737500,-0.450000,-0.737500,-0.450000,-0.737500,0.450000,0.737500,0.450000,0.737500,0.866500,3.862500,0.866500,3.862500,-0.866500,3.862500,-0.866500,$1*%
G04 Aperture macros list end*
%ADD10RoundRect,0.250000X-0.450000X0.262500X-0.450000X-0.262500X0.450000X-0.262500X0.450000X0.262500X0*%
%ADD11R,0.300000X0.800000*%
%ADD12R,1.500000X2.000000*%
%ADD13R,3.800000X2.000000*%
%ADD14RoundRect,0.200000X-0.200000X-0.275000X0.200000X-0.275000X0.200000X0.275000X-0.200000X0.275000X0*%
%ADD15RoundRect,0.140000X-0.140000X-0.170000X0.140000X-0.170000X0.140000X0.170000X-0.140000X0.170000X0*%
%ADD16RoundRect,0.250000X0.450000X-0.262500X0.450000X0.262500X-0.450000X0.262500X-0.450000X-0.262500X0*%
%ADD17RoundRect,0.140000X0.140000X0.170000X-0.140000X0.170000X-0.140000X-0.170000X0.140000X-0.170000X0*%
%ADD18RoundRect,0.135000X-0.185000X0.135000X-0.185000X-0.135000X0.185000X-0.135000X0.185000X0.135000X0*%
%ADD19RoundRect,0.100000X0.712500X0.100000X-0.712500X0.100000X-0.712500X-0.100000X0.712500X-0.100000X0*%
%ADD20RoundRect,0.125000X-0.537500X-0.125000X0.537500X-0.125000X0.537500X0.125000X-0.537500X0.125000X0*%
%ADD21RoundRect,0.250000X-0.250000X-0.475000X0.250000X-0.475000X0.250000X0.475000X-0.250000X0.475000X0*%
%ADD22RoundRect,0.225000X0.250000X-0.225000X0.250000X0.225000X-0.250000X0.225000X-0.250000X-0.225000X0*%
%ADD23RoundRect,0.250000X-0.475000X0.250000X-0.475000X-0.250000X0.475000X-0.250000X0.475000X0.250000X0*%
%ADD24RoundRect,0.250000X-0.275000X0.312500X-0.275000X-0.312500X0.275000X-0.312500X0.275000X0.312500X0*%
%ADD25RoundRect,0.135000X0.135000X0.185000X-0.135000X0.185000X-0.135000X-0.185000X0.135000X-0.185000X0*%
%ADD26RoundRect,0.150000X-0.587500X-0.150000X0.587500X-0.150000X0.587500X0.150000X-0.587500X0.150000X0*%
%ADD27RoundRect,0.250000X0.475000X-0.250000X0.475000X0.250000X-0.475000X0.250000X-0.475000X-0.250000X0*%
%ADD28RoundRect,0.225000X-0.225000X-0.250000X0.225000X-0.250000X0.225000X0.250000X-0.225000X0.250000X0*%
%ADD29RoundRect,0.140000X-0.170000X0.140000X-0.170000X-0.140000X0.170000X-0.140000X0.170000X0.140000X0*%
%ADD30R,0.900000X1.300000*%
%ADD31FreePoly0,270.000000*%
%ADD32RoundRect,0.250000X0.262500X0.450000X-0.262500X0.450000X-0.262500X-0.450000X0.262500X-0.450000X0*%
%ADD33R,3.800000X1.000000*%
%ADD34R,1.000000X1.650000*%
%ADD35R,1.000000X3.800000*%
%ADD36R,1.000000X1.000000*%
%ADD37R,2.130000X1.000000*%
%ADD38RoundRect,0.200000X-0.275000X0.200000X-0.275000X-0.200000X0.275000X-0.200000X0.275000X0.200000X0*%
%ADD39RoundRect,0.200000X0.200000X0.275000X-0.200000X0.275000X-0.200000X-0.275000X0.200000X-0.275000X0*%
%ADD40RoundRect,0.135000X0.185000X-0.135000X0.185000X0.135000X-0.185000X0.135000X-0.185000X-0.135000X0*%
%ADD41RoundRect,0.140000X0.170000X-0.140000X0.170000X0.140000X-0.170000X0.140000X-0.170000X-0.140000X0*%
%ADD42R,1.200000X1.200000*%
%ADD43RoundRect,0.225000X-0.250000X0.225000X-0.250000X-0.225000X0.250000X-0.225000X0.250000X0.225000X0*%
%ADD44R,1.600000X0.300000*%
%ADD45RoundRect,0.250000X-0.262500X-0.450000X0.262500X-0.450000X0.262500X0.450000X-0.262500X0.450000X0*%
%ADD46RoundRect,0.250000X0.850000X0.550000X-0.850000X0.550000X-0.850000X-0.550000X0.850000X-0.550000X0*%
%ADD47RoundRect,0.150000X0.150000X-0.587500X0.150000X0.587500X-0.150000X0.587500X-0.150000X-0.587500X0*%
%ADD48RoundRect,0.250000X-0.850000X-0.550000X0.850000X-0.550000X0.850000X0.550000X-0.850000X0.550000X0*%
%ADD49RoundRect,0.150000X0.150000X0.700000X-0.150000X0.700000X-0.150000X-0.700000X0.150000X-0.700000X0*%
%ADD50RoundRect,0.250000X0.250000X1.100000X-0.250000X1.100000X-0.250000X-1.100000X0.250000X-1.100000X0*%
%ADD51RoundRect,0.250000X0.250000X0.475000X-0.250000X0.475000X-0.250000X-0.475000X0.250000X-0.475000X0*%
G04 APERTURE END LIST*
D10*
%TO.C,RS7*%
X2540000Y-17121500D03*
X2540000Y-18946500D03*
%TD*%
D11*
%TO.C,U11*%
X-58178000Y-29998000D03*
X-58678000Y-29998000D03*
X-59178000Y-29998000D03*
X-59678000Y-29998000D03*
X-59678000Y-26898000D03*
X-59178000Y-26898000D03*
X-58678000Y-26898000D03*
X-58178000Y-26898000D03*
%TD*%
D12*
%TO.C,U4*%
X-23583900Y13728100D03*
D13*
X-25883900Y20028100D03*
D12*
X-25883900Y13728100D03*
X-28183900Y13728100D03*
%TD*%
D14*
%TO.C,R10*%
X1967700Y2921000D03*
X3617700Y2921000D03*
%TD*%
D15*
%TO.C,C22*%
X-14684575Y3922000D03*
X-13724575Y3922000D03*
%TD*%
D16*
%TO.C,R7*%
X-59309000Y-24534500D03*
X-59309000Y-22709500D03*
%TD*%
D17*
%TO.C,CS8*%
X-5870000Y-20955000D03*
X-6830000Y-20955000D03*
%TD*%
D18*
%TO.C,R16*%
X-15680500Y-3171000D03*
X-15680500Y-4191000D03*
%TD*%
D19*
%TO.C,US2*%
X-3729500Y-17059000D03*
X-3729500Y-17709000D03*
X-3729500Y-18359000D03*
X-3729500Y-19009000D03*
X-7954500Y-19009000D03*
X-7954500Y-18359000D03*
X-7954500Y-17709000D03*
X-7954500Y-17059000D03*
%TD*%
D15*
%TO.C,C23*%
X-12766575Y3922000D03*
X-11806575Y3922000D03*
%TD*%
D20*
%TO.C,U12*%
X-12314800Y-4150000D03*
X-12314800Y-3500000D03*
X-12314800Y-2850000D03*
X-12314800Y-2200000D03*
X-10039800Y-2200000D03*
X-10039800Y-2850000D03*
X-10039800Y-3500000D03*
X-10039800Y-4150000D03*
%TD*%
D16*
%TO.C,R11*%
X-59410600Y-33424500D03*
X-59410600Y-31599500D03*
%TD*%
D21*
%TO.C,C13*%
X-6986300Y-4064000D03*
X-5086300Y-4064000D03*
%TD*%
D22*
%TO.C,CS6*%
X508000Y-18809000D03*
X508000Y-17259000D03*
%TD*%
D23*
%TO.C,CS4*%
X-10160000Y18984000D03*
X-10160000Y17084000D03*
%TD*%
%TO.C,C3*%
X-20574000Y24061500D03*
X-20574000Y22161500D03*
%TD*%
D24*
%TO.C,C16*%
X-8577000Y4646700D03*
X-8577000Y2871700D03*
%TD*%
D18*
%TO.C,R17*%
X-15680500Y-1253000D03*
X-15680500Y-2273000D03*
%TD*%
D16*
%TO.C,R6*%
X-33324800Y-19657700D03*
X-33324800Y-17832700D03*
%TD*%
D23*
%TO.C,C9*%
X-41149300Y-17780000D03*
X-41149300Y-19680000D03*
%TD*%
D16*
%TO.C,R2*%
X-115651300Y15283500D03*
X-115651300Y17108500D03*
%TD*%
D17*
%TO.C,CS7*%
X-5362000Y-15240000D03*
X-6322000Y-15240000D03*
%TD*%
D25*
%TO.C,R20*%
X-13694575Y4938000D03*
X-14714575Y4938000D03*
%TD*%
D26*
%TO.C,U13*%
X1961200Y4450000D03*
X1961200Y6350000D03*
X3836200Y5400000D03*
%TD*%
D17*
%TO.C,CS2*%
X-5362000Y20828000D03*
X-6322000Y20828000D03*
%TD*%
D27*
%TO.C,CS5*%
X-12192000Y17084000D03*
X-12192000Y18984000D03*
%TD*%
D28*
%TO.C,C17*%
X-6811300Y-762000D03*
X-5261300Y-762000D03*
%TD*%
D29*
%TO.C,C21*%
X-14654900Y607000D03*
X-14654900Y-353000D03*
%TD*%
D30*
%TO.C,U3*%
X-25122000Y29145500D03*
D31*
X-23622000Y29058000D03*
D30*
X-22122000Y29145500D03*
%TD*%
D32*
%TO.C,RSW1*%
X-191619500Y12446000D03*
X-193444500Y12446000D03*
%TD*%
D33*
%TO.C,J5*%
X-10253100Y-6237100D03*
D34*
X-16983100Y-4912100D03*
D35*
X-3523100Y12900D03*
D34*
X-3523100Y4937900D03*
D36*
X-16983100Y6262900D03*
X-3523100Y-6237100D03*
D33*
X-10253100Y6262900D03*
D36*
X-16983100Y-6237100D03*
D37*
X-5088100Y-6237100D03*
D34*
X-3523100Y-4912100D03*
X-16983100Y4937900D03*
D37*
X-15418100Y6262900D03*
X-15418100Y-6237100D03*
D36*
X-3523100Y6262900D03*
D35*
X-16983100Y12900D03*
D37*
X-5088100Y6262900D03*
%TD*%
D38*
%TO.C,R14*%
X-10304200Y4749600D03*
X-10304200Y3099600D03*
%TD*%
D16*
%TO.C,RS5*%
X-1524000Y-18946500D03*
X-1524000Y-17121500D03*
%TD*%
D39*
%TO.C,R15*%
X-5211300Y762000D03*
X-6861300Y762000D03*
%TD*%
D10*
%TO.C,R_{PD.bias}1*%
X-8637300Y22690500D03*
X-8637300Y20865500D03*
%TD*%
D29*
%TO.C,C24*%
X-13336300Y2398000D03*
X-13336300Y1438000D03*
%TD*%
D40*
%TO.C,R23*%
X-12320300Y-510000D03*
X-12320300Y510000D03*
%TD*%
D23*
%TO.C,C5*%
X-111587300Y17146000D03*
X-111587300Y15246000D03*
%TD*%
D41*
%TO.C,C18*%
X-14664500Y-4161000D03*
X-14664500Y-3201000D03*
%TD*%
D42*
%TO.C,D1*%
X-27562000Y31292800D03*
X-24762000Y31292800D03*
%TD*%
D23*
%TO.C,CS9*%
X-10160000Y-17084000D03*
X-10160000Y-18984000D03*
%TD*%
D41*
%TO.C,C19*%
X-14664500Y-2243000D03*
X-14664500Y-1283000D03*
%TD*%
D27*
%TO.C,C8*%
X-113619300Y15246000D03*
X-113619300Y17146000D03*
%TD*%
D43*
%TO.C,C11*%
X1016000Y-11417000D03*
X1016000Y-12967000D03*
%TD*%
D22*
%TO.C,CS1*%
X508000Y17259000D03*
X508000Y18809000D03*
%TD*%
D16*
%TO.C,R1*%
X-24638000Y22199000D03*
X-24638000Y24024000D03*
%TD*%
D22*
%TO.C,C12*%
X1014000Y11411000D03*
X1014000Y12961000D03*
%TD*%
D40*
%TO.C,R22*%
X-12320300Y1408000D03*
X-12320300Y2428000D03*
%TD*%
D44*
%TO.C,U10*%
X-39015700Y-19687562D03*
X-39015700Y-19037562D03*
X-39015700Y-18387562D03*
X-39015700Y-17737562D03*
X-35615700Y-17737562D03*
X-35615700Y-18387562D03*
X-35615700Y-19037562D03*
X-35615700Y-19687562D03*
%TD*%
D29*
%TO.C,C20*%
X-14654900Y2512000D03*
X-14654900Y1552000D03*
%TD*%
D16*
%TO.C,RS2*%
X-1524000Y17121500D03*
X-1524000Y18946500D03*
%TD*%
D19*
%TO.C,US1*%
X-3729500Y19009000D03*
X-3729500Y18359000D03*
X-3729500Y17709000D03*
X-3729500Y17059000D03*
X-7954500Y17059000D03*
X-7954500Y17709000D03*
X-7954500Y18359000D03*
X-7954500Y19009000D03*
%TD*%
D16*
%TO.C,R8*%
X-57429400Y-33424500D03*
X-57429400Y-31599500D03*
%TD*%
D30*
%TO.C,U5*%
X-116135300Y22230000D03*
D31*
X-114635300Y22142500D03*
D30*
X-113135300Y22230000D03*
%TD*%
D26*
%TO.C,U9*%
X-6838800Y-24550000D03*
X-6838800Y-22650000D03*
X-4963800Y-23600000D03*
%TD*%
D17*
%TO.C,CS3*%
X-5870000Y15113000D03*
X-6830000Y15113000D03*
%TD*%
D40*
%TO.C,R18*%
X-15670900Y1580200D03*
X-15670900Y2600200D03*
%TD*%
D27*
%TO.C,CS10*%
X-12192000Y-18984000D03*
X-12192000Y-17084000D03*
%TD*%
%TO.C,C7*%
X-22606000Y22161500D03*
X-22606000Y24061500D03*
%TD*%
D29*
%TO.C,C25*%
X-13336300Y480000D03*
X-13336300Y-480000D03*
%TD*%
D32*
%TO.C,R3*%
X-152225400Y-11061900D03*
X-154050400Y-11061900D03*
%TD*%
D45*
%TO.C,RS8*%
X-6754500Y-13208000D03*
X-4929500Y-13208000D03*
%TD*%
D46*
%TO.C,C2*%
X4778000Y0D03*
X1778000Y0D03*
%TD*%
D47*
%TO.C,Q1*%
X-26990000Y26240500D03*
X-28890000Y26240500D03*
X-27940000Y28115500D03*
%TD*%
D43*
%TO.C,C27*%
X-5275000Y3924600D03*
X-5275000Y2374600D03*
%TD*%
D29*
%TO.C,C26*%
X-6808500Y3629600D03*
X-6808500Y2669600D03*
%TD*%
D48*
%TO.C,C6*%
X-121215300Y16389000D03*
X-118215300Y16389000D03*
%TD*%
D16*
%TO.C,R4*%
X-2541300Y12549500D03*
X-2541300Y14374500D03*
%TD*%
D42*
%TO.C,D3*%
X-71193200Y-33375600D03*
X-73993200Y-33375600D03*
%TD*%
D16*
%TO.C,R12*%
X-43180000Y-19642500D03*
X-43180000Y-17817500D03*
%TD*%
D41*
%TO.C,C15*%
X694000Y-5875900D03*
X694000Y-4915900D03*
%TD*%
D10*
%TO.C,RS3*%
X2540000Y18946500D03*
X2540000Y17121500D03*
%TD*%
D28*
%TO.C,C14*%
X-6824300Y-2286000D03*
X-5274300Y-2286000D03*
%TD*%
D32*
%TO.C,R9*%
X-8403400Y15244100D03*
X-10228400Y15244100D03*
%TD*%
D49*
%TO.C,JALT2*%
X-37398000Y-27614000D03*
X-38648000Y-27614000D03*
X-39898000Y-27614000D03*
X-41148000Y-27614000D03*
X-42398000Y-27614000D03*
X-43648000Y-27614000D03*
X-44898000Y-27614000D03*
D50*
X-46748000Y-30814000D03*
X-35548000Y-30814000D03*
%TD*%
D26*
%TO.C,U8*%
X-6838800Y11500000D03*
X-6838800Y13400000D03*
X-4963800Y12450000D03*
%TD*%
D45*
%TO.C,RS6*%
X-6754500Y22860000D03*
X-4929500Y22860000D03*
%TD*%
D48*
%TO.C,C4*%
X-30202000Y23241000D03*
X-27202000Y23241000D03*
%TD*%
D28*
%TO.C,C1*%
X8115000Y0D03*
X9665000Y0D03*
%TD*%
D12*
%TO.C,U6*%
X-114605200Y6854100D03*
D13*
X-116905200Y13154100D03*
D12*
X-116905200Y6854100D03*
X-119205200Y6854100D03*
%TD*%
D47*
%TO.C,Q2*%
X-118003300Y19388500D03*
X-119903300Y19388500D03*
X-118953300Y21263500D03*
%TD*%
D42*
%TO.C,D2*%
X-118575300Y24390000D03*
X-115775300Y24390000D03*
%TD*%
D51*
%TO.C,C10*%
X-36363900Y-21386800D03*
X-38263900Y-21386800D03*
%TD*%
D16*
%TO.C,R5*%
X-2541300Y-23518500D03*
X-2541300Y-21693500D03*
%TD*%
D32*
%TO.C,R_{PD}1*%
X-4930800Y24892000D03*
X-6755800Y24892000D03*
%TD*%
D16*
%TO.C,R13*%
X-1465000Y-6308400D03*
X-1465000Y-4483400D03*
%TD*%
D10*
%TO.C,R_{PD.bias}2*%
X-8637300Y-13377500D03*
X-8637300Y-15202500D03*
%TD*%
D40*
%TO.C,R19*%
X-15670900Y-337800D03*
X-15670900Y682200D03*
%TD*%
D32*
%TO.C,R_{PD}2*%
X-4930800Y-11176000D03*
X-6755800Y-11176000D03*
%TD*%
D25*
%TO.C,R21*%
X-11776575Y4938000D03*
X-12796575Y4938000D03*
%TD*%
M02*
