M48
; DRILL file {KiCad 6.0.2+dfsg-1} date Thu 29 Jun 2023 12:19:00 PM MDT
; FORMAT={-:-/ absolute / metric / decimal}
; #@! TF.CreationDate,2023-06-29T12:19:00-06:00
; #@! TF.GenerationSoftware,Kicad,Pcbnew,6.0.2+dfsg-1
; #@! TF.FileFunction,Plated,1,2,PTH
FMAT,2
METRIC
; #@! TA.AperFunction,Plated,PTH,ViaDrill
T1C0.400
; #@! TA.AperFunction,Plated,PTH,ComponentDrill
T2C1.000
; #@! TA.AperFunction,Plated,PTH,ComponentDrill
T3C1.020
; #@! TA.AperFunction,Plated,PTH,ComponentDrill
T4C1.100
; #@! TA.AperFunction,Plated,PTH,ComponentDrill
T5C2.200
%
G90
G05
T1
X-88.067Y-26.161
X-87.036Y18.476
X-73.929Y13.184
X-60.833Y-13.462
X-59.69Y-11.926
X-58.547Y-11.938
X-57.912Y-30.886
X-56.896Y-30.886
X-51.765Y-11.836
X-48.209Y-4.166
X-42.164Y-24.892
X-37.719Y27.051
X-35.12Y-8.07
X-34.671Y-26.162
X-34.671Y-27.432
X-26.416Y-2.159
X-25.253Y-14.522
X-19.05Y28.956
X-16.259Y-28.701
X-16.255Y-23.621
X-16.255Y-26.161
X-12.065Y-3.429
X-11.684Y13.462
X-10.414Y13.462
X-10.413Y-17.017
X-7.365Y-7.492
X-6.223Y4.953
X-5.207Y4.953
X-3.048Y9.779
T2
X-80.899Y-20.01
X-80.899Y-22.55
X-80.899Y-25.09
X-80.899Y-27.63
X-80.899Y-30.17
X-77.826Y-30.175
X-71.501Y-5.396
X-71.501Y-7.936
X-71.501Y-10.476
X-71.501Y-13.016
X-71.501Y-15.556
X-71.501Y-18.096
X-71.501Y-20.636
X-71.501Y-23.176
X-71.501Y-25.716
X-71.501Y-28.256
X-71.501Y-30.796
X-71.501Y-33.336
X-68.198Y-5.396
X-68.198Y-7.936
X-68.198Y-10.476
X-68.198Y-13.016
X-68.198Y-15.556
X-68.198Y-18.096
X-68.198Y-20.636
X-68.198Y-23.176
X-68.198Y-25.716
X-68.198Y-28.256
X-68.198Y-30.796
X-68.198Y-33.337
X-66.799Y12.38
X-66.548Y32.512
X-66.548Y28.448
X-66.548Y24.384
X-66.548Y20.32
X-66.548Y16.256
X-62.484Y32.512
X-58.293Y24.943
X-58.293Y22.403
X-58.293Y19.863
X-58.293Y7.163
X-58.293Y4.623
X-35.687Y24.943
X-35.687Y22.403
X-35.687Y19.863
X-35.687Y7.163
X-35.687Y4.623
X-32.512Y5.588
X-32.512Y3.048
X-32.512Y0.508
X-32.512Y-2.032
X-29.082Y5.589
X-29.082Y3.049
X-29.082Y0.509
X-29.082Y-2.031
X-29.082Y-9.016
X-29.082Y-11.556
X-29.082Y-14.096
X-29.082Y-16.636
X-29.082Y-23.621
X-29.082Y-26.161
X-29.082Y-28.701
X-29.082Y-31.241
X-26.542Y-16.636
X-26.503Y-23.622
X-26.503Y-26.162
X-26.503Y-28.702
X-26.503Y-31.242
X-24.003Y-23.622
X-24.003Y-26.162
X-24.003Y-28.702
X-24.003Y-31.242
X-24.002Y-16.636
X-21.462Y5.589
X-21.462Y3.049
X-21.462Y0.509
X-21.462Y-2.031
X-21.462Y-9.016
X-21.462Y-11.556
X-21.462Y-14.096
X-21.462Y-16.636
X-21.462Y-23.621
X-21.462Y-26.161
X-21.462Y-28.701
X-21.462Y-31.241
X-19.05Y-34.29
X-16.51Y-34.29
X-14.605Y-3.429
X-14.605Y-5.969
X-14.477Y-21.082
X-13.97Y-29.21
X-13.97Y-31.75
X-13.97Y-34.29
X-12.065Y-5.969
X-11.43Y-26.67
X-11.43Y-29.21
X-11.43Y-31.75
X-11.43Y-34.29
X-10.413Y27.432
X-9.525Y-3.429
X-9.525Y-5.969
X-8.89Y-26.67
X-8.89Y-29.21
X-8.89Y-31.75
X-8.89Y-34.29
X-8.864Y-24.122
X-8.636Y12.7
X-6.35Y-21.59
X-6.35Y-24.13
X-6.35Y-26.67
X-6.35Y-29.21
X-6.35Y-31.75
X-6.35Y-34.29
X-6.096Y12.7
X-3.81Y-19.05
X-3.81Y-21.59
X-3.81Y-24.13
X-3.81Y-26.67
X-3.81Y-29.21
X-3.81Y-31.75
X-3.81Y-34.29
X-3.556Y12.7
X-1.27Y-16.51
X-1.27Y-19.05
X-1.27Y-21.59
X-1.27Y-24.13
X-1.27Y-26.67
X-1.27Y-29.21
X-1.016Y12.7
X1.27Y-16.51
X1.27Y-19.05
X1.27Y-21.59
X1.27Y-24.13
X1.27Y-26.67
X1.27Y-29.21
T3
X-72.644Y25.73
X-72.644Y22.73
T4
X-54.61Y24.98
X-54.61Y22.44
X-54.61Y19.9
X-54.61Y17.36
X-54.61Y14.82
X-54.61Y12.28
X-54.61Y9.74
X-54.61Y7.2
X-54.61Y4.66
X-54.61Y2.12
X-54.61Y-0.42
X-54.61Y-2.96
X-54.61Y-5.5
X-54.61Y-8.04
X-54.61Y-10.58
X-54.61Y-13.12
X-54.61Y-15.66
X-54.61Y-18.2
X-54.61Y-20.74
X-54.61Y-23.28
X-54.61Y-25.82
X-54.61Y-28.36
X-54.61Y-30.9
X-54.61Y-33.44
X-52.07Y12.28
X-52.07Y-0.42
X-52.07Y-30.9
X-49.53Y12.28
X-49.53Y-0.42
X-46.99Y12.28
X-46.99Y-0.42
X-44.45Y12.28
X-44.45Y-0.42
X-41.91Y12.28
X-41.91Y-0.42
X-39.37Y24.98
X-39.37Y22.44
X-39.37Y19.9
X-39.37Y17.36
X-39.37Y14.82
X-39.37Y12.28
X-39.37Y9.74
X-39.37Y7.2
X-39.37Y4.66
X-39.37Y2.12
X-39.37Y-0.42
X-39.37Y-2.96
X-39.37Y-5.5
X-39.37Y-8.04
X-39.37Y-10.58
X-39.37Y-13.12
X-39.37Y-15.66
X-39.37Y-18.2
X-39.37Y-20.74
X-39.37Y-23.28
X-39.37Y-25.82
X-39.37Y-28.36
X-39.37Y-30.9
X-39.37Y-33.44
T5
X-93.98Y33.02
X-93.98Y-33.02
X0.0Y33.02
X0.0Y-33.02
T2
G00X-89.028Y26.86
M15
G01X-89.028Y24.86
M16
G05
G00X-83.328Y28.86
M15
G01X-85.328Y28.86
M16
G05
G00X-83.328Y22.86
M15
G01X-85.328Y22.86
M16
G05
T0
M30
