M48
; DRILL file {KiCad 6.0.2+dfsg-1} date Mon 10 Jul 2023 09:48:41 PM MDT
; FORMAT={-:-/ absolute / metric / decimal}
; #@! TF.CreationDate,2023-07-10T21:48:41-06:00
; #@! TF.GenerationSoftware,Kicad,Pcbnew,6.0.2+dfsg-1
; #@! TF.FileFunction,Plated,1,2,PTH
FMAT,2
METRIC
; #@! TA.AperFunction,Plated,PTH,ViaDrill
T1C0.400
; #@! TA.AperFunction,Plated,PTH,ComponentDrill
T2C0.700
; #@! TA.AperFunction,Plated,PTH,ComponentDrill
T3C0.800
; #@! TA.AperFunction,Plated,PTH,ComponentDrill
T4C1.000
; #@! TA.AperFunction,Plated,PTH,ComponentDrill
T5C2.200
%
G90
G05
T1
X-65.532Y-6.655
X-63.527Y13.208
X-63.5Y19.939
X-63.5Y6.477
X-59.944Y7.239
X-59.191Y4.572
X-58.547Y-0.762
X-58.166Y4.572
X-57.785Y23.876
X-57.277Y19.938
X-57.277Y6.478
X-56.134Y-10.033
X-55.88Y21.59
X-55.753Y-0.762
X-54.61Y19.939
X-53.989Y-7.493
X-53.425Y21.3
X-52.177Y7.628
X-51.054Y19.939
X-51.054Y6.477
X-51.027Y13.208
X-48.768Y25.4
X-48.531Y-3.302
X-48.133Y19.939
X-48.133Y13.208
X-48.133Y6.477
X-46.74Y10.917
X-46.736Y9.906
X-46.736Y8.89
X-44.666Y19.939
X-43.048Y10.663
X-42.977Y14.503
X-41.783Y19.939
X-41.783Y6.477
X-41.148Y23.114
X-40.894Y14.503
X-40.767Y-0.762
X-40.132Y-17.018
X-39.116Y-17.018
X-38.354Y-10.033
X-37.973Y-0.762
X-36.83Y7.628
X-36.271Y-7.518
X-35.687Y19.939
X-35.687Y13.208
X-35.687Y6.477
X-33.528Y1.143
X-32.258Y28.194
X-30.263Y23.876
X-28.194Y29.464
X-22.606Y19.962
T2
X-55.118Y2.413
X-52.578Y2.413
X-46.863Y2.413
X-44.323Y2.413
T3
X-40.386Y-26.924
X-37.846Y-29.464
X-35.306Y-26.924
T4
X-95.25Y29.21
X-95.25Y26.67
X-95.25Y24.13
X-95.25Y21.59
X-95.25Y19.05
X-95.25Y16.51
X-95.25Y13.97
X-95.25Y11.43
X-95.25Y8.89
X-95.25Y6.35
X-95.25Y3.81
X-95.25Y1.27
X-95.25Y-1.27
X-95.25Y-3.81
X-95.25Y-6.35
X-95.25Y-8.89
X-92.71Y29.21
X-92.71Y26.67
X-92.71Y24.13
X-92.71Y21.59
X-92.71Y19.05
X-92.71Y16.51
X-92.71Y13.97
X-92.71Y11.43
X-92.71Y8.89
X-92.71Y6.35
X-92.71Y3.81
X-92.71Y1.27
X-92.71Y-1.27
X-92.71Y-3.81
X-92.71Y-6.35
X-92.71Y-8.89
X-90.17Y34.29
X-90.17Y31.75
X-90.17Y29.21
X-90.17Y26.67
X-90.17Y24.13
X-90.17Y21.59
X-90.17Y19.05
X-90.17Y16.51
X-90.17Y13.97
X-90.17Y11.43
X-90.17Y8.89
X-90.17Y6.35
X-90.17Y3.81
X-90.17Y1.27
X-90.17Y-1.27
X-90.17Y-3.81
X-90.17Y-6.35
X-90.17Y-8.89
X-87.63Y34.29
X-87.63Y31.75
X-87.63Y29.21
X-87.63Y26.67
X-87.63Y24.13
X-87.63Y21.59
X-87.63Y19.05
X-87.63Y16.51
X-87.63Y13.97
X-87.63Y11.43
X-87.63Y8.89
X-87.63Y6.35
X-87.63Y3.81
X-87.63Y1.27
X-87.63Y-1.27
X-87.63Y-3.81
X-87.63Y-6.35
X-87.63Y-8.89
X-85.09Y34.29
X-85.09Y31.75
X-85.09Y29.21
X-85.09Y26.67
X-85.09Y24.13
X-85.09Y21.59
X-85.09Y19.05
X-85.09Y16.51
X-85.09Y13.97
X-85.09Y11.43
X-85.09Y8.89
X-85.09Y6.35
X-85.09Y3.81
X-85.09Y1.27
X-85.09Y-1.27
X-85.09Y-3.81
X-85.09Y-6.35
X-85.09Y-8.89
X-82.55Y34.29
X-82.55Y31.75
X-82.55Y29.21
X-82.55Y26.67
X-82.55Y24.13
X-82.55Y21.59
X-82.55Y19.05
X-82.55Y16.51
X-82.55Y13.97
X-82.55Y11.43
X-82.55Y8.89
X-82.55Y6.35
X-82.55Y3.81
X-82.55Y1.27
X-82.55Y-1.27
X-82.55Y-3.81
X-82.55Y-6.35
X-82.55Y-8.89
X-80.899Y-20.01
X-80.899Y-22.55
X-80.899Y-25.09
X-80.899Y-27.63
X-80.899Y-30.17
X-80.01Y34.29
X-80.01Y31.75
X-80.01Y29.21
X-80.01Y26.67
X-80.01Y24.13
X-80.01Y21.59
X-80.01Y19.05
X-80.01Y16.51
X-80.01Y13.97
X-80.01Y11.43
X-80.01Y8.89
X-80.01Y6.35
X-80.01Y3.81
X-80.01Y1.27
X-80.01Y-1.27
X-80.01Y-3.81
X-80.01Y-6.35
X-80.01Y-8.89
X-77.47Y34.29
X-77.47Y31.75
X-77.47Y29.21
X-77.47Y26.67
X-77.47Y24.13
X-77.47Y21.59
X-77.47Y19.05
X-77.47Y16.51
X-77.47Y13.97
X-77.47Y11.43
X-77.47Y8.89
X-77.47Y6.35
X-77.47Y3.81
X-77.47Y1.27
X-77.47Y-1.27
X-77.47Y-3.81
X-77.47Y-6.35
X-77.47Y-8.89
X-74.93Y34.29
X-74.93Y31.75
X-74.93Y29.21
X-74.93Y26.67
X-74.93Y24.13
X-74.93Y21.59
X-74.93Y19.05
X-74.93Y16.51
X-74.93Y13.97
X-74.93Y11.43
X-74.93Y8.89
X-74.93Y6.35
X-74.93Y3.81
X-74.93Y1.27
X-74.93Y-1.27
X-74.93Y-3.81
X-74.93Y-6.35
X-74.93Y-8.89
X-72.39Y34.29
X-72.39Y31.75
X-72.39Y29.21
X-72.39Y26.67
X-72.39Y24.13
X-72.39Y21.59
X-72.39Y19.05
X-72.39Y16.51
X-72.39Y13.97
X-72.39Y11.43
X-72.39Y8.89
X-72.39Y6.35
X-72.39Y3.81
X-72.39Y1.27
X-72.39Y-1.27
X-72.39Y-3.81
X-72.39Y-6.35
X-72.39Y-8.89
X-69.85Y34.29
X-69.85Y31.75
X-69.85Y29.21
X-69.85Y26.67
X-69.85Y24.13
X-69.85Y21.59
X-69.85Y19.05
X-69.85Y16.51
X-69.85Y13.97
X-69.85Y11.43
X-69.85Y8.89
X-69.85Y6.35
X-69.85Y3.81
X-69.85Y1.27
X-69.85Y-1.27
X-68.198Y-5.396
X-68.198Y-7.936
X-68.198Y-10.476
X-68.198Y-13.016
X-68.198Y-15.556
X-68.198Y-18.096
X-68.198Y-20.636
X-68.198Y-23.176
X-68.198Y-25.716
X-68.198Y-28.256
X-68.198Y-30.796
X-68.198Y-33.337
X-67.31Y34.29
X-67.31Y31.75
X-67.31Y29.21
X-67.31Y26.67
X-67.31Y24.13
X-67.31Y21.59
X-67.31Y19.05
X-67.31Y16.51
X-67.31Y8.89
X-67.31Y6.35
X-67.31Y3.81
X-67.31Y1.27
X-67.31Y-1.27
X-66.799Y12.38
X-51.435Y32.385
X-51.435Y-14.224
X-45.466Y32.385
X-45.085Y-14.224
X-29.21Y16.51
X-29.21Y13.97
X-29.21Y11.43
X-29.082Y5.589
X-29.082Y3.049
X-29.082Y0.509
X-29.082Y-2.031
X-29.082Y-9.016
X-29.082Y-11.556
X-29.082Y-14.096
X-29.082Y-16.636
X-29.082Y-23.621
X-29.082Y-26.161
X-29.082Y-28.701
X-29.082Y-31.241
X-26.67Y16.51
X-26.67Y13.97
X-26.67Y11.43
X-24.13Y16.51
X-24.13Y13.97
X-24.13Y11.43
X-24.13Y8.89
X-21.59Y16.51
X-21.59Y13.97
X-21.59Y11.43
X-21.59Y8.89
X-21.462Y5.589
X-21.462Y3.049
X-21.462Y0.509
X-21.462Y-2.031
X-21.462Y-9.016
X-21.462Y-11.556
X-21.462Y-14.096
X-21.462Y-16.636
X-21.462Y-23.621
X-21.462Y-26.161
X-21.462Y-28.701
X-21.462Y-31.241
X-19.05Y16.51
X-19.05Y13.97
X-19.05Y11.43
X-19.05Y8.89
X-16.51Y16.51
X-16.51Y13.97
X-16.51Y11.43
X-16.51Y8.89
X-16.51Y6.35
X-16.51Y3.81
X-16.51Y1.27
X-16.51Y-1.27
X-16.51Y-3.81
X-16.51Y-6.35
X-16.51Y-8.89
X-16.51Y-11.43
X-16.51Y-13.97
X-16.51Y-16.51
X-16.51Y-19.05
X-16.51Y-21.59
X-16.51Y-24.13
X-16.51Y-26.67
X-16.51Y-29.21
X-16.51Y-31.75
X-16.51Y-34.29
X-13.97Y16.51
X-13.97Y13.97
X-13.97Y11.43
X-13.97Y8.89
X-13.97Y6.35
X-13.97Y3.81
X-13.97Y1.27
X-13.97Y-1.27
X-13.97Y-3.81
X-13.97Y-6.35
X-13.97Y-8.89
X-13.97Y-11.43
X-13.97Y-13.97
X-13.97Y-16.51
X-13.97Y-19.05
X-13.97Y-21.59
X-13.97Y-24.13
X-13.97Y-26.67
X-13.97Y-29.21
X-13.97Y-31.75
X-13.97Y-34.29
X-11.463Y21.556
X-11.43Y24.13
X-11.43Y19.05
X-11.43Y16.51
X-11.43Y13.97
X-11.43Y11.43
X-11.43Y8.89
X-11.43Y6.35
X-11.43Y3.81
X-11.43Y1.27
X-11.43Y-1.27
X-11.43Y-3.81
X-11.43Y-6.35
X-11.43Y-8.89
X-11.43Y-11.43
X-11.43Y-13.97
X-11.43Y-16.51
X-11.43Y-19.05
X-11.43Y-21.59
X-11.43Y-24.13
X-11.43Y-26.67
X-11.43Y-29.21
X-11.43Y-31.75
X-11.43Y-34.29
X-10.413Y27.432
X-8.923Y21.556
X-8.89Y24.13
X-8.89Y19.05
X-8.89Y16.51
X-8.89Y13.97
X-8.89Y11.43
X-8.89Y8.89
X-8.89Y6.35
X-8.89Y3.81
X-8.89Y1.27
X-8.89Y-1.27
X-8.89Y-3.81
X-8.89Y-6.35
X-8.89Y-8.89
X-8.89Y-11.43
X-8.89Y-13.97
X-8.89Y-16.51
X-8.89Y-19.05
X-8.89Y-21.59
X-8.89Y-24.13
X-8.89Y-26.67
X-8.89Y-29.21
X-8.89Y-31.75
X-8.89Y-34.29
X-6.383Y21.556
X-6.35Y24.13
X-6.35Y19.05
X-6.35Y16.51
X-6.35Y13.97
X-6.35Y11.43
X-6.35Y8.89
X-6.35Y6.35
X-6.35Y3.81
X-6.35Y1.27
X-6.35Y-1.27
X-6.35Y-3.81
X-6.35Y-6.35
X-6.35Y-8.89
X-6.35Y-11.43
X-6.35Y-13.97
X-6.35Y-16.51
X-6.35Y-19.05
X-6.35Y-21.59
X-6.35Y-24.13
X-6.35Y-26.67
X-6.35Y-29.21
X-6.35Y-31.75
X-6.35Y-34.29
X-3.843Y21.556
X-3.81Y24.13
X-3.81Y19.05
X-3.81Y16.51
X-3.81Y13.97
X-3.81Y11.43
X-3.81Y8.89
X-3.81Y6.35
X-3.81Y3.81
X-3.81Y1.27
X-3.81Y-1.27
X-3.81Y-3.81
X-3.81Y-6.35
X-3.81Y-8.89
X-3.81Y-11.43
X-3.81Y-13.97
X-3.81Y-16.51
X-3.81Y-19.05
X-3.81Y-21.59
X-3.81Y-24.13
X-3.81Y-26.67
X-3.81Y-29.21
X-3.81Y-31.75
X-3.81Y-34.29
X-1.303Y21.556
X-1.27Y24.13
X-1.27Y19.05
X-1.27Y16.51
X-1.27Y13.97
X-1.27Y11.43
X-1.27Y8.89
X-1.27Y6.35
X-1.27Y3.81
X-1.27Y1.27
X-1.27Y-1.27
X-1.27Y-3.81
X-1.27Y-6.35
X-1.27Y-8.89
X-1.27Y-11.43
X-1.27Y-13.97
X-1.27Y-16.51
X-1.27Y-19.05
X-1.27Y-21.59
X-1.27Y-24.13
X-1.27Y-26.67
X-1.27Y-29.21
X1.237Y21.556
X1.27Y24.13
X1.27Y19.05
X1.27Y16.51
X1.27Y13.97
X1.27Y11.43
X1.27Y8.89
X1.27Y6.35
X1.27Y3.81
X1.27Y1.27
X1.27Y-1.27
X1.27Y-3.81
X1.27Y-6.35
X1.27Y-8.89
X1.27Y-11.43
X1.27Y-13.97
X1.27Y-16.51
X1.27Y-19.05
X1.27Y-21.59
X1.27Y-24.13
X1.27Y-26.67
X1.27Y-29.21
T5
X-93.98Y33.02
X-93.98Y-33.02
X0.0Y33.02
X0.0Y-33.02
T0
M30
