%TF.GenerationSoftware,KiCad,Pcbnew,5.1.10-88a1d61d58~90~ubuntu20.10.1*%
%TF.CreationDate,2021-08-21T12:51:11-05:00*%
%TF.ProjectId,nutrient,6e757472-6965-46e7-942e-6b696361645f,rev?*%
%TF.SameCoordinates,Original*%
%TF.FileFunction,Soldermask,Top*%
%TF.FilePolarity,Negative*%
%FSLAX46Y46*%
G04 Gerber Fmt 4.6, Leading zero omitted, Abs format (unit mm)*
G04 Created by KiCad (PCBNEW 5.1.10-88a1d61d58~90~ubuntu20.10.1) date 2021-08-21 12:51:11*
%MOMM*%
%LPD*%
G01*
G04 APERTURE LIST*
%ADD10C,1.200000*%
%ADD11R,1.200000X1.200000*%
%ADD12C,1.600000*%
%ADD13R,1.700000X1.700000*%
%ADD14O,1.700000X1.700000*%
%ADD15O,1.600000X1.600000*%
%ADD16C,3.800000*%
%ADD17C,2.600000*%
%ADD18C,1.500000*%
%ADD19R,1.500000X1.500000*%
%ADD20R,3.500000X3.500000*%
%ADD21O,1.950000X1.700000*%
%ADD22C,3.250000*%
%ADD23C,3.000000*%
%ADD24R,1.600000X1.600000*%
%ADD25C,1.000000*%
G04 APERTURE END LIST*
D10*
%TO.C,C6*%
X114332000Y-49784000D03*
D11*
X116332000Y-49784000D03*
%TD*%
D12*
%TO.C,C5*%
X110664000Y-44577000D03*
X105664000Y-44577000D03*
%TD*%
%TO.C,C4*%
X110363000Y-57023000D03*
X110363000Y-62023000D03*
%TD*%
D13*
%TO.C,JI2C3*%
X126365000Y-37465000D03*
D14*
X126365000Y-40005000D03*
X126365000Y-42545000D03*
X126365000Y-45085000D03*
%TD*%
D13*
%TO.C,J9*%
X151130000Y-70739000D03*
%TD*%
D14*
%TO.C,JI2C2*%
X109474000Y-41402000D03*
X106934000Y-41402000D03*
X104394000Y-41402000D03*
D13*
X101854000Y-41402000D03*
%TD*%
D14*
%TO.C,XA1*%
X154940000Y-96520000D03*
X157480000Y-96520000D03*
X124460000Y-86360000D03*
X121920000Y-93980000D03*
D13*
X121920000Y-50800000D03*
D14*
X154940000Y-83820000D03*
X124460000Y-58420000D03*
X124460000Y-83820000D03*
X124460000Y-60960000D03*
X124460000Y-76200000D03*
X124460000Y-73660000D03*
X157480000Y-88900000D03*
X121920000Y-73660000D03*
X124460000Y-71120000D03*
X121920000Y-55880000D03*
X121920000Y-63500000D03*
X124460000Y-88900000D03*
X124460000Y-68580000D03*
X124460000Y-93980000D03*
X121920000Y-66040000D03*
X121920000Y-91440000D03*
X121920000Y-58420000D03*
X121920000Y-71120000D03*
X157480000Y-93980000D03*
X121920000Y-83820000D03*
X152400000Y-99060000D03*
X124460000Y-81280000D03*
X134620000Y-99060000D03*
X147320000Y-101600000D03*
X149860000Y-101600000D03*
X157480000Y-91440000D03*
X157480000Y-71120000D03*
X157480000Y-78740000D03*
X157480000Y-86360000D03*
X137160000Y-101600000D03*
X137160000Y-99060000D03*
X154940000Y-91440000D03*
X154940000Y-78740000D03*
X124460000Y-99060000D03*
X157480000Y-76200000D03*
X157480000Y-63500000D03*
X139700000Y-99060000D03*
X152400000Y-101600000D03*
X121920000Y-86360000D03*
X121920000Y-99060000D03*
X154940000Y-81280000D03*
X124460000Y-78740000D03*
X124460000Y-91440000D03*
X154940000Y-63500000D03*
X154940000Y-76200000D03*
X157480000Y-66040000D03*
X124460000Y-101600000D03*
X157480000Y-73660000D03*
X154940000Y-66040000D03*
X157480000Y-101600000D03*
X154940000Y-101600000D03*
X154940000Y-73660000D03*
X157480000Y-99060000D03*
X121920000Y-88900000D03*
X154940000Y-99060000D03*
X121920000Y-96520000D03*
X134620000Y-101600000D03*
X157480000Y-83820000D03*
X157480000Y-68580000D03*
X121920000Y-53340000D03*
X121920000Y-68580000D03*
X124460000Y-66040000D03*
X124460000Y-50800000D03*
X124460000Y-53340000D03*
X147320000Y-99060000D03*
X157480000Y-81280000D03*
X124460000Y-63500000D03*
X154940000Y-93980000D03*
X124460000Y-55880000D03*
X121920000Y-76200000D03*
X124460000Y-96520000D03*
X139700000Y-101600000D03*
X121920000Y-81280000D03*
X149860000Y-99060000D03*
X154940000Y-68580000D03*
X154940000Y-71120000D03*
X154940000Y-88900000D03*
X121920000Y-101600000D03*
X154940000Y-86360000D03*
X121920000Y-60960000D03*
X121920000Y-78740000D03*
%TD*%
D15*
%TO.C,R6*%
X111315500Y-50800000D03*
D12*
X111315500Y-48260000D03*
%TD*%
D14*
%TO.C,JP1*%
X113157000Y-53975000D03*
X115697000Y-53975000D03*
D13*
X118237000Y-53975000D03*
%TD*%
D14*
%TO.C,JI2C1*%
X118110000Y-73025000D03*
X118110000Y-70485000D03*
X118110000Y-67945000D03*
D13*
X118110000Y-65405000D03*
%TD*%
D12*
%TO.C,C2*%
X119126000Y-49022000D03*
X119126000Y-51522000D03*
%TD*%
%TO.C,C1*%
X127421000Y-58801000D03*
X129921000Y-58801000D03*
%TD*%
D15*
%TO.C,R5*%
X112014000Y-65024000D03*
D12*
X114554000Y-65024000D03*
%TD*%
D14*
%TO.C,JP2*%
X113157000Y-57785000D03*
X115697000Y-57785000D03*
D13*
X118237000Y-57785000D03*
%TD*%
D14*
%TO.C,JP3*%
X113157000Y-61595000D03*
X115697000Y-61595000D03*
D13*
X118237000Y-61595000D03*
%TD*%
D10*
%TO.C,C3*%
X184055000Y-38989000D03*
D11*
X186055000Y-38989000D03*
%TD*%
D16*
%TO.C,H4*%
X196088000Y-37338000D03*
D17*
X196088000Y-37338000D03*
%TD*%
D16*
%TO.C,H3*%
X102108000Y-37338000D03*
D17*
X102108000Y-37338000D03*
%TD*%
D16*
%TO.C,H2*%
X196088000Y-103378000D03*
D17*
X196088000Y-103378000D03*
%TD*%
D16*
%TO.C,H1*%
X102108000Y-103378000D03*
D17*
X102108000Y-103378000D03*
%TD*%
D15*
%TO.C,R2*%
X131064000Y-94742000D03*
D12*
X131064000Y-102362000D03*
%TD*%
D15*
%TO.C,R1*%
X127889000Y-94742000D03*
D12*
X127889000Y-102362000D03*
%TD*%
D18*
%TO.C,Q5*%
X133350000Y-63500000D03*
X133350000Y-60960000D03*
D19*
X133350000Y-66040000D03*
%TD*%
D20*
%TO.C,JDC1*%
X119380000Y-46386000D03*
G36*
G01*
X118380000Y-38886000D02*
X120380000Y-38886000D01*
G75*
G02*
X121130000Y-39636000I0J-750000D01*
G01*
X121130000Y-41136000D01*
G75*
G02*
X120380000Y-41886000I-750000J0D01*
G01*
X118380000Y-41886000D01*
G75*
G02*
X117630000Y-41136000I0J750000D01*
G01*
X117630000Y-39636000D01*
G75*
G02*
X118380000Y-38886000I750000J0D01*
G01*
G37*
G36*
G01*
X113805000Y-41636000D02*
X115555000Y-41636000D01*
G75*
G02*
X116430000Y-42511000I0J-875000D01*
G01*
X116430000Y-44261000D01*
G75*
G02*
X115555000Y-45136000I-875000J0D01*
G01*
X113805000Y-45136000D01*
G75*
G02*
X112930000Y-44261000I0J875000D01*
G01*
X112930000Y-42511000D01*
G75*
G02*
X113805000Y-41636000I875000J0D01*
G01*
G37*
%TD*%
D21*
%TO.C,J8*%
X107315000Y-48975000D03*
X107315000Y-51475000D03*
G36*
G01*
X108040000Y-54825000D02*
X106590000Y-54825000D01*
G75*
G02*
X106340000Y-54575000I0J250000D01*
G01*
X106340000Y-53375000D01*
G75*
G02*
X106590000Y-53125000I250000J0D01*
G01*
X108040000Y-53125000D01*
G75*
G02*
X108290000Y-53375000I0J-250000D01*
G01*
X108290000Y-54575000D01*
G75*
G02*
X108040000Y-54825000I-250000J0D01*
G01*
G37*
%TD*%
%TO.C,J7*%
X107315000Y-60024000D03*
X107315000Y-62524000D03*
G36*
G01*
X108040000Y-65874000D02*
X106590000Y-65874000D01*
G75*
G02*
X106340000Y-65624000I0J250000D01*
G01*
X106340000Y-64424000D01*
G75*
G02*
X106590000Y-64174000I250000J0D01*
G01*
X108040000Y-64174000D01*
G75*
G02*
X108290000Y-64424000I0J-250000D01*
G01*
X108290000Y-65624000D01*
G75*
G02*
X108040000Y-65874000I-250000J0D01*
G01*
G37*
%TD*%
D13*
%TO.C,JSPI1*%
X101600000Y-70485000D03*
D14*
X104140000Y-70485000D03*
X106680000Y-70485000D03*
X109220000Y-70485000D03*
X111760000Y-70485000D03*
X114300000Y-70485000D03*
%TD*%
D22*
%TO.C,JS2*%
X193038000Y-64620000D03*
D23*
X196088000Y-62565000D03*
D22*
X193038000Y-76050000D03*
D18*
X186688000Y-72240000D03*
X186688000Y-69700000D03*
X184148000Y-70970000D03*
X186688000Y-67160000D03*
D19*
X186688000Y-74780000D03*
D18*
X184148000Y-73510000D03*
D23*
X196088000Y-78105000D03*
D18*
X184148000Y-65890000D03*
X184148000Y-68430000D03*
%TD*%
D15*
%TO.C,U1*%
X143510000Y-95250000D03*
X135890000Y-87630000D03*
X140970000Y-95250000D03*
X138430000Y-87630000D03*
X138430000Y-95250000D03*
X140970000Y-87630000D03*
X135890000Y-95250000D03*
D24*
X143510000Y-87630000D03*
%TD*%
D21*
%TO.C,J3*%
X175260000Y-86875000D03*
X175260000Y-84375000D03*
X175260000Y-81875000D03*
G36*
G01*
X174535000Y-78525000D02*
X175985000Y-78525000D01*
G75*
G02*
X176235000Y-78775000I0J-250000D01*
G01*
X176235000Y-79975000D01*
G75*
G02*
X175985000Y-80225000I-250000J0D01*
G01*
X174535000Y-80225000D01*
G75*
G02*
X174285000Y-79975000I0J250000D01*
G01*
X174285000Y-78775000D01*
G75*
G02*
X174535000Y-78525000I250000J0D01*
G01*
G37*
%TD*%
D25*
%TO.C,Y1*%
X146963000Y-71247000D03*
X148463000Y-71247000D03*
%TD*%
D21*
%TO.C,J1*%
X175260000Y-101480000D03*
X175260000Y-98980000D03*
X175260000Y-96480000D03*
G36*
G01*
X174535000Y-93130000D02*
X175985000Y-93130000D01*
G75*
G02*
X176235000Y-93380000I0J-250000D01*
G01*
X176235000Y-94580000D01*
G75*
G02*
X175985000Y-94830000I-250000J0D01*
G01*
X174535000Y-94830000D01*
G75*
G02*
X174285000Y-94580000I0J250000D01*
G01*
X174285000Y-93380000D01*
G75*
G02*
X174535000Y-93130000I250000J0D01*
G01*
G37*
%TD*%
D15*
%TO.C,RQ7*%
X144526000Y-62865000D03*
D12*
X144526000Y-70485000D03*
%TD*%
D18*
%TO.C,Q7*%
X148844000Y-62865000D03*
X148844000Y-60325000D03*
D19*
X148844000Y-65405000D03*
%TD*%
D22*
%TO.C,JM1*%
X193038000Y-44219000D03*
D23*
X196088000Y-42164000D03*
D22*
X193038000Y-55649000D03*
D18*
X186688000Y-51839000D03*
X186688000Y-49299000D03*
X184148000Y-50569000D03*
X186688000Y-46759000D03*
D19*
X186688000Y-54379000D03*
D18*
X184148000Y-53109000D03*
D23*
X196088000Y-57704000D03*
D18*
X184148000Y-45489000D03*
X184148000Y-48029000D03*
%TD*%
D21*
%TO.C,J2*%
X167005000Y-101480000D03*
X167005000Y-98980000D03*
X167005000Y-96480000D03*
G36*
G01*
X166280000Y-93130000D02*
X167730000Y-93130000D01*
G75*
G02*
X167980000Y-93380000I0J-250000D01*
G01*
X167980000Y-94580000D01*
G75*
G02*
X167730000Y-94830000I-250000J0D01*
G01*
X166280000Y-94830000D01*
G75*
G02*
X166030000Y-94580000I0J250000D01*
G01*
X166030000Y-93380000D01*
G75*
G02*
X166280000Y-93130000I250000J0D01*
G01*
G37*
%TD*%
D22*
%TO.C,JS1*%
X193038000Y-85067000D03*
D23*
X196088000Y-83012000D03*
D22*
X193038000Y-96497000D03*
D18*
X186688000Y-92687000D03*
X186688000Y-90147000D03*
X184148000Y-91417000D03*
X186688000Y-87607000D03*
D19*
X186688000Y-95227000D03*
D18*
X184148000Y-93957000D03*
D23*
X196088000Y-98552000D03*
D18*
X184148000Y-86337000D03*
X184148000Y-88877000D03*
%TD*%
D15*
%TO.C,RQ1*%
X132588000Y-50165000D03*
D12*
X132588000Y-57785000D03*
%TD*%
D15*
%TO.C,RQ2*%
X140335000Y-50165000D03*
D12*
X140335000Y-57785000D03*
%TD*%
D18*
%TO.C,Q1*%
X128270000Y-53975000D03*
X128270000Y-56515000D03*
D19*
X128270000Y-51435000D03*
%TD*%
D18*
%TO.C,Q2*%
X136017000Y-53975000D03*
X136017000Y-56515000D03*
D19*
X136017000Y-51435000D03*
%TD*%
D15*
%TO.C,U2*%
X151130000Y-81915000D03*
X143510000Y-74295000D03*
X148590000Y-81915000D03*
X146050000Y-74295000D03*
X146050000Y-81915000D03*
X148590000Y-74295000D03*
X143510000Y-81915000D03*
D24*
X151130000Y-74295000D03*
%TD*%
D15*
%TO.C,R3*%
X140716000Y-83820000D03*
D12*
X133096000Y-83820000D03*
%TD*%
D15*
%TO.C,R20*%
X151130000Y-87630000D03*
D12*
X151130000Y-95250000D03*
%TD*%
D15*
%TO.C,R21*%
X143510000Y-84772500D03*
D12*
X151130000Y-84772500D03*
%TD*%
D15*
%TO.C,R4*%
X147955000Y-95250000D03*
D12*
X147955000Y-87630000D03*
%TD*%
D15*
%TO.C,RQ5*%
X129032000Y-65532000D03*
D12*
X129032000Y-73152000D03*
%TD*%
D15*
%TO.C,RQ6*%
X136779000Y-62865000D03*
D12*
X136779000Y-70485000D03*
%TD*%
D15*
%TO.C,RQ3*%
X148082000Y-50165000D03*
D12*
X148082000Y-57785000D03*
%TD*%
D15*
%TO.C,RQ4*%
X155829000Y-50165000D03*
D12*
X155829000Y-57785000D03*
%TD*%
D19*
%TO.C,QSO1*%
X129794000Y-87630000D03*
D18*
X129794000Y-82550000D03*
X129794000Y-85090000D03*
%TD*%
D19*
%TO.C,QSS1*%
X132715000Y-90805000D03*
D18*
X127635000Y-90805000D03*
X130175000Y-90805000D03*
%TD*%
%TO.C,Q6*%
X141097000Y-63500000D03*
X141097000Y-60960000D03*
D19*
X141097000Y-66040000D03*
%TD*%
D18*
%TO.C,Q3*%
X143764000Y-53975000D03*
X143764000Y-56515000D03*
D19*
X143764000Y-51435000D03*
%TD*%
D18*
%TO.C,Q4*%
X151511000Y-53975000D03*
X151511000Y-56515000D03*
D19*
X151511000Y-51435000D03*
%TD*%
D21*
%TO.C,J6*%
X167005000Y-72270000D03*
X167005000Y-69770000D03*
X167005000Y-67270000D03*
G36*
G01*
X166280000Y-63920000D02*
X167730000Y-63920000D01*
G75*
G02*
X167980000Y-64170000I0J-250000D01*
G01*
X167980000Y-65370000D01*
G75*
G02*
X167730000Y-65620000I-250000J0D01*
G01*
X166280000Y-65620000D01*
G75*
G02*
X166030000Y-65370000I0J250000D01*
G01*
X166030000Y-64170000D01*
G75*
G02*
X166280000Y-63920000I250000J0D01*
G01*
G37*
%TD*%
%TO.C,J5*%
X175260000Y-72270000D03*
X175260000Y-69770000D03*
X175260000Y-67270000D03*
G36*
G01*
X174535000Y-63920000D02*
X175985000Y-63920000D01*
G75*
G02*
X176235000Y-64170000I0J-250000D01*
G01*
X176235000Y-65370000D01*
G75*
G02*
X175985000Y-65620000I-250000J0D01*
G01*
X174535000Y-65620000D01*
G75*
G02*
X174285000Y-65370000I0J250000D01*
G01*
X174285000Y-64170000D01*
G75*
G02*
X174535000Y-63920000I250000J0D01*
G01*
G37*
%TD*%
%TO.C,J4*%
X167005000Y-86875000D03*
X167005000Y-84375000D03*
X167005000Y-81875000D03*
G36*
G01*
X166280000Y-78525000D02*
X167730000Y-78525000D01*
G75*
G02*
X167980000Y-78775000I0J-250000D01*
G01*
X167980000Y-79975000D01*
G75*
G02*
X167730000Y-80225000I-250000J0D01*
G01*
X166280000Y-80225000D01*
G75*
G02*
X166030000Y-79975000I0J250000D01*
G01*
X166030000Y-78775000D01*
G75*
G02*
X166280000Y-78525000I250000J0D01*
G01*
G37*
%TD*%
M02*
