%TF.GenerationSoftware,KiCad,Pcbnew,5.1.10-88a1d61d58~90~ubuntu20.10.1*%
%TF.CreationDate,2021-08-21T12:51:11-05:00*%
%TF.ProjectId,nutrient,6e757472-6965-46e7-942e-6b696361645f,rev?*%
%TF.SameCoordinates,Original*%
%TF.FileFunction,Legend,Top*%
%TF.FilePolarity,Positive*%
%FSLAX46Y46*%
G04 Gerber Fmt 4.6, Leading zero omitted, Abs format (unit mm)*
G04 Created by KiCad (PCBNEW 5.1.10-88a1d61d58~90~ubuntu20.10.1) date 2021-08-21 12:51:11*
%MOMM*%
%LPD*%
G01*
G04 APERTURE LIST*
%ADD10C,0.120000*%
%ADD11C,0.050000*%
%ADD12C,0.150000*%
G04 APERTURE END LIST*
D10*
%TO.C,C6*%
X117401801Y-51179000D02*
X117401801Y-50779000D01*
X117601801Y-50979000D02*
X117201801Y-50979000D01*
X113251000Y-50154000D02*
X113251000Y-49414000D01*
X113291000Y-50321000D02*
X113291000Y-49247000D01*
X113331000Y-50448000D02*
X113331000Y-49120000D01*
X113371000Y-50552000D02*
X113371000Y-49016000D01*
X113411000Y-50643000D02*
X113411000Y-48925000D01*
X113451000Y-50724000D02*
X113451000Y-48844000D01*
X113491000Y-50797000D02*
X113491000Y-48771000D01*
X113531000Y-48944000D02*
X113531000Y-48704000D01*
X113531000Y-50864000D02*
X113531000Y-50624000D01*
X113571000Y-48944000D02*
X113571000Y-48642000D01*
X113571000Y-50926000D02*
X113571000Y-50624000D01*
X113611000Y-48944000D02*
X113611000Y-48584000D01*
X113611000Y-50984000D02*
X113611000Y-50624000D01*
X113651000Y-48944000D02*
X113651000Y-48530000D01*
X113651000Y-51038000D02*
X113651000Y-50624000D01*
X113691000Y-48944000D02*
X113691000Y-48480000D01*
X113691000Y-51088000D02*
X113691000Y-50624000D01*
X113731000Y-48944000D02*
X113731000Y-48433000D01*
X113731000Y-51135000D02*
X113731000Y-50624000D01*
X113771000Y-48944000D02*
X113771000Y-48388000D01*
X113771000Y-51180000D02*
X113771000Y-50624000D01*
X113811000Y-48944000D02*
X113811000Y-48346000D01*
X113811000Y-51222000D02*
X113811000Y-50624000D01*
X113851000Y-48944000D02*
X113851000Y-48306000D01*
X113851000Y-51262000D02*
X113851000Y-50624000D01*
X113891000Y-48944000D02*
X113891000Y-48268000D01*
X113891000Y-51300000D02*
X113891000Y-50624000D01*
X113931000Y-48944000D02*
X113931000Y-48232000D01*
X113931000Y-51336000D02*
X113931000Y-50624000D01*
X113971000Y-48944000D02*
X113971000Y-48197000D01*
X113971000Y-51371000D02*
X113971000Y-50624000D01*
X114011000Y-48944000D02*
X114011000Y-48165000D01*
X114011000Y-51403000D02*
X114011000Y-50624000D01*
X114051000Y-48944000D02*
X114051000Y-48134000D01*
X114051000Y-51434000D02*
X114051000Y-50624000D01*
X114091000Y-48944000D02*
X114091000Y-48104000D01*
X114091000Y-51464000D02*
X114091000Y-50624000D01*
X114131000Y-48944000D02*
X114131000Y-48076000D01*
X114131000Y-51492000D02*
X114131000Y-50624000D01*
X114171000Y-48944000D02*
X114171000Y-48049000D01*
X114171000Y-51519000D02*
X114171000Y-50624000D01*
X114211000Y-48944000D02*
X114211000Y-48024000D01*
X114211000Y-51544000D02*
X114211000Y-50624000D01*
X114251000Y-48944000D02*
X114251000Y-47999000D01*
X114251000Y-51569000D02*
X114251000Y-50624000D01*
X114291000Y-48944000D02*
X114291000Y-47976000D01*
X114291000Y-51592000D02*
X114291000Y-50624000D01*
X114331000Y-48944000D02*
X114331000Y-47954000D01*
X114331000Y-51614000D02*
X114331000Y-50624000D01*
X114371000Y-48944000D02*
X114371000Y-47933000D01*
X114371000Y-51635000D02*
X114371000Y-50624000D01*
X114411000Y-48944000D02*
X114411000Y-47914000D01*
X114411000Y-51654000D02*
X114411000Y-50624000D01*
X114451000Y-48944000D02*
X114451000Y-47895000D01*
X114451000Y-51673000D02*
X114451000Y-50624000D01*
X114491000Y-48944000D02*
X114491000Y-47877000D01*
X114491000Y-51691000D02*
X114491000Y-50624000D01*
X114531000Y-48944000D02*
X114531000Y-47860000D01*
X114531000Y-51708000D02*
X114531000Y-50624000D01*
X114571000Y-48944000D02*
X114571000Y-47844000D01*
X114571000Y-51724000D02*
X114571000Y-50624000D01*
X114611000Y-48944000D02*
X114611000Y-47830000D01*
X114611000Y-51738000D02*
X114611000Y-50624000D01*
X114652000Y-48944000D02*
X114652000Y-47816000D01*
X114652000Y-51752000D02*
X114652000Y-50624000D01*
X114692000Y-48944000D02*
X114692000Y-47802000D01*
X114692000Y-51766000D02*
X114692000Y-50624000D01*
X114732000Y-48944000D02*
X114732000Y-47790000D01*
X114732000Y-51778000D02*
X114732000Y-50624000D01*
X114772000Y-48944000D02*
X114772000Y-47779000D01*
X114772000Y-51789000D02*
X114772000Y-50624000D01*
X114812000Y-48944000D02*
X114812000Y-47768000D01*
X114812000Y-51800000D02*
X114812000Y-50624000D01*
X114852000Y-48944000D02*
X114852000Y-47759000D01*
X114852000Y-51809000D02*
X114852000Y-50624000D01*
X114892000Y-48944000D02*
X114892000Y-47750000D01*
X114892000Y-51818000D02*
X114892000Y-50624000D01*
X114932000Y-48944000D02*
X114932000Y-47742000D01*
X114932000Y-51826000D02*
X114932000Y-50624000D01*
X114972000Y-48944000D02*
X114972000Y-47734000D01*
X114972000Y-51834000D02*
X114972000Y-50624000D01*
X115012000Y-48944000D02*
X115012000Y-47728000D01*
X115012000Y-51840000D02*
X115012000Y-50624000D01*
X115052000Y-48944000D02*
X115052000Y-47722000D01*
X115052000Y-51846000D02*
X115052000Y-50624000D01*
X115092000Y-48944000D02*
X115092000Y-47717000D01*
X115092000Y-51851000D02*
X115092000Y-50624000D01*
X115132000Y-48944000D02*
X115132000Y-47713000D01*
X115132000Y-51855000D02*
X115132000Y-50624000D01*
X115172000Y-51858000D02*
X115172000Y-47710000D01*
X115212000Y-51861000D02*
X115212000Y-47707000D01*
X115252000Y-51863000D02*
X115252000Y-47705000D01*
X115292000Y-51864000D02*
X115292000Y-47704000D01*
X115332000Y-51864000D02*
X115332000Y-47704000D01*
X117452000Y-49784000D02*
G75*
G03*
X117452000Y-49784000I-2120000J0D01*
G01*
%TO.C,C5*%
X110434000Y-45632000D02*
X110434000Y-45647000D01*
X110434000Y-43507000D02*
X110434000Y-43522000D01*
X105894000Y-45632000D02*
X105894000Y-45647000D01*
X105894000Y-43507000D02*
X105894000Y-43522000D01*
X105894000Y-45647000D02*
X110434000Y-45647000D01*
X105894000Y-43507000D02*
X110434000Y-43507000D01*
%TO.C,C4*%
X111418000Y-57253000D02*
X111433000Y-57253000D01*
X109293000Y-57253000D02*
X109308000Y-57253000D01*
X111418000Y-61793000D02*
X111433000Y-61793000D01*
X109293000Y-61793000D02*
X109308000Y-61793000D01*
X111433000Y-61793000D02*
X111433000Y-57253000D01*
X109293000Y-61793000D02*
X109293000Y-57253000D01*
%TO.C,JI2C3*%
X144720000Y-45596500D02*
X144720000Y-48256500D01*
X167700000Y-45596500D02*
X167700000Y-46926500D01*
X165100000Y-45596500D02*
X144720000Y-45596500D01*
X165100000Y-48256500D02*
X144720000Y-48256500D01*
X166370000Y-45596500D02*
X167700000Y-45596500D01*
X165100000Y-45596500D02*
X165100000Y-48256500D01*
X125095000Y-36195000D02*
X126365000Y-36195000D01*
X125095000Y-37465000D02*
X125095000Y-36195000D01*
X127407929Y-45465000D02*
X127805000Y-45465000D01*
X127407929Y-44705000D02*
X127805000Y-44705000D01*
X133671000Y-45465000D02*
X127671000Y-45465000D01*
X133671000Y-44705000D02*
X133671000Y-45465000D01*
X127671000Y-44705000D02*
X133671000Y-44705000D01*
X125011000Y-43815000D02*
X127671000Y-43815000D01*
X127407929Y-42925000D02*
X127805000Y-42925000D01*
X127407929Y-42165000D02*
X127805000Y-42165000D01*
X133671000Y-42925000D02*
X127671000Y-42925000D01*
X133671000Y-42165000D02*
X133671000Y-42925000D01*
X127671000Y-42165000D02*
X133671000Y-42165000D01*
X125011000Y-41275000D02*
X127671000Y-41275000D01*
X127407929Y-40385000D02*
X127805000Y-40385000D01*
X127407929Y-39625000D02*
X127805000Y-39625000D01*
X133671000Y-40385000D02*
X127671000Y-40385000D01*
X133671000Y-39625000D02*
X133671000Y-40385000D01*
X127671000Y-39625000D02*
X133671000Y-39625000D01*
X125011000Y-38735000D02*
X127671000Y-38735000D01*
X127475000Y-37845000D02*
X127805000Y-37845000D01*
X127475000Y-37085000D02*
X127805000Y-37085000D01*
X127671000Y-37745000D02*
X133671000Y-37745000D01*
X127671000Y-37625000D02*
X133671000Y-37625000D01*
X127671000Y-37505000D02*
X133671000Y-37505000D01*
X127671000Y-37385000D02*
X133671000Y-37385000D01*
X127671000Y-37265000D02*
X133671000Y-37265000D01*
X127671000Y-37145000D02*
X133671000Y-37145000D01*
X133671000Y-37845000D02*
X127671000Y-37845000D01*
X133671000Y-37085000D02*
X133671000Y-37845000D01*
X127671000Y-37085000D02*
X133671000Y-37085000D01*
X127671000Y-36135000D02*
X125011000Y-36135000D01*
X127671000Y-46415000D02*
X127671000Y-36135000D01*
X125011000Y-46415000D02*
X127671000Y-46415000D01*
X127805000Y-36135000D02*
X127805000Y-46415000D01*
D11*
X127635000Y-48955000D02*
X175635000Y-48955000D01*
X127635000Y-33655000D02*
X127635000Y-48955000D01*
X127635000Y-33655000D02*
X175635000Y-33655000D01*
X175635000Y-33655000D02*
X175635000Y-48955000D01*
D10*
%TO.C,J9*%
X149800000Y-69409000D02*
X151130000Y-69409000D01*
X149800000Y-70739000D02*
X149800000Y-69409000D01*
X149800000Y-72009000D02*
X152460000Y-72009000D01*
X152460000Y-72009000D02*
X152460000Y-72069000D01*
X149800000Y-72009000D02*
X149800000Y-72069000D01*
X149800000Y-72069000D02*
X152460000Y-72069000D01*
%TO.C,JI2C2*%
X109908000Y-50800000D02*
G75*
G03*
X109908000Y-50800000I-1450000J0D01*
G01*
X110998000Y-53340000D02*
X100330000Y-53340000D01*
X110998000Y-39878000D02*
X110998000Y-53340000D01*
X100330000Y-39878000D02*
X110998000Y-39878000D01*
X100330000Y-53340000D02*
X100330000Y-39878000D01*
X103124000Y-42732000D02*
X103124000Y-40072000D01*
X103124000Y-42732000D02*
X110804000Y-42732000D01*
X110804000Y-42732000D02*
X110804000Y-40072000D01*
X103124000Y-40072000D02*
X110804000Y-40072000D01*
X100524000Y-40072000D02*
X101854000Y-40072000D01*
X100524000Y-41402000D02*
X100524000Y-40072000D01*
%TO.C,XA1*%
X146050000Y-97790000D02*
X146050000Y-102870000D01*
X153670000Y-97790000D02*
X146050000Y-97790000D01*
X153670000Y-62230000D02*
X153670000Y-97790000D01*
X158750000Y-62230000D02*
X153670000Y-62230000D01*
X158750000Y-102870000D02*
X158750000Y-62230000D01*
X146050000Y-102870000D02*
X158750000Y-102870000D01*
X133350000Y-102870000D02*
X133350000Y-97790000D01*
X140970000Y-102870000D02*
X133350000Y-102870000D01*
X140970000Y-97790000D02*
X140970000Y-102870000D01*
X133350000Y-97790000D02*
X140970000Y-97790000D01*
X125790000Y-49470000D02*
X125790000Y-102930000D01*
X120590000Y-49470000D02*
X121920000Y-49470000D01*
X120590000Y-52070000D02*
X120590000Y-102930000D01*
X120590000Y-102930000D02*
X125790000Y-102930000D01*
X123190000Y-52070000D02*
X123190000Y-49470000D01*
X120590000Y-50800000D02*
X120590000Y-49470000D01*
X123190000Y-49470000D02*
X125790000Y-49470000D01*
X120590000Y-52070000D02*
X123190000Y-52070000D01*
%TO.C,R6*%
X112685500Y-48260000D02*
G75*
G03*
X112685500Y-48260000I-1370000J0D01*
G01*
X111315500Y-49630000D02*
X111315500Y-49700000D01*
%TO.C,JP1*%
X111827000Y-52645000D02*
X111827000Y-55305000D01*
X116967000Y-52645000D02*
X111827000Y-52645000D01*
X116967000Y-55305000D02*
X111827000Y-55305000D01*
X116967000Y-52645000D02*
X116967000Y-55305000D01*
X118237000Y-52645000D02*
X119567000Y-52645000D01*
X119567000Y-52645000D02*
X119567000Y-53975000D01*
%TO.C,JI2C1*%
X116780000Y-66675000D02*
X119440000Y-66675000D01*
X116780000Y-66675000D02*
X116780000Y-74355000D01*
X116780000Y-74355000D02*
X119440000Y-74355000D01*
X119440000Y-66675000D02*
X119440000Y-74355000D01*
X119440000Y-64075000D02*
X119440000Y-65405000D01*
X118110000Y-64075000D02*
X119440000Y-64075000D01*
D11*
X120015000Y-83245000D02*
X120015000Y-55245000D01*
X120060000Y-83245000D02*
X93060000Y-83245000D01*
X120015000Y-55245000D02*
X93015000Y-55245000D01*
X93015000Y-83245000D02*
X93015000Y-55245000D01*
D10*
%TO.C,C2*%
X118206000Y-50901000D02*
X118206000Y-49643000D01*
X120046000Y-50901000D02*
X120046000Y-49643000D01*
%TO.C,C1*%
X129300000Y-59721000D02*
X128042000Y-59721000D01*
X129300000Y-57881000D02*
X128042000Y-57881000D01*
%TO.C,R5*%
X115924000Y-65024000D02*
G75*
G03*
X115924000Y-65024000I-1370000J0D01*
G01*
X113184000Y-65024000D02*
X113114000Y-65024000D01*
%TO.C,JP2*%
X111827000Y-56455000D02*
X111827000Y-59115000D01*
X116967000Y-56455000D02*
X111827000Y-56455000D01*
X116967000Y-59115000D02*
X111827000Y-59115000D01*
X116967000Y-56455000D02*
X116967000Y-59115000D01*
X118237000Y-56455000D02*
X119567000Y-56455000D01*
X119567000Y-56455000D02*
X119567000Y-57785000D01*
%TO.C,JP3*%
X111827000Y-60265000D02*
X111827000Y-62925000D01*
X116967000Y-60265000D02*
X111827000Y-60265000D01*
X116967000Y-62925000D02*
X111827000Y-62925000D01*
X116967000Y-60265000D02*
X116967000Y-62925000D01*
X118237000Y-60265000D02*
X119567000Y-60265000D01*
X119567000Y-60265000D02*
X119567000Y-61595000D01*
%TO.C,C3*%
X187175000Y-38989000D02*
G75*
G03*
X187175000Y-38989000I-2120000J0D01*
G01*
X185055000Y-41069000D02*
X185055000Y-36909000D01*
X185015000Y-41069000D02*
X185015000Y-36909000D01*
X184975000Y-41068000D02*
X184975000Y-36910000D01*
X184935000Y-41066000D02*
X184935000Y-36912000D01*
X184895000Y-41063000D02*
X184895000Y-36915000D01*
X184855000Y-41060000D02*
X184855000Y-39829000D01*
X184855000Y-38149000D02*
X184855000Y-36918000D01*
X184815000Y-41056000D02*
X184815000Y-39829000D01*
X184815000Y-38149000D02*
X184815000Y-36922000D01*
X184775000Y-41051000D02*
X184775000Y-39829000D01*
X184775000Y-38149000D02*
X184775000Y-36927000D01*
X184735000Y-41045000D02*
X184735000Y-39829000D01*
X184735000Y-38149000D02*
X184735000Y-36933000D01*
X184695000Y-41039000D02*
X184695000Y-39829000D01*
X184695000Y-38149000D02*
X184695000Y-36939000D01*
X184655000Y-41031000D02*
X184655000Y-39829000D01*
X184655000Y-38149000D02*
X184655000Y-36947000D01*
X184615000Y-41023000D02*
X184615000Y-39829000D01*
X184615000Y-38149000D02*
X184615000Y-36955000D01*
X184575000Y-41014000D02*
X184575000Y-39829000D01*
X184575000Y-38149000D02*
X184575000Y-36964000D01*
X184535000Y-41005000D02*
X184535000Y-39829000D01*
X184535000Y-38149000D02*
X184535000Y-36973000D01*
X184495000Y-40994000D02*
X184495000Y-39829000D01*
X184495000Y-38149000D02*
X184495000Y-36984000D01*
X184455000Y-40983000D02*
X184455000Y-39829000D01*
X184455000Y-38149000D02*
X184455000Y-36995000D01*
X184415000Y-40971000D02*
X184415000Y-39829000D01*
X184415000Y-38149000D02*
X184415000Y-37007000D01*
X184375000Y-40957000D02*
X184375000Y-39829000D01*
X184375000Y-38149000D02*
X184375000Y-37021000D01*
X184334000Y-40943000D02*
X184334000Y-39829000D01*
X184334000Y-38149000D02*
X184334000Y-37035000D01*
X184294000Y-40929000D02*
X184294000Y-39829000D01*
X184294000Y-38149000D02*
X184294000Y-37049000D01*
X184254000Y-40913000D02*
X184254000Y-39829000D01*
X184254000Y-38149000D02*
X184254000Y-37065000D01*
X184214000Y-40896000D02*
X184214000Y-39829000D01*
X184214000Y-38149000D02*
X184214000Y-37082000D01*
X184174000Y-40878000D02*
X184174000Y-39829000D01*
X184174000Y-38149000D02*
X184174000Y-37100000D01*
X184134000Y-40859000D02*
X184134000Y-39829000D01*
X184134000Y-38149000D02*
X184134000Y-37119000D01*
X184094000Y-40840000D02*
X184094000Y-39829000D01*
X184094000Y-38149000D02*
X184094000Y-37138000D01*
X184054000Y-40819000D02*
X184054000Y-39829000D01*
X184054000Y-38149000D02*
X184054000Y-37159000D01*
X184014000Y-40797000D02*
X184014000Y-39829000D01*
X184014000Y-38149000D02*
X184014000Y-37181000D01*
X183974000Y-40774000D02*
X183974000Y-39829000D01*
X183974000Y-38149000D02*
X183974000Y-37204000D01*
X183934000Y-40749000D02*
X183934000Y-39829000D01*
X183934000Y-38149000D02*
X183934000Y-37229000D01*
X183894000Y-40724000D02*
X183894000Y-39829000D01*
X183894000Y-38149000D02*
X183894000Y-37254000D01*
X183854000Y-40697000D02*
X183854000Y-39829000D01*
X183854000Y-38149000D02*
X183854000Y-37281000D01*
X183814000Y-40669000D02*
X183814000Y-39829000D01*
X183814000Y-38149000D02*
X183814000Y-37309000D01*
X183774000Y-40639000D02*
X183774000Y-39829000D01*
X183774000Y-38149000D02*
X183774000Y-37339000D01*
X183734000Y-40608000D02*
X183734000Y-39829000D01*
X183734000Y-38149000D02*
X183734000Y-37370000D01*
X183694000Y-40576000D02*
X183694000Y-39829000D01*
X183694000Y-38149000D02*
X183694000Y-37402000D01*
X183654000Y-40541000D02*
X183654000Y-39829000D01*
X183654000Y-38149000D02*
X183654000Y-37437000D01*
X183614000Y-40505000D02*
X183614000Y-39829000D01*
X183614000Y-38149000D02*
X183614000Y-37473000D01*
X183574000Y-40467000D02*
X183574000Y-39829000D01*
X183574000Y-38149000D02*
X183574000Y-37511000D01*
X183534000Y-40427000D02*
X183534000Y-39829000D01*
X183534000Y-38149000D02*
X183534000Y-37551000D01*
X183494000Y-40385000D02*
X183494000Y-39829000D01*
X183494000Y-38149000D02*
X183494000Y-37593000D01*
X183454000Y-40340000D02*
X183454000Y-39829000D01*
X183454000Y-38149000D02*
X183454000Y-37638000D01*
X183414000Y-40293000D02*
X183414000Y-39829000D01*
X183414000Y-38149000D02*
X183414000Y-37685000D01*
X183374000Y-40243000D02*
X183374000Y-39829000D01*
X183374000Y-38149000D02*
X183374000Y-37735000D01*
X183334000Y-40189000D02*
X183334000Y-39829000D01*
X183334000Y-38149000D02*
X183334000Y-37789000D01*
X183294000Y-40131000D02*
X183294000Y-39829000D01*
X183294000Y-38149000D02*
X183294000Y-37847000D01*
X183254000Y-40069000D02*
X183254000Y-39829000D01*
X183254000Y-38149000D02*
X183254000Y-37909000D01*
X183214000Y-40002000D02*
X183214000Y-37976000D01*
X183174000Y-39929000D02*
X183174000Y-38049000D01*
X183134000Y-39848000D02*
X183134000Y-38130000D01*
X183094000Y-39757000D02*
X183094000Y-38221000D01*
X183054000Y-39653000D02*
X183054000Y-38325000D01*
X183014000Y-39526000D02*
X183014000Y-38452000D01*
X182974000Y-39359000D02*
X182974000Y-38619000D01*
X187324801Y-40184000D02*
X186924801Y-40184000D01*
X187124801Y-40384000D02*
X187124801Y-39984000D01*
%TO.C,R2*%
X130024000Y-101822000D02*
X129694000Y-101822000D01*
X129694000Y-101822000D02*
X129694000Y-95282000D01*
X129694000Y-95282000D02*
X130024000Y-95282000D01*
X132104000Y-101822000D02*
X132434000Y-101822000D01*
X132434000Y-101822000D02*
X132434000Y-95282000D01*
X132434000Y-95282000D02*
X132104000Y-95282000D01*
%TO.C,R1*%
X126849000Y-101822000D02*
X126519000Y-101822000D01*
X126519000Y-101822000D02*
X126519000Y-95282000D01*
X126519000Y-95282000D02*
X126849000Y-95282000D01*
X128929000Y-101822000D02*
X129259000Y-101822000D01*
X129259000Y-101822000D02*
X129259000Y-95282000D01*
X129259000Y-95282000D02*
X128929000Y-95282000D01*
%TO.C,Q5*%
X135050000Y-65440000D02*
X135050000Y-61590000D01*
X134472045Y-65822631D02*
G75*
G03*
X135050000Y-65440000I-1122045J2322631D01*
G01*
X132251193Y-65856400D02*
G75*
G02*
X130750000Y-63500000I1098807J2356400D01*
G01*
X132251193Y-61143600D02*
G75*
G03*
X130750000Y-63500000I1098807J-2356400D01*
G01*
X134462264Y-61197617D02*
G75*
G02*
X135050000Y-61590000I-1112264J-2302383D01*
G01*
%TO.C,JDC1*%
X123980000Y-47286000D02*
X121380000Y-47286000D01*
X123980000Y-32586000D02*
X123980000Y-47286000D01*
X114780000Y-47286000D02*
X114780000Y-45386000D01*
X117480000Y-47286000D02*
X114780000Y-47286000D01*
X114780000Y-32586000D02*
X123980000Y-32586000D01*
X114780000Y-41386000D02*
X114780000Y-32586000D01*
X124180000Y-46436000D02*
X124180000Y-47486000D01*
X123130000Y-47486000D02*
X124180000Y-47486000D01*
%TO.C,J8*%
X109415000Y-53675000D02*
X108815000Y-53975000D01*
X109415000Y-54275000D02*
X109415000Y-53675000D01*
X108815000Y-53975000D02*
X109415000Y-54275000D01*
X105725000Y-48655000D02*
X105725000Y-48975000D01*
X102305000Y-48655000D02*
X105725000Y-48655000D01*
X102225000Y-48975000D02*
X102305000Y-48655000D01*
X102305000Y-49295000D02*
X102225000Y-48975000D01*
X105725000Y-49295000D02*
X102305000Y-49295000D01*
X105725000Y-48975000D02*
X105725000Y-49295000D01*
X106725000Y-50305000D02*
X106725000Y-50145000D01*
X105725000Y-51155000D02*
X105725000Y-51475000D01*
X102305000Y-51155000D02*
X105725000Y-51155000D01*
X102225000Y-51475000D02*
X102305000Y-51155000D01*
X102305000Y-51795000D02*
X102225000Y-51475000D01*
X105725000Y-51795000D02*
X102305000Y-51795000D01*
X105725000Y-51475000D02*
X105725000Y-51795000D01*
X106725000Y-52805000D02*
X106725000Y-52645000D01*
X105725000Y-53655000D02*
X105725000Y-53975000D01*
X102305000Y-53655000D02*
X105725000Y-53655000D01*
X102225000Y-53975000D02*
X102305000Y-53655000D01*
X102305000Y-54295000D02*
X102225000Y-53975000D01*
X105725000Y-54295000D02*
X102305000Y-54295000D01*
X105725000Y-53975000D02*
X105725000Y-54295000D01*
X105725000Y-55365000D02*
X105725000Y-47585000D01*
X106725000Y-47585000D02*
X106725000Y-46365000D01*
X101725000Y-47585000D02*
X106725000Y-47585000D01*
X101725000Y-46365000D02*
X101725000Y-47585000D01*
X106725000Y-55365000D02*
X106725000Y-56585000D01*
X101725000Y-55365000D02*
X106725000Y-55365000D01*
X101725000Y-56585000D02*
X101725000Y-55365000D01*
X108925000Y-47585000D02*
X106725000Y-47585000D01*
X108925000Y-46365000D02*
X108925000Y-47585000D01*
X100505000Y-46365000D02*
X108925000Y-46365000D01*
X100505000Y-56585000D02*
X100505000Y-46365000D01*
X108925000Y-56585000D02*
X100505000Y-56585000D01*
X108925000Y-55365000D02*
X108925000Y-56585000D01*
X106725000Y-55365000D02*
X108925000Y-55365000D01*
%TO.C,J7*%
X109415000Y-64724000D02*
X108815000Y-65024000D01*
X109415000Y-65324000D02*
X109415000Y-64724000D01*
X108815000Y-65024000D02*
X109415000Y-65324000D01*
X105725000Y-59704000D02*
X105725000Y-60024000D01*
X102305000Y-59704000D02*
X105725000Y-59704000D01*
X102225000Y-60024000D02*
X102305000Y-59704000D01*
X102305000Y-60344000D02*
X102225000Y-60024000D01*
X105725000Y-60344000D02*
X102305000Y-60344000D01*
X105725000Y-60024000D02*
X105725000Y-60344000D01*
X106725000Y-61354000D02*
X106725000Y-61194000D01*
X105725000Y-62204000D02*
X105725000Y-62524000D01*
X102305000Y-62204000D02*
X105725000Y-62204000D01*
X102225000Y-62524000D02*
X102305000Y-62204000D01*
X102305000Y-62844000D02*
X102225000Y-62524000D01*
X105725000Y-62844000D02*
X102305000Y-62844000D01*
X105725000Y-62524000D02*
X105725000Y-62844000D01*
X106725000Y-63854000D02*
X106725000Y-63694000D01*
X105725000Y-64704000D02*
X105725000Y-65024000D01*
X102305000Y-64704000D02*
X105725000Y-64704000D01*
X102225000Y-65024000D02*
X102305000Y-64704000D01*
X102305000Y-65344000D02*
X102225000Y-65024000D01*
X105725000Y-65344000D02*
X102305000Y-65344000D01*
X105725000Y-65024000D02*
X105725000Y-65344000D01*
X105725000Y-66414000D02*
X105725000Y-58634000D01*
X106725000Y-58634000D02*
X106725000Y-57414000D01*
X101725000Y-58634000D02*
X106725000Y-58634000D01*
X101725000Y-57414000D02*
X101725000Y-58634000D01*
X106725000Y-66414000D02*
X106725000Y-67634000D01*
X101725000Y-66414000D02*
X106725000Y-66414000D01*
X101725000Y-67634000D02*
X101725000Y-66414000D01*
X108925000Y-58634000D02*
X106725000Y-58634000D01*
X108925000Y-57414000D02*
X108925000Y-58634000D01*
X100505000Y-57414000D02*
X108925000Y-57414000D01*
X100505000Y-67634000D02*
X100505000Y-57414000D01*
X108925000Y-67634000D02*
X100505000Y-67634000D01*
X108925000Y-66414000D02*
X108925000Y-67634000D01*
X106725000Y-66414000D02*
X108925000Y-66414000D01*
%TO.C,JSPI1*%
X100390000Y-80575000D02*
X100390000Y-71945000D01*
X100508095Y-80575000D02*
X100508095Y-71945000D01*
X100626190Y-80575000D02*
X100626190Y-71945000D01*
X100744285Y-80575000D02*
X100744285Y-71945000D01*
X100862380Y-80575000D02*
X100862380Y-71945000D01*
X100980475Y-80575000D02*
X100980475Y-71945000D01*
X101098570Y-80575000D02*
X101098570Y-71945000D01*
X101216665Y-80575000D02*
X101216665Y-71945000D01*
X101334760Y-80575000D02*
X101334760Y-71945000D01*
X101452855Y-80575000D02*
X101452855Y-71945000D01*
X101570950Y-80575000D02*
X101570950Y-71945000D01*
X101689045Y-80575000D02*
X101689045Y-71945000D01*
X101807140Y-80575000D02*
X101807140Y-71945000D01*
X101925235Y-80575000D02*
X101925235Y-71945000D01*
X102043330Y-80575000D02*
X102043330Y-71945000D01*
X102161425Y-80575000D02*
X102161425Y-71945000D01*
X102279520Y-80575000D02*
X102279520Y-71945000D01*
X102397615Y-80575000D02*
X102397615Y-71945000D01*
X102515710Y-80575000D02*
X102515710Y-71945000D01*
X102633805Y-80575000D02*
X102633805Y-71945000D01*
X102751900Y-80575000D02*
X102751900Y-71945000D01*
X101240000Y-71945000D02*
X101240000Y-71595000D01*
X101960000Y-71945000D02*
X101960000Y-71595000D01*
X103780000Y-71945000D02*
X103780000Y-71535000D01*
X104500000Y-71945000D02*
X104500000Y-71535000D01*
X106320000Y-71945000D02*
X106320000Y-71535000D01*
X107040000Y-71945000D02*
X107040000Y-71535000D01*
X108860000Y-71945000D02*
X108860000Y-71535000D01*
X109580000Y-71945000D02*
X109580000Y-71535000D01*
X111400000Y-71945000D02*
X111400000Y-71535000D01*
X112120000Y-71945000D02*
X112120000Y-71535000D01*
X113940000Y-71945000D02*
X113940000Y-71535000D01*
X114660000Y-71945000D02*
X114660000Y-71535000D01*
X102870000Y-80575000D02*
X102870000Y-71945000D01*
X105410000Y-80575000D02*
X105410000Y-71945000D01*
X107950000Y-80575000D02*
X107950000Y-71945000D01*
X110490000Y-80575000D02*
X110490000Y-71945000D01*
X113030000Y-80575000D02*
X113030000Y-71945000D01*
X100270000Y-80575000D02*
X100270000Y-71945000D01*
X100270000Y-71945000D02*
X115630000Y-71945000D01*
X115630000Y-80575000D02*
X115630000Y-71945000D01*
X100270000Y-80575000D02*
X115630000Y-80575000D01*
X100270000Y-69375000D02*
X101600000Y-69375000D01*
X100270000Y-70485000D02*
X100270000Y-69375000D01*
%TO.C,JS2*%
X197838000Y-78345000D02*
X201278000Y-78345000D01*
X187196000Y-79221000D02*
X186688000Y-78713000D01*
X186180000Y-79221000D02*
X187196000Y-79221000D01*
X186688000Y-78713000D02*
X186180000Y-79221000D01*
X197838000Y-62325000D02*
X201278000Y-62325000D01*
X201278000Y-62325000D02*
X201278000Y-78345000D01*
X182408000Y-78345000D02*
X194338000Y-78345000D01*
X182408000Y-62325000D02*
X182408000Y-78345000D01*
X182408000Y-62325000D02*
X194338000Y-62325000D01*
%TO.C,U1*%
X144840000Y-90440000D02*
X144840000Y-88790000D01*
X144840000Y-88790000D02*
X134560000Y-88790000D01*
X134560000Y-88790000D02*
X134560000Y-94090000D01*
X134560000Y-94090000D02*
X144840000Y-94090000D01*
X144840000Y-94090000D02*
X144840000Y-92440000D01*
X144840000Y-92440000D02*
G75*
G02*
X144840000Y-90440000I0J1000000D01*
G01*
%TO.C,J3*%
X177720000Y-76815000D02*
X171750000Y-76815000D01*
X171750000Y-76815000D02*
X171750000Y-89435000D01*
X171750000Y-89435000D02*
X177720000Y-89435000D01*
X177720000Y-89435000D02*
X177720000Y-76815000D01*
X177710000Y-80125000D02*
X176960000Y-80125000D01*
X176960000Y-80125000D02*
X176960000Y-86125000D01*
X176960000Y-86125000D02*
X177710000Y-86125000D01*
X177710000Y-86125000D02*
X177710000Y-80125000D01*
X177710000Y-76825000D02*
X176960000Y-76825000D01*
X176960000Y-76825000D02*
X176960000Y-78625000D01*
X176960000Y-78625000D02*
X177710000Y-78625000D01*
X177710000Y-78625000D02*
X177710000Y-76825000D01*
X177710000Y-87625000D02*
X176960000Y-87625000D01*
X176960000Y-87625000D02*
X176960000Y-89425000D01*
X176960000Y-89425000D02*
X177710000Y-89425000D01*
X177710000Y-89425000D02*
X177710000Y-87625000D01*
X175460000Y-76825000D02*
X175460000Y-77575000D01*
X175460000Y-77575000D02*
X172510000Y-77575000D01*
X172510000Y-77575000D02*
X172510000Y-83125000D01*
X175460000Y-89425000D02*
X175460000Y-88675000D01*
X175460000Y-88675000D02*
X172510000Y-88675000D01*
X172510000Y-88675000D02*
X172510000Y-83125000D01*
X178010000Y-77775000D02*
X178010000Y-76525000D01*
X178010000Y-76525000D02*
X176760000Y-76525000D01*
%TO.C,Y1*%
X146963610Y-70546348D02*
G75*
G02*
X148463000Y-70547000I749390J-700652D01*
G01*
X146963610Y-71947652D02*
G75*
G03*
X148463000Y-71947000I749390J700652D01*
G01*
%TO.C,J1*%
X177720000Y-91420000D02*
X171750000Y-91420000D01*
X171750000Y-91420000D02*
X171750000Y-104040000D01*
X171750000Y-104040000D02*
X177720000Y-104040000D01*
X177720000Y-104040000D02*
X177720000Y-91420000D01*
X177710000Y-94730000D02*
X176960000Y-94730000D01*
X176960000Y-94730000D02*
X176960000Y-100730000D01*
X176960000Y-100730000D02*
X177710000Y-100730000D01*
X177710000Y-100730000D02*
X177710000Y-94730000D01*
X177710000Y-91430000D02*
X176960000Y-91430000D01*
X176960000Y-91430000D02*
X176960000Y-93230000D01*
X176960000Y-93230000D02*
X177710000Y-93230000D01*
X177710000Y-93230000D02*
X177710000Y-91430000D01*
X177710000Y-102230000D02*
X176960000Y-102230000D01*
X176960000Y-102230000D02*
X176960000Y-104030000D01*
X176960000Y-104030000D02*
X177710000Y-104030000D01*
X177710000Y-104030000D02*
X177710000Y-102230000D01*
X175460000Y-91430000D02*
X175460000Y-92180000D01*
X175460000Y-92180000D02*
X172510000Y-92180000D01*
X172510000Y-92180000D02*
X172510000Y-97730000D01*
X175460000Y-104030000D02*
X175460000Y-103280000D01*
X175460000Y-103280000D02*
X172510000Y-103280000D01*
X172510000Y-103280000D02*
X172510000Y-97730000D01*
X178010000Y-92380000D02*
X178010000Y-91130000D01*
X178010000Y-91130000D02*
X176760000Y-91130000D01*
%TO.C,RQ7*%
X143486000Y-69945000D02*
X143156000Y-69945000D01*
X143156000Y-69945000D02*
X143156000Y-63405000D01*
X143156000Y-63405000D02*
X143486000Y-63405000D01*
X145566000Y-69945000D02*
X145896000Y-69945000D01*
X145896000Y-69945000D02*
X145896000Y-63405000D01*
X145896000Y-63405000D02*
X145566000Y-63405000D01*
%TO.C,Q7*%
X150544000Y-64805000D02*
X150544000Y-60955000D01*
X149966045Y-65187631D02*
G75*
G03*
X150544000Y-64805000I-1122045J2322631D01*
G01*
X147745193Y-65221400D02*
G75*
G02*
X146244000Y-62865000I1098807J2356400D01*
G01*
X147745193Y-60508600D02*
G75*
G03*
X146244000Y-62865000I1098807J-2356400D01*
G01*
X149956264Y-60562617D02*
G75*
G02*
X150544000Y-60955000I-1112264J-2302383D01*
G01*
%TO.C,JM1*%
X197838000Y-57944000D02*
X201278000Y-57944000D01*
X187196000Y-58820000D02*
X186688000Y-58312000D01*
X186180000Y-58820000D02*
X187196000Y-58820000D01*
X186688000Y-58312000D02*
X186180000Y-58820000D01*
X197838000Y-41924000D02*
X201278000Y-41924000D01*
X201278000Y-41924000D02*
X201278000Y-57944000D01*
X182408000Y-57944000D02*
X194338000Y-57944000D01*
X182408000Y-41924000D02*
X182408000Y-57944000D01*
X182408000Y-41924000D02*
X194338000Y-41924000D01*
%TO.C,J2*%
X169465000Y-91420000D02*
X163495000Y-91420000D01*
X163495000Y-91420000D02*
X163495000Y-104040000D01*
X163495000Y-104040000D02*
X169465000Y-104040000D01*
X169465000Y-104040000D02*
X169465000Y-91420000D01*
X169455000Y-94730000D02*
X168705000Y-94730000D01*
X168705000Y-94730000D02*
X168705000Y-100730000D01*
X168705000Y-100730000D02*
X169455000Y-100730000D01*
X169455000Y-100730000D02*
X169455000Y-94730000D01*
X169455000Y-91430000D02*
X168705000Y-91430000D01*
X168705000Y-91430000D02*
X168705000Y-93230000D01*
X168705000Y-93230000D02*
X169455000Y-93230000D01*
X169455000Y-93230000D02*
X169455000Y-91430000D01*
X169455000Y-102230000D02*
X168705000Y-102230000D01*
X168705000Y-102230000D02*
X168705000Y-104030000D01*
X168705000Y-104030000D02*
X169455000Y-104030000D01*
X169455000Y-104030000D02*
X169455000Y-102230000D01*
X167205000Y-91430000D02*
X167205000Y-92180000D01*
X167205000Y-92180000D02*
X164255000Y-92180000D01*
X164255000Y-92180000D02*
X164255000Y-97730000D01*
X167205000Y-104030000D02*
X167205000Y-103280000D01*
X167205000Y-103280000D02*
X164255000Y-103280000D01*
X164255000Y-103280000D02*
X164255000Y-97730000D01*
X169755000Y-92380000D02*
X169755000Y-91130000D01*
X169755000Y-91130000D02*
X168505000Y-91130000D01*
%TO.C,JS1*%
X197838000Y-98792000D02*
X201278000Y-98792000D01*
X187196000Y-99668000D02*
X186688000Y-99160000D01*
X186180000Y-99668000D02*
X187196000Y-99668000D01*
X186688000Y-99160000D02*
X186180000Y-99668000D01*
X197838000Y-82772000D02*
X201278000Y-82772000D01*
X201278000Y-82772000D02*
X201278000Y-98792000D01*
X182408000Y-98792000D02*
X194338000Y-98792000D01*
X182408000Y-82772000D02*
X182408000Y-98792000D01*
X182408000Y-82772000D02*
X194338000Y-82772000D01*
%TO.C,RQ1*%
X131548000Y-57245000D02*
X131218000Y-57245000D01*
X131218000Y-57245000D02*
X131218000Y-50705000D01*
X131218000Y-50705000D02*
X131548000Y-50705000D01*
X133628000Y-57245000D02*
X133958000Y-57245000D01*
X133958000Y-57245000D02*
X133958000Y-50705000D01*
X133958000Y-50705000D02*
X133628000Y-50705000D01*
%TO.C,RQ2*%
X139295000Y-57245000D02*
X138965000Y-57245000D01*
X138965000Y-57245000D02*
X138965000Y-50705000D01*
X138965000Y-50705000D02*
X139295000Y-50705000D01*
X141375000Y-57245000D02*
X141705000Y-57245000D01*
X141705000Y-57245000D02*
X141705000Y-50705000D01*
X141705000Y-50705000D02*
X141375000Y-50705000D01*
%TO.C,Q1*%
X126570000Y-52035000D02*
X126570000Y-55885000D01*
X127147955Y-51652369D02*
G75*
G03*
X126570000Y-52035000I1122045J-2322631D01*
G01*
X129368807Y-51618600D02*
G75*
G02*
X130870000Y-53975000I-1098807J-2356400D01*
G01*
X129368807Y-56331400D02*
G75*
G03*
X130870000Y-53975000I-1098807J2356400D01*
G01*
X127157736Y-56277383D02*
G75*
G02*
X126570000Y-55885000I1112264J2302383D01*
G01*
%TO.C,Q2*%
X134317000Y-52035000D02*
X134317000Y-55885000D01*
X134894955Y-51652369D02*
G75*
G03*
X134317000Y-52035000I1122045J-2322631D01*
G01*
X137115807Y-51618600D02*
G75*
G02*
X138617000Y-53975000I-1098807J-2356400D01*
G01*
X137115807Y-56331400D02*
G75*
G03*
X138617000Y-53975000I-1098807J2356400D01*
G01*
X134904736Y-56277383D02*
G75*
G02*
X134317000Y-55885000I1112264J2302383D01*
G01*
%TO.C,U2*%
X152460000Y-77105000D02*
X152460000Y-75455000D01*
X152460000Y-75455000D02*
X142180000Y-75455000D01*
X142180000Y-75455000D02*
X142180000Y-80755000D01*
X142180000Y-80755000D02*
X152460000Y-80755000D01*
X152460000Y-80755000D02*
X152460000Y-79105000D01*
X152460000Y-79105000D02*
G75*
G02*
X152460000Y-77105000I0J1000000D01*
G01*
%TO.C,R3*%
X133636000Y-82780000D02*
X133636000Y-82450000D01*
X133636000Y-82450000D02*
X140176000Y-82450000D01*
X140176000Y-82450000D02*
X140176000Y-82780000D01*
X133636000Y-84860000D02*
X133636000Y-85190000D01*
X133636000Y-85190000D02*
X140176000Y-85190000D01*
X140176000Y-85190000D02*
X140176000Y-84860000D01*
%TO.C,R20*%
X150090000Y-94710000D02*
X149760000Y-94710000D01*
X149760000Y-94710000D02*
X149760000Y-88170000D01*
X149760000Y-88170000D02*
X150090000Y-88170000D01*
X152170000Y-94710000D02*
X152500000Y-94710000D01*
X152500000Y-94710000D02*
X152500000Y-88170000D01*
X152500000Y-88170000D02*
X152170000Y-88170000D01*
%TO.C,R21*%
X150590000Y-85812500D02*
X150590000Y-86142500D01*
X150590000Y-86142500D02*
X144050000Y-86142500D01*
X144050000Y-86142500D02*
X144050000Y-85812500D01*
X150590000Y-83732500D02*
X150590000Y-83402500D01*
X150590000Y-83402500D02*
X144050000Y-83402500D01*
X144050000Y-83402500D02*
X144050000Y-83732500D01*
%TO.C,R4*%
X148995000Y-88170000D02*
X149325000Y-88170000D01*
X149325000Y-88170000D02*
X149325000Y-94710000D01*
X149325000Y-94710000D02*
X148995000Y-94710000D01*
X146915000Y-88170000D02*
X146585000Y-88170000D01*
X146585000Y-88170000D02*
X146585000Y-94710000D01*
X146585000Y-94710000D02*
X146915000Y-94710000D01*
%TO.C,RQ5*%
X127992000Y-72612000D02*
X127662000Y-72612000D01*
X127662000Y-72612000D02*
X127662000Y-66072000D01*
X127662000Y-66072000D02*
X127992000Y-66072000D01*
X130072000Y-72612000D02*
X130402000Y-72612000D01*
X130402000Y-72612000D02*
X130402000Y-66072000D01*
X130402000Y-66072000D02*
X130072000Y-66072000D01*
%TO.C,RQ6*%
X135739000Y-69945000D02*
X135409000Y-69945000D01*
X135409000Y-69945000D02*
X135409000Y-63405000D01*
X135409000Y-63405000D02*
X135739000Y-63405000D01*
X137819000Y-69945000D02*
X138149000Y-69945000D01*
X138149000Y-69945000D02*
X138149000Y-63405000D01*
X138149000Y-63405000D02*
X137819000Y-63405000D01*
%TO.C,RQ3*%
X147042000Y-57245000D02*
X146712000Y-57245000D01*
X146712000Y-57245000D02*
X146712000Y-50705000D01*
X146712000Y-50705000D02*
X147042000Y-50705000D01*
X149122000Y-57245000D02*
X149452000Y-57245000D01*
X149452000Y-57245000D02*
X149452000Y-50705000D01*
X149452000Y-50705000D02*
X149122000Y-50705000D01*
%TO.C,RQ4*%
X154789000Y-57245000D02*
X154459000Y-57245000D01*
X154459000Y-57245000D02*
X154459000Y-50705000D01*
X154459000Y-50705000D02*
X154789000Y-50705000D01*
X156869000Y-57245000D02*
X157199000Y-57245000D01*
X157199000Y-57245000D02*
X157199000Y-50705000D01*
X157199000Y-50705000D02*
X156869000Y-50705000D01*
%TO.C,QSO1*%
X131644000Y-86890000D02*
X131644000Y-83290000D01*
X130916795Y-82765816D02*
G75*
G02*
X131644000Y-83290000I-1122795J-2324184D01*
G01*
X128695193Y-82733600D02*
G75*
G03*
X127194000Y-85090000I1098807J-2356400D01*
G01*
X128695193Y-87446400D02*
G75*
G02*
X127194000Y-85090000I1098807J2356400D01*
G01*
X130916795Y-87414184D02*
G75*
G03*
X131644000Y-86890000I-1122795J2324184D01*
G01*
%TO.C,QSS1*%
X131975000Y-88955000D02*
X128375000Y-88955000D01*
X127850816Y-89682205D02*
G75*
G02*
X128375000Y-88955000I2324184J-1122795D01*
G01*
X127818600Y-91903807D02*
G75*
G03*
X130175000Y-93405000I2356400J1098807D01*
G01*
X132531400Y-91903807D02*
G75*
G02*
X130175000Y-93405000I-2356400J1098807D01*
G01*
X132499184Y-89682205D02*
G75*
G03*
X131975000Y-88955000I-2324184J-1122795D01*
G01*
%TO.C,Q6*%
X142797000Y-65440000D02*
X142797000Y-61590000D01*
X142219045Y-65822631D02*
G75*
G03*
X142797000Y-65440000I-1122045J2322631D01*
G01*
X139998193Y-65856400D02*
G75*
G02*
X138497000Y-63500000I1098807J2356400D01*
G01*
X139998193Y-61143600D02*
G75*
G03*
X138497000Y-63500000I1098807J-2356400D01*
G01*
X142209264Y-61197617D02*
G75*
G02*
X142797000Y-61590000I-1112264J-2302383D01*
G01*
%TO.C,Q3*%
X142064000Y-52035000D02*
X142064000Y-55885000D01*
X142641955Y-51652369D02*
G75*
G03*
X142064000Y-52035000I1122045J-2322631D01*
G01*
X144862807Y-51618600D02*
G75*
G02*
X146364000Y-53975000I-1098807J-2356400D01*
G01*
X144862807Y-56331400D02*
G75*
G03*
X146364000Y-53975000I-1098807J2356400D01*
G01*
X142651736Y-56277383D02*
G75*
G02*
X142064000Y-55885000I1112264J2302383D01*
G01*
%TO.C,Q4*%
X149811000Y-52035000D02*
X149811000Y-55885000D01*
X150388955Y-51652369D02*
G75*
G03*
X149811000Y-52035000I1122045J-2322631D01*
G01*
X152609807Y-51618600D02*
G75*
G02*
X154111000Y-53975000I-1098807J-2356400D01*
G01*
X152609807Y-56331400D02*
G75*
G03*
X154111000Y-53975000I-1098807J2356400D01*
G01*
X150398736Y-56277383D02*
G75*
G02*
X149811000Y-55885000I1112264J2302383D01*
G01*
%TO.C,J6*%
X169465000Y-62210000D02*
X163495000Y-62210000D01*
X163495000Y-62210000D02*
X163495000Y-74830000D01*
X163495000Y-74830000D02*
X169465000Y-74830000D01*
X169465000Y-74830000D02*
X169465000Y-62210000D01*
X169455000Y-65520000D02*
X168705000Y-65520000D01*
X168705000Y-65520000D02*
X168705000Y-71520000D01*
X168705000Y-71520000D02*
X169455000Y-71520000D01*
X169455000Y-71520000D02*
X169455000Y-65520000D01*
X169455000Y-62220000D02*
X168705000Y-62220000D01*
X168705000Y-62220000D02*
X168705000Y-64020000D01*
X168705000Y-64020000D02*
X169455000Y-64020000D01*
X169455000Y-64020000D02*
X169455000Y-62220000D01*
X169455000Y-73020000D02*
X168705000Y-73020000D01*
X168705000Y-73020000D02*
X168705000Y-74820000D01*
X168705000Y-74820000D02*
X169455000Y-74820000D01*
X169455000Y-74820000D02*
X169455000Y-73020000D01*
X167205000Y-62220000D02*
X167205000Y-62970000D01*
X167205000Y-62970000D02*
X164255000Y-62970000D01*
X164255000Y-62970000D02*
X164255000Y-68520000D01*
X167205000Y-74820000D02*
X167205000Y-74070000D01*
X167205000Y-74070000D02*
X164255000Y-74070000D01*
X164255000Y-74070000D02*
X164255000Y-68520000D01*
X169755000Y-63170000D02*
X169755000Y-61920000D01*
X169755000Y-61920000D02*
X168505000Y-61920000D01*
%TO.C,J5*%
X177720000Y-62210000D02*
X171750000Y-62210000D01*
X171750000Y-62210000D02*
X171750000Y-74830000D01*
X171750000Y-74830000D02*
X177720000Y-74830000D01*
X177720000Y-74830000D02*
X177720000Y-62210000D01*
X177710000Y-65520000D02*
X176960000Y-65520000D01*
X176960000Y-65520000D02*
X176960000Y-71520000D01*
X176960000Y-71520000D02*
X177710000Y-71520000D01*
X177710000Y-71520000D02*
X177710000Y-65520000D01*
X177710000Y-62220000D02*
X176960000Y-62220000D01*
X176960000Y-62220000D02*
X176960000Y-64020000D01*
X176960000Y-64020000D02*
X177710000Y-64020000D01*
X177710000Y-64020000D02*
X177710000Y-62220000D01*
X177710000Y-73020000D02*
X176960000Y-73020000D01*
X176960000Y-73020000D02*
X176960000Y-74820000D01*
X176960000Y-74820000D02*
X177710000Y-74820000D01*
X177710000Y-74820000D02*
X177710000Y-73020000D01*
X175460000Y-62220000D02*
X175460000Y-62970000D01*
X175460000Y-62970000D02*
X172510000Y-62970000D01*
X172510000Y-62970000D02*
X172510000Y-68520000D01*
X175460000Y-74820000D02*
X175460000Y-74070000D01*
X175460000Y-74070000D02*
X172510000Y-74070000D01*
X172510000Y-74070000D02*
X172510000Y-68520000D01*
X178010000Y-63170000D02*
X178010000Y-61920000D01*
X178010000Y-61920000D02*
X176760000Y-61920000D01*
%TO.C,J4*%
X169465000Y-76815000D02*
X163495000Y-76815000D01*
X163495000Y-76815000D02*
X163495000Y-89435000D01*
X163495000Y-89435000D02*
X169465000Y-89435000D01*
X169465000Y-89435000D02*
X169465000Y-76815000D01*
X169455000Y-80125000D02*
X168705000Y-80125000D01*
X168705000Y-80125000D02*
X168705000Y-86125000D01*
X168705000Y-86125000D02*
X169455000Y-86125000D01*
X169455000Y-86125000D02*
X169455000Y-80125000D01*
X169455000Y-76825000D02*
X168705000Y-76825000D01*
X168705000Y-76825000D02*
X168705000Y-78625000D01*
X168705000Y-78625000D02*
X169455000Y-78625000D01*
X169455000Y-78625000D02*
X169455000Y-76825000D01*
X169455000Y-87625000D02*
X168705000Y-87625000D01*
X168705000Y-87625000D02*
X168705000Y-89425000D01*
X168705000Y-89425000D02*
X169455000Y-89425000D01*
X169455000Y-89425000D02*
X169455000Y-87625000D01*
X167205000Y-76825000D02*
X167205000Y-77575000D01*
X167205000Y-77575000D02*
X164255000Y-77575000D01*
X164255000Y-77575000D02*
X164255000Y-83125000D01*
X167205000Y-89425000D02*
X167205000Y-88675000D01*
X167205000Y-88675000D02*
X164255000Y-88675000D01*
X164255000Y-88675000D02*
X164255000Y-83125000D01*
X169755000Y-77775000D02*
X169755000Y-76525000D01*
X169755000Y-76525000D02*
X168505000Y-76525000D01*
%TO.C,C6*%
D12*
X113625333Y-47601142D02*
X113577714Y-47648761D01*
X113434857Y-47696380D01*
X113339619Y-47696380D01*
X113196761Y-47648761D01*
X113101523Y-47553523D01*
X113053904Y-47458285D01*
X113006285Y-47267809D01*
X113006285Y-47124952D01*
X113053904Y-46934476D01*
X113101523Y-46839238D01*
X113196761Y-46744000D01*
X113339619Y-46696380D01*
X113434857Y-46696380D01*
X113577714Y-46744000D01*
X113625333Y-46791619D01*
X114482476Y-46696380D02*
X114292000Y-46696380D01*
X114196761Y-46744000D01*
X114149142Y-46791619D01*
X114053904Y-46934476D01*
X114006285Y-47124952D01*
X114006285Y-47505904D01*
X114053904Y-47601142D01*
X114101523Y-47648761D01*
X114196761Y-47696380D01*
X114387238Y-47696380D01*
X114482476Y-47648761D01*
X114530095Y-47601142D01*
X114577714Y-47505904D01*
X114577714Y-47267809D01*
X114530095Y-47172571D01*
X114482476Y-47124952D01*
X114387238Y-47077333D01*
X114196761Y-47077333D01*
X114101523Y-47124952D01*
X114053904Y-47172571D01*
X114006285Y-47267809D01*
%TO.C,C5*%
X107997333Y-44807142D02*
X107949714Y-44854761D01*
X107806857Y-44902380D01*
X107711619Y-44902380D01*
X107568761Y-44854761D01*
X107473523Y-44759523D01*
X107425904Y-44664285D01*
X107378285Y-44473809D01*
X107378285Y-44330952D01*
X107425904Y-44140476D01*
X107473523Y-44045238D01*
X107568761Y-43950000D01*
X107711619Y-43902380D01*
X107806857Y-43902380D01*
X107949714Y-43950000D01*
X107997333Y-43997619D01*
X108902095Y-43902380D02*
X108425904Y-43902380D01*
X108378285Y-44378571D01*
X108425904Y-44330952D01*
X108521142Y-44283333D01*
X108759238Y-44283333D01*
X108854476Y-44330952D01*
X108902095Y-44378571D01*
X108949714Y-44473809D01*
X108949714Y-44711904D01*
X108902095Y-44807142D01*
X108854476Y-44854761D01*
X108759238Y-44902380D01*
X108521142Y-44902380D01*
X108425904Y-44854761D01*
X108378285Y-44807142D01*
%TO.C,C4*%
X110847142Y-59856666D02*
X110894761Y-59904285D01*
X110942380Y-60047142D01*
X110942380Y-60142380D01*
X110894761Y-60285238D01*
X110799523Y-60380476D01*
X110704285Y-60428095D01*
X110513809Y-60475714D01*
X110370952Y-60475714D01*
X110180476Y-60428095D01*
X110085238Y-60380476D01*
X109990000Y-60285238D01*
X109942380Y-60142380D01*
X109942380Y-60047142D01*
X109990000Y-59904285D01*
X110037619Y-59856666D01*
X110275714Y-58999523D02*
X110942380Y-58999523D01*
X109894761Y-59237619D02*
X110609047Y-59475714D01*
X110609047Y-58856666D01*
%TO.C,JI2C3*%
X129008380Y-35520380D02*
X129008380Y-36234666D01*
X128960761Y-36377523D01*
X128865523Y-36472761D01*
X128722666Y-36520380D01*
X128627428Y-36520380D01*
X129484571Y-36520380D02*
X129484571Y-35520380D01*
X129913142Y-35615619D02*
X129960761Y-35568000D01*
X130056000Y-35520380D01*
X130294095Y-35520380D01*
X130389333Y-35568000D01*
X130436952Y-35615619D01*
X130484571Y-35710857D01*
X130484571Y-35806095D01*
X130436952Y-35948952D01*
X129865523Y-36520380D01*
X130484571Y-36520380D01*
X131484571Y-36425142D02*
X131436952Y-36472761D01*
X131294095Y-36520380D01*
X131198857Y-36520380D01*
X131056000Y-36472761D01*
X130960761Y-36377523D01*
X130913142Y-36282285D01*
X130865523Y-36091809D01*
X130865523Y-35948952D01*
X130913142Y-35758476D01*
X130960761Y-35663238D01*
X131056000Y-35568000D01*
X131198857Y-35520380D01*
X131294095Y-35520380D01*
X131436952Y-35568000D01*
X131484571Y-35615619D01*
X131817904Y-35520380D02*
X132436952Y-35520380D01*
X132103619Y-35901333D01*
X132246476Y-35901333D01*
X132341714Y-35948952D01*
X132389333Y-35996571D01*
X132436952Y-36091809D01*
X132436952Y-36329904D01*
X132389333Y-36425142D01*
X132341714Y-36472761D01*
X132246476Y-36520380D01*
X131960761Y-36520380D01*
X131865523Y-36472761D01*
X131817904Y-36425142D01*
%TO.C,J9*%
X150796666Y-67861380D02*
X150796666Y-68575666D01*
X150749047Y-68718523D01*
X150653809Y-68813761D01*
X150510952Y-68861380D01*
X150415714Y-68861380D01*
X151320476Y-68861380D02*
X151510952Y-68861380D01*
X151606190Y-68813761D01*
X151653809Y-68766142D01*
X151749047Y-68623285D01*
X151796666Y-68432809D01*
X151796666Y-68051857D01*
X151749047Y-67956619D01*
X151701428Y-67909000D01*
X151606190Y-67861380D01*
X151415714Y-67861380D01*
X151320476Y-67909000D01*
X151272857Y-67956619D01*
X151225238Y-68051857D01*
X151225238Y-68289952D01*
X151272857Y-68385190D01*
X151320476Y-68432809D01*
X151415714Y-68480428D01*
X151606190Y-68480428D01*
X151701428Y-68432809D01*
X151749047Y-68385190D01*
X151796666Y-68289952D01*
%TO.C,JI2C2*%
X104243380Y-38441380D02*
X104243380Y-39155666D01*
X104195761Y-39298523D01*
X104100523Y-39393761D01*
X103957666Y-39441380D01*
X103862428Y-39441380D01*
X104719571Y-39441380D02*
X104719571Y-38441380D01*
X105148142Y-38536619D02*
X105195761Y-38489000D01*
X105291000Y-38441380D01*
X105529095Y-38441380D01*
X105624333Y-38489000D01*
X105671952Y-38536619D01*
X105719571Y-38631857D01*
X105719571Y-38727095D01*
X105671952Y-38869952D01*
X105100523Y-39441380D01*
X105719571Y-39441380D01*
X106719571Y-39346142D02*
X106671952Y-39393761D01*
X106529095Y-39441380D01*
X106433857Y-39441380D01*
X106291000Y-39393761D01*
X106195761Y-39298523D01*
X106148142Y-39203285D01*
X106100523Y-39012809D01*
X106100523Y-38869952D01*
X106148142Y-38679476D01*
X106195761Y-38584238D01*
X106291000Y-38489000D01*
X106433857Y-38441380D01*
X106529095Y-38441380D01*
X106671952Y-38489000D01*
X106719571Y-38536619D01*
X107100523Y-38536619D02*
X107148142Y-38489000D01*
X107243380Y-38441380D01*
X107481476Y-38441380D01*
X107576714Y-38489000D01*
X107624333Y-38536619D01*
X107671952Y-38631857D01*
X107671952Y-38727095D01*
X107624333Y-38869952D01*
X107052904Y-39441380D01*
X107671952Y-39441380D01*
%TO.C,XA1*%
X133381904Y-75652380D02*
X134048571Y-76652380D01*
X134048571Y-75652380D02*
X133381904Y-76652380D01*
X134381904Y-76366666D02*
X134858095Y-76366666D01*
X134286666Y-76652380D02*
X134620000Y-75652380D01*
X134953333Y-76652380D01*
X135810476Y-76652380D02*
X135239047Y-76652380D01*
X135524761Y-76652380D02*
X135524761Y-75652380D01*
X135429523Y-75795238D01*
X135334285Y-75890476D01*
X135239047Y-75938095D01*
%TO.C,R6*%
X113418880Y-51474666D02*
X112942690Y-51808000D01*
X113418880Y-52046095D02*
X112418880Y-52046095D01*
X112418880Y-51665142D01*
X112466500Y-51569904D01*
X112514119Y-51522285D01*
X112609357Y-51474666D01*
X112752214Y-51474666D01*
X112847452Y-51522285D01*
X112895071Y-51569904D01*
X112942690Y-51665142D01*
X112942690Y-52046095D01*
X112418880Y-50617523D02*
X112418880Y-50808000D01*
X112466500Y-50903238D01*
X112514119Y-50950857D01*
X112656976Y-51046095D01*
X112847452Y-51093714D01*
X113228404Y-51093714D01*
X113323642Y-51046095D01*
X113371261Y-50998476D01*
X113418880Y-50903238D01*
X113418880Y-50712761D01*
X113371261Y-50617523D01*
X113323642Y-50569904D01*
X113228404Y-50522285D01*
X112990309Y-50522285D01*
X112895071Y-50569904D01*
X112847452Y-50617523D01*
X112799833Y-50712761D01*
X112799833Y-50903238D01*
X112847452Y-50998476D01*
X112895071Y-51046095D01*
X112990309Y-51093714D01*
%TO.C,JP1*%
X117530666Y-55332380D02*
X117530666Y-56046666D01*
X117483047Y-56189523D01*
X117387809Y-56284761D01*
X117244952Y-56332380D01*
X117149714Y-56332380D01*
X118006857Y-56332380D02*
X118006857Y-55332380D01*
X118387809Y-55332380D01*
X118483047Y-55380000D01*
X118530666Y-55427619D01*
X118578285Y-55522857D01*
X118578285Y-55665714D01*
X118530666Y-55760952D01*
X118483047Y-55808571D01*
X118387809Y-55856190D01*
X118006857Y-55856190D01*
X119530666Y-56332380D02*
X118959238Y-56332380D01*
X119244952Y-56332380D02*
X119244952Y-55332380D01*
X119149714Y-55475238D01*
X119054476Y-55570476D01*
X118959238Y-55618095D01*
%TO.C,JI2C1*%
X113133380Y-67397380D02*
X113133380Y-68111666D01*
X113085761Y-68254523D01*
X112990523Y-68349761D01*
X112847666Y-68397380D01*
X112752428Y-68397380D01*
X113609571Y-68397380D02*
X113609571Y-67397380D01*
X114038142Y-67492619D02*
X114085761Y-67445000D01*
X114181000Y-67397380D01*
X114419095Y-67397380D01*
X114514333Y-67445000D01*
X114561952Y-67492619D01*
X114609571Y-67587857D01*
X114609571Y-67683095D01*
X114561952Y-67825952D01*
X113990523Y-68397380D01*
X114609571Y-68397380D01*
X115609571Y-68302142D02*
X115561952Y-68349761D01*
X115419095Y-68397380D01*
X115323857Y-68397380D01*
X115181000Y-68349761D01*
X115085761Y-68254523D01*
X115038142Y-68159285D01*
X114990523Y-67968809D01*
X114990523Y-67825952D01*
X115038142Y-67635476D01*
X115085761Y-67540238D01*
X115181000Y-67445000D01*
X115323857Y-67397380D01*
X115419095Y-67397380D01*
X115561952Y-67445000D01*
X115609571Y-67492619D01*
X116561952Y-68397380D02*
X115990523Y-68397380D01*
X116276238Y-68397380D02*
X116276238Y-67397380D01*
X116181000Y-67540238D01*
X116085761Y-67635476D01*
X115990523Y-67683095D01*
%TO.C,C2*%
X117959142Y-51982666D02*
X118006761Y-52030285D01*
X118054380Y-52173142D01*
X118054380Y-52268380D01*
X118006761Y-52411238D01*
X117911523Y-52506476D01*
X117816285Y-52554095D01*
X117625809Y-52601714D01*
X117482952Y-52601714D01*
X117292476Y-52554095D01*
X117197238Y-52506476D01*
X117102000Y-52411238D01*
X117054380Y-52268380D01*
X117054380Y-52173142D01*
X117102000Y-52030285D01*
X117149619Y-51982666D01*
X117149619Y-51601714D02*
X117102000Y-51554095D01*
X117054380Y-51458857D01*
X117054380Y-51220761D01*
X117102000Y-51125523D01*
X117149619Y-51077904D01*
X117244857Y-51030285D01*
X117340095Y-51030285D01*
X117482952Y-51077904D01*
X118054380Y-51649333D01*
X118054380Y-51030285D01*
%TO.C,C1*%
X128504333Y-61208142D02*
X128456714Y-61255761D01*
X128313857Y-61303380D01*
X128218619Y-61303380D01*
X128075761Y-61255761D01*
X127980523Y-61160523D01*
X127932904Y-61065285D01*
X127885285Y-60874809D01*
X127885285Y-60731952D01*
X127932904Y-60541476D01*
X127980523Y-60446238D01*
X128075761Y-60351000D01*
X128218619Y-60303380D01*
X128313857Y-60303380D01*
X128456714Y-60351000D01*
X128504333Y-60398619D01*
X129456714Y-61303380D02*
X128885285Y-61303380D01*
X129171000Y-61303380D02*
X129171000Y-60303380D01*
X129075761Y-60446238D01*
X128980523Y-60541476D01*
X128885285Y-60589095D01*
%TO.C,R5*%
X110069333Y-66238380D02*
X109736000Y-65762190D01*
X109497904Y-66238380D02*
X109497904Y-65238380D01*
X109878857Y-65238380D01*
X109974095Y-65286000D01*
X110021714Y-65333619D01*
X110069333Y-65428857D01*
X110069333Y-65571714D01*
X110021714Y-65666952D01*
X109974095Y-65714571D01*
X109878857Y-65762190D01*
X109497904Y-65762190D01*
X110974095Y-65238380D02*
X110497904Y-65238380D01*
X110450285Y-65714571D01*
X110497904Y-65666952D01*
X110593142Y-65619333D01*
X110831238Y-65619333D01*
X110926476Y-65666952D01*
X110974095Y-65714571D01*
X111021714Y-65809809D01*
X111021714Y-66047904D01*
X110974095Y-66143142D01*
X110926476Y-66190761D01*
X110831238Y-66238380D01*
X110593142Y-66238380D01*
X110497904Y-66190761D01*
X110450285Y-66143142D01*
%TO.C,JP2*%
X117530666Y-59142380D02*
X117530666Y-59856666D01*
X117483047Y-59999523D01*
X117387809Y-60094761D01*
X117244952Y-60142380D01*
X117149714Y-60142380D01*
X118006857Y-60142380D02*
X118006857Y-59142380D01*
X118387809Y-59142380D01*
X118483047Y-59190000D01*
X118530666Y-59237619D01*
X118578285Y-59332857D01*
X118578285Y-59475714D01*
X118530666Y-59570952D01*
X118483047Y-59618571D01*
X118387809Y-59666190D01*
X118006857Y-59666190D01*
X118959238Y-59237619D02*
X119006857Y-59190000D01*
X119102095Y-59142380D01*
X119340190Y-59142380D01*
X119435428Y-59190000D01*
X119483047Y-59237619D01*
X119530666Y-59332857D01*
X119530666Y-59428095D01*
X119483047Y-59570952D01*
X118911619Y-60142380D01*
X119530666Y-60142380D01*
%TO.C,JP3*%
X117530666Y-62952380D02*
X117530666Y-63666666D01*
X117483047Y-63809523D01*
X117387809Y-63904761D01*
X117244952Y-63952380D01*
X117149714Y-63952380D01*
X118006857Y-63952380D02*
X118006857Y-62952380D01*
X118387809Y-62952380D01*
X118483047Y-63000000D01*
X118530666Y-63047619D01*
X118578285Y-63142857D01*
X118578285Y-63285714D01*
X118530666Y-63380952D01*
X118483047Y-63428571D01*
X118387809Y-63476190D01*
X118006857Y-63476190D01*
X118911619Y-62952380D02*
X119530666Y-62952380D01*
X119197333Y-63333333D01*
X119340190Y-63333333D01*
X119435428Y-63380952D01*
X119483047Y-63428571D01*
X119530666Y-63523809D01*
X119530666Y-63761904D01*
X119483047Y-63857142D01*
X119435428Y-63904761D01*
X119340190Y-63952380D01*
X119054476Y-63952380D01*
X118959238Y-63904761D01*
X118911619Y-63857142D01*
%TO.C,C3*%
X188428333Y-39346142D02*
X188380714Y-39393761D01*
X188237857Y-39441380D01*
X188142619Y-39441380D01*
X187999761Y-39393761D01*
X187904523Y-39298523D01*
X187856904Y-39203285D01*
X187809285Y-39012809D01*
X187809285Y-38869952D01*
X187856904Y-38679476D01*
X187904523Y-38584238D01*
X187999761Y-38489000D01*
X188142619Y-38441380D01*
X188237857Y-38441380D01*
X188380714Y-38489000D01*
X188428333Y-38536619D01*
X188761666Y-38441380D02*
X189380714Y-38441380D01*
X189047380Y-38822333D01*
X189190238Y-38822333D01*
X189285476Y-38869952D01*
X189333095Y-38917571D01*
X189380714Y-39012809D01*
X189380714Y-39250904D01*
X189333095Y-39346142D01*
X189285476Y-39393761D01*
X189190238Y-39441380D01*
X188904523Y-39441380D01*
X188809285Y-39393761D01*
X188761666Y-39346142D01*
%TO.C,R2*%
X131516380Y-99734666D02*
X131040190Y-100068000D01*
X131516380Y-100306095D02*
X130516380Y-100306095D01*
X130516380Y-99925142D01*
X130564000Y-99829904D01*
X130611619Y-99782285D01*
X130706857Y-99734666D01*
X130849714Y-99734666D01*
X130944952Y-99782285D01*
X130992571Y-99829904D01*
X131040190Y-99925142D01*
X131040190Y-100306095D01*
X130611619Y-99353714D02*
X130564000Y-99306095D01*
X130516380Y-99210857D01*
X130516380Y-98972761D01*
X130564000Y-98877523D01*
X130611619Y-98829904D01*
X130706857Y-98782285D01*
X130802095Y-98782285D01*
X130944952Y-98829904D01*
X131516380Y-99401333D01*
X131516380Y-98782285D01*
%TO.C,R1*%
X128341380Y-99734666D02*
X127865190Y-100068000D01*
X128341380Y-100306095D02*
X127341380Y-100306095D01*
X127341380Y-99925142D01*
X127389000Y-99829904D01*
X127436619Y-99782285D01*
X127531857Y-99734666D01*
X127674714Y-99734666D01*
X127769952Y-99782285D01*
X127817571Y-99829904D01*
X127865190Y-99925142D01*
X127865190Y-100306095D01*
X128341380Y-98782285D02*
X128341380Y-99353714D01*
X128341380Y-99068000D02*
X127341380Y-99068000D01*
X127484238Y-99163238D01*
X127579476Y-99258476D01*
X127627095Y-99353714D01*
%TO.C,Q5*%
X129444761Y-64047619D02*
X129349523Y-64000000D01*
X129254285Y-63904761D01*
X129111428Y-63761904D01*
X129016190Y-63714285D01*
X128920952Y-63714285D01*
X128968571Y-63952380D02*
X128873333Y-63904761D01*
X128778095Y-63809523D01*
X128730476Y-63619047D01*
X128730476Y-63285714D01*
X128778095Y-63095238D01*
X128873333Y-63000000D01*
X128968571Y-62952380D01*
X129159047Y-62952380D01*
X129254285Y-63000000D01*
X129349523Y-63095238D01*
X129397142Y-63285714D01*
X129397142Y-63619047D01*
X129349523Y-63809523D01*
X129254285Y-63904761D01*
X129159047Y-63952380D01*
X128968571Y-63952380D01*
X130301904Y-62952380D02*
X129825714Y-62952380D01*
X129778095Y-63428571D01*
X129825714Y-63380952D01*
X129920952Y-63333333D01*
X130159047Y-63333333D01*
X130254285Y-63380952D01*
X130301904Y-63428571D01*
X130349523Y-63523809D01*
X130349523Y-63761904D01*
X130301904Y-63857142D01*
X130254285Y-63904761D01*
X130159047Y-63952380D01*
X129920952Y-63952380D01*
X129825714Y-63904761D01*
X129778095Y-63857142D01*
%TO.C,JDC1*%
X113244380Y-39337333D02*
X113958666Y-39337333D01*
X114101523Y-39384952D01*
X114196761Y-39480190D01*
X114244380Y-39623047D01*
X114244380Y-39718285D01*
X114244380Y-38861142D02*
X113244380Y-38861142D01*
X113244380Y-38623047D01*
X113292000Y-38480190D01*
X113387238Y-38384952D01*
X113482476Y-38337333D01*
X113672952Y-38289714D01*
X113815809Y-38289714D01*
X114006285Y-38337333D01*
X114101523Y-38384952D01*
X114196761Y-38480190D01*
X114244380Y-38623047D01*
X114244380Y-38861142D01*
X114149142Y-37289714D02*
X114196761Y-37337333D01*
X114244380Y-37480190D01*
X114244380Y-37575428D01*
X114196761Y-37718285D01*
X114101523Y-37813523D01*
X114006285Y-37861142D01*
X113815809Y-37908761D01*
X113672952Y-37908761D01*
X113482476Y-37861142D01*
X113387238Y-37813523D01*
X113292000Y-37718285D01*
X113244380Y-37575428D01*
X113244380Y-37480190D01*
X113292000Y-37337333D01*
X113339619Y-37289714D01*
X114244380Y-36337333D02*
X114244380Y-36908761D01*
X114244380Y-36623047D02*
X113244380Y-36623047D01*
X113387238Y-36718285D01*
X113482476Y-36813523D01*
X113530095Y-36908761D01*
%TO.C,J8*%
X109902666Y-54316380D02*
X109902666Y-55030666D01*
X109855047Y-55173523D01*
X109759809Y-55268761D01*
X109616952Y-55316380D01*
X109521714Y-55316380D01*
X110521714Y-54744952D02*
X110426476Y-54697333D01*
X110378857Y-54649714D01*
X110331238Y-54554476D01*
X110331238Y-54506857D01*
X110378857Y-54411619D01*
X110426476Y-54364000D01*
X110521714Y-54316380D01*
X110712190Y-54316380D01*
X110807428Y-54364000D01*
X110855047Y-54411619D01*
X110902666Y-54506857D01*
X110902666Y-54554476D01*
X110855047Y-54649714D01*
X110807428Y-54697333D01*
X110712190Y-54744952D01*
X110521714Y-54744952D01*
X110426476Y-54792571D01*
X110378857Y-54840190D01*
X110331238Y-54935428D01*
X110331238Y-55125904D01*
X110378857Y-55221142D01*
X110426476Y-55268761D01*
X110521714Y-55316380D01*
X110712190Y-55316380D01*
X110807428Y-55268761D01*
X110855047Y-55221142D01*
X110902666Y-55125904D01*
X110902666Y-54935428D01*
X110855047Y-54840190D01*
X110807428Y-54792571D01*
X110712190Y-54744952D01*
%TO.C,J7*%
X109648666Y-67270380D02*
X109648666Y-67984666D01*
X109601047Y-68127523D01*
X109505809Y-68222761D01*
X109362952Y-68270380D01*
X109267714Y-68270380D01*
X110029619Y-67270380D02*
X110696285Y-67270380D01*
X110267714Y-68270380D01*
%TO.C,JSPI1*%
X101322380Y-81367380D02*
X101322380Y-82081666D01*
X101274761Y-82224523D01*
X101179523Y-82319761D01*
X101036666Y-82367380D01*
X100941428Y-82367380D01*
X101750952Y-82319761D02*
X101893809Y-82367380D01*
X102131904Y-82367380D01*
X102227142Y-82319761D01*
X102274761Y-82272142D01*
X102322380Y-82176904D01*
X102322380Y-82081666D01*
X102274761Y-81986428D01*
X102227142Y-81938809D01*
X102131904Y-81891190D01*
X101941428Y-81843571D01*
X101846190Y-81795952D01*
X101798571Y-81748333D01*
X101750952Y-81653095D01*
X101750952Y-81557857D01*
X101798571Y-81462619D01*
X101846190Y-81415000D01*
X101941428Y-81367380D01*
X102179523Y-81367380D01*
X102322380Y-81415000D01*
X102750952Y-82367380D02*
X102750952Y-81367380D01*
X103131904Y-81367380D01*
X103227142Y-81415000D01*
X103274761Y-81462619D01*
X103322380Y-81557857D01*
X103322380Y-81700714D01*
X103274761Y-81795952D01*
X103227142Y-81843571D01*
X103131904Y-81891190D01*
X102750952Y-81891190D01*
X103750952Y-82367380D02*
X103750952Y-81367380D01*
X104750952Y-82367380D02*
X104179523Y-82367380D01*
X104465238Y-82367380D02*
X104465238Y-81367380D01*
X104370000Y-81510238D01*
X104274761Y-81605476D01*
X104179523Y-81653095D01*
%TO.C,JS2*%
X180800380Y-71144523D02*
X181514666Y-71144523D01*
X181657523Y-71192142D01*
X181752761Y-71287380D01*
X181800380Y-71430238D01*
X181800380Y-71525476D01*
X181752761Y-70715952D02*
X181800380Y-70573095D01*
X181800380Y-70335000D01*
X181752761Y-70239761D01*
X181705142Y-70192142D01*
X181609904Y-70144523D01*
X181514666Y-70144523D01*
X181419428Y-70192142D01*
X181371809Y-70239761D01*
X181324190Y-70335000D01*
X181276571Y-70525476D01*
X181228952Y-70620714D01*
X181181333Y-70668333D01*
X181086095Y-70715952D01*
X180990857Y-70715952D01*
X180895619Y-70668333D01*
X180848000Y-70620714D01*
X180800380Y-70525476D01*
X180800380Y-70287380D01*
X180848000Y-70144523D01*
X180895619Y-69763571D02*
X180848000Y-69715952D01*
X180800380Y-69620714D01*
X180800380Y-69382619D01*
X180848000Y-69287380D01*
X180895619Y-69239761D01*
X180990857Y-69192142D01*
X181086095Y-69192142D01*
X181228952Y-69239761D01*
X181800380Y-69811190D01*
X181800380Y-69192142D01*
%TO.C,U1*%
X139152380Y-92201904D02*
X139961904Y-92201904D01*
X140057142Y-92154285D01*
X140104761Y-92106666D01*
X140152380Y-92011428D01*
X140152380Y-91820952D01*
X140104761Y-91725714D01*
X140057142Y-91678095D01*
X139961904Y-91630476D01*
X139152380Y-91630476D01*
X140152380Y-90630476D02*
X140152380Y-91201904D01*
X140152380Y-90916190D02*
X139152380Y-90916190D01*
X139295238Y-91011428D01*
X139390476Y-91106666D01*
X139438095Y-91201904D01*
%TO.C,J3*%
X178262380Y-83458333D02*
X178976666Y-83458333D01*
X179119523Y-83505952D01*
X179214761Y-83601190D01*
X179262380Y-83744047D01*
X179262380Y-83839285D01*
X178262380Y-83077380D02*
X178262380Y-82458333D01*
X178643333Y-82791666D01*
X178643333Y-82648809D01*
X178690952Y-82553571D01*
X178738571Y-82505952D01*
X178833809Y-82458333D01*
X179071904Y-82458333D01*
X179167142Y-82505952D01*
X179214761Y-82553571D01*
X179262380Y-82648809D01*
X179262380Y-82934523D01*
X179214761Y-83029761D01*
X179167142Y-83077380D01*
%TO.C,Y1*%
X145192809Y-72239190D02*
X145192809Y-72715380D01*
X144859476Y-71715380D02*
X145192809Y-72239190D01*
X145526142Y-71715380D01*
X146383285Y-72715380D02*
X145811857Y-72715380D01*
X146097571Y-72715380D02*
X146097571Y-71715380D01*
X146002333Y-71858238D01*
X145907095Y-71953476D01*
X145811857Y-72001095D01*
%TO.C,J1*%
X178262380Y-98063333D02*
X178976666Y-98063333D01*
X179119523Y-98110952D01*
X179214761Y-98206190D01*
X179262380Y-98349047D01*
X179262380Y-98444285D01*
X179262380Y-97063333D02*
X179262380Y-97634761D01*
X179262380Y-97349047D02*
X178262380Y-97349047D01*
X178405238Y-97444285D01*
X178500476Y-97539523D01*
X178548095Y-97634761D01*
%TO.C,RQ7*%
X144978380Y-67492476D02*
X144502190Y-67825809D01*
X144978380Y-68063904D02*
X143978380Y-68063904D01*
X143978380Y-67682952D01*
X144026000Y-67587714D01*
X144073619Y-67540095D01*
X144168857Y-67492476D01*
X144311714Y-67492476D01*
X144406952Y-67540095D01*
X144454571Y-67587714D01*
X144502190Y-67682952D01*
X144502190Y-68063904D01*
X145073619Y-66397238D02*
X145026000Y-66492476D01*
X144930761Y-66587714D01*
X144787904Y-66730571D01*
X144740285Y-66825809D01*
X144740285Y-66921047D01*
X144978380Y-66873428D02*
X144930761Y-66968666D01*
X144835523Y-67063904D01*
X144645047Y-67111523D01*
X144311714Y-67111523D01*
X144121238Y-67063904D01*
X144026000Y-66968666D01*
X143978380Y-66873428D01*
X143978380Y-66682952D01*
X144026000Y-66587714D01*
X144121238Y-66492476D01*
X144311714Y-66444857D01*
X144645047Y-66444857D01*
X144835523Y-66492476D01*
X144930761Y-66587714D01*
X144978380Y-66682952D01*
X144978380Y-66873428D01*
X143978380Y-66111523D02*
X143978380Y-65444857D01*
X144978380Y-65873428D01*
%TO.C,Q7*%
X145954761Y-61126619D02*
X145859523Y-61079000D01*
X145764285Y-60983761D01*
X145621428Y-60840904D01*
X145526190Y-60793285D01*
X145430952Y-60793285D01*
X145478571Y-61031380D02*
X145383333Y-60983761D01*
X145288095Y-60888523D01*
X145240476Y-60698047D01*
X145240476Y-60364714D01*
X145288095Y-60174238D01*
X145383333Y-60079000D01*
X145478571Y-60031380D01*
X145669047Y-60031380D01*
X145764285Y-60079000D01*
X145859523Y-60174238D01*
X145907142Y-60364714D01*
X145907142Y-60698047D01*
X145859523Y-60888523D01*
X145764285Y-60983761D01*
X145669047Y-61031380D01*
X145478571Y-61031380D01*
X146240476Y-60031380D02*
X146907142Y-60031380D01*
X146478571Y-61031380D01*
%TO.C,JM1*%
X180800380Y-50838761D02*
X181514666Y-50838761D01*
X181657523Y-50886380D01*
X181752761Y-50981619D01*
X181800380Y-51124476D01*
X181800380Y-51219714D01*
X181800380Y-50362571D02*
X180800380Y-50362571D01*
X181514666Y-50029238D01*
X180800380Y-49695904D01*
X181800380Y-49695904D01*
X181800380Y-48695904D02*
X181800380Y-49267333D01*
X181800380Y-48981619D02*
X180800380Y-48981619D01*
X180943238Y-49076857D01*
X181038476Y-49172095D01*
X181086095Y-49267333D01*
%TO.C,J2*%
X170007380Y-98063333D02*
X170721666Y-98063333D01*
X170864523Y-98110952D01*
X170959761Y-98206190D01*
X171007380Y-98349047D01*
X171007380Y-98444285D01*
X170102619Y-97634761D02*
X170055000Y-97587142D01*
X170007380Y-97491904D01*
X170007380Y-97253809D01*
X170055000Y-97158571D01*
X170102619Y-97110952D01*
X170197857Y-97063333D01*
X170293095Y-97063333D01*
X170435952Y-97110952D01*
X171007380Y-97682380D01*
X171007380Y-97063333D01*
%TO.C,JS1*%
X180800380Y-91591523D02*
X181514666Y-91591523D01*
X181657523Y-91639142D01*
X181752761Y-91734380D01*
X181800380Y-91877238D01*
X181800380Y-91972476D01*
X181752761Y-91162952D02*
X181800380Y-91020095D01*
X181800380Y-90782000D01*
X181752761Y-90686761D01*
X181705142Y-90639142D01*
X181609904Y-90591523D01*
X181514666Y-90591523D01*
X181419428Y-90639142D01*
X181371809Y-90686761D01*
X181324190Y-90782000D01*
X181276571Y-90972476D01*
X181228952Y-91067714D01*
X181181333Y-91115333D01*
X181086095Y-91162952D01*
X180990857Y-91162952D01*
X180895619Y-91115333D01*
X180848000Y-91067714D01*
X180800380Y-90972476D01*
X180800380Y-90734380D01*
X180848000Y-90591523D01*
X181800380Y-89639142D02*
X181800380Y-90210571D01*
X181800380Y-89924857D02*
X180800380Y-89924857D01*
X180943238Y-90020095D01*
X181038476Y-90115333D01*
X181086095Y-90210571D01*
%TO.C,RQ1*%
X133040380Y-53776476D02*
X132564190Y-54109809D01*
X133040380Y-54347904D02*
X132040380Y-54347904D01*
X132040380Y-53966952D01*
X132088000Y-53871714D01*
X132135619Y-53824095D01*
X132230857Y-53776476D01*
X132373714Y-53776476D01*
X132468952Y-53824095D01*
X132516571Y-53871714D01*
X132564190Y-53966952D01*
X132564190Y-54347904D01*
X133135619Y-52681238D02*
X133088000Y-52776476D01*
X132992761Y-52871714D01*
X132849904Y-53014571D01*
X132802285Y-53109809D01*
X132802285Y-53205047D01*
X133040380Y-53157428D02*
X132992761Y-53252666D01*
X132897523Y-53347904D01*
X132707047Y-53395523D01*
X132373714Y-53395523D01*
X132183238Y-53347904D01*
X132088000Y-53252666D01*
X132040380Y-53157428D01*
X132040380Y-52966952D01*
X132088000Y-52871714D01*
X132183238Y-52776476D01*
X132373714Y-52728857D01*
X132707047Y-52728857D01*
X132897523Y-52776476D01*
X132992761Y-52871714D01*
X133040380Y-52966952D01*
X133040380Y-53157428D01*
X133040380Y-51776476D02*
X133040380Y-52347904D01*
X133040380Y-52062190D02*
X132040380Y-52062190D01*
X132183238Y-52157428D01*
X132278476Y-52252666D01*
X132326095Y-52347904D01*
%TO.C,RQ2*%
X140787380Y-53649476D02*
X140311190Y-53982809D01*
X140787380Y-54220904D02*
X139787380Y-54220904D01*
X139787380Y-53839952D01*
X139835000Y-53744714D01*
X139882619Y-53697095D01*
X139977857Y-53649476D01*
X140120714Y-53649476D01*
X140215952Y-53697095D01*
X140263571Y-53744714D01*
X140311190Y-53839952D01*
X140311190Y-54220904D01*
X140882619Y-52554238D02*
X140835000Y-52649476D01*
X140739761Y-52744714D01*
X140596904Y-52887571D01*
X140549285Y-52982809D01*
X140549285Y-53078047D01*
X140787380Y-53030428D02*
X140739761Y-53125666D01*
X140644523Y-53220904D01*
X140454047Y-53268523D01*
X140120714Y-53268523D01*
X139930238Y-53220904D01*
X139835000Y-53125666D01*
X139787380Y-53030428D01*
X139787380Y-52839952D01*
X139835000Y-52744714D01*
X139930238Y-52649476D01*
X140120714Y-52601857D01*
X140454047Y-52601857D01*
X140644523Y-52649476D01*
X140739761Y-52744714D01*
X140787380Y-52839952D01*
X140787380Y-53030428D01*
X139882619Y-52220904D02*
X139835000Y-52173285D01*
X139787380Y-52078047D01*
X139787380Y-51839952D01*
X139835000Y-51744714D01*
X139882619Y-51697095D01*
X139977857Y-51649476D01*
X140073095Y-51649476D01*
X140215952Y-51697095D01*
X140787380Y-52268523D01*
X140787380Y-51649476D01*
%TO.C,Q1*%
X130595619Y-50514238D02*
X130548000Y-50609476D01*
X130452761Y-50704714D01*
X130309904Y-50847571D01*
X130262285Y-50942809D01*
X130262285Y-51038047D01*
X130500380Y-50990428D02*
X130452761Y-51085666D01*
X130357523Y-51180904D01*
X130167047Y-51228523D01*
X129833714Y-51228523D01*
X129643238Y-51180904D01*
X129548000Y-51085666D01*
X129500380Y-50990428D01*
X129500380Y-50799952D01*
X129548000Y-50704714D01*
X129643238Y-50609476D01*
X129833714Y-50561857D01*
X130167047Y-50561857D01*
X130357523Y-50609476D01*
X130452761Y-50704714D01*
X130500380Y-50799952D01*
X130500380Y-50990428D01*
X130500380Y-49609476D02*
X130500380Y-50180904D01*
X130500380Y-49895190D02*
X129500380Y-49895190D01*
X129643238Y-49990428D01*
X129738476Y-50085666D01*
X129786095Y-50180904D01*
%TO.C,Q2*%
X138342619Y-50514238D02*
X138295000Y-50609476D01*
X138199761Y-50704714D01*
X138056904Y-50847571D01*
X138009285Y-50942809D01*
X138009285Y-51038047D01*
X138247380Y-50990428D02*
X138199761Y-51085666D01*
X138104523Y-51180904D01*
X137914047Y-51228523D01*
X137580714Y-51228523D01*
X137390238Y-51180904D01*
X137295000Y-51085666D01*
X137247380Y-50990428D01*
X137247380Y-50799952D01*
X137295000Y-50704714D01*
X137390238Y-50609476D01*
X137580714Y-50561857D01*
X137914047Y-50561857D01*
X138104523Y-50609476D01*
X138199761Y-50704714D01*
X138247380Y-50799952D01*
X138247380Y-50990428D01*
X137342619Y-50180904D02*
X137295000Y-50133285D01*
X137247380Y-50038047D01*
X137247380Y-49799952D01*
X137295000Y-49704714D01*
X137342619Y-49657095D01*
X137437857Y-49609476D01*
X137533095Y-49609476D01*
X137675952Y-49657095D01*
X138247380Y-50228523D01*
X138247380Y-49609476D01*
%TO.C,U2*%
X146772380Y-78866904D02*
X147581904Y-78866904D01*
X147677142Y-78819285D01*
X147724761Y-78771666D01*
X147772380Y-78676428D01*
X147772380Y-78485952D01*
X147724761Y-78390714D01*
X147677142Y-78343095D01*
X147581904Y-78295476D01*
X146772380Y-78295476D01*
X146867619Y-77866904D02*
X146820000Y-77819285D01*
X146772380Y-77724047D01*
X146772380Y-77485952D01*
X146820000Y-77390714D01*
X146867619Y-77343095D01*
X146962857Y-77295476D01*
X147058095Y-77295476D01*
X147200952Y-77343095D01*
X147772380Y-77914523D01*
X147772380Y-77295476D01*
%TO.C,R3*%
X136739333Y-84272380D02*
X136406000Y-83796190D01*
X136167904Y-84272380D02*
X136167904Y-83272380D01*
X136548857Y-83272380D01*
X136644095Y-83320000D01*
X136691714Y-83367619D01*
X136739333Y-83462857D01*
X136739333Y-83605714D01*
X136691714Y-83700952D01*
X136644095Y-83748571D01*
X136548857Y-83796190D01*
X136167904Y-83796190D01*
X137072666Y-83272380D02*
X137691714Y-83272380D01*
X137358380Y-83653333D01*
X137501238Y-83653333D01*
X137596476Y-83700952D01*
X137644095Y-83748571D01*
X137691714Y-83843809D01*
X137691714Y-84081904D01*
X137644095Y-84177142D01*
X137596476Y-84224761D01*
X137501238Y-84272380D01*
X137215523Y-84272380D01*
X137120285Y-84224761D01*
X137072666Y-84177142D01*
%TO.C,R20*%
X151582380Y-92082857D02*
X151106190Y-92416190D01*
X151582380Y-92654285D02*
X150582380Y-92654285D01*
X150582380Y-92273333D01*
X150630000Y-92178095D01*
X150677619Y-92130476D01*
X150772857Y-92082857D01*
X150915714Y-92082857D01*
X151010952Y-92130476D01*
X151058571Y-92178095D01*
X151106190Y-92273333D01*
X151106190Y-92654285D01*
X150677619Y-91701904D02*
X150630000Y-91654285D01*
X150582380Y-91559047D01*
X150582380Y-91320952D01*
X150630000Y-91225714D01*
X150677619Y-91178095D01*
X150772857Y-91130476D01*
X150868095Y-91130476D01*
X151010952Y-91178095D01*
X151582380Y-91749523D01*
X151582380Y-91130476D01*
X150582380Y-90511428D02*
X150582380Y-90416190D01*
X150630000Y-90320952D01*
X150677619Y-90273333D01*
X150772857Y-90225714D01*
X150963333Y-90178095D01*
X151201428Y-90178095D01*
X151391904Y-90225714D01*
X151487142Y-90273333D01*
X151534761Y-90320952D01*
X151582380Y-90416190D01*
X151582380Y-90511428D01*
X151534761Y-90606666D01*
X151487142Y-90654285D01*
X151391904Y-90701904D01*
X151201428Y-90749523D01*
X150963333Y-90749523D01*
X150772857Y-90701904D01*
X150677619Y-90654285D01*
X150630000Y-90606666D01*
X150582380Y-90511428D01*
%TO.C,R21*%
X146169142Y-85288380D02*
X145835809Y-84812190D01*
X145597714Y-85288380D02*
X145597714Y-84288380D01*
X145978666Y-84288380D01*
X146073904Y-84336000D01*
X146121523Y-84383619D01*
X146169142Y-84478857D01*
X146169142Y-84621714D01*
X146121523Y-84716952D01*
X146073904Y-84764571D01*
X145978666Y-84812190D01*
X145597714Y-84812190D01*
X146550095Y-84383619D02*
X146597714Y-84336000D01*
X146692952Y-84288380D01*
X146931047Y-84288380D01*
X147026285Y-84336000D01*
X147073904Y-84383619D01*
X147121523Y-84478857D01*
X147121523Y-84574095D01*
X147073904Y-84716952D01*
X146502476Y-85288380D01*
X147121523Y-85288380D01*
X148073904Y-85288380D02*
X147502476Y-85288380D01*
X147788190Y-85288380D02*
X147788190Y-84288380D01*
X147692952Y-84431238D01*
X147597714Y-84526476D01*
X147502476Y-84574095D01*
%TO.C,R4*%
X148534380Y-91606666D02*
X148058190Y-91940000D01*
X148534380Y-92178095D02*
X147534380Y-92178095D01*
X147534380Y-91797142D01*
X147582000Y-91701904D01*
X147629619Y-91654285D01*
X147724857Y-91606666D01*
X147867714Y-91606666D01*
X147962952Y-91654285D01*
X148010571Y-91701904D01*
X148058190Y-91797142D01*
X148058190Y-92178095D01*
X147867714Y-90749523D02*
X148534380Y-90749523D01*
X147486761Y-90987619D02*
X148201047Y-91225714D01*
X148201047Y-90606666D01*
%TO.C,RQ5*%
X129484380Y-70032476D02*
X129008190Y-70365809D01*
X129484380Y-70603904D02*
X128484380Y-70603904D01*
X128484380Y-70222952D01*
X128532000Y-70127714D01*
X128579619Y-70080095D01*
X128674857Y-70032476D01*
X128817714Y-70032476D01*
X128912952Y-70080095D01*
X128960571Y-70127714D01*
X129008190Y-70222952D01*
X129008190Y-70603904D01*
X129579619Y-68937238D02*
X129532000Y-69032476D01*
X129436761Y-69127714D01*
X129293904Y-69270571D01*
X129246285Y-69365809D01*
X129246285Y-69461047D01*
X129484380Y-69413428D02*
X129436761Y-69508666D01*
X129341523Y-69603904D01*
X129151047Y-69651523D01*
X128817714Y-69651523D01*
X128627238Y-69603904D01*
X128532000Y-69508666D01*
X128484380Y-69413428D01*
X128484380Y-69222952D01*
X128532000Y-69127714D01*
X128627238Y-69032476D01*
X128817714Y-68984857D01*
X129151047Y-68984857D01*
X129341523Y-69032476D01*
X129436761Y-69127714D01*
X129484380Y-69222952D01*
X129484380Y-69413428D01*
X128484380Y-68080095D02*
X128484380Y-68556285D01*
X128960571Y-68603904D01*
X128912952Y-68556285D01*
X128865333Y-68461047D01*
X128865333Y-68222952D01*
X128912952Y-68127714D01*
X128960571Y-68080095D01*
X129055809Y-68032476D01*
X129293904Y-68032476D01*
X129389142Y-68080095D01*
X129436761Y-68127714D01*
X129484380Y-68222952D01*
X129484380Y-68461047D01*
X129436761Y-68556285D01*
X129389142Y-68603904D01*
%TO.C,RQ6*%
X137231380Y-67492476D02*
X136755190Y-67825809D01*
X137231380Y-68063904D02*
X136231380Y-68063904D01*
X136231380Y-67682952D01*
X136279000Y-67587714D01*
X136326619Y-67540095D01*
X136421857Y-67492476D01*
X136564714Y-67492476D01*
X136659952Y-67540095D01*
X136707571Y-67587714D01*
X136755190Y-67682952D01*
X136755190Y-68063904D01*
X137326619Y-66397238D02*
X137279000Y-66492476D01*
X137183761Y-66587714D01*
X137040904Y-66730571D01*
X136993285Y-66825809D01*
X136993285Y-66921047D01*
X137231380Y-66873428D02*
X137183761Y-66968666D01*
X137088523Y-67063904D01*
X136898047Y-67111523D01*
X136564714Y-67111523D01*
X136374238Y-67063904D01*
X136279000Y-66968666D01*
X136231380Y-66873428D01*
X136231380Y-66682952D01*
X136279000Y-66587714D01*
X136374238Y-66492476D01*
X136564714Y-66444857D01*
X136898047Y-66444857D01*
X137088523Y-66492476D01*
X137183761Y-66587714D01*
X137231380Y-66682952D01*
X137231380Y-66873428D01*
X136231380Y-65587714D02*
X136231380Y-65778190D01*
X136279000Y-65873428D01*
X136326619Y-65921047D01*
X136469476Y-66016285D01*
X136659952Y-66063904D01*
X137040904Y-66063904D01*
X137136142Y-66016285D01*
X137183761Y-65968666D01*
X137231380Y-65873428D01*
X137231380Y-65682952D01*
X137183761Y-65587714D01*
X137136142Y-65540095D01*
X137040904Y-65492476D01*
X136802809Y-65492476D01*
X136707571Y-65540095D01*
X136659952Y-65587714D01*
X136612333Y-65682952D01*
X136612333Y-65873428D01*
X136659952Y-65968666D01*
X136707571Y-66016285D01*
X136802809Y-66063904D01*
%TO.C,RQ3*%
X148534380Y-53649476D02*
X148058190Y-53982809D01*
X148534380Y-54220904D02*
X147534380Y-54220904D01*
X147534380Y-53839952D01*
X147582000Y-53744714D01*
X147629619Y-53697095D01*
X147724857Y-53649476D01*
X147867714Y-53649476D01*
X147962952Y-53697095D01*
X148010571Y-53744714D01*
X148058190Y-53839952D01*
X148058190Y-54220904D01*
X148629619Y-52554238D02*
X148582000Y-52649476D01*
X148486761Y-52744714D01*
X148343904Y-52887571D01*
X148296285Y-52982809D01*
X148296285Y-53078047D01*
X148534380Y-53030428D02*
X148486761Y-53125666D01*
X148391523Y-53220904D01*
X148201047Y-53268523D01*
X147867714Y-53268523D01*
X147677238Y-53220904D01*
X147582000Y-53125666D01*
X147534380Y-53030428D01*
X147534380Y-52839952D01*
X147582000Y-52744714D01*
X147677238Y-52649476D01*
X147867714Y-52601857D01*
X148201047Y-52601857D01*
X148391523Y-52649476D01*
X148486761Y-52744714D01*
X148534380Y-52839952D01*
X148534380Y-53030428D01*
X147534380Y-52268523D02*
X147534380Y-51649476D01*
X147915333Y-51982809D01*
X147915333Y-51839952D01*
X147962952Y-51744714D01*
X148010571Y-51697095D01*
X148105809Y-51649476D01*
X148343904Y-51649476D01*
X148439142Y-51697095D01*
X148486761Y-51744714D01*
X148534380Y-51839952D01*
X148534380Y-52125666D01*
X148486761Y-52220904D01*
X148439142Y-52268523D01*
%TO.C,RQ4*%
X156281380Y-53508163D02*
X155805190Y-53841496D01*
X156281380Y-54079591D02*
X155281380Y-54079591D01*
X155281380Y-53698639D01*
X155329000Y-53603401D01*
X155376619Y-53555782D01*
X155471857Y-53508163D01*
X155614714Y-53508163D01*
X155709952Y-53555782D01*
X155757571Y-53603401D01*
X155805190Y-53698639D01*
X155805190Y-54079591D01*
X156376619Y-52412925D02*
X156329000Y-52508163D01*
X156233761Y-52603401D01*
X156090904Y-52746258D01*
X156043285Y-52841496D01*
X156043285Y-52936734D01*
X156281380Y-52889115D02*
X156233761Y-52984353D01*
X156138523Y-53079591D01*
X155948047Y-53127210D01*
X155614714Y-53127210D01*
X155424238Y-53079591D01*
X155329000Y-52984353D01*
X155281380Y-52889115D01*
X155281380Y-52698639D01*
X155329000Y-52603401D01*
X155424238Y-52508163D01*
X155614714Y-52460544D01*
X155948047Y-52460544D01*
X156138523Y-52508163D01*
X156233761Y-52603401D01*
X156281380Y-52698639D01*
X156281380Y-52889115D01*
X155614714Y-51603401D02*
X156281380Y-51603401D01*
X155233761Y-51841496D02*
X155948047Y-52079591D01*
X155948047Y-51460544D01*
%TO.C,QSO1*%
X129071619Y-86185238D02*
X129024000Y-86280476D01*
X128928761Y-86375714D01*
X128785904Y-86518571D01*
X128738285Y-86613809D01*
X128738285Y-86709047D01*
X128976380Y-86661428D02*
X128928761Y-86756666D01*
X128833523Y-86851904D01*
X128643047Y-86899523D01*
X128309714Y-86899523D01*
X128119238Y-86851904D01*
X128024000Y-86756666D01*
X127976380Y-86661428D01*
X127976380Y-86470952D01*
X128024000Y-86375714D01*
X128119238Y-86280476D01*
X128309714Y-86232857D01*
X128643047Y-86232857D01*
X128833523Y-86280476D01*
X128928761Y-86375714D01*
X128976380Y-86470952D01*
X128976380Y-86661428D01*
X128928761Y-85851904D02*
X128976380Y-85709047D01*
X128976380Y-85470952D01*
X128928761Y-85375714D01*
X128881142Y-85328095D01*
X128785904Y-85280476D01*
X128690666Y-85280476D01*
X128595428Y-85328095D01*
X128547809Y-85375714D01*
X128500190Y-85470952D01*
X128452571Y-85661428D01*
X128404952Y-85756666D01*
X128357333Y-85804285D01*
X128262095Y-85851904D01*
X128166857Y-85851904D01*
X128071619Y-85804285D01*
X128024000Y-85756666D01*
X127976380Y-85661428D01*
X127976380Y-85423333D01*
X128024000Y-85280476D01*
X127976380Y-84661428D02*
X127976380Y-84470952D01*
X128024000Y-84375714D01*
X128119238Y-84280476D01*
X128309714Y-84232857D01*
X128643047Y-84232857D01*
X128833523Y-84280476D01*
X128928761Y-84375714D01*
X128976380Y-84470952D01*
X128976380Y-84661428D01*
X128928761Y-84756666D01*
X128833523Y-84851904D01*
X128643047Y-84899523D01*
X128309714Y-84899523D01*
X128119238Y-84851904D01*
X128024000Y-84756666D01*
X127976380Y-84661428D01*
X128976380Y-83280476D02*
X128976380Y-83851904D01*
X128976380Y-83566190D02*
X127976380Y-83566190D01*
X128119238Y-83661428D01*
X128214476Y-83756666D01*
X128262095Y-83851904D01*
%TO.C,QSS1*%
X129000380Y-90082619D02*
X128905142Y-90035000D01*
X128809904Y-89939761D01*
X128667047Y-89796904D01*
X128571809Y-89749285D01*
X128476571Y-89749285D01*
X128524190Y-89987380D02*
X128428952Y-89939761D01*
X128333714Y-89844523D01*
X128286095Y-89654047D01*
X128286095Y-89320714D01*
X128333714Y-89130238D01*
X128428952Y-89035000D01*
X128524190Y-88987380D01*
X128714666Y-88987380D01*
X128809904Y-89035000D01*
X128905142Y-89130238D01*
X128952761Y-89320714D01*
X128952761Y-89654047D01*
X128905142Y-89844523D01*
X128809904Y-89939761D01*
X128714666Y-89987380D01*
X128524190Y-89987380D01*
X129333714Y-89939761D02*
X129476571Y-89987380D01*
X129714666Y-89987380D01*
X129809904Y-89939761D01*
X129857523Y-89892142D01*
X129905142Y-89796904D01*
X129905142Y-89701666D01*
X129857523Y-89606428D01*
X129809904Y-89558809D01*
X129714666Y-89511190D01*
X129524190Y-89463571D01*
X129428952Y-89415952D01*
X129381333Y-89368333D01*
X129333714Y-89273095D01*
X129333714Y-89177857D01*
X129381333Y-89082619D01*
X129428952Y-89035000D01*
X129524190Y-88987380D01*
X129762285Y-88987380D01*
X129905142Y-89035000D01*
X130286095Y-89939761D02*
X130428952Y-89987380D01*
X130667047Y-89987380D01*
X130762285Y-89939761D01*
X130809904Y-89892142D01*
X130857523Y-89796904D01*
X130857523Y-89701666D01*
X130809904Y-89606428D01*
X130762285Y-89558809D01*
X130667047Y-89511190D01*
X130476571Y-89463571D01*
X130381333Y-89415952D01*
X130333714Y-89368333D01*
X130286095Y-89273095D01*
X130286095Y-89177857D01*
X130333714Y-89082619D01*
X130381333Y-89035000D01*
X130476571Y-88987380D01*
X130714666Y-88987380D01*
X130857523Y-89035000D01*
X131809904Y-89987380D02*
X131238476Y-89987380D01*
X131524190Y-89987380D02*
X131524190Y-88987380D01*
X131428952Y-89130238D01*
X131333714Y-89225476D01*
X131238476Y-89273095D01*
%TO.C,Q6*%
X138207761Y-61253619D02*
X138112523Y-61206000D01*
X138017285Y-61110761D01*
X137874428Y-60967904D01*
X137779190Y-60920285D01*
X137683952Y-60920285D01*
X137731571Y-61158380D02*
X137636333Y-61110761D01*
X137541095Y-61015523D01*
X137493476Y-60825047D01*
X137493476Y-60491714D01*
X137541095Y-60301238D01*
X137636333Y-60206000D01*
X137731571Y-60158380D01*
X137922047Y-60158380D01*
X138017285Y-60206000D01*
X138112523Y-60301238D01*
X138160142Y-60491714D01*
X138160142Y-60825047D01*
X138112523Y-61015523D01*
X138017285Y-61110761D01*
X137922047Y-61158380D01*
X137731571Y-61158380D01*
X139017285Y-60158380D02*
X138826809Y-60158380D01*
X138731571Y-60206000D01*
X138683952Y-60253619D01*
X138588714Y-60396476D01*
X138541095Y-60586952D01*
X138541095Y-60967904D01*
X138588714Y-61063142D01*
X138636333Y-61110761D01*
X138731571Y-61158380D01*
X138922047Y-61158380D01*
X139017285Y-61110761D01*
X139064904Y-61063142D01*
X139112523Y-60967904D01*
X139112523Y-60729809D01*
X139064904Y-60634571D01*
X139017285Y-60586952D01*
X138922047Y-60539333D01*
X138731571Y-60539333D01*
X138636333Y-60586952D01*
X138588714Y-60634571D01*
X138541095Y-60729809D01*
%TO.C,Q3*%
X146089619Y-50514238D02*
X146042000Y-50609476D01*
X145946761Y-50704714D01*
X145803904Y-50847571D01*
X145756285Y-50942809D01*
X145756285Y-51038047D01*
X145994380Y-50990428D02*
X145946761Y-51085666D01*
X145851523Y-51180904D01*
X145661047Y-51228523D01*
X145327714Y-51228523D01*
X145137238Y-51180904D01*
X145042000Y-51085666D01*
X144994380Y-50990428D01*
X144994380Y-50799952D01*
X145042000Y-50704714D01*
X145137238Y-50609476D01*
X145327714Y-50561857D01*
X145661047Y-50561857D01*
X145851523Y-50609476D01*
X145946761Y-50704714D01*
X145994380Y-50799952D01*
X145994380Y-50990428D01*
X144994380Y-50228523D02*
X144994380Y-49609476D01*
X145375333Y-49942809D01*
X145375333Y-49799952D01*
X145422952Y-49704714D01*
X145470571Y-49657095D01*
X145565809Y-49609476D01*
X145803904Y-49609476D01*
X145899142Y-49657095D01*
X145946761Y-49704714D01*
X145994380Y-49799952D01*
X145994380Y-50085666D01*
X145946761Y-50180904D01*
X145899142Y-50228523D01*
%TO.C,Q4*%
X153836619Y-50514238D02*
X153789000Y-50609476D01*
X153693761Y-50704714D01*
X153550904Y-50847571D01*
X153503285Y-50942809D01*
X153503285Y-51038047D01*
X153741380Y-50990428D02*
X153693761Y-51085666D01*
X153598523Y-51180904D01*
X153408047Y-51228523D01*
X153074714Y-51228523D01*
X152884238Y-51180904D01*
X152789000Y-51085666D01*
X152741380Y-50990428D01*
X152741380Y-50799952D01*
X152789000Y-50704714D01*
X152884238Y-50609476D01*
X153074714Y-50561857D01*
X153408047Y-50561857D01*
X153598523Y-50609476D01*
X153693761Y-50704714D01*
X153741380Y-50799952D01*
X153741380Y-50990428D01*
X153074714Y-49704714D02*
X153741380Y-49704714D01*
X152693761Y-49942809D02*
X153408047Y-50180904D01*
X153408047Y-49561857D01*
%TO.C,J6*%
X170007380Y-68853333D02*
X170721666Y-68853333D01*
X170864523Y-68900952D01*
X170959761Y-68996190D01*
X171007380Y-69139047D01*
X171007380Y-69234285D01*
X170007380Y-67948571D02*
X170007380Y-68139047D01*
X170055000Y-68234285D01*
X170102619Y-68281904D01*
X170245476Y-68377142D01*
X170435952Y-68424761D01*
X170816904Y-68424761D01*
X170912142Y-68377142D01*
X170959761Y-68329523D01*
X171007380Y-68234285D01*
X171007380Y-68043809D01*
X170959761Y-67948571D01*
X170912142Y-67900952D01*
X170816904Y-67853333D01*
X170578809Y-67853333D01*
X170483571Y-67900952D01*
X170435952Y-67948571D01*
X170388333Y-68043809D01*
X170388333Y-68234285D01*
X170435952Y-68329523D01*
X170483571Y-68377142D01*
X170578809Y-68424761D01*
%TO.C,J5*%
X178262380Y-68853333D02*
X178976666Y-68853333D01*
X179119523Y-68900952D01*
X179214761Y-68996190D01*
X179262380Y-69139047D01*
X179262380Y-69234285D01*
X178262380Y-67900952D02*
X178262380Y-68377142D01*
X178738571Y-68424761D01*
X178690952Y-68377142D01*
X178643333Y-68281904D01*
X178643333Y-68043809D01*
X178690952Y-67948571D01*
X178738571Y-67900952D01*
X178833809Y-67853333D01*
X179071904Y-67853333D01*
X179167142Y-67900952D01*
X179214761Y-67948571D01*
X179262380Y-68043809D01*
X179262380Y-68281904D01*
X179214761Y-68377142D01*
X179167142Y-68424761D01*
%TO.C,J4*%
X170007380Y-83458333D02*
X170721666Y-83458333D01*
X170864523Y-83505952D01*
X170959761Y-83601190D01*
X171007380Y-83744047D01*
X171007380Y-83839285D01*
X170340714Y-82553571D02*
X171007380Y-82553571D01*
X169959761Y-82791666D02*
X170674047Y-83029761D01*
X170674047Y-82410714D01*
%TD*%
M02*
