M48
; DRILL file {KiCad 5.1.10-88a1d61d58~90~ubuntu20.10.1} date Sat Aug 21 12:52:05 2021
; FORMAT={-:-/ absolute / metric / decimal}
; #@! TF.CreationDate,2021-08-21T12:52:05-05:00
; #@! TF.GenerationSoftware,Kicad,Pcbnew,5.1.10-88a1d61d58~90~ubuntu20.10.1
; #@! TF.FileFunction,Plated,1,2,PTH
FMAT,2
METRIC
T1C0.500
T2C0.600
T3C0.800
T4C0.900
T5C0.950
T6C1.000
T7C1.600
T8C2.200
%
G90
G05
T1
X146.963Y-71.247
X148.463Y-71.247
T2
X114.332Y-49.784
X116.332Y-49.784
X184.055Y-38.989
X186.055Y-38.989
T3
X105.664Y-44.577
X110.363Y-57.023
X110.363Y-62.023
X110.664Y-44.577
X111.316Y-48.26
X111.316Y-50.8
X112.014Y-65.024
X114.554Y-65.024
X119.126Y-49.022
X119.126Y-51.522
X127.421Y-58.801
X127.635Y-90.805
X127.889Y-94.742
X127.889Y-102.362
X128.27Y-51.435
X128.27Y-53.975
X128.27Y-56.515
X129.032Y-65.532
X129.032Y-73.152
X129.794Y-82.55
X129.794Y-85.09
X129.794Y-87.63
X129.921Y-58.801
X130.175Y-90.805
X131.064Y-94.742
X131.064Y-102.362
X132.588Y-50.165
X132.588Y-57.785
X132.715Y-90.805
X133.096Y-83.82
X133.35Y-60.96
X133.35Y-63.5
X133.35Y-66.04
X135.89Y-87.63
X135.89Y-95.25
X136.017Y-51.435
X136.017Y-53.975
X136.017Y-56.515
X136.779Y-62.865
X136.779Y-70.485
X138.43Y-87.63
X138.43Y-95.25
X140.335Y-50.165
X140.335Y-57.785
X140.716Y-83.82
X140.97Y-87.63
X140.97Y-95.25
X141.097Y-60.96
X141.097Y-63.5
X141.097Y-66.04
X143.51Y-74.295
X143.51Y-81.915
X143.51Y-84.772
X143.51Y-87.63
X143.51Y-95.25
X143.764Y-51.435
X143.764Y-53.975
X143.764Y-56.515
X144.526Y-62.865
X144.526Y-70.485
X146.05Y-74.295
X146.05Y-81.915
X147.955Y-87.63
X147.955Y-95.25
X148.082Y-50.165
X148.082Y-57.785
X148.59Y-74.295
X148.59Y-81.915
X148.844Y-60.325
X148.844Y-62.865
X148.844Y-65.405
X151.13Y-74.295
X151.13Y-81.915
X151.13Y-84.772
X151.13Y-87.63
X151.13Y-95.25
X151.511Y-51.435
X151.511Y-53.975
X151.511Y-56.515
X155.829Y-50.165
X155.829Y-57.785
T4
X184.148Y-45.489
X184.148Y-48.029
X184.148Y-50.569
X184.148Y-53.109
X184.148Y-65.89
X184.148Y-68.43
X184.148Y-70.97
X184.148Y-73.51
X184.148Y-86.337
X184.148Y-88.877
X184.148Y-91.417
X184.148Y-93.957
X186.688Y-46.759
X186.688Y-49.299
X186.688Y-51.839
X186.688Y-54.379
X186.688Y-67.16
X186.688Y-69.7
X186.688Y-72.24
X186.688Y-74.78
X186.688Y-87.607
X186.688Y-90.147
X186.688Y-92.687
X186.688Y-95.227
T5
X107.315Y-48.975
X107.315Y-51.475
X107.315Y-53.975
X107.315Y-60.024
X107.315Y-62.524
X107.315Y-65.024
X167.005Y-64.77
X167.005Y-67.27
X167.005Y-69.77
X167.005Y-72.27
X167.005Y-79.375
X167.005Y-81.875
X167.005Y-84.375
X167.005Y-86.875
X167.005Y-93.98
X167.005Y-96.48
X167.005Y-98.98
X167.005Y-101.48
X175.26Y-64.77
X175.26Y-67.27
X175.26Y-69.77
X175.26Y-72.27
X175.26Y-79.375
X175.26Y-81.875
X175.26Y-84.375
X175.26Y-86.875
X175.26Y-93.98
X175.26Y-96.48
X175.26Y-98.98
X175.26Y-101.48
T6
X101.6Y-70.485
X101.854Y-41.402
X104.14Y-70.485
X104.394Y-41.402
X106.68Y-70.485
X106.934Y-41.402
X109.22Y-70.485
X109.474Y-41.402
X111.76Y-70.485
X113.157Y-53.975
X113.157Y-57.785
X113.157Y-61.595
X114.3Y-70.485
X115.697Y-53.975
X115.697Y-57.785
X115.697Y-61.595
X118.11Y-65.405
X118.11Y-67.945
X118.11Y-70.485
X118.11Y-73.025
X118.237Y-53.975
X118.237Y-57.785
X118.237Y-61.595
X121.92Y-50.8
X121.92Y-53.34
X121.92Y-55.88
X121.92Y-58.42
X121.92Y-60.96
X121.92Y-63.5
X121.92Y-66.04
X121.92Y-68.58
X121.92Y-71.12
X121.92Y-73.66
X121.92Y-76.2
X121.92Y-78.74
X121.92Y-81.28
X121.92Y-83.82
X121.92Y-86.36
X121.92Y-88.9
X121.92Y-91.44
X121.92Y-93.98
X121.92Y-96.52
X121.92Y-99.06
X121.92Y-101.6
X124.46Y-50.8
X124.46Y-53.34
X124.46Y-55.88
X124.46Y-58.42
X124.46Y-60.96
X124.46Y-63.5
X124.46Y-66.04
X124.46Y-68.58
X124.46Y-71.12
X124.46Y-73.66
X124.46Y-76.2
X124.46Y-78.74
X124.46Y-81.28
X124.46Y-83.82
X124.46Y-86.36
X124.46Y-88.9
X124.46Y-91.44
X124.46Y-93.98
X124.46Y-96.52
X124.46Y-99.06
X124.46Y-101.6
X126.365Y-37.465
X126.365Y-40.005
X126.365Y-42.545
X126.365Y-45.085
X134.62Y-99.06
X134.62Y-101.6
X137.16Y-99.06
X137.16Y-101.6
X139.7Y-99.06
X139.7Y-101.6
X147.32Y-99.06
X147.32Y-101.6
X149.86Y-99.06
X149.86Y-101.6
X151.13Y-70.739
X152.4Y-99.06
X152.4Y-101.6
X154.94Y-63.5
X154.94Y-66.04
X154.94Y-68.58
X154.94Y-71.12
X154.94Y-73.66
X154.94Y-76.2
X154.94Y-78.74
X154.94Y-81.28
X154.94Y-83.82
X154.94Y-86.36
X154.94Y-88.9
X154.94Y-91.44
X154.94Y-93.98
X154.94Y-96.52
X154.94Y-99.06
X154.94Y-101.6
X157.48Y-63.5
X157.48Y-66.04
X157.48Y-68.58
X157.48Y-71.12
X157.48Y-73.66
X157.48Y-76.2
X157.48Y-78.74
X157.48Y-81.28
X157.48Y-83.82
X157.48Y-86.36
X157.48Y-88.9
X157.48Y-91.44
X157.48Y-93.98
X157.48Y-96.52
X157.48Y-99.06
X157.48Y-101.6
T7
X196.088Y-42.164
X196.088Y-57.704
X196.088Y-62.565
X196.088Y-78.105
X196.088Y-83.012
X196.088Y-98.552
T8
X102.108Y-37.338
X102.108Y-103.378
X196.088Y-37.338
X196.088Y-103.378
T6
G00X114.68Y-42.386
M15
G01X114.68Y-44.386
M16
G05
G00X120.38Y-40.386
M15
G01X118.38Y-40.386
M16
G05
G00X120.38Y-46.386
M15
G01X118.38Y-46.386
M16
G05
T0
M30
