%TF.GenerationSoftware,KiCad,Pcbnew,5.1.10-88a1d61d58~89~ubuntu20.10.1*%
%TF.CreationDate,2021-07-14T23:28:35-05:00*%
%TF.ProjectId,nutrient,6e757472-6965-46e7-942e-6b696361645f,rev?*%
%TF.SameCoordinates,Original*%
%TF.FileFunction,Legend,Bot*%
%TF.FilePolarity,Positive*%
%FSLAX46Y46*%
G04 Gerber Fmt 4.6, Leading zero omitted, Abs format (unit mm)*
G04 Created by KiCad (PCBNEW 5.1.10-88a1d61d58~89~ubuntu20.10.1) date 2021-07-14 23:28:35*
%MOMM*%
%LPD*%
G01*
G04 APERTURE LIST*
%ADD10C,0.120000*%
%ADD11C,0.150000*%
G04 APERTURE END LIST*
D10*
%TO.C,BT1*%
X132444000Y-80462000D02*
X132444000Y-74462000D01*
X139844000Y-80462000D02*
X139844000Y-74462000D01*
X134144000Y-72462000D02*
X138144000Y-72462000D01*
X138144000Y-72462000D02*
X139844000Y-74462000D01*
X134144000Y-72462000D02*
X132444000Y-74462000D01*
X138535383Y-80457415D02*
G75*
G03*
X133744000Y-80462000I-2391383J-4504585D01*
G01*
X138536627Y-80455972D02*
G75*
G03*
X139847723Y-80462000I657373J393972D01*
G01*
X132438352Y-80452673D02*
G75*
G03*
X133744000Y-80462000I655648J390673D01*
G01*
D11*
X136929714Y-81090571D02*
X136786857Y-81138190D01*
X136739238Y-81185809D01*
X136691619Y-81281047D01*
X136691619Y-81423904D01*
X136739238Y-81519142D01*
X136786857Y-81566761D01*
X136882095Y-81614380D01*
X137263047Y-81614380D01*
X137263047Y-80614380D01*
X136929714Y-80614380D01*
X136834476Y-80662000D01*
X136786857Y-80709619D01*
X136739238Y-80804857D01*
X136739238Y-80900095D01*
X136786857Y-80995333D01*
X136834476Y-81042952D01*
X136929714Y-81090571D01*
X137263047Y-81090571D01*
X136405904Y-80614380D02*
X135834476Y-80614380D01*
X136120190Y-81614380D02*
X136120190Y-80614380D01*
X134977333Y-81614380D02*
X135548761Y-81614380D01*
X135263047Y-81614380D02*
X135263047Y-80614380D01*
X135358285Y-80757238D01*
X135453523Y-80852476D01*
X135548761Y-80900095D01*
%TD*%
M02*
