M48
; DRILL file {KiCad 5.1.10-88a1d61d58~89~ubuntu20.10.1} date Wed Jul 14 23:28:52 2021
; FORMAT={-:-/ absolute / metric / decimal}
; #@! TF.CreationDate,2021-07-14T23:28:52-05:00
; #@! TF.GenerationSoftware,Kicad,Pcbnew,5.1.10-88a1d61d58~89~ubuntu20.10.1
; #@! TF.FileFunction,Plated,1,2,PTH
FMAT,2
METRIC
T1C0.500
T2C0.600
T3C0.800
T4C0.900
T5C0.950
T6C1.000
T7C1.600
T8C2.200
%
G90
G05
T1
X148.995Y-69.85
X150.495Y-69.85
T2
X184.055Y-38.989
X186.055Y-38.989
T3
X111.76Y-50.165
X116.76Y-50.165
X118.745Y-57.23
X118.745Y-62.23
X127.635Y-90.805
X127.889Y-94.742
X127.889Y-102.362
X128.27Y-51.435
X128.27Y-53.975
X128.27Y-56.515
X128.778Y-65.405
X128.778Y-73.025
X129.54Y-82.55
X129.54Y-85.09
X129.54Y-87.63
X130.175Y-90.805
X131.064Y-94.742
X131.064Y-102.362
X132.588Y-50.165
X132.588Y-57.785
X132.715Y-83.82
X132.715Y-90.805
X133.096Y-60.96
X133.096Y-63.5
X133.096Y-66.04
X135.89Y-87.63
X135.89Y-95.25
X136.017Y-51.435
X136.017Y-53.975
X136.017Y-56.515
X136.525Y-62.865
X136.525Y-70.485
X138.43Y-87.63
X138.43Y-95.25
X140.335Y-50.165
X140.335Y-57.785
X140.335Y-83.82
X140.843Y-60.96
X140.843Y-63.5
X140.843Y-66.04
X140.97Y-87.63
X140.97Y-95.25
X143.51Y-74.295
X143.51Y-81.915
X143.51Y-84.772
X143.51Y-87.63
X143.51Y-95.25
X143.764Y-51.435
X143.764Y-53.975
X143.764Y-56.515
X144.272Y-62.865
X144.272Y-70.485
X146.05Y-74.295
X146.05Y-81.915
X147.955Y-87.63
X147.955Y-95.25
X148.082Y-50.165
X148.082Y-57.785
X148.59Y-60.325
X148.59Y-62.865
X148.59Y-65.405
X148.59Y-74.295
X148.59Y-81.915
X151.13Y-74.295
X151.13Y-81.915
X151.13Y-84.772
X151.13Y-87.63
X151.13Y-95.25
X151.511Y-51.435
X151.511Y-53.975
X151.511Y-56.515
X156.156Y-57.839
X161.544Y-52.451
T4
X184.15Y-45.085
X184.15Y-47.625
X184.15Y-50.165
X184.15Y-52.705
X184.15Y-65.405
X184.15Y-67.945
X184.15Y-70.485
X184.15Y-73.025
X184.15Y-85.725
X184.15Y-88.265
X184.15Y-90.805
X184.15Y-93.345
X186.69Y-46.355
X186.69Y-48.895
X186.69Y-51.435
X186.69Y-53.975
X186.69Y-66.675
X186.69Y-69.215
X186.69Y-71.755
X186.69Y-74.295
X186.69Y-86.995
X186.69Y-89.535
X186.69Y-92.075
X186.69Y-94.615
T5
X108.585Y-48.34
X108.585Y-50.84
X108.585Y-53.34
X108.585Y-59.77
X108.585Y-62.27
X108.585Y-64.77
X167.005Y-63.5
X167.005Y-66.0
X167.005Y-68.5
X167.005Y-71.0
X167.005Y-78.86
X167.005Y-81.36
X167.005Y-83.86
X167.005Y-86.36
X167.005Y-93.98
X167.005Y-96.48
X167.005Y-98.98
X167.005Y-101.48
X175.26Y-63.5
X175.26Y-66.0
X175.26Y-68.5
X175.26Y-71.0
X175.26Y-78.74
X175.26Y-81.24
X175.26Y-83.74
X175.26Y-86.24
X175.26Y-93.98
X175.26Y-96.48
X175.26Y-98.98
X175.26Y-101.48
T6
X101.6Y-70.485
X101.854Y-42.926
X104.14Y-70.485
X104.394Y-42.926
X106.68Y-70.485
X106.934Y-42.926
X109.22Y-70.485
X109.474Y-42.926
X111.76Y-70.485
X113.03Y-53.975
X114.3Y-70.485
X115.57Y-53.975
X118.11Y-53.975
X118.11Y-65.405
X118.11Y-67.945
X118.11Y-70.485
X118.11Y-73.025
X121.92Y-50.8
X121.92Y-53.34
X121.92Y-55.88
X121.92Y-58.42
X121.92Y-60.96
X121.92Y-63.5
X121.92Y-66.04
X121.92Y-68.58
X121.92Y-71.12
X121.92Y-73.66
X121.92Y-76.2
X121.92Y-78.74
X121.92Y-81.28
X121.92Y-83.82
X121.92Y-86.36
X121.92Y-88.9
X121.92Y-91.44
X121.92Y-93.98
X121.92Y-96.52
X121.92Y-99.06
X121.92Y-101.6
X124.46Y-50.8
X124.46Y-53.34
X124.46Y-55.88
X124.46Y-58.42
X124.46Y-60.96
X124.46Y-63.5
X124.46Y-66.04
X124.46Y-68.58
X124.46Y-71.12
X124.46Y-73.66
X124.46Y-76.2
X124.46Y-78.74
X124.46Y-81.28
X124.46Y-83.82
X124.46Y-86.36
X124.46Y-88.9
X124.46Y-91.44
X124.46Y-93.98
X124.46Y-96.52
X124.46Y-99.06
X124.46Y-101.6
X126.365Y-37.465
X126.365Y-40.005
X126.365Y-42.545
X126.365Y-45.085
X134.62Y-99.06
X134.62Y-101.6
X137.16Y-99.06
X137.16Y-101.6
X139.7Y-99.06
X139.7Y-101.6
X147.32Y-99.06
X147.32Y-101.6
X149.86Y-99.06
X149.86Y-101.6
X152.4Y-99.06
X152.4Y-101.6
X154.94Y-63.5
X154.94Y-66.04
X154.94Y-68.58
X154.94Y-71.12
X154.94Y-73.66
X154.94Y-76.2
X154.94Y-78.74
X154.94Y-81.28
X154.94Y-83.82
X154.94Y-86.36
X154.94Y-88.9
X154.94Y-91.44
X154.94Y-93.98
X154.94Y-96.52
X154.94Y-99.06
X154.94Y-101.6
X157.48Y-63.5
X157.48Y-66.04
X157.48Y-68.58
X157.48Y-71.12
X157.48Y-73.66
X157.48Y-76.2
X157.48Y-78.74
X157.48Y-81.28
X157.48Y-83.82
X157.48Y-86.36
X157.48Y-88.9
X157.48Y-91.44
X157.48Y-93.98
X157.48Y-96.52
X157.48Y-99.06
X157.48Y-101.6
T7
X196.09Y-41.76
X196.09Y-57.3
X196.09Y-62.08
X196.09Y-77.62
X196.09Y-82.4
X196.09Y-97.94
T8
X102.108Y-37.338
X102.108Y-103.378
X196.088Y-37.338
X196.088Y-103.378
T6
G00X114.68Y-42.736
M15
G01X114.68Y-44.736
M16
G05
G00X120.38Y-40.736
M15
G01X118.38Y-40.736
M16
G05
G00X120.38Y-46.736
M15
G01X118.38Y-46.736
M16
G05
T0
M30
