%TF.GenerationSoftware,KiCad,Pcbnew,5.1.10-88a1d61d58~89~ubuntu20.10.1*%
%TF.CreationDate,2021-07-14T23:26:31-05:00*%
%TF.ProjectId,nutrient,6e757472-6965-46e7-942e-6b696361645f,rev?*%
%TF.SameCoordinates,Original*%
%TF.FileFunction,Copper,L1,Top*%
%TF.FilePolarity,Positive*%
%FSLAX46Y46*%
G04 Gerber Fmt 4.6, Leading zero omitted, Abs format (unit mm)*
G04 Created by KiCad (PCBNEW 5.1.10-88a1d61d58~89~ubuntu20.10.1) date 2021-07-14 23:26:31*
%MOMM*%
%LPD*%
G01*
G04 APERTURE LIST*
%TA.AperFunction,ComponentPad*%
%ADD10C,1.200000*%
%TD*%
%TA.AperFunction,ComponentPad*%
%ADD11R,1.200000X1.200000*%
%TD*%
%TA.AperFunction,ConnectorPad*%
%ADD12C,3.800000*%
%TD*%
%TA.AperFunction,ComponentPad*%
%ADD13C,2.600000*%
%TD*%
%TA.AperFunction,ComponentPad*%
%ADD14O,1.600000X1.600000*%
%TD*%
%TA.AperFunction,ComponentPad*%
%ADD15C,1.600000*%
%TD*%
%TA.AperFunction,ComponentPad*%
%ADD16C,1.500000*%
%TD*%
%TA.AperFunction,ComponentPad*%
%ADD17R,1.500000X1.500000*%
%TD*%
%TA.AperFunction,ComponentPad*%
%ADD18O,1.700000X1.700000*%
%TD*%
%TA.AperFunction,ComponentPad*%
%ADD19R,1.700000X1.700000*%
%TD*%
%TA.AperFunction,ComponentPad*%
%ADD20R,3.500000X3.500000*%
%TD*%
%TA.AperFunction,ComponentPad*%
%ADD21O,1.950000X1.700000*%
%TD*%
%TA.AperFunction,ComponentPad*%
%ADD22C,3.000000*%
%TD*%
%TA.AperFunction,ComponentPad*%
%ADD23R,1.600000X1.600000*%
%TD*%
%TA.AperFunction,ComponentPad*%
%ADD24C,1.000000*%
%TD*%
%TA.AperFunction,Conductor*%
%ADD25C,0.250000*%
%TD*%
G04 APERTURE END LIST*
D10*
%TO.P,C3,2*%
%TO.N,/VIN1*%
X184055000Y-38989000D03*
D11*
%TO.P,C3,1*%
%TO.N,GND*%
X186055000Y-38989000D03*
%TD*%
D12*
%TO.P,H4,1*%
%TO.N,N/C*%
X196088000Y-37338000D03*
D13*
X196088000Y-37338000D03*
%TD*%
D12*
%TO.P,H3,1*%
%TO.N,N/C*%
X102108000Y-37338000D03*
D13*
X102108000Y-37338000D03*
%TD*%
D12*
%TO.P,H2,1*%
%TO.N,N/C*%
X196088000Y-103378000D03*
D13*
X196088000Y-103378000D03*
%TD*%
D12*
%TO.P,H1,1*%
%TO.N,N/C*%
X102108000Y-103378000D03*
D13*
X102108000Y-103378000D03*
%TD*%
D14*
%TO.P,R2,2*%
%TO.N,/SS1*%
X131064000Y-94742000D03*
D15*
%TO.P,R2,1*%
%TO.N,/5V3*%
X131064000Y-102362000D03*
%TD*%
D14*
%TO.P,R1,2*%
%TO.N,/SS2*%
X127889000Y-94742000D03*
D15*
%TO.P,R1,1*%
%TO.N,/5V3*%
X127889000Y-102362000D03*
%TD*%
%TO.P,C2,2*%
%TO.N,/VIN1*%
X116760000Y-50165000D03*
%TO.P,C2,1*%
%TO.N,GND*%
X111760000Y-50165000D03*
%TD*%
%TO.P,C1,2*%
%TO.N,/5V2*%
X118745000Y-62230000D03*
%TO.P,C1,1*%
%TO.N,GND*%
X118745000Y-57230000D03*
%TD*%
D16*
%TO.P,Q6,2*%
%TO.N,Net-(Q6-Pad2)*%
X133096000Y-63500000D03*
%TO.P,Q6,3*%
%TO.N,GND*%
X133096000Y-60960000D03*
D17*
%TO.P,Q6,1*%
%TO.N,Net-(JM1-Pad3)*%
X133096000Y-66040000D03*
%TD*%
D18*
%TO.P,JI2C1,4*%
%TO.N,/SDA*%
X118110000Y-73025000D03*
%TO.P,JI2C1,3*%
%TO.N,/SCL*%
X118110000Y-70485000D03*
%TO.P,JI2C1,2*%
%TO.N,GND*%
X118110000Y-67945000D03*
D19*
%TO.P,JI2C1,1*%
%TO.N,/5V2*%
X118110000Y-65405000D03*
%TD*%
D20*
%TO.P,JDC1,1*%
%TO.N,/VIN1*%
X119380000Y-46736000D03*
%TO.P,JDC1,2*%
%TO.N,GND*%
%TA.AperFunction,ComponentPad*%
G36*
G01*
X118380000Y-39236000D02*
X120380000Y-39236000D01*
G75*
G02*
X121130000Y-39986000I0J-750000D01*
G01*
X121130000Y-41486000D01*
G75*
G02*
X120380000Y-42236000I-750000J0D01*
G01*
X118380000Y-42236000D01*
G75*
G02*
X117630000Y-41486000I0J750000D01*
G01*
X117630000Y-39986000D01*
G75*
G02*
X118380000Y-39236000I750000J0D01*
G01*
G37*
%TD.AperFunction*%
%TA.AperFunction,ComponentPad*%
G36*
G01*
X113805000Y-41986000D02*
X115555000Y-41986000D01*
G75*
G02*
X116430000Y-42861000I0J-875000D01*
G01*
X116430000Y-44611000D01*
G75*
G02*
X115555000Y-45486000I-875000J0D01*
G01*
X113805000Y-45486000D01*
G75*
G02*
X112930000Y-44611000I0J875000D01*
G01*
X112930000Y-42861000D01*
G75*
G02*
X113805000Y-41986000I875000J0D01*
G01*
G37*
%TD.AperFunction*%
%TD*%
D21*
%TO.P,J8,3*%
%TO.N,/VIN*%
X108585000Y-48340000D03*
%TO.P,J8,2*%
%TO.N,GND*%
X108585000Y-50840000D03*
%TO.P,J8,1*%
%TO.N,/INT0*%
%TA.AperFunction,ComponentPad*%
G36*
G01*
X109310000Y-54190000D02*
X107860000Y-54190000D01*
G75*
G02*
X107610000Y-53940000I0J250000D01*
G01*
X107610000Y-52740000D01*
G75*
G02*
X107860000Y-52490000I250000J0D01*
G01*
X109310000Y-52490000D01*
G75*
G02*
X109560000Y-52740000I0J-250000D01*
G01*
X109560000Y-53940000D01*
G75*
G02*
X109310000Y-54190000I-250000J0D01*
G01*
G37*
%TD.AperFunction*%
%TD*%
%TO.P,J7,3*%
%TO.N,/VIN*%
X108585000Y-59770000D03*
%TO.P,J7,2*%
%TO.N,GND*%
X108585000Y-62270000D03*
%TO.P,J7,1*%
%TO.N,/INT1*%
%TA.AperFunction,ComponentPad*%
G36*
G01*
X109310000Y-65620000D02*
X107860000Y-65620000D01*
G75*
G02*
X107610000Y-65370000I0J250000D01*
G01*
X107610000Y-64170000D01*
G75*
G02*
X107860000Y-63920000I250000J0D01*
G01*
X109310000Y-63920000D01*
G75*
G02*
X109560000Y-64170000I0J-250000D01*
G01*
X109560000Y-65370000D01*
G75*
G02*
X109310000Y-65620000I-250000J0D01*
G01*
G37*
%TD.AperFunction*%
%TD*%
D18*
%TO.P,JI2C3,4*%
%TO.N,/5V2*%
X126365000Y-45085000D03*
%TO.P,JI2C3,3*%
%TO.N,GND*%
X126365000Y-42545000D03*
%TO.P,JI2C3,2*%
%TO.N,/SDA*%
X126365000Y-40005000D03*
D19*
%TO.P,JI2C3,1*%
%TO.N,/SCL*%
X126365000Y-37465000D03*
%TD*%
%TO.P,JSPI1,1*%
%TO.N,/SS2*%
X101600000Y-70485000D03*
D18*
%TO.P,JSPI1,2*%
%TO.N,Net-(JSPI1-Pad2)*%
X104140000Y-70485000D03*
%TO.P,JSPI1,3*%
%TO.N,Net-(JSPI1-Pad3)*%
X106680000Y-70485000D03*
%TO.P,JSPI1,4*%
%TO.N,Net-(JSPI1-Pad4)*%
X109220000Y-70485000D03*
%TO.P,JSPI1,5*%
%TO.N,/5V3*%
X111760000Y-70485000D03*
%TO.P,JSPI1,6*%
%TO.N,GND*%
X114300000Y-70485000D03*
%TD*%
D22*
%TO.P,JS2,SH*%
%TO.N,GND*%
X196090000Y-62080000D03*
D16*
%TO.P,JS2,3*%
%TO.N,Net-(JS2-Pad3)*%
X186690000Y-71755000D03*
%TO.P,JS2,5*%
%TO.N,Net-(JS2-Pad5)*%
X186690000Y-69215000D03*
%TO.P,JS2,4*%
%TO.N,Net-(JS2-Pad4)*%
X184150000Y-70485000D03*
%TO.P,JS2,7*%
%TO.N,Net-(JS2-Pad7)*%
X186690000Y-66675000D03*
D17*
%TO.P,JS2,1*%
%TO.N,/VIN*%
X186690000Y-74295000D03*
D16*
%TO.P,JS2,2*%
%TO.N,Net-(JS2-Pad2)*%
X184150000Y-73025000D03*
D22*
%TO.P,JS2,SH*%
%TO.N,GND*%
X196090000Y-77620000D03*
D16*
%TO.P,JS2,8*%
X184150000Y-65405000D03*
%TO.P,JS2,6*%
%TO.N,Net-(JS2-Pad6)*%
X184150000Y-67945000D03*
%TD*%
D14*
%TO.P,U1,8*%
%TO.N,/5V3*%
X143510000Y-95250000D03*
%TO.P,U1,4*%
%TO.N,/GND3*%
X135890000Y-87630000D03*
%TO.P,U1,7*%
%TO.N,/5V3*%
X140970000Y-95250000D03*
%TO.P,U1,3*%
%TO.N,Net-(U1-Pad3)*%
X138430000Y-87630000D03*
%TO.P,U1,6*%
%TO.N,Net-(JSPI1-Pad2)*%
X138430000Y-95250000D03*
%TO.P,U1,2*%
%TO.N,Net-(QSO1-Pad1)*%
X140970000Y-87630000D03*
%TO.P,U1,5*%
%TO.N,Net-(JSPI1-Pad3)*%
X135890000Y-95250000D03*
D23*
%TO.P,U1,1*%
%TO.N,Net-(QSS1-Pad3)*%
X143510000Y-87630000D03*
%TD*%
D18*
%TO.P,JI2C2,4*%
%TO.N,/5V2*%
X109474000Y-42926000D03*
%TO.P,JI2C2,3*%
%TO.N,GND*%
X106934000Y-42926000D03*
%TO.P,JI2C2,2*%
%TO.N,/SCL*%
X104394000Y-42926000D03*
D19*
%TO.P,JI2C2,1*%
%TO.N,/SDA*%
X101854000Y-42926000D03*
%TD*%
D21*
%TO.P,J3,4*%
%TO.N,Net-(J3-Pad4)*%
X175260000Y-86240000D03*
%TO.P,J3,3*%
%TO.N,Net-(J3-Pad3)*%
X175260000Y-83740000D03*
%TO.P,J3,2*%
%TO.N,Net-(J3-Pad2)*%
X175260000Y-81240000D03*
%TO.P,J3,1*%
%TO.N,Net-(J3-Pad1)*%
%TA.AperFunction,ComponentPad*%
G36*
G01*
X174535000Y-77890000D02*
X175985000Y-77890000D01*
G75*
G02*
X176235000Y-78140000I0J-250000D01*
G01*
X176235000Y-79340000D01*
G75*
G02*
X175985000Y-79590000I-250000J0D01*
G01*
X174535000Y-79590000D01*
G75*
G02*
X174285000Y-79340000I0J250000D01*
G01*
X174285000Y-78140000D01*
G75*
G02*
X174535000Y-77890000I250000J0D01*
G01*
G37*
%TD.AperFunction*%
%TD*%
D24*
%TO.P,Y1,2*%
%TO.N,Net-(U2-Pad2)*%
X148995000Y-69850000D03*
%TO.P,Y1,1*%
%TO.N,Net-(U2-Pad1)*%
X150495000Y-69850000D03*
%TD*%
D21*
%TO.P,J1,4*%
%TO.N,Net-(J1-Pad4)*%
X175260000Y-101480000D03*
%TO.P,J1,3*%
%TO.N,Net-(J1-Pad3)*%
X175260000Y-98980000D03*
%TO.P,J1,2*%
%TO.N,Net-(J1-Pad2)*%
X175260000Y-96480000D03*
%TO.P,J1,1*%
%TO.N,Net-(J1-Pad1)*%
%TA.AperFunction,ComponentPad*%
G36*
G01*
X174535000Y-93130000D02*
X175985000Y-93130000D01*
G75*
G02*
X176235000Y-93380000I0J-250000D01*
G01*
X176235000Y-94580000D01*
G75*
G02*
X175985000Y-94830000I-250000J0D01*
G01*
X174535000Y-94830000D01*
G75*
G02*
X174285000Y-94580000I0J250000D01*
G01*
X174285000Y-93380000D01*
G75*
G02*
X174535000Y-93130000I250000J0D01*
G01*
G37*
%TD.AperFunction*%
%TD*%
D18*
%TO.P,XA1,D43*%
%TO.N,Net-(J3-Pad4)*%
X154940000Y-96520000D03*
%TO.P,XA1,D42*%
%TO.N,Net-(J3-Pad3)*%
X157480000Y-96520000D03*
%TO.P,XA1,D18*%
%TO.N,Net-(XA1-PadD18)*%
X124460000Y-86360000D03*
%TO.P,XA1,D25*%
%TO.N,Net-(XA1-PadD25)*%
X121920000Y-93980000D03*
D19*
%TO.P,XA1,VIN1*%
%TO.N,/VIN1*%
X121920000Y-50800000D03*
D18*
%TO.P,XA1,D33*%
%TO.N,Net-(J5-Pad2)*%
X154940000Y-83820000D03*
%TO.P,XA1,3V2*%
%TO.N,Net-(XA1-Pad3V2)*%
X124460000Y-58420000D03*
%TO.P,XA1,D16*%
%TO.N,Net-(XA1-PadD16)*%
X124460000Y-83820000D03*
%TO.P,XA1,AREF*%
%TO.N,/VIN*%
X124460000Y-60960000D03*
%TO.P,XA1,D10*%
%TO.N,Net-(RQ7-Pad1)*%
X124460000Y-76200000D03*
%TO.P,XA1,D8*%
%TO.N,Net-(RQ5-Pad1)*%
X124460000Y-73660000D03*
%TO.P,XA1,D36*%
%TO.N,Net-(J4-Pad1)*%
X157480000Y-88900000D03*
%TO.P,XA1,D9*%
%TO.N,Net-(RQ6-Pad1)*%
X121920000Y-73660000D03*
%TO.P,XA1,D6*%
%TO.N,Net-(RQ3-Pad1)*%
X124460000Y-71120000D03*
%TO.P,XA1,5V1*%
%TO.N,/5V1*%
X121920000Y-55880000D03*
%TO.P,XA1,D1*%
%TO.N,Net-(XA1-PadD1)*%
X121920000Y-63500000D03*
%TO.P,XA1,D20*%
%TO.N,/SDA*%
X124460000Y-88900000D03*
%TO.P,XA1,D4*%
%TO.N,Net-(RQ1-Pad1)*%
X124460000Y-68580000D03*
%TO.P,XA1,D24*%
%TO.N,Net-(XA1-PadD24)*%
X124460000Y-93980000D03*
%TO.P,XA1,D3*%
%TO.N,/INT1*%
X121920000Y-66040000D03*
%TO.P,XA1,D23*%
%TO.N,/SS2*%
X121920000Y-91440000D03*
%TO.P,XA1,3V1*%
%TO.N,Net-(JP1-Pad1)*%
X121920000Y-58420000D03*
%TO.P,XA1,D7*%
%TO.N,Net-(RQ4-Pad1)*%
X121920000Y-71120000D03*
%TO.P,XA1,D40*%
%TO.N,Net-(J3-Pad1)*%
X157480000Y-93980000D03*
%TO.P,XA1,D17*%
%TO.N,Net-(XA1-PadD17)*%
X121920000Y-83820000D03*
%TO.P,XA1,D49*%
%TO.N,Net-(J1-Pad1)*%
X152400000Y-99060000D03*
%TO.P,XA1,D14*%
%TO.N,Net-(XA1-PadD14)*%
X124460000Y-81280000D03*
%TO.P,XA1,RST2*%
%TO.N,Net-(XA1-PadRST2)*%
X134620000Y-99060000D03*
%TO.P,XA1,D52*%
%TO.N,Net-(XA1-PadD52)*%
X147320000Y-101600000D03*
%TO.P,XA1,D50*%
%TO.N,Net-(J1-Pad4)*%
X149860000Y-101600000D03*
%TO.P,XA1,D38*%
%TO.N,Net-(J4-Pad3)*%
X157480000Y-91440000D03*
%TO.P,XA1,A6*%
%TO.N,Net-(JS1-Pad7)*%
X157480000Y-71120000D03*
%TO.P,XA1,A12*%
%TO.N,Net-(J6-Pad1)*%
X157480000Y-78740000D03*
%TO.P,XA1,D34*%
%TO.N,Net-(J5-Pad3)*%
X157480000Y-86360000D03*
%TO.P,XA1,MOSI*%
%TO.N,Net-(JSPI1-Pad3)*%
X137160000Y-101600000D03*
%TO.P,XA1,SCK*%
%TO.N,Net-(JSPI1-Pad2)*%
X137160000Y-99060000D03*
%TO.P,XA1,D39*%
%TO.N,Net-(J4-Pad4)*%
X154940000Y-91440000D03*
%TO.P,XA1,A13*%
%TO.N,Net-(J6-Pad2)*%
X154940000Y-78740000D03*
%TO.P,XA1,D28*%
%TO.N,Net-(XA1-PadD28)*%
X124460000Y-99060000D03*
%TO.P,XA1,A10*%
%TO.N,Net-(JS1-Pad3)*%
X157480000Y-76200000D03*
%TO.P,XA1,A0*%
%TO.N,Net-(JS2-Pad7)*%
X157480000Y-63500000D03*
%TO.P,XA1,MISO*%
%TO.N,Net-(QSO1-Pad1)*%
X139700000Y-99060000D03*
%TO.P,XA1,D48*%
%TO.N,Net-(J1-Pad2)*%
X152400000Y-101600000D03*
%TO.P,XA1,D19*%
%TO.N,Net-(XA1-PadD19)*%
X121920000Y-86360000D03*
%TO.P,XA1,D29*%
%TO.N,Net-(XA1-PadD29)*%
X121920000Y-99060000D03*
%TO.P,XA1,A15*%
%TO.N,Net-(J6-Pad4)*%
X154940000Y-81280000D03*
%TO.P,XA1,D12*%
%TO.N,Net-(XA1-PadD12)*%
X124460000Y-78740000D03*
%TO.P,XA1,D22*%
%TO.N,/SS1*%
X124460000Y-91440000D03*
%TO.P,XA1,A1*%
%TO.N,Net-(JS2-Pad6)*%
X154940000Y-63500000D03*
%TO.P,XA1,A11*%
%TO.N,Net-(JS1-Pad2)*%
X154940000Y-76200000D03*
%TO.P,XA1,A2*%
%TO.N,Net-(JS2-Pad5)*%
X157480000Y-66040000D03*
%TO.P,XA1,D30*%
%TO.N,Net-(XA1-PadD30)*%
X124460000Y-101600000D03*
%TO.P,XA1,A8*%
%TO.N,Net-(JS1-Pad5)*%
X157480000Y-73660000D03*
%TO.P,XA1,A3*%
%TO.N,Net-(JS2-Pad4)*%
X154940000Y-66040000D03*
%TO.P,XA1,D46*%
%TO.N,Net-(J2-Pad3)*%
X157480000Y-101600000D03*
%TO.P,XA1,D47*%
%TO.N,Net-(J2-Pad4)*%
X154940000Y-101600000D03*
%TO.P,XA1,A9*%
%TO.N,Net-(JS1-Pad4)*%
X154940000Y-73660000D03*
%TO.P,XA1,D44*%
%TO.N,Net-(J2-Pad1)*%
X157480000Y-99060000D03*
%TO.P,XA1,D21*%
%TO.N,/SCL*%
X121920000Y-88900000D03*
%TO.P,XA1,D45*%
%TO.N,Net-(J2-Pad2)*%
X154940000Y-99060000D03*
%TO.P,XA1,D27*%
%TO.N,Net-(XA1-PadD27)*%
X121920000Y-96520000D03*
%TO.P,XA1,GND3*%
%TO.N,/GND3*%
X134620000Y-101600000D03*
%TO.P,XA1,D32*%
%TO.N,Net-(J5-Pad1)*%
X157480000Y-83820000D03*
%TO.P,XA1,A4*%
%TO.N,Net-(JS2-Pad3)*%
X157480000Y-68580000D03*
%TO.P,XA1,GND1*%
%TO.N,GND*%
X121920000Y-53340000D03*
%TO.P,XA1,D5*%
%TO.N,Net-(RQ2-Pad1)*%
X121920000Y-68580000D03*
%TO.P,XA1,D2*%
%TO.N,/INT0*%
X124460000Y-66040000D03*
%TO.P,XA1,VIN2*%
%TO.N,/VIN1*%
X124460000Y-50800000D03*
%TO.P,XA1,GND2*%
%TO.N,GND*%
X124460000Y-53340000D03*
%TO.P,XA1,D53*%
%TO.N,Net-(XA1-PadD53)*%
X147320000Y-99060000D03*
%TO.P,XA1,A14*%
%TO.N,Net-(J6-Pad3)*%
X157480000Y-81280000D03*
%TO.P,XA1,D0*%
%TO.N,Net-(XA1-PadD0)*%
X124460000Y-63500000D03*
%TO.P,XA1,D41*%
%TO.N,Net-(J3-Pad2)*%
X154940000Y-93980000D03*
%TO.P,XA1,5V2*%
%TO.N,/5V2*%
X124460000Y-55880000D03*
%TO.P,XA1,D11*%
%TO.N,Net-(XA1-PadD11)*%
X121920000Y-76200000D03*
%TO.P,XA1,D26*%
%TO.N,Net-(XA1-PadD26)*%
X124460000Y-96520000D03*
%TO.P,XA1,5V3*%
%TO.N,/5V3*%
X139700000Y-101600000D03*
%TO.P,XA1,D15*%
%TO.N,Net-(XA1-PadD15)*%
X121920000Y-81280000D03*
%TO.P,XA1,D51*%
%TO.N,Net-(J1-Pad3)*%
X149860000Y-99060000D03*
%TO.P,XA1,A5*%
%TO.N,Net-(JS2-Pad2)*%
X154940000Y-68580000D03*
%TO.P,XA1,A7*%
%TO.N,Net-(JS1-Pad6)*%
X154940000Y-71120000D03*
%TO.P,XA1,D37*%
%TO.N,Net-(J4-Pad2)*%
X154940000Y-88900000D03*
%TO.P,XA1,D31*%
%TO.N,Net-(XA1-PadD31)*%
X121920000Y-101600000D03*
%TO.P,XA1,D35*%
%TO.N,Net-(J5-Pad4)*%
X154940000Y-86360000D03*
%TO.P,XA1,RST1*%
%TO.N,Net-(XA1-PadRST1)*%
X121920000Y-60960000D03*
%TO.P,XA1,D13*%
%TO.N,Net-(XA1-PadD13)*%
X121920000Y-78740000D03*
%TD*%
D14*
%TO.P,RQ7,2*%
%TO.N,Net-(Q7-Pad2)*%
X144272000Y-62865000D03*
D15*
%TO.P,RQ7,1*%
%TO.N,Net-(RQ7-Pad1)*%
X144272000Y-70485000D03*
%TD*%
D16*
%TO.P,Q7,2*%
%TO.N,Net-(Q7-Pad2)*%
X148590000Y-62865000D03*
%TO.P,Q7,3*%
%TO.N,GND*%
X148590000Y-60325000D03*
D17*
%TO.P,Q7,1*%
%TO.N,Net-(JM1-Pad2)*%
X148590000Y-65405000D03*
%TD*%
D22*
%TO.P,JM1,SH*%
%TO.N,GND*%
X196090000Y-41760000D03*
D16*
%TO.P,JM1,3*%
%TO.N,Net-(JM1-Pad3)*%
X186690000Y-51435000D03*
%TO.P,JM1,5*%
%TO.N,/VIN1*%
X186690000Y-48895000D03*
%TO.P,JM1,4*%
%TO.N,Net-(JM1-Pad4)*%
X184150000Y-50165000D03*
%TO.P,JM1,7*%
%TO.N,Net-(JM1-Pad7)*%
X186690000Y-46355000D03*
D17*
%TO.P,JM1,1*%
%TO.N,Net-(JM1-Pad1)*%
X186690000Y-53975000D03*
D16*
%TO.P,JM1,2*%
%TO.N,Net-(JM1-Pad2)*%
X184150000Y-52705000D03*
D22*
%TO.P,JM1,SH*%
%TO.N,GND*%
X196090000Y-57300000D03*
D16*
%TO.P,JM1,8*%
%TO.N,Net-(JM1-Pad8)*%
X184150000Y-45085000D03*
%TO.P,JM1,6*%
%TO.N,Net-(JM1-Pad6)*%
X184150000Y-47625000D03*
%TD*%
D21*
%TO.P,J2,4*%
%TO.N,Net-(J2-Pad4)*%
X167005000Y-101480000D03*
%TO.P,J2,3*%
%TO.N,Net-(J2-Pad3)*%
X167005000Y-98980000D03*
%TO.P,J2,2*%
%TO.N,Net-(J2-Pad2)*%
X167005000Y-96480000D03*
%TO.P,J2,1*%
%TO.N,Net-(J2-Pad1)*%
%TA.AperFunction,ComponentPad*%
G36*
G01*
X166280000Y-93130000D02*
X167730000Y-93130000D01*
G75*
G02*
X167980000Y-93380000I0J-250000D01*
G01*
X167980000Y-94580000D01*
G75*
G02*
X167730000Y-94830000I-250000J0D01*
G01*
X166280000Y-94830000D01*
G75*
G02*
X166030000Y-94580000I0J250000D01*
G01*
X166030000Y-93380000D01*
G75*
G02*
X166280000Y-93130000I250000J0D01*
G01*
G37*
%TD.AperFunction*%
%TD*%
D18*
%TO.P,JP1,3*%
%TO.N,/5V1*%
X118110000Y-53975000D03*
%TO.P,JP1,2*%
%TO.N,/VIN*%
X115570000Y-53975000D03*
D19*
%TO.P,JP1,1*%
%TO.N,Net-(JP1-Pad1)*%
X113030000Y-53975000D03*
%TD*%
D22*
%TO.P,JS1,SH*%
%TO.N,GND*%
X196090000Y-82400000D03*
D16*
%TO.P,JS1,3*%
%TO.N,Net-(JS1-Pad3)*%
X186690000Y-92075000D03*
%TO.P,JS1,5*%
%TO.N,Net-(JS1-Pad5)*%
X186690000Y-89535000D03*
%TO.P,JS1,4*%
%TO.N,Net-(JS1-Pad4)*%
X184150000Y-90805000D03*
%TO.P,JS1,7*%
%TO.N,Net-(JS1-Pad7)*%
X186690000Y-86995000D03*
D17*
%TO.P,JS1,1*%
%TO.N,/VIN*%
X186690000Y-94615000D03*
D16*
%TO.P,JS1,2*%
%TO.N,Net-(JS1-Pad2)*%
X184150000Y-93345000D03*
D22*
%TO.P,JS1,SH*%
%TO.N,GND*%
X196090000Y-97940000D03*
D16*
%TO.P,JS1,8*%
X184150000Y-85725000D03*
%TO.P,JS1,6*%
%TO.N,Net-(JS1-Pad6)*%
X184150000Y-88265000D03*
%TD*%
D14*
%TO.P,RQ2,2*%
%TO.N,Net-(Q2-Pad2)*%
X132588000Y-50165000D03*
D15*
%TO.P,RQ2,1*%
%TO.N,Net-(RQ2-Pad1)*%
X132588000Y-57785000D03*
%TD*%
D14*
%TO.P,RQ1,2*%
%TO.N,Net-(Q1-Pad2)*%
X140335000Y-50165000D03*
D15*
%TO.P,RQ1,1*%
%TO.N,Net-(RQ1-Pad1)*%
X140335000Y-57785000D03*
%TD*%
D16*
%TO.P,Q2,2*%
%TO.N,Net-(Q2-Pad2)*%
X128270000Y-53975000D03*
%TO.P,Q2,3*%
%TO.N,GND*%
X128270000Y-56515000D03*
D17*
%TO.P,Q2,1*%
%TO.N,Net-(JM1-Pad7)*%
X128270000Y-51435000D03*
%TD*%
D16*
%TO.P,Q1,2*%
%TO.N,Net-(Q1-Pad2)*%
X136017000Y-53975000D03*
%TO.P,Q1,3*%
%TO.N,GND*%
X136017000Y-56515000D03*
D17*
%TO.P,Q1,1*%
%TO.N,Net-(JM1-Pad8)*%
X136017000Y-51435000D03*
%TD*%
D14*
%TO.P,U2,8*%
%TO.N,/5V3*%
X151130000Y-81915000D03*
%TO.P,U2,4*%
%TO.N,GND*%
X143510000Y-74295000D03*
%TO.P,U2,7*%
%TO.N,Net-(U2-Pad7)*%
X148590000Y-81915000D03*
%TO.P,U2,3*%
%TO.N,Net-(BT1-Pad1)*%
X146050000Y-74295000D03*
%TO.P,U2,6*%
%TO.N,/SCL*%
X146050000Y-81915000D03*
%TO.P,U2,2*%
%TO.N,Net-(U2-Pad2)*%
X148590000Y-74295000D03*
%TO.P,U2,5*%
%TO.N,/SDA*%
X143510000Y-81915000D03*
D23*
%TO.P,U2,1*%
%TO.N,Net-(U2-Pad1)*%
X151130000Y-74295000D03*
%TD*%
D14*
%TO.P,R3,2*%
%TO.N,Net-(QSS1-Pad3)*%
X140335000Y-83820000D03*
D15*
%TO.P,R3,1*%
%TO.N,Net-(QSO1-Pad2)*%
X132715000Y-83820000D03*
%TD*%
D14*
%TO.P,R20,2*%
%TO.N,/5V3*%
X151130000Y-87630000D03*
D15*
%TO.P,R20,1*%
%TO.N,/SDA*%
X151130000Y-95250000D03*
%TD*%
D14*
%TO.P,R21,2*%
%TO.N,/SCL*%
X143510000Y-84772500D03*
D15*
%TO.P,R21,1*%
%TO.N,/5V3*%
X151130000Y-84772500D03*
%TD*%
D14*
%TO.P,R4,2*%
%TO.N,/5V3*%
X147955000Y-95250000D03*
D15*
%TO.P,R4,1*%
%TO.N,Net-(QSS1-Pad3)*%
X147955000Y-87630000D03*
%TD*%
D14*
%TO.P,RQ6,2*%
%TO.N,Net-(Q6-Pad2)*%
X128778000Y-65405000D03*
D15*
%TO.P,RQ6,1*%
%TO.N,Net-(RQ6-Pad1)*%
X128778000Y-73025000D03*
%TD*%
D14*
%TO.P,RQ5,2*%
%TO.N,Net-(Q5-Pad2)*%
X136525000Y-62865000D03*
D15*
%TO.P,RQ5,1*%
%TO.N,Net-(RQ5-Pad1)*%
X136525000Y-70485000D03*
%TD*%
D14*
%TO.P,RQ4,2*%
%TO.N,Net-(Q4-Pad2)*%
X148082000Y-50165000D03*
D15*
%TO.P,RQ4,1*%
%TO.N,Net-(RQ4-Pad1)*%
X148082000Y-57785000D03*
%TD*%
%TO.P,RQ3,2*%
%TO.N,Net-(Q3-Pad2)*%
%TA.AperFunction,ComponentPad*%
G36*
G01*
X160978315Y-53016685D02*
X160978315Y-53016685D01*
G75*
G02*
X160978315Y-51885315I565685J565685D01*
G01*
X160978315Y-51885315D01*
G75*
G02*
X162109685Y-51885315I565685J-565685D01*
G01*
X162109685Y-51885315D01*
G75*
G02*
X162109685Y-53016685I-565685J-565685D01*
G01*
X162109685Y-53016685D01*
G75*
G02*
X160978315Y-53016685I-565685J565685D01*
G01*
G37*
%TD.AperFunction*%
%TO.P,RQ3,1*%
%TO.N,Net-(RQ3-Pad1)*%
X156155846Y-57839154D03*
%TD*%
D17*
%TO.P,QSO1,1*%
%TO.N,Net-(QSO1-Pad1)*%
X129540000Y-87630000D03*
D16*
%TO.P,QSO1,3*%
%TO.N,Net-(JSPI1-Pad4)*%
X129540000Y-82550000D03*
%TO.P,QSO1,2*%
%TO.N,Net-(QSO1-Pad2)*%
X129540000Y-85090000D03*
%TD*%
D17*
%TO.P,QSS1,1*%
%TO.N,/GND3*%
X132715000Y-90805000D03*
D16*
%TO.P,QSS1,3*%
%TO.N,Net-(QSS1-Pad3)*%
X127635000Y-90805000D03*
%TO.P,QSS1,2*%
%TO.N,/SS1*%
X130175000Y-90805000D03*
%TD*%
%TO.P,Q5,2*%
%TO.N,Net-(Q5-Pad2)*%
X140843000Y-63500000D03*
%TO.P,Q5,3*%
%TO.N,GND*%
X140843000Y-60960000D03*
D17*
%TO.P,Q5,1*%
%TO.N,Net-(JM1-Pad1)*%
X140843000Y-66040000D03*
%TD*%
D16*
%TO.P,Q4,2*%
%TO.N,Net-(Q4-Pad2)*%
X143764000Y-53975000D03*
%TO.P,Q4,3*%
%TO.N,GND*%
X143764000Y-56515000D03*
D17*
%TO.P,Q4,1*%
%TO.N,Net-(JM1-Pad6)*%
X143764000Y-51435000D03*
%TD*%
D16*
%TO.P,Q3,2*%
%TO.N,Net-(Q3-Pad2)*%
X151511000Y-53975000D03*
%TO.P,Q3,3*%
%TO.N,GND*%
X151511000Y-56515000D03*
D17*
%TO.P,Q3,1*%
%TO.N,Net-(JM1-Pad4)*%
X151511000Y-51435000D03*
%TD*%
D21*
%TO.P,J6,4*%
%TO.N,Net-(J6-Pad4)*%
X167005000Y-71000000D03*
%TO.P,J6,3*%
%TO.N,Net-(J6-Pad3)*%
X167005000Y-68500000D03*
%TO.P,J6,2*%
%TO.N,Net-(J6-Pad2)*%
X167005000Y-66000000D03*
%TO.P,J6,1*%
%TO.N,Net-(J6-Pad1)*%
%TA.AperFunction,ComponentPad*%
G36*
G01*
X166280000Y-62650000D02*
X167730000Y-62650000D01*
G75*
G02*
X167980000Y-62900000I0J-250000D01*
G01*
X167980000Y-64100000D01*
G75*
G02*
X167730000Y-64350000I-250000J0D01*
G01*
X166280000Y-64350000D01*
G75*
G02*
X166030000Y-64100000I0J250000D01*
G01*
X166030000Y-62900000D01*
G75*
G02*
X166280000Y-62650000I250000J0D01*
G01*
G37*
%TD.AperFunction*%
%TD*%
%TO.P,J5,4*%
%TO.N,Net-(J5-Pad4)*%
X175260000Y-71000000D03*
%TO.P,J5,3*%
%TO.N,Net-(J5-Pad3)*%
X175260000Y-68500000D03*
%TO.P,J5,2*%
%TO.N,Net-(J5-Pad2)*%
X175260000Y-66000000D03*
%TO.P,J5,1*%
%TO.N,Net-(J5-Pad1)*%
%TA.AperFunction,ComponentPad*%
G36*
G01*
X174535000Y-62650000D02*
X175985000Y-62650000D01*
G75*
G02*
X176235000Y-62900000I0J-250000D01*
G01*
X176235000Y-64100000D01*
G75*
G02*
X175985000Y-64350000I-250000J0D01*
G01*
X174535000Y-64350000D01*
G75*
G02*
X174285000Y-64100000I0J250000D01*
G01*
X174285000Y-62900000D01*
G75*
G02*
X174535000Y-62650000I250000J0D01*
G01*
G37*
%TD.AperFunction*%
%TD*%
%TO.P,J4,4*%
%TO.N,Net-(J4-Pad4)*%
X167005000Y-86360000D03*
%TO.P,J4,3*%
%TO.N,Net-(J4-Pad3)*%
X167005000Y-83860000D03*
%TO.P,J4,2*%
%TO.N,Net-(J4-Pad2)*%
X167005000Y-81360000D03*
%TO.P,J4,1*%
%TO.N,Net-(J4-Pad1)*%
%TA.AperFunction,ComponentPad*%
G36*
G01*
X166280000Y-78010000D02*
X167730000Y-78010000D01*
G75*
G02*
X167980000Y-78260000I0J-250000D01*
G01*
X167980000Y-79460000D01*
G75*
G02*
X167730000Y-79710000I-250000J0D01*
G01*
X166280000Y-79710000D01*
G75*
G02*
X166030000Y-79460000I0J250000D01*
G01*
X166030000Y-78260000D01*
G75*
G02*
X166280000Y-78010000I250000J0D01*
G01*
G37*
%TD.AperFunction*%
%TD*%
D25*
%TO.N,/5V2*%
X109474000Y-42926000D02*
X109220000Y-43180000D01*
%TD*%
M02*
